<svg width="32" height="32" viewBox="0 0 32 32" fill="none" xmlns="http://www.w3.org/2000/svg">
<rect width="32" height="32" rx="5.12" fill="#FAFAFC"/>
<path opacity="0.4" d="M15.974 24.3332C20.5763 24.3332 24.3073 20.6022 24.3073 15.9998C24.3073 11.3975 20.5763 7.6665 15.974 7.6665C11.3716 7.6665 7.64062 11.3975 7.64062 15.9998C7.64062 20.6022 11.3716 24.3332 15.974 24.3332Z" fill="#6438D6"/>
<path d="M18.7084 15.417H17.2917V12.117C17.2917 11.3503 16.8751 11.192 16.3667 11.767L16.0001 12.1836L12.9001 15.7086C12.4751 16.192 12.6501 16.5836 13.2917 16.5836H14.7084V19.8836C14.7084 20.6503 15.1251 20.8086 15.6334 20.2336L16.0001 19.817L19.1001 16.292C19.5251 15.8086 19.3501 15.417 18.7084 15.417Z" fill="#6438D6"/>
</svg>
