<svg width="32" height="32" viewBox="0 0 32 32" fill="none" xmlns="http://www.w3.org/2000/svg">
<rect width="32" height="32" rx="5.12" fill="#FAFAFC"/>
<path opacity="0.4" d="M16.0003 7.6665C13.817 7.6665 12.042 9.4415 12.042 11.6248C12.042 13.7665 13.717 15.4998 15.9003 15.5748C15.967 15.5665 16.0337 15.5665 16.0837 15.5748C16.1003 15.5748 16.1087 15.5748 16.1253 15.5748C16.1337 15.5748 16.1337 15.5748 16.142 15.5748C18.2753 15.4998 19.9503 13.7665 19.9587 11.6248C19.9587 9.4415 18.1837 7.6665 16.0003 7.6665Z" fill="#6438D6"/>
<path d="M20.2338 17.7919C17.9088 16.2419 14.1171 16.2419 11.7755 17.7919C10.7171 18.5002 10.1338 19.4586 10.1338 20.4836C10.1338 21.5086 10.7171 22.4586 11.7671 23.1586C12.9338 23.9419 14.4671 24.3336 16.0005 24.3336C17.5338 24.3336 19.0671 23.9419 20.2338 23.1586C21.2838 22.4502 21.8671 21.5002 21.8671 20.4669C21.8588 19.4419 21.2838 18.4919 20.2338 17.7919Z" fill="#6438D6"/>
</svg>
