<svg width="244" height="237" viewBox="0 0 244 237" fill="none" xmlns="http://www.w3.org/2000/svg">
<g clip-path="url(#clip0_1183_22984)">
<rect width="244" height="237" rx="24" fill="white"/>
<rect width="244" height="237" rx="24" fill="#F7F7FB"/>
<g opacity="0.6">
<path d="M-80.2858 -0.635233V37.7656H-86.5846V11.4652L-98.2983 37.7656H-102.663L-114.432 11.4652V37.7656H-120.731V-0.635233H-113.935L-100.453 29.4777L-87.0267 -0.635233H-80.2858ZM-76.8692 22.4053C-76.8692 19.3479 -76.243 16.6405 -74.9906 14.2831C-73.7013 11.9256 -71.9701 10.1023 -69.7968 8.81304C-67.5867 7.48696 -65.1555 6.82393 -62.5034 6.82393C-60.1091 6.82393 -58.0279 7.30279 -56.2598 8.26051C-54.4549 9.18139 -53.0183 10.3417 -51.9501 11.7414V7.32121H-45.596V37.7656H-51.9501V33.2349C-53.0183 34.6715 -54.4733 35.8686 -56.3151 36.8263C-58.1568 37.784 -60.2564 38.2629 -62.6139 38.2629C-65.2292 38.2629 -67.6235 37.5999 -69.7968 36.2738C-71.9701 34.9109 -73.7013 33.0323 -74.9906 30.638C-76.243 28.2069 -76.8692 25.4626 -76.8692 22.4053ZM-51.9501 22.5158C-51.9501 20.4162 -52.3921 18.5928 -53.2761 17.0457C-54.1234 15.4987 -55.2468 14.3199 -56.6466 13.5095C-58.0463 12.6992 -59.5566 12.294 -61.1773 12.294C-62.7981 12.294 -64.3083 12.6992 -65.7081 13.5095C-67.1078 14.2831 -68.2497 15.4434 -69.1338 16.9905C-69.981 18.5007 -70.4046 20.3057 -70.4046 22.4053C-70.4046 24.5049 -69.981 26.3467 -69.1338 27.9306C-68.2497 29.5145 -67.1078 30.7301 -65.7081 31.5773C-64.2715 32.3877 -62.7612 32.7929 -61.1773 32.7929C-59.5566 32.7929 -58.0463 32.3877 -56.6466 31.5773C-55.2468 30.7669 -54.1234 29.5882 -53.2761 28.0411C-52.3921 26.4572 -51.9501 24.6154 -51.9501 22.5158ZM-33.7865 11.7414C-32.8656 10.1944 -31.6501 8.99721 -30.1398 8.15C-28.5927 7.26595 -26.7694 6.82393 -24.6698 6.82393V13.3438H-26.2721C-28.7401 13.3438 -30.6187 13.97 -31.9079 15.2224C-33.1603 16.4748 -33.7865 18.6481 -33.7865 21.7422V37.7656H-40.0853V7.32121H-33.7865V11.7414ZM-9.59733 22.571L4.43694 37.7656H-4.07203L-15.3436 24.6707V37.7656H-21.6425V-3.12162H-15.3436V20.6372L-4.29304 7.32121H4.43694L-9.59733 22.571ZM34.0918 21.7975C34.0918 22.9394 34.0182 23.9708 33.8708 24.8917H10.6093C10.7935 27.3228 11.696 29.2751 13.3167 30.7485C14.9375 32.2219 16.9266 32.9586 19.284 32.9586C22.6729 32.9586 25.0672 31.5405 26.4669 28.7041H33.2631C32.3422 31.5036 30.6662 33.8058 28.235 35.6108C25.8407 37.3789 22.8571 38.2629 19.284 38.2629C16.374 38.2629 13.7587 37.6183 11.4381 36.329C9.15431 35.003 7.34938 33.1612 6.02331 30.8037C4.73407 28.4094 4.08945 25.6468 4.08945 22.5158C4.08945 19.3848 4.71565 16.6405 5.96805 14.2831C7.25729 11.8888 9.04381 10.047 11.3276 8.75778C13.6482 7.46855 16.3004 6.82393 19.284 6.82393C22.1572 6.82393 24.7173 7.45013 26.9642 8.70253C29.2112 9.95493 30.9608 11.723 32.2132 14.0068C33.4656 16.2538 34.0918 18.8507 34.0918 21.7975ZM27.5167 19.8084C27.4799 17.4878 26.6511 15.6276 25.0304 14.2278C23.4096 12.8281 21.4021 12.1282 19.0078 12.1282C16.8345 12.1282 14.9743 12.8281 13.4272 14.2278C11.8801 15.5907 10.9592 17.4509 10.6646 19.8084H27.5167ZM44.8765 12.4597V29.3119C44.8765 30.4538 45.1344 31.2826 45.6501 31.7983C46.2026 32.2772 47.1235 32.5166 48.4127 32.5166H52.2804V37.7656H47.3077C44.4714 37.7656 42.2981 37.1026 40.7878 35.7765C39.2776 34.4504 38.5224 32.2956 38.5224 29.3119V12.4597H34.931V7.32121H38.5224V-0.24846H44.8765V7.32121H52.2804V12.4597H44.8765ZM66.3739 38.2629C63.9796 38.2629 61.8247 37.8393 59.9093 36.9921C58.0307 36.108 56.5388 34.9293 55.4338 33.4559C54.3287 31.9456 53.7393 30.2696 53.6657 28.4279H60.1855C60.296 29.7171 60.9038 30.8037 62.0089 31.6878C63.1508 32.535 64.5689 32.9586 66.2634 32.9586C68.0314 32.9586 69.3944 32.6271 70.3521 31.9641C71.3466 31.2642 71.8439 30.3801 71.8439 29.3119C71.8439 28.17 71.2914 27.3228 70.1863 26.7703C69.1181 26.2177 67.4052 25.61 65.0478 24.9469C62.764 24.3207 60.9038 23.7129 59.4672 23.1236C58.0307 22.5342 56.7782 21.6317 55.71 20.4162C54.6786 19.2006 54.1629 17.5983 54.1629 15.6092C54.1629 13.9884 54.6418 12.515 55.5995 11.1889C56.5572 9.82601 57.9201 8.75778 59.6882 7.98424C61.4932 7.2107 63.556 6.82393 65.8766 6.82393C69.3391 6.82393 72.1202 7.70798 74.2198 9.47607C76.3562 11.2073 77.4981 13.5832 77.6455 16.6037H71.3466C71.2361 15.2408 70.6836 14.1542 69.689 13.3438C68.6945 12.5334 67.35 12.1282 65.6556 12.1282C63.998 12.1282 62.7272 12.4413 61.8431 13.0675C60.9591 13.6937 60.517 14.5225 60.517 15.5539C60.517 16.3643 60.8117 17.0457 61.4011 17.5983C61.9905 18.1508 62.7087 18.5928 63.556 18.9243C64.4032 19.219 65.6556 19.6058 67.3132 20.0847C69.5233 20.674 71.3282 21.2818 72.728 21.908C74.1645 22.4974 75.3985 23.3814 76.4299 24.5602C77.4613 25.7389 77.9954 27.3044 78.0322 29.2567C78.0322 30.9879 77.5534 32.535 76.5957 33.8979C75.638 35.2608 74.275 36.329 72.5069 37.1026C70.7757 37.8761 68.7313 38.2629 66.3739 38.2629Z" fill="white"/>
<path d="M84.125 16.5904H92.5333C95.3195 16.5904 97.5781 14.3318 97.5781 11.5456V8.54402C97.5781 6.11641 99.5461 4.14844 101.974 4.14844V4.14844C104.401 4.14844 106.369 6.1164 106.369 8.54402V27.3373C106.369 30.1235 108.628 32.3822 111.414 32.3822H113.312C116.099 32.3822 118.357 30.1235 118.357 27.3373V23.4298C118.357 20.6436 120.616 18.3849 123.402 18.3849H148.194M148.194 18.3849L141.473 12.2888M148.194 18.3849L141.473 24.4811" stroke="white" stroke-width="4.03339"/>
<path d="M178.489 29.9197H162.411L159.648 37.7656H153.073L166.831 -0.690485H174.124L187.882 37.7656H181.252L178.489 29.9197ZM176.721 24.7812L170.478 6.93443L164.179 24.7812H176.721ZM197.401 -3.12162V37.7656H191.102V-3.12162H197.401ZM200.808 22.5158C200.808 19.3848 201.434 16.6405 202.687 14.2831C203.976 11.8888 205.744 10.047 207.991 8.75778C210.238 7.46855 212.816 6.82393 215.726 6.82393C219.41 6.82393 222.449 7.70798 224.843 9.47607C227.274 11.2073 228.913 13.6937 229.761 16.9352H222.965C222.412 15.425 221.528 14.2463 220.312 13.399C219.097 12.5518 217.568 12.1282 215.726 12.1282C213.148 12.1282 211.085 13.0491 209.538 14.8909C208.028 16.6958 207.273 19.2374 207.273 22.5158C207.273 25.7941 208.028 28.3542 209.538 30.196C211.085 32.0377 213.148 32.9586 215.726 32.9586C219.373 32.9586 221.786 31.3563 222.965 28.1516H229.761C228.877 31.2458 227.219 33.7137 224.788 35.5555C222.357 37.3604 219.336 38.2629 215.726 38.2629C212.816 38.2629 210.238 37.6183 207.991 36.329C205.744 35.003 203.976 33.1612 202.687 30.8037C201.434 28.4094 200.808 25.6468 200.808 22.5158ZM249.022 6.82393C251.343 6.82393 253.406 7.32121 255.211 8.31576C257.053 9.31031 258.489 10.7837 259.52 12.736C260.589 14.6883 261.123 17.0457 261.123 19.8084V37.7656H254.879V20.7477C254.879 18.0219 254.198 15.9407 252.835 14.5041C251.472 13.0307 249.612 12.294 247.254 12.294C244.897 12.294 243.018 13.0307 241.619 14.5041C240.256 15.9407 239.574 18.0219 239.574 20.7477V37.7656H233.275V-3.12162H239.574V10.8574C240.642 9.56816 241.987 8.57361 243.608 7.87374C245.265 7.17386 247.07 6.82393 249.022 6.82393ZM294.298 21.7975C294.298 22.9394 294.224 23.9708 294.077 24.8917H270.815C270.999 27.3228 271.902 29.2751 273.522 30.7485C275.143 32.2219 277.132 32.9586 279.49 32.9586C282.879 32.9586 285.273 31.5405 286.673 28.7041H293.469C292.548 31.5036 290.872 33.8058 288.441 35.6108C286.046 37.3789 283.063 38.2629 279.49 38.2629C276.58 38.2629 273.964 37.6183 271.644 36.329C269.36 35.003 267.555 33.1612 266.229 30.8037C264.94 28.4094 264.295 25.6468 264.295 22.5158C264.295 19.3848 264.921 16.6405 266.174 14.2831C267.463 11.8888 269.249 10.047 271.533 8.75778C273.854 7.46855 276.506 6.82393 279.49 6.82393C282.363 6.82393 284.923 7.45013 287.17 8.70253C289.417 9.95493 291.167 11.723 292.419 14.0068C293.671 16.2538 294.298 18.8507 294.298 21.7975ZM287.722 19.8084C287.686 17.4878 286.857 15.6276 285.236 14.2278C283.615 12.8281 281.608 12.1282 279.213 12.1282C277.04 12.1282 275.18 12.8281 273.633 14.2278C272.086 15.5907 271.165 17.4509 270.87 19.8084H287.722ZM334.587 6.82393C336.982 6.82393 339.118 7.32121 340.997 8.31576C342.912 9.31031 344.404 10.7837 345.472 12.736C346.577 14.6883 347.13 17.0457 347.13 19.8084V37.7656H340.886V20.7477C340.886 18.0219 340.205 15.9407 338.842 14.5041C337.479 13.0307 335.619 12.294 333.261 12.294C330.904 12.294 329.025 13.0307 327.625 14.5041C326.263 15.9407 325.581 18.0219 325.581 20.7477V37.7656H319.338V20.7477C319.338 18.0219 318.656 15.9407 317.293 14.5041C315.93 13.0307 314.07 12.294 311.713 12.294C309.355 12.294 307.477 13.0307 306.077 14.5041C304.714 15.9407 304.032 18.0219 304.032 20.7477V37.7656H297.734V7.32121H304.032V10.8021C305.064 9.54974 306.371 8.57361 307.955 7.87374C309.539 7.17386 311.234 6.82393 313.039 6.82393C315.47 6.82393 317.643 7.33962 319.559 8.37101C321.474 9.4024 322.947 10.8942 323.979 12.8465C324.9 11.0047 326.336 9.54974 328.289 8.48152C330.241 7.37646 332.34 6.82393 334.587 6.82393ZM379.788 7.32121L361.112 52.0762H354.592L360.781 37.2683L348.791 7.32121H355.808L364.372 30.5275L373.268 7.32121H379.788Z" fill="white"/>
</g>
<g clip-path="url(#clip1_1183_22984)">
<path fill-rule="evenodd" clip-rule="evenodd" d="M187.043 79.4446V105.115H187.432V-10.7812H187.043V-0.282715L160.983 -0.282716V-10.7812H160.594V-0.282716L134.538 -0.282718V-10.7812H134.149V-0.282718L108.092 -0.282719V-10.7812H107.703V-0.282719L81.647 -0.282721V-10.7812H81.2581V-0.282721L55.2017 -0.282722V-10.7812H54.8128V-0.282722L28.7564 -0.282723V-10.7812H28.3674V-0.282723L4.62695 -0.282724L4.62695 0.106189L28.3674 0.10619L28.3674 26.1636H4.62695L4.62695 26.5525H28.3674L28.3675 52.6096H4.62695L4.62695 52.9985H28.3675V79.0557H4.62695L4.62695 79.4446H28.3675L28.3675 105.115H28.7564L28.7564 79.4446L54.8128 79.4446V105.115H55.2017V79.4446H81.2581V105.115H81.647V79.4446L107.703 79.4446V105.115H108.092V79.4446H134.149V105.115H134.538V79.4446H160.594V105.115H160.983V79.4446H187.043ZM28.7564 79.0557L54.8128 79.0557V52.9985L28.7564 52.9985V79.0557ZM28.7564 52.6096L54.8128 52.6096L54.8128 26.5525L28.7564 26.5525L28.7564 52.6096ZM28.7564 26.1636L54.8128 26.1636V0.106192L28.7564 0.10619L28.7564 26.1636ZM55.2017 26.1636V0.106192L81.2581 0.106193V26.1636H55.2017ZM55.2017 52.6096L55.2017 26.5525H81.2581L81.2581 52.6096H55.2017ZM55.2017 79.0557V52.9985H81.2581V79.0557H55.2017ZM81.647 79.0557H107.703V52.9985L81.647 52.9985V79.0557ZM81.647 52.6096L107.703 52.6096L107.703 26.5525L81.647 26.5525V52.6096ZM81.647 26.1636L107.703 26.1636V0.106194L81.647 0.106193V26.1636ZM108.092 26.1636V0.106194L134.149 0.106195V26.1636H108.092ZM108.092 52.6096V26.5525H134.149V52.6096H108.092ZM108.092 79.0557V52.9985H134.149V79.0557H108.092ZM134.538 79.0557H160.594V52.9985H134.538V79.0557ZM134.538 52.6096H160.594V26.5525H134.538V52.6096ZM134.538 26.1636H160.594V0.106197L134.538 0.106195V26.1636ZM160.983 26.1636V0.106197L187.043 0.106198V26.1636H160.983ZM160.983 52.6096V26.5525H187.043V52.6096H160.983ZM160.983 79.0557V52.9985H187.043V79.0557H160.983Z" fill="url(#paint0_radial_1183_22984)"/>
<g filter="url(#filter0_ddii_1183_22984)">
<rect x="1.4375" y="195.656" width="202.015" height="202.015" rx="101.007" transform="rotate(-75 1.4375 195.656)" fill="url(#paint1_linear_1183_22984)" shape-rendering="crispEdges"/>
</g>
<path d="M146.688 51.8314C133.584 48.878 119.935 49.4151 107.103 53.3892C94.2719 57.3633 82.7081 64.6351 73.5673 74.4781L103.758 102.515C107.992 97.9555 113.349 94.587 119.293 92.7461C125.237 90.9052 131.559 90.6564 137.63 92.0245L146.688 51.8314Z" fill="#AC8DFF"/>
<g filter="url(#filter1_bd_1183_22984)">
<path d="M184.087 180.986C194.822 170.251 202.132 156.574 205.094 141.685C208.056 126.795 206.536 111.362 200.726 97.3366C194.917 83.3111 185.079 71.3232 172.456 62.889C159.833 54.4549 144.993 49.9531 129.812 49.9531C114.631 49.9531 99.7905 54.4549 87.1679 62.889C74.5452 71.3232 64.7071 83.3111 58.8975 97.3366C53.0879 111.362 51.5679 126.795 54.5296 141.685C57.4912 156.574 64.8017 170.251 75.5363 180.986L105.016 151.506C100.112 146.602 96.7725 140.354 95.4194 133.551C94.0664 126.749 94.7608 119.699 97.4149 113.291C100.069 106.884 104.564 101.407 110.33 97.5538C116.097 93.7007 122.876 91.6441 129.812 91.6441C136.747 91.6441 143.527 93.7007 149.294 97.5538C155.06 101.407 159.555 106.884 162.209 113.291C164.863 119.699 165.557 126.749 164.204 133.551C162.851 140.354 159.512 146.602 154.607 151.506L184.087 180.986Z" fill="black" fill-opacity="0.1" shape-rendering="crispEdges"/>
</g>
<g filter="url(#filter2_bii_1183_22984)">
<mask id="path-10-inside-1_1183_22984" fill="white">
<path d="M184.087 180.986C194.822 170.251 202.132 156.574 205.094 141.685C208.056 126.795 206.536 111.362 200.726 97.3366C194.917 83.3111 185.079 71.3232 172.456 62.889C159.833 54.4549 144.993 49.9531 129.812 49.9531C114.631 49.9531 99.7905 54.4549 87.1679 62.889C74.5452 71.3232 64.7071 83.3111 58.8975 97.3366C53.0879 111.362 51.5679 126.795 54.5296 141.685C57.4912 156.574 64.8017 170.251 75.5363 180.986L102.562 153.96C97.1731 148.57 93.5028 141.704 92.0159 134.228C90.5289 126.753 91.2921 119.005 94.2088 111.963C97.1256 104.921 102.065 98.9029 108.402 94.6684C114.739 90.434 122.19 88.1739 129.812 88.1739C137.434 88.1739 144.884 90.434 151.222 94.6684C157.559 98.9029 162.498 104.921 165.415 111.963C168.332 119.005 169.095 126.753 167.608 134.228C166.121 141.704 162.451 148.57 157.061 153.96L184.087 180.986Z"/>
</mask>
<path d="M184.087 180.986C194.822 170.251 202.132 156.574 205.094 141.685C208.056 126.795 206.536 111.362 200.726 97.3366C194.917 83.3111 185.079 71.3232 172.456 62.889C159.833 54.4549 144.993 49.9531 129.812 49.9531C114.631 49.9531 99.7905 54.4549 87.1679 62.889C74.5452 71.3232 64.7071 83.3111 58.8975 97.3366C53.0879 111.362 51.5679 126.795 54.5296 141.685C57.4912 156.574 64.8017 170.251 75.5363 180.986L102.562 153.96C97.1731 148.57 93.5028 141.704 92.0159 134.228C90.5289 126.753 91.2921 119.005 94.2088 111.963C97.1256 104.921 102.065 98.9029 108.402 94.6684C114.739 90.434 122.19 88.1739 129.812 88.1739C137.434 88.1739 144.884 90.434 151.222 94.6684C157.559 98.9029 162.498 104.921 165.415 111.963C168.332 119.005 169.095 126.753 167.608 134.228C166.121 141.704 162.451 148.57 157.061 153.96L184.087 180.986Z" fill="white" fill-opacity="0.51"/>
<path d="M184.087 180.986C194.822 170.251 202.132 156.574 205.094 141.685C208.056 126.795 206.536 111.362 200.726 97.3366C194.917 83.3111 185.079 71.3232 172.456 62.889C159.833 54.4549 144.993 49.9531 129.812 49.9531C114.631 49.9531 99.7905 54.4549 87.1679 62.889C74.5452 71.3232 64.7071 83.3111 58.8975 97.3366C53.0879 111.362 51.5679 126.795 54.5296 141.685C57.4912 156.574 64.8017 170.251 75.5363 180.986L102.562 153.96C97.1731 148.57 93.5028 141.704 92.0159 134.228C90.5289 126.753 91.2921 119.005 94.2088 111.963C97.1256 104.921 102.065 98.9029 108.402 94.6684C114.739 90.434 122.19 88.1739 129.812 88.1739C137.434 88.1739 144.884 90.434 151.222 94.6684C157.559 98.9029 162.498 104.921 165.415 111.963C168.332 119.005 169.095 126.753 167.608 134.228C166.121 141.704 162.451 148.57 157.061 153.96L184.087 180.986Z" stroke="url(#paint2_radial_1183_22984)" stroke-width="1.94322" mask="url(#path-10-inside-1_1183_22984)"/>
</g>
<g filter="url(#filter3_d_1183_22984)">
<path d="M49.1789 126.718C47.0241 126.718 45.2679 124.97 45.3674 122.817C45.8654 112.034 48.4252 101.433 52.9209 91.5921C57.9577 80.567 65.3067 70.7541 74.4693 62.819C83.632 54.8838 94.3941 49.012 106.026 45.6019C116.408 42.558 127.266 41.5389 138.01 42.5864C140.154 42.7955 141.633 44.7833 141.325 46.916C141.018 49.0486 139.039 50.5176 136.894 50.3185C127.259 49.4248 117.529 50.3608 108.221 53.0898C97.6631 56.1851 87.8945 61.5149 79.5777 68.7175C71.2608 75.9202 64.5903 84.8272 60.0184 94.8345C55.9877 103.657 53.6714 113.154 53.1796 122.818C53.0701 124.97 51.3337 126.718 49.1789 126.718Z" fill="url(#paint3_linear_1183_22984)" shape-rendering="crispEdges"/>
</g>
<path d="M140.997 122.295C144.248 128.345 141.944 135.904 135.851 139.177C129.759 142.451 122.185 140.2 118.934 134.149C115.683 128.099 117.987 120.54 124.079 117.267C124.706 116.93 125.348 116.652 125.999 116.43C127.845 115.802 137.673 49.9611 137.673 49.9611C137.673 49.9611 135.476 116.832 137.117 117.96C137.88 118.485 138.589 119.099 139.227 119.797C139.904 120.537 140.501 121.372 140.997 122.295ZM127.27 129.67C128.064 131.148 129.915 131.698 131.403 130.898C132.891 130.099 133.454 128.252 132.66 126.774C131.866 125.296 130.016 124.746 128.527 125.546C127.039 126.345 126.476 128.192 127.27 129.67Z" fill="url(#paint4_linear_1183_22984)" stroke="url(#paint5_linear_1183_22984)" stroke-width="0.97161"/>
<g filter="url(#filter4_df_1183_22984)">
<circle cx="137.585" cy="47.0495" r="4.85805" fill="white"/>
</g>
<g opacity="0.4">
<path d="M131.527 189.521C131.552 190.359 130.893 191.06 130.055 191.065C130.026 191.065 129.996 191.065 129.967 191.065C129.128 191.068 128.463 190.373 128.48 189.535L128.481 189.502C128.498 188.682 129.177 188.033 129.997 188.029C130.817 188.026 131.502 188.668 131.526 189.488L131.527 189.521Z" fill="#AEA1D0"/>
<path d="M69.5881 129.412C68.7499 129.412 68.0684 128.732 68.089 127.894C68.0897 127.865 68.0905 127.835 68.0912 127.806C68.1131 126.968 68.8281 126.323 69.6653 126.366L69.698 126.368C70.5171 126.409 71.1455 127.107 71.1247 127.927C71.104 128.747 70.441 129.412 69.6208 129.412H69.5881Z" fill="#AEA1D0"/>
<path d="M129.724 69.2756C129.724 68.4374 130.404 67.7559 131.242 67.7765C131.271 67.7772 131.301 67.778 131.33 67.7787C132.168 67.8006 132.812 68.5156 132.77 69.3528L132.768 69.3855C132.727 70.2046 132.029 70.833 131.209 70.8122C130.389 70.7915 129.724 70.1285 129.724 69.3083V69.2756Z" fill="#AEA1D0"/>
<path d="M189.86 129.412C190.699 129.412 191.38 130.091 191.359 130.929C191.359 130.959 191.358 130.988 191.357 131.018C191.335 131.856 190.62 132.5 189.783 132.458L189.75 132.456C188.931 132.414 188.303 131.717 188.324 130.897C188.344 130.077 189.007 129.412 189.828 129.412H189.86Z" fill="#AEA1D0"/>
<path d="M101.234 182.37C100.837 183.108 99.9153 183.386 99.1871 182.971C99.1615 182.956 99.1359 182.941 99.1103 182.927C98.3827 182.511 98.1542 181.576 98.5883 180.859L98.6052 180.831C99.0299 180.129 99.9421 179.906 100.654 180.313C101.366 180.72 101.638 181.618 101.249 182.341L101.234 182.37Z" fill="#AEA1D0"/>
<path d="M77.6477 99.3441C76.9217 98.925 76.6713 97.9957 77.1082 97.2802C77.1236 97.2551 77.1389 97.23 77.1543 97.2048C77.5922 96.4901 78.5336 96.2896 79.2374 96.745L79.2649 96.7628C79.9535 97.2083 80.1489 98.1268 79.7209 98.8265C79.2929 99.5262 78.3863 99.7706 77.676 99.3605L77.6477 99.3441Z" fill="#AEA1D0"/>
<path d="M159.795 77.3328C160.214 76.6069 161.144 76.3565 161.859 76.7934C161.884 76.8087 161.909 76.8241 161.934 76.8395C162.649 77.2774 162.85 78.2188 162.394 78.9226L162.376 78.95C161.931 79.6387 161.012 79.834 160.313 79.406C159.613 78.9781 159.369 78.0715 159.779 77.3611L159.795 77.3328Z" fill="#AEA1D0"/>
<path d="M181.806 159.48C182.532 159.899 182.783 160.829 182.346 161.544C182.331 161.569 182.315 161.594 182.3 161.62C181.862 162.334 180.92 162.535 180.217 162.079L180.189 162.062C179.501 161.616 179.305 160.698 179.733 159.998C180.161 159.298 181.068 159.054 181.778 159.464L181.806 159.48Z" fill="#AEA1D0"/>
<path d="M78.5716 161.028C77.8585 161.469 76.9215 161.249 76.4984 160.525C76.4836 160.5 76.4687 160.474 76.4539 160.449C76.0319 159.725 76.3015 158.801 77.0359 158.397L77.0646 158.381C77.7832 157.986 78.6846 158.249 79.098 158.957C79.5114 159.665 79.2971 160.58 78.5994 161.011L78.5716 161.028Z" fill="#AEA1D0"/>
<path d="M99.658 77.3328C99.2389 76.6069 99.4868 75.6768 100.223 75.2757C100.249 75.2616 100.275 75.2475 100.3 75.2335C101.037 74.8334 101.953 75.1305 102.334 75.8768L102.349 75.9059C102.723 76.6361 102.433 77.5291 101.712 77.9211C100.992 78.3131 100.084 78.0715 99.6744 77.3611L99.658 77.3328Z" fill="#AEA1D0"/>
<path d="M181.805 99.3441C182.531 98.925 183.461 99.1729 183.863 99.9089C183.877 99.9348 183.891 99.9607 183.905 99.9866C184.305 100.723 184.008 101.639 183.262 102.02L183.232 102.035C182.502 102.409 181.609 102.119 181.217 101.398C180.825 100.678 181.067 99.7706 181.777 99.3605L181.805 99.3441Z" fill="#AEA1D0"/>
<path d="M159.794 181.492C160.213 182.218 159.965 183.148 159.229 183.549C159.203 183.563 159.178 183.577 159.152 183.591C158.415 183.991 157.5 183.694 157.118 182.948L157.103 182.918C156.729 182.188 157.019 181.295 157.74 180.903C158.46 180.511 159.368 180.753 159.778 181.463L159.794 181.492Z" fill="#AEA1D0"/>
</g>
<g opacity="0.6" filter="url(#filter5_f_1183_22984)">
<ellipse cx="40.0587" cy="95.6162" rx="42.3517" ry="26.1319" fill="#D9D9D9"/>
<ellipse cx="40.0587" cy="95.6162" rx="42.3517" ry="26.1319" fill="#BDA6F9"/>
</g>
</g>
<rect x="-46" y="41" width="547" height="150" rx="28" fill="url(#paint6_linear_1183_22984)"/>
<path d="M80.268 163.983V166.431H83.148V167.547H80.268V170.103H83.508V171.219H78.9V162.867H83.508V163.983H80.268ZM87.425 167.871L89.561 171.219H88.013L86.585 168.975L85.241 171.219H83.813L85.949 167.967L83.813 164.607H85.361L86.789 166.851L88.133 164.607H89.561L87.425 167.871ZM96.0413 167.751C96.0413 167.999 96.0253 168.223 95.9933 168.423H90.9413C90.9813 168.951 91.1773 169.375 91.5293 169.695C91.8813 170.015 92.3133 170.175 92.8253 170.175C93.5613 170.175 94.0813 169.867 94.3853 169.251H95.8613C95.6613 169.859 95.2973 170.359 94.7693 170.751C94.2493 171.135 93.6013 171.327 92.8253 171.327C92.1933 171.327 91.6253 171.187 91.1213 170.907C90.6253 170.619 90.2333 170.219 89.9453 169.707C89.6653 169.187 89.5253 168.587 89.5253 167.907C89.5253 167.227 89.6613 166.631 89.9333 166.119C90.2133 165.599 90.6013 165.199 91.0973 164.919C91.6013 164.639 92.1773 164.499 92.8253 164.499C93.4493 164.499 94.0053 164.635 94.4933 164.907C94.9813 165.179 95.3613 165.563 95.6333 166.059C95.9053 166.547 96.0413 167.111 96.0413 167.751ZM94.6133 167.319C94.6053 166.815 94.4253 166.411 94.0733 166.107C93.7213 165.803 93.2853 165.651 92.7653 165.651C92.2933 165.651 91.8893 165.803 91.5533 166.107C91.2173 166.403 91.0173 166.807 90.9533 167.319H94.6133ZM96.3315 167.907C96.3315 167.227 96.4675 166.631 96.7395 166.119C97.0195 165.599 97.4035 165.199 97.8915 164.919C98.3795 164.639 98.9395 164.499 99.5715 164.499C100.372 164.499 101.032 164.691 101.552 165.075C102.08 165.451 102.436 165.991 102.62 166.695H101.144C101.024 166.367 100.832 166.111 100.568 165.927C100.304 165.743 99.9715 165.651 99.5715 165.651C99.0115 165.651 98.5635 165.851 98.2275 166.251C97.8995 166.643 97.7355 167.195 97.7355 167.907C97.7355 168.619 97.8995 169.175 98.2275 169.575C98.5635 169.975 99.0115 170.175 99.5715 170.175C100.364 170.175 100.888 169.827 101.144 169.131H102.62C102.428 169.803 102.068 170.339 101.54 170.739C101.012 171.131 100.356 171.327 99.5715 171.327C98.9395 171.327 98.3795 171.187 97.8915 170.907C97.4035 170.619 97.0195 170.219 96.7395 169.707C96.4675 169.187 96.3315 168.587 96.3315 167.907ZM109.371 164.607V171.219H108.003V170.439C107.787 170.711 107.503 170.927 107.151 171.087C106.807 171.239 106.439 171.315 106.047 171.315C105.527 171.315 105.059 171.207 104.643 170.991C104.235 170.775 103.911 170.455 103.671 170.031C103.439 169.607 103.323 169.095 103.323 168.495V164.607H104.679V168.291C104.679 168.883 104.827 169.339 105.123 169.659C105.419 169.971 105.823 170.127 106.335 170.127C106.847 170.127 107.251 169.971 107.547 169.659C107.851 169.339 108.003 168.883 108.003 168.291V164.607H109.371ZM112.172 165.723V169.383C112.172 169.631 112.228 169.811 112.34 169.923C112.46 170.027 112.66 170.079 112.94 170.079H113.78V171.219H112.7C112.084 171.219 111.612 171.075 111.284 170.787C110.956 170.499 110.792 170.031 110.792 169.383V165.723H110.012V164.607H110.792V162.963H112.172V164.607H113.78V165.723H112.172ZM115.137 163.731C114.889 163.731 114.681 163.647 114.513 163.479C114.345 163.311 114.261 163.103 114.261 162.855C114.261 162.607 114.345 162.399 114.513 162.231C114.681 162.063 114.889 161.979 115.137 161.979C115.377 161.979 115.581 162.063 115.749 162.231C115.917 162.399 116.001 162.607 116.001 162.855C116.001 163.103 115.917 163.311 115.749 163.479C115.581 163.647 115.377 163.731 115.137 163.731ZM115.809 164.607V171.219H114.441V164.607H115.809ZM119.873 171.327C119.249 171.327 118.685 171.187 118.181 170.907C117.677 170.619 117.281 170.219 116.993 169.707C116.705 169.187 116.561 168.587 116.561 167.907C116.561 167.235 116.709 166.639 117.005 166.119C117.301 165.599 117.705 165.199 118.217 164.919C118.729 164.639 119.301 164.499 119.933 164.499C120.565 164.499 121.137 164.639 121.649 164.919C122.161 165.199 122.565 165.599 122.861 166.119C123.157 166.639 123.305 167.235 123.305 167.907C123.305 168.579 123.153 169.175 122.849 169.695C122.545 170.215 122.129 170.619 121.601 170.907C121.081 171.187 120.505 171.327 119.873 171.327ZM119.873 170.139C120.225 170.139 120.553 170.055 120.857 169.887C121.169 169.719 121.421 169.467 121.613 169.131C121.805 168.795 121.901 168.387 121.901 167.907C121.901 167.427 121.809 167.023 121.625 166.695C121.441 166.359 121.197 166.107 120.893 165.939C120.589 165.771 120.261 165.687 119.909 165.687C119.557 165.687 119.229 165.771 118.925 165.939C118.629 166.107 118.393 166.359 118.217 166.695C118.041 167.023 117.953 167.427 117.953 167.907C117.953 168.619 118.133 169.171 118.493 169.563C118.861 169.947 119.321 170.139 119.873 170.139ZM127.393 164.499C127.913 164.499 128.377 164.607 128.785 164.823C129.201 165.039 129.525 165.359 129.757 165.783C129.989 166.207 130.105 166.719 130.105 167.319V171.219H128.749V167.523C128.749 166.931 128.601 166.479 128.305 166.167C128.009 165.847 127.605 165.687 127.093 165.687C126.581 165.687 126.173 165.847 125.869 166.167C125.573 166.479 125.425 166.931 125.425 167.523V171.219H124.057V164.607H125.425V165.363C125.649 165.091 125.933 164.879 126.277 164.727C126.629 164.575 127.001 164.499 127.393 164.499ZM136.167 171.327C135.647 171.327 135.179 171.235 134.763 171.051C134.355 170.859 134.031 170.603 133.791 170.283C133.551 169.955 133.423 169.591 133.407 169.191H134.823C134.847 169.471 134.979 169.707 135.219 169.899C135.467 170.083 135.775 170.175 136.143 170.175C136.527 170.175 136.823 170.103 137.031 169.959C137.247 169.807 137.355 169.615 137.355 169.383C137.355 169.135 137.235 168.951 136.995 168.831C136.763 168.711 136.391 168.579 135.879 168.435C135.383 168.299 134.979 168.167 134.667 168.039C134.355 167.911 134.083 167.715 133.851 167.451C133.627 167.187 133.515 166.839 133.515 166.407C133.515 166.055 133.619 165.735 133.827 165.447C134.035 165.151 134.331 164.919 134.715 164.751C135.107 164.583 135.555 164.499 136.059 164.499C136.811 164.499 137.415 164.691 137.871 165.075C138.335 165.451 138.583 165.967 138.615 166.623H137.247C137.223 166.327 137.103 166.091 136.887 165.915C136.671 165.739 136.379 165.651 136.011 165.651C135.651 165.651 135.375 165.719 135.183 165.855C134.991 165.991 134.895 166.171 134.895 166.395C134.895 166.571 134.959 166.719 135.087 166.839C135.215 166.959 135.371 167.055 135.555 167.127C135.739 167.191 136.011 167.275 136.371 167.379C136.851 167.507 137.243 167.639 137.547 167.775C137.859 167.903 138.127 168.095 138.351 168.351C138.575 168.607 138.691 168.947 138.699 169.371C138.699 169.747 138.595 170.083 138.387 170.379C138.179 170.675 137.883 170.907 137.499 171.075C137.123 171.243 136.679 171.327 136.167 171.327ZM140.945 165.579C141.177 165.275 141.493 165.019 141.893 164.811C142.293 164.603 142.745 164.499 143.249 164.499C143.825 164.499 144.349 164.643 144.821 164.931C145.301 165.211 145.677 165.607 145.949 166.119C146.221 166.631 146.357 167.219 146.357 167.883C146.357 168.547 146.221 169.143 145.949 169.671C145.677 170.191 145.301 170.599 144.821 170.895C144.349 171.183 143.825 171.327 143.249 171.327C142.745 171.327 142.297 171.227 141.905 171.027C141.513 170.819 141.193 170.563 140.945 170.259V174.363H139.577V164.607H140.945V165.579ZM144.965 167.883C144.965 167.427 144.869 167.035 144.677 166.707C144.493 166.371 144.245 166.119 143.933 165.951C143.629 165.775 143.301 165.687 142.949 165.687C142.605 165.687 142.277 165.775 141.965 165.951C141.661 166.127 141.413 166.383 141.221 166.719C141.037 167.055 140.945 167.451 140.945 167.907C140.945 168.363 141.037 168.763 141.221 169.107C141.413 169.443 141.661 169.699 141.965 169.875C142.277 170.051 142.605 170.139 142.949 170.139C143.301 170.139 143.629 170.051 143.933 169.875C144.245 169.691 144.493 169.427 144.677 169.083C144.869 168.739 144.965 168.339 144.965 167.883ZM153.17 167.751C153.17 167.999 153.154 168.223 153.122 168.423H148.07C148.11 168.951 148.306 169.375 148.658 169.695C149.01 170.015 149.442 170.175 149.954 170.175C150.69 170.175 151.21 169.867 151.514 169.251H152.99C152.79 169.859 152.426 170.359 151.898 170.751C151.378 171.135 150.73 171.327 149.954 171.327C149.322 171.327 148.754 171.187 148.25 170.907C147.754 170.619 147.362 170.219 147.074 169.707C146.794 169.187 146.654 168.587 146.654 167.907C146.654 167.227 146.79 166.631 147.062 166.119C147.342 165.599 147.73 165.199 148.226 164.919C148.73 164.639 149.306 164.499 149.954 164.499C150.578 164.499 151.134 164.635 151.622 164.907C152.11 165.179 152.49 165.563 152.762 166.059C153.034 166.547 153.17 167.111 153.17 167.751ZM151.742 167.319C151.734 166.815 151.554 166.411 151.202 166.107C150.85 165.803 150.414 165.651 149.894 165.651C149.422 165.651 149.018 165.803 148.682 166.107C148.346 166.403 148.146 166.807 148.082 167.319H151.742ZM159.976 167.751C159.976 167.999 159.96 168.223 159.928 168.423H154.876C154.916 168.951 155.112 169.375 155.464 169.695C155.816 170.015 156.248 170.175 156.76 170.175C157.496 170.175 158.016 169.867 158.32 169.251H159.796C159.596 169.859 159.232 170.359 158.704 170.751C158.184 171.135 157.536 171.327 156.76 171.327C156.128 171.327 155.56 171.187 155.056 170.907C154.56 170.619 154.168 170.219 153.88 169.707C153.6 169.187 153.46 168.587 153.46 167.907C153.46 167.227 153.596 166.631 153.868 166.119C154.148 165.599 154.536 165.199 155.032 164.919C155.536 164.639 156.112 164.499 156.76 164.499C157.384 164.499 157.94 164.635 158.428 164.907C158.916 165.179 159.296 165.563 159.568 166.059C159.84 166.547 159.976 167.111 159.976 167.751ZM158.548 167.319C158.54 166.815 158.36 166.411 158.008 166.107C157.656 165.803 157.22 165.651 156.7 165.651C156.228 165.651 155.824 165.803 155.488 166.107C155.152 166.403 154.952 166.807 154.888 167.319H158.548ZM160.267 167.883C160.267 167.219 160.403 166.631 160.675 166.119C160.955 165.607 161.331 165.211 161.803 164.931C162.283 164.643 162.815 164.499 163.399 164.499C163.831 164.499 164.255 164.595 164.671 164.787C165.095 164.971 165.431 165.219 165.679 165.531V162.339H167.059V171.219H165.679V170.223C165.455 170.543 165.143 170.807 164.743 171.015C164.351 171.223 163.899 171.327 163.387 171.327C162.811 171.327 162.283 171.183 161.803 170.895C161.331 170.599 160.955 170.191 160.675 169.671C160.403 169.143 160.267 168.547 160.267 167.883ZM165.679 167.907C165.679 167.451 165.583 167.055 165.391 166.719C165.207 166.383 164.963 166.127 164.659 165.951C164.355 165.775 164.027 165.687 163.675 165.687C163.323 165.687 162.995 165.775 162.691 165.951C162.387 166.119 162.139 166.371 161.947 166.707C161.763 167.035 161.671 167.427 161.671 167.883C161.671 168.339 161.763 168.739 161.947 169.083C162.139 169.427 162.387 169.691 162.691 169.875C163.003 170.051 163.331 170.139 163.675 170.139C164.027 170.139 164.355 170.051 164.659 169.875C164.963 169.699 165.207 169.443 165.391 169.107C165.583 168.763 165.679 168.363 165.679 167.907ZM170.655 171.327C170.135 171.327 169.667 171.235 169.251 171.051C168.843 170.859 168.519 170.603 168.279 170.283C168.039 169.955 167.911 169.591 167.895 169.191H169.311C169.335 169.471 169.467 169.707 169.707 169.899C169.955 170.083 170.263 170.175 170.631 170.175C171.015 170.175 171.311 170.103 171.519 169.959C171.735 169.807 171.843 169.615 171.843 169.383C171.843 169.135 171.723 168.951 171.483 168.831C171.251 168.711 170.879 168.579 170.367 168.435C169.871 168.299 169.467 168.167 169.155 168.039C168.843 167.911 168.571 167.715 168.339 167.451C168.115 167.187 168.003 166.839 168.003 166.407C168.003 166.055 168.107 165.735 168.315 165.447C168.523 165.151 168.819 164.919 169.203 164.751C169.595 164.583 170.043 164.499 170.547 164.499C171.299 164.499 171.903 164.691 172.359 165.075C172.823 165.451 173.071 165.967 173.103 166.623H171.735C171.711 166.327 171.591 166.091 171.375 165.915C171.159 165.739 170.867 165.651 170.499 165.651C170.139 165.651 169.863 165.719 169.671 165.855C169.479 165.991 169.383 166.171 169.383 166.395C169.383 166.571 169.447 166.719 169.575 166.839C169.703 166.959 169.859 167.055 170.043 167.127C170.227 167.191 170.499 167.275 170.859 167.379C171.339 167.507 171.731 167.639 172.035 167.775C172.347 167.903 172.615 168.095 172.839 168.351C173.063 168.607 173.179 168.947 173.187 169.371C173.187 169.747 173.083 170.083 172.875 170.379C172.667 170.675 172.371 170.907 171.987 171.075C171.611 171.243 171.167 171.327 170.655 171.327Z" fill="#6438D6"/>
<path d="M85.121 203.931L77.761 196.667L85.121 189.403H89.729L82.337 196.667L89.729 203.931H85.121ZM94.0587 188.219V184.891H100.715V208.219H97.0347V188.219H94.0587ZM104.126 196.251C104.126 192.56 104.745 189.68 105.982 187.611C107.241 185.52 109.396 184.475 112.446 184.475C115.497 184.475 117.641 185.52 118.878 187.611C120.137 189.68 120.766 192.56 120.766 196.251C120.766 199.984 120.137 202.907 118.878 205.019C117.641 207.109 115.497 208.155 112.446 208.155C109.396 208.155 107.241 207.109 105.982 205.019C104.745 202.907 104.126 199.984 104.126 196.251ZM117.182 196.251C117.182 194.523 117.065 193.061 116.83 191.867C116.617 190.672 116.169 189.701 115.486 188.955C114.804 188.187 113.79 187.803 112.446 187.803C111.102 187.803 110.089 188.187 109.406 188.955C108.724 189.701 108.265 190.672 108.03 191.867C107.817 193.061 107.71 194.523 107.71 196.251C107.71 198.043 107.817 199.547 108.03 200.763C108.244 201.979 108.692 202.96 109.374 203.707C110.078 204.453 111.102 204.827 112.446 204.827C113.79 204.827 114.804 204.453 115.486 203.707C116.19 202.96 116.649 201.979 116.862 200.763C117.076 199.547 117.182 198.043 117.182 196.251ZM144.85 190.299C146.237 190.299 147.474 190.587 148.562 191.163C149.672 191.739 150.536 192.592 151.154 193.723C151.794 194.853 152.114 196.219 152.114 197.819V208.219H148.498V198.363C148.498 196.784 148.104 195.579 147.314 194.747C146.525 193.893 145.448 193.467 144.082 193.467C142.717 193.467 141.629 193.893 140.818 194.747C140.029 195.579 139.634 196.784 139.634 198.363V208.219H136.018V198.363C136.018 196.784 135.624 195.579 134.834 194.747C134.045 193.893 132.968 193.467 131.602 193.467C130.237 193.467 129.149 193.893 128.338 194.747C127.549 195.579 127.154 196.784 127.154 198.363V208.219H123.506V190.587H127.154V192.603C127.752 191.877 128.509 191.312 129.426 190.907C130.344 190.501 131.325 190.299 132.37 190.299C133.778 190.299 135.037 190.597 136.146 191.195C137.256 191.792 138.109 192.656 138.706 193.787C139.24 192.72 140.072 191.877 141.202 191.259C142.333 190.619 143.549 190.299 144.85 190.299ZM161.556 208.507C160.17 208.507 158.922 208.261 157.812 207.771C156.724 207.259 155.86 206.576 155.22 205.723C154.58 204.848 154.239 203.877 154.196 202.811H157.972C158.036 203.557 158.388 204.187 159.028 204.699C159.69 205.189 160.511 205.435 161.492 205.435C162.516 205.435 163.306 205.243 163.86 204.859C164.436 204.453 164.724 203.941 164.724 203.323C164.724 202.661 164.404 202.171 163.764 201.851C163.146 201.531 162.154 201.179 160.788 200.795C159.466 200.432 158.388 200.08 157.556 199.739C156.724 199.397 155.999 198.875 155.38 198.171C154.783 197.467 154.484 196.539 154.484 195.387C154.484 194.448 154.762 193.595 155.316 192.827C155.871 192.037 156.66 191.419 157.684 190.971C158.73 190.523 159.924 190.299 161.268 190.299C163.274 190.299 164.884 190.811 166.1 191.835C167.338 192.837 167.999 194.213 168.084 195.963H164.436C164.372 195.173 164.052 194.544 163.476 194.075C162.9 193.605 162.122 193.371 161.14 193.371C160.18 193.371 159.444 193.552 158.932 193.915C158.42 194.277 158.164 194.757 158.164 195.355C158.164 195.824 158.335 196.219 158.676 196.539C159.018 196.859 159.434 197.115 159.924 197.307C160.415 197.477 161.14 197.701 162.1 197.979C163.38 198.32 164.426 198.672 165.236 199.035C166.068 199.376 166.783 199.888 167.38 200.571C167.978 201.253 168.287 202.16 168.308 203.291C168.308 204.293 168.031 205.189 167.476 205.979C166.922 206.768 166.132 207.387 165.108 207.835C164.106 208.283 162.922 208.507 161.556 208.507Z" fill="#0D091F"/>
</g>
<rect x="0.288262" y="0.288262" width="243.423" height="236.423" rx="23.7117" stroke="#E8E8E8" stroke-opacity="0.5" stroke-width="0.576525"/>
<defs>
<filter id="filter0_ddii_1183_22984" x="9.42129" y="8.50723" width="231.449" height="231.45" filterUnits="userSpaceOnUse" color-interpolation-filters="sRGB">
<feFlood flood-opacity="0" result="BackgroundImageFix"/>
<feColorMatrix in="SourceAlpha" type="matrix" values="0 0 0 0 0 0 0 0 0 0 0 0 0 0 0 0 0 0 127 0" result="hardAlpha"/>
<feOffset dx="4.19771" dy="4.19771"/>
<feGaussianBlur stdDeviation="5.24714"/>
<feComposite in2="hardAlpha" operator="out"/>
<feColorMatrix type="matrix" values="0 0 0 0 0.542155 0 0 0 0 0.542155 0 0 0 0 0.542155 0 0 0 0.1 0"/>
<feBlend mode="normal" in2="BackgroundImageFix" result="effect1_dropShadow_1183_22984"/>
<feColorMatrix in="SourceAlpha" type="matrix" values="0 0 0 0 0 0 0 0 0 0 0 0 0 0 0 0 0 0 127 0" result="hardAlpha"/>
<feOffset dx="-4.19771" dy="-4.19771"/>
<feGaussianBlur stdDeviation="5.24714"/>
<feComposite in2="hardAlpha" operator="out"/>
<feColorMatrix type="matrix" values="0 0 0 0 1 0 0 0 0 1 0 0 0 0 1 0 0 0 1 0"/>
<feBlend mode="normal" in2="effect1_dropShadow_1183_22984" result="effect2_dropShadow_1183_22984"/>
<feBlend mode="normal" in="SourceGraphic" in2="effect2_dropShadow_1183_22984" result="shape"/>
<feColorMatrix in="SourceAlpha" type="matrix" values="0 0 0 0 0 0 0 0 0 0 0 0 0 0 0 0 0 0 127 0" result="hardAlpha"/>
<feOffset dx="4.19771" dy="4.19771"/>
<feGaussianBlur stdDeviation="5.24714"/>
<feComposite in2="hardAlpha" operator="arithmetic" k2="-1" k3="1"/>
<feColorMatrix type="matrix" values="0 0 0 0 0.835742 0 0 0 0 0.835742 0 0 0 0 0.835742 0 0 0 0.15 0"/>
<feBlend mode="normal" in2="shape" result="effect3_innerShadow_1183_22984"/>
<feColorMatrix in="SourceAlpha" type="matrix" values="0 0 0 0 0 0 0 0 0 0 0 0 0 0 0 0 0 0 127 0" result="hardAlpha"/>
<feOffset dx="-4.19771" dy="-4.19771"/>
<feGaussianBlur stdDeviation="5.24714"/>
<feComposite in2="hardAlpha" operator="arithmetic" k2="-1" k3="1"/>
<feColorMatrix type="matrix" values="0 0 0 0 1 0 0 0 0 1 0 0 0 0 1 0 0 0 0.5 0"/>
<feBlend mode="normal" in2="effect3_innerShadow_1183_22984" result="effect4_innerShadow_1183_22984"/>
</filter>
<filter id="filter1_bd_1183_22984" x="14.1903" y="11.0887" width="231.243" height="208.76" filterUnits="userSpaceOnUse" color-interpolation-filters="sRGB">
<feFlood flood-opacity="0" result="BackgroundImageFix"/>
<feGaussianBlur in="BackgroundImageFix" stdDeviation="19.4322"/>
<feComposite in2="SourceAlpha" operator="in" result="effect1_backgroundBlur_1183_22984"/>
<feColorMatrix in="SourceAlpha" type="matrix" values="0 0 0 0 0 0 0 0 0 0 0 0 0 0 0 0 0 0 127 0" result="hardAlpha"/>
<feOffset dy="7.77288"/>
<feGaussianBlur stdDeviation="3.88644"/>
<feComposite in2="hardAlpha" operator="out"/>
<feColorMatrix type="matrix" values="0 0 0 0 0 0 0 0 0 0 0 0 0 0 0 0 0 0 0.25 0"/>
<feBlend mode="normal" in2="effect1_backgroundBlur_1183_22984" result="effect2_dropShadow_1183_22984"/>
<feBlend mode="normal" in="SourceGraphic" in2="effect2_dropShadow_1183_22984" result="shape"/>
</filter>
<filter id="filter2_bii_1183_22984" x="-5.24192" y="-8.34348" width="270.108" height="247.624" filterUnits="userSpaceOnUse" color-interpolation-filters="sRGB">
<feFlood flood-opacity="0" result="BackgroundImageFix"/>
<feGaussianBlur in="BackgroundImageFix" stdDeviation="29.1483"/>
<feComposite in2="SourceAlpha" operator="in" result="effect1_backgroundBlur_1183_22984"/>
<feBlend mode="normal" in="SourceGraphic" in2="effect1_backgroundBlur_1183_22984" result="shape"/>
<feColorMatrix in="SourceAlpha" type="matrix" values="0 0 0 0 0 0 0 0 0 0 0 0 0 0 0 0 0 0 127 0" result="hardAlpha"/>
<feOffset dx="1.94322" dy="1.94322"/>
<feGaussianBlur stdDeviation="3.88644"/>
<feComposite in2="hardAlpha" operator="arithmetic" k2="-1" k3="1"/>
<feColorMatrix type="matrix" values="0 0 0 0 1 0 0 0 0 1 0 0 0 0 1 0 0 0 0.15 0"/>
<feBlend mode="normal" in2="shape" result="effect2_innerShadow_1183_22984"/>
<feColorMatrix in="SourceAlpha" type="matrix" values="0 0 0 0 0 0 0 0 0 0 0 0 0 0 0 0 0 0 127 0" result="hardAlpha"/>
<feOffset dy="7.77288"/>
<feGaussianBlur stdDeviation="9.7161"/>
<feComposite in2="hardAlpha" operator="arithmetic" k2="-1" k3="1"/>
<feColorMatrix type="matrix" values="0 0 0 0 1 0 0 0 0 1 0 0 0 0 1 0 0 0 0.15 0"/>
<feBlend mode="normal" in2="effect2_innerShadow_1183_22984" result="effect3_innerShadow_1183_22984"/>
</filter>
<filter id="filter3_d_1183_22984" x="18.1582" y="5.26632" width="154.3" height="142.828" filterUnits="userSpaceOnUse" color-interpolation-filters="sRGB">
<feFlood flood-opacity="0" result="BackgroundImageFix"/>
<feColorMatrix in="SourceAlpha" type="matrix" values="0 0 0 0 0 0 0 0 0 0 0 0 0 0 0 0 0 0 127 0" result="hardAlpha"/>
<feOffset dx="1.94322" dy="-7.77288"/>
<feGaussianBlur stdDeviation="14.5742"/>
<feComposite in2="hardAlpha" operator="out"/>
<feColorMatrix type="matrix" values="0 0 0 0 0.392157 0 0 0 0 0.219608 0 0 0 0 0.839216 0 0 0 0.3 0"/>
<feBlend mode="normal" in2="BackgroundImageFix" result="effect1_dropShadow_1183_22984"/>
<feBlend mode="normal" in="SourceGraphic" in2="effect1_dropShadow_1183_22984" result="shape"/>
</filter>
<filter id="filter4_df_1183_22984" x="124.557" y="31.6185" width="30.8616" height="30.8606" filterUnits="userSpaceOnUse" color-interpolation-filters="sRGB">
<feFlood flood-opacity="0" result="BackgroundImageFix"/>
<feColorMatrix in="SourceAlpha" type="matrix" values="0 0 0 0 0 0 0 0 0 0 0 0 0 0 0 0 0 0 127 0" result="hardAlpha"/>
<feOffset dx="2.40293"/>
<feGaussianBlur stdDeviation="5.28645"/>
<feComposite in2="hardAlpha" operator="out"/>
<feColorMatrix type="matrix" values="0 0 0 0 0.390935 0 0 0 0 0.220315 0 0 0 0 0.838411 0 0 0 0.36 0"/>
<feBlend mode="normal" in2="BackgroundImageFix" result="effect1_dropShadow_1183_22984"/>
<feBlend mode="normal" in="SourceGraphic" in2="effect1_dropShadow_1183_22984" result="shape"/>
<feGaussianBlur stdDeviation="0.97161" result="effect2_foregroundBlur_1183_22984"/>
</filter>
<filter id="filter5_f_1183_22984" x="-122.439" y="-50.6621" width="324.996" height="292.559" filterUnits="userSpaceOnUse" color-interpolation-filters="sRGB">
<feFlood flood-opacity="0" result="BackgroundImageFix"/>
<feBlend mode="normal" in="SourceGraphic" in2="BackgroundImageFix" result="shape"/>
<feGaussianBlur stdDeviation="60.0733" result="effect1_foregroundBlur_1183_22984"/>
</filter>
<radialGradient id="paint0_radial_1183_22984" cx="0" cy="0" r="1" gradientUnits="userSpaceOnUse" gradientTransform="translate(83.8135 35.8567) rotate(41.0307) scale(86.8289 136.957)">
<stop offset="0.267627" stop-color="#E9E9E9"/>
<stop offset="1" stop-color="#E9E9E9" stop-opacity="0"/>
</radialGradient>
<linearGradient id="paint1_linear_1183_22984" x1="203.452" y1="296.664" x2="75.8933" y2="332.745" gradientUnits="userSpaceOnUse">
<stop stop-color="#F7F7FB"/>
<stop offset="1" stop-color="#F7F7FB" stop-opacity="0"/>
</linearGradient>
<radialGradient id="paint2_radial_1183_22984" cx="0" cy="0" r="1" gradientUnits="userSpaceOnUse" gradientTransform="translate(130.783 56.7544) rotate(93.3665) scale(66.1837 213.608)">
<stop stop-color="white" stop-opacity="0.6"/>
<stop offset="1" stop-color="white" stop-opacity="0"/>
</radialGradient>
<linearGradient id="paint3_linear_1183_22984" x1="171.587" y1="51.9036" x2="41.3909" y2="121.86" gradientUnits="userSpaceOnUse">
<stop stop-color="#FBFBFF"/>
<stop offset="0.115404" stop-color="#6438D6" stop-opacity="0"/>
<stop offset="0.33" stop-color="#6438D6"/>
<stop offset="1" stop-color="#AB8EFF" stop-opacity="0"/>
</linearGradient>
<linearGradient id="paint4_linear_1183_22984" x1="124.082" y1="134.912" x2="145.627" y2="68.431" gradientUnits="userSpaceOnUse">
<stop offset="0.102208" stop-color="#9B7FE5"/>
<stop offset="0.585" stop-color="#F4F0FF" stop-opacity="0.88"/>
<stop offset="1" stop-color="#AB8EFF" stop-opacity="0.88"/>
</linearGradient>
<linearGradient id="paint5_linear_1183_22984" x1="128.188" y1="131.529" x2="137.027" y2="60.5894" gradientUnits="userSpaceOnUse">
<stop stop-color="white" stop-opacity="0.4"/>
<stop offset="1" stop-color="white" stop-opacity="0"/>
</linearGradient>
<linearGradient id="paint6_linear_1183_22984" x1="227.5" y1="41" x2="238.764" y2="134.087" gradientUnits="userSpaceOnUse">
<stop stop-color="white" stop-opacity="0"/>
<stop offset="1" stop-color="#F7F7FB"/>
</linearGradient>
<clipPath id="clip0_1183_22984">
<rect width="244" height="237" rx="24" fill="white"/>
</clipPath>
<clipPath id="clip1_1183_22984">
<rect width="328" height="222" fill="white" transform="translate(-68.375 -10.7812)"/>
</clipPath>
</defs>
</svg>
