<svg width="1512" height="1614" viewBox="0 0 1512 1614" fill="none" xmlns="http://www.w3.org/2000/svg">
<g opacity="0.8" filter="url(#filter0_f_26_37)">
<ellipse cx="756.5" cy="807" rx="551.5" ry="207" fill="#DDD5FF"/>
</g>
<g opacity="0.8">
<path d="M437.077 751.772C437.077 928.27 579.864 1071.35 755.999 1071.35C932.133 1071.35 1074.92 928.27 1074.92 751.772C1074.92 575.274 932.133 432.196 755.999 432.196C579.864 432.196 437.077 575.274 437.077 751.772Z" stroke="url(#paint0_linear_26_37)" stroke-width="1.30706"/>
<circle cx="227.428" cy="227.428" r="226.774" transform="matrix(-1 -8.74228e-08 -8.74228e-08 1 984.078 524.34)" fill="url(#paint1_linear_26_37)" stroke="url(#paint2_linear_26_37)" stroke-width="1.30706"/>
<circle cx="126.785" cy="126.785" r="126.131" transform="matrix(1 0 0 -1 629.863 878.555)" fill="url(#paint3_linear_26_37)" stroke="url(#paint4_linear_26_37)" stroke-width="1.30706"/>
</g>
<g opacity="0.5">
<path d="M-177.2 1143.6H-235.4L-245.4 1172H-269.2L-219.4 1032.8H-193L-143.2 1172H-167.2L-177.2 1143.6ZM-183.6 1125L-206.2 1060.4L-229 1125H-183.6ZM-108.747 1024V1172H-131.547V1024H-108.747ZM-96.4125 1116.8C-96.4125 1105.47 -94.1458 1095.53 -89.6125 1087C-84.9458 1078.33 -78.5458 1071.67 -70.4125 1067C-62.2792 1062.33 -52.9458 1060 -42.4125 1060C-29.0792 1060 -18.0792 1063.2 -9.41249 1069.6C-0.612492 1075.87 5.32084 1084.87 8.38751 1096.6H-16.2125C-18.2125 1091.13 -21.4125 1086.87 -25.8125 1083.8C-30.2125 1080.73 -35.7458 1079.2 -42.4125 1079.2C-51.7458 1079.2 -59.2125 1082.53 -64.8125 1089.2C-70.2792 1095.73 -73.0125 1104.93 -73.0125 1116.8C-73.0125 1128.67 -70.2792 1137.93 -64.8125 1144.6C-59.2125 1151.27 -51.7458 1154.6 -42.4125 1154.6C-29.2125 1154.6 -20.4792 1148.8 -16.2125 1137.2H8.38751C5.1875 1148.4 -0.812499 1157.33 -9.6125 1164C-18.4125 1170.53 -29.3458 1173.8 -42.4125 1173.8C-52.9458 1173.8 -62.2792 1171.47 -70.4125 1166.8C-78.5458 1162 -84.9458 1155.33 -89.6125 1146.8C-94.1458 1138.13 -96.4125 1128.13 -96.4125 1116.8ZM78.1094 1060C86.5094 1060 93.976 1061.8 100.509 1065.4C107.176 1069 112.376 1074.33 116.109 1081.4C119.976 1088.47 121.909 1097 121.909 1107V1172H99.3094V1110.4C99.3094 1100.53 96.8427 1093 91.9094 1087.8C86.976 1082.47 80.2427 1079.8 71.7094 1079.8C63.176 1079.8 56.376 1082.47 51.3094 1087.8C46.376 1093 43.9094 1100.53 43.9094 1110.4V1172H21.1094V1024H43.9094V1074.6C47.776 1069.93 52.6427 1066.33 58.5094 1063.8C64.5094 1061.27 71.0427 1060 78.1094 1060ZM241.992 1114.2C241.992 1118.33 241.726 1122.07 241.192 1125.4H156.992C157.659 1134.2 160.926 1141.27 166.792 1146.6C172.659 1151.93 179.859 1154.6 188.392 1154.6C200.659 1154.6 209.326 1149.47 214.392 1139.2H238.992C235.659 1149.33 229.592 1157.67 220.792 1164.2C212.126 1170.6 201.326 1173.8 188.392 1173.8C177.859 1173.8 168.392 1171.47 159.992 1166.8C151.726 1162 145.192 1155.33 140.392 1146.8C135.726 1138.13 133.392 1128.13 133.392 1116.8C133.392 1105.47 135.659 1095.53 140.192 1087C144.859 1078.33 151.326 1071.67 159.592 1067C167.992 1062.33 177.592 1060 188.392 1060C198.792 1060 208.059 1062.27 216.192 1066.8C224.326 1071.33 230.659 1077.73 235.192 1086C239.726 1094.13 241.992 1103.53 241.992 1114.2ZM218.192 1107C218.059 1098.6 215.059 1091.87 209.192 1086.8C203.326 1081.73 196.059 1079.2 187.392 1079.2C179.526 1079.2 172.792 1081.73 167.192 1086.8C161.592 1091.73 158.259 1098.47 157.192 1107H218.192ZM387.83 1060C396.496 1060 404.23 1061.8 411.03 1065.4C417.963 1069 423.363 1074.33 427.23 1081.4C431.23 1088.47 433.23 1097 433.23 1107V1172H410.63V1110.4C410.63 1100.53 408.163 1093 403.23 1087.8C398.296 1082.47 391.563 1079.8 383.03 1079.8C374.496 1079.8 367.696 1082.47 362.63 1087.8C357.696 1093 355.23 1100.53 355.23 1110.4V1172H332.63V1110.4C332.63 1100.53 330.163 1093 325.23 1087.8C320.296 1082.47 313.563 1079.8 305.03 1079.8C296.496 1079.8 289.696 1082.47 284.63 1087.8C279.696 1093 277.23 1100.53 277.23 1110.4V1172H254.43V1061.8H277.23V1074.4C280.963 1069.87 285.696 1066.33 291.43 1063.8C297.163 1061.27 303.296 1060 309.83 1060C318.63 1060 326.496 1061.87 333.43 1065.6C340.363 1069.33 345.696 1074.73 349.43 1081.8C352.763 1075.13 357.963 1069.87 365.03 1066C372.096 1062 379.696 1060 387.83 1060ZM551.442 1061.8L483.842 1223.8H460.242L482.642 1170.2L439.242 1061.8H464.642L495.642 1145.8L527.842 1061.8H551.442Z" fill="white"/>
<path d="M563.843 1096.26H595.177C605.56 1096.26 613.977 1087.84 613.977 1077.46V1066.27C613.977 1057.22 621.311 1049.89 630.357 1049.89V1049.89C639.404 1049.89 646.738 1057.22 646.738 1066.27V1136.31C646.738 1146.69 655.155 1155.11 665.538 1155.11H672.612C682.995 1155.11 691.412 1146.69 691.412 1136.31V1121.74C691.412 1111.36 699.829 1102.94 710.212 1102.94H802.601M802.601 1102.94L777.556 1080.23M802.601 1102.94L777.556 1125.66" stroke="white" stroke-width="15.0308"/>
<path d="M973.843 1033V1172H951.043V1076.8L908.643 1172H892.843L850.243 1076.8V1172H827.443V1033H852.043L900.843 1142L949.443 1033H973.843ZM986.211 1116.4C986.211 1105.33 988.477 1095.53 993.011 1087C997.677 1078.47 1003.94 1071.87 1011.81 1067.2C1019.81 1062.4 1028.61 1060 1038.21 1060C1046.88 1060 1054.41 1061.73 1060.81 1065.2C1067.34 1068.53 1072.54 1072.73 1076.41 1077.8V1061.8H1099.41V1172H1076.41V1155.6C1072.54 1160.8 1067.28 1165.13 1060.61 1168.6C1053.94 1172.07 1046.34 1173.8 1037.81 1173.8C1028.34 1173.8 1019.68 1171.4 1011.81 1166.6C1003.94 1161.67 997.677 1154.87 993.011 1146.2C988.477 1137.4 986.211 1127.47 986.211 1116.4ZM1076.41 1116.8C1076.41 1109.2 1074.81 1102.6 1071.61 1097C1068.54 1091.4 1064.48 1087.13 1059.41 1084.2C1054.34 1081.27 1048.88 1079.8 1043.01 1079.8C1037.14 1079.8 1031.68 1081.27 1026.61 1084.2C1021.54 1087 1017.41 1091.2 1014.21 1096.8C1011.14 1102.27 1009.61 1108.8 1009.61 1116.4C1009.61 1124 1011.14 1130.67 1014.21 1136.4C1017.41 1142.13 1021.54 1146.53 1026.61 1149.6C1031.81 1152.53 1037.28 1154 1043.01 1154C1048.88 1154 1054.34 1152.53 1059.41 1149.6C1064.48 1146.67 1068.54 1142.4 1071.61 1136.8C1074.81 1131.07 1076.41 1124.4 1076.41 1116.8ZM1142.16 1077.8C1145.49 1072.2 1149.89 1067.87 1155.36 1064.8C1160.96 1061.6 1167.56 1060 1175.16 1060V1083.6H1169.36C1160.42 1083.6 1153.62 1085.87 1148.96 1090.4C1144.42 1094.93 1142.16 1102.8 1142.16 1114V1172H1119.36V1061.8H1142.16V1077.8ZM1229.72 1117L1280.52 1172H1249.72L1208.92 1124.6V1172H1186.12V1024H1208.92V1110L1248.92 1061.8H1280.52L1229.72 1117ZM1387.86 1114.2C1387.86 1118.33 1387.59 1122.07 1387.06 1125.4H1302.86C1303.52 1134.2 1306.79 1141.27 1312.66 1146.6C1318.52 1151.93 1325.72 1154.6 1334.26 1154.6C1346.52 1154.6 1355.19 1149.47 1360.26 1139.2H1384.86C1381.52 1149.33 1375.46 1157.67 1366.66 1164.2C1357.99 1170.6 1347.19 1173.8 1334.26 1173.8C1323.72 1173.8 1314.26 1171.47 1305.86 1166.8C1297.59 1162 1291.06 1155.33 1286.26 1146.8C1281.59 1138.13 1279.26 1128.13 1279.26 1116.8C1279.26 1105.47 1281.52 1095.53 1286.06 1087C1290.72 1078.33 1297.19 1071.67 1305.46 1067C1313.86 1062.33 1323.46 1060 1334.26 1060C1344.66 1060 1353.92 1062.27 1362.06 1066.8C1370.19 1071.33 1376.52 1077.73 1381.06 1086C1385.59 1094.13 1387.86 1103.53 1387.86 1114.2ZM1364.06 1107C1363.92 1098.6 1360.92 1091.87 1355.06 1086.8C1349.19 1081.73 1341.92 1079.2 1333.26 1079.2C1325.39 1079.2 1318.66 1081.73 1313.06 1086.8C1307.46 1091.73 1304.12 1098.47 1303.06 1107H1364.06ZM1426.89 1080.4V1141.4C1426.89 1145.53 1427.83 1148.53 1429.69 1150.4C1431.69 1152.13 1435.03 1153 1439.69 1153H1453.69V1172H1435.69C1425.43 1172 1417.56 1169.6 1412.09 1164.8C1406.63 1160 1403.89 1152.2 1403.89 1141.4V1080.4H1390.89V1061.8H1403.89V1034.4H1426.89V1061.8H1453.69V1080.4H1426.89ZM1504.71 1173.8C1496.04 1173.8 1488.24 1172.27 1481.31 1169.2C1474.51 1166 1469.11 1161.73 1465.11 1156.4C1461.11 1150.93 1458.98 1144.87 1458.71 1138.2H1482.31C1482.71 1142.87 1484.91 1146.8 1488.91 1150C1493.04 1153.07 1498.18 1154.6 1504.31 1154.6C1510.71 1154.6 1515.64 1153.4 1519.11 1151C1522.71 1148.47 1524.51 1145.27 1524.51 1141.4C1524.51 1137.27 1522.51 1134.2 1518.51 1132.2C1514.64 1130.2 1508.44 1128 1499.91 1125.6C1491.64 1123.33 1484.91 1121.13 1479.71 1119C1474.51 1116.87 1469.98 1113.6 1466.11 1109.2C1462.38 1104.8 1460.51 1099 1460.51 1091.8C1460.51 1085.93 1462.24 1080.6 1465.71 1075.8C1469.18 1070.87 1474.11 1067 1480.51 1064.2C1487.04 1061.4 1494.51 1060 1502.91 1060C1515.44 1060 1525.51 1063.2 1533.11 1069.6C1540.84 1075.87 1544.98 1084.47 1545.51 1095.4H1522.71C1522.31 1090.47 1520.31 1086.53 1516.71 1083.6C1513.11 1080.67 1508.24 1079.2 1502.11 1079.2C1496.11 1079.2 1491.51 1080.33 1488.31 1082.6C1485.11 1084.87 1483.51 1087.87 1483.51 1091.6C1483.51 1094.53 1484.58 1097 1486.71 1099C1488.84 1101 1491.44 1102.6 1494.51 1103.8C1497.58 1104.87 1502.11 1106.27 1508.11 1108C1516.11 1110.13 1522.64 1112.33 1527.71 1114.6C1532.91 1116.73 1537.38 1119.93 1541.11 1124.2C1544.84 1128.47 1546.78 1134.13 1546.91 1141.2C1546.91 1147.47 1545.18 1153.07 1541.71 1158C1538.24 1162.93 1533.31 1166.8 1526.91 1169.6C1520.64 1172.4 1513.24 1173.8 1504.71 1173.8Z" fill="white"/>
</g>
<defs>
<filter id="filter0_f_26_37" x="-395" y="0" width="2303" height="1614" filterUnits="userSpaceOnUse" color-interpolation-filters="sRGB">
<feFlood flood-opacity="0" result="BackgroundImageFix"/>
<feBlend mode="normal" in="SourceGraphic" in2="BackgroundImageFix" result="shape"/>
<feGaussianBlur stdDeviation="300" result="effect1_foregroundBlur_26_37"/>
</filter>
<linearGradient id="paint0_linear_26_37" x1="792.806" y1="1062.02" x2="794.279" y2="723.566" gradientUnits="userSpaceOnUse">
<stop stop-color="white"/>
<stop offset="1" stop-color="white" stop-opacity="0"/>
</linearGradient>
<linearGradient id="paint1_linear_26_37" x1="227.428" y1="54.2437" x2="226.973" y2="427.733" gradientUnits="userSpaceOnUse">
<stop stop-color="white" stop-opacity="0"/>
<stop offset="1" stop-color="white" stop-opacity="0.24"/>
</linearGradient>
<linearGradient id="paint2_linear_26_37" x1="201.234" y1="447.768" x2="200.19" y2="207.396" gradientUnits="userSpaceOnUse">
<stop stop-color="white"/>
<stop offset="1" stop-color="white" stop-opacity="0"/>
</linearGradient>
<linearGradient id="paint3_linear_26_37" x1="126.785" y1="30.2393" x2="126.531" y2="238.449" gradientUnits="userSpaceOnUse">
<stop stop-color="white" stop-opacity="0"/>
<stop offset="1" stop-color="white" stop-opacity="0.24"/>
</linearGradient>
<linearGradient id="paint4_linear_26_37" x1="112.182" y1="249.618" x2="111.6" y2="115.617" gradientUnits="userSpaceOnUse">
<stop stop-color="white"/>
<stop offset="1" stop-color="white" stop-opacity="0"/>
</linearGradient>
</defs>
</svg>
