<svg width="125" height="71" viewBox="0 0 125 71" fill="none" xmlns="http://www.w3.org/2000/svg">
<circle opacity="0.1" cx="24.6693" cy="60.0833" r="1.33333" fill="#6438D6"/>
<circle opacity="0.2" cx="16.6693" cy="62.7513" r="1.33333" fill="#6438D6"/>
<circle opacity="0.2" cx="15.7786" cy="55.638" r="1.33333" fill="#6438D6"/>
<circle opacity="0.2" cx="10.8889" cy="50.3069" r="0.888889" fill="#6438D6"/>
<circle opacity="0.1" cx="10.8889" cy="59.1936" r="0.888889" fill="#6438D6"/>
<g filter="url(#filter0_d_1183_23070)">
<rect x="13" y="17.8594" width="42.1827" height="42.1827" rx="8.43653" transform="rotate(-2.52501 13 17.8594)" fill="white"/>
</g>
<path opacity="0.8" d="M21.6448 30.2113L21.5054 27.0558L27.8165 26.7769L28.7939 48.8962L25.3045 49.0503L24.4666 30.0867L21.6448 30.2113ZM31.5272 37.4054C31.3726 33.9059 31.8385 31.1492 32.925 29.1353C34.0309 27.1002 36.0301 26.0188 38.9227 25.891C41.8153 25.7632 43.892 26.6645 45.1528 28.595C46.433 30.5044 47.1503 33.2088 47.305 36.7082C47.4614 40.2481 46.9871 43.0457 45.8821 45.101C44.7965 47.1352 42.8074 48.2162 39.9148 48.344C37.0222 48.4718 34.9354 47.5709 33.6544 45.6413C32.3926 43.6906 31.6836 40.9453 31.5272 37.4054ZM43.9067 36.8584C43.8343 35.2199 43.6618 33.8392 43.3892 32.7163C43.1369 31.5925 42.6715 30.6909 41.9929 30.0115C41.3134 29.3119 40.3365 28.9902 39.0621 29.0465C37.7878 29.1028 36.843 29.5094 36.2279 30.2662C35.6119 31.0028 35.2177 31.9424 35.0452 33.085C34.893 34.2267 34.8531 35.6168 34.9255 37.2552C35.0005 38.9544 35.1647 40.376 35.4179 41.52C35.6712 42.6641 36.1371 43.5758 36.8156 44.2552C37.5144 44.9336 38.501 45.2447 39.7754 45.1884C41.0497 45.1321 41.9949 44.7357 42.6109 43.9991C43.2472 43.2616 43.641 42.3119 43.7923 41.15C43.9436 39.9881 43.9818 38.5575 43.9067 36.8584Z" fill="url(#paint0_linear_1183_23070)"/>
<path d="M44.6758 9.51728L41.944 21.0958L41.2388 21.597C40.2607 22.2907 39.684 21.9052 39.9595 20.7376L41.1401 15.7337L38.9926 15.227C38.0196 14.9975 37.8896 14.3358 38.7081 13.7586L44.6758 9.51728Z" fill="#6438D6"/>
<path opacity="0.4" d="M47.9111 16.8539L41.9434 21.0952L44.6752 9.51671L45.3804 9.01545C46.3585 8.32177 46.9352 8.70729 46.6597 9.87487L45.4791 14.8788L47.6266 15.3855C48.5996 15.615 48.7296 16.2767 47.9111 16.8539Z" fill="#6438D6"/>
<path opacity="0.8" d="M74.994 27.286L70.262 38.626H68.61L70.178 34.874L67.14 27.286H68.918L71.088 33.166L73.342 27.286H74.994ZM82.5684 30.954C82.5684 31.2433 82.5498 31.5047 82.5124 31.738H76.6184C76.6651 32.354 76.8938 32.8487 77.3044 33.222C77.7151 33.5953 78.2191 33.782 78.8164 33.782C79.6751 33.782 80.2818 33.4227 80.6364 32.704H82.3584C82.1251 33.4133 81.7004 33.9967 81.0844 34.454C80.4778 34.902 79.7218 35.126 78.8164 35.126C78.0791 35.126 77.4164 34.9627 76.8284 34.636C76.2498 34.3 75.7924 33.8333 75.4564 33.236C75.1298 32.6293 74.9664 31.9293 74.9664 31.136C74.9664 30.3427 75.1251 29.6473 75.4424 29.05C75.7691 28.4433 76.2218 27.9767 76.8004 27.65C77.3884 27.3233 78.0604 27.16 78.8164 27.16C79.5444 27.16 80.1931 27.3187 80.7624 27.636C81.3318 27.9533 81.7751 28.4013 82.0924 28.98C82.4098 29.5493 82.5684 30.2073 82.5684 30.954ZM80.9024 30.45C80.8931 29.862 80.6831 29.3907 80.2724 29.036C79.8618 28.6813 79.3531 28.504 78.7464 28.504C78.1958 28.504 77.7244 28.6813 77.3324 29.036C76.9404 29.3813 76.7071 29.8527 76.6324 30.45H80.9024ZM82.9071 31.108C82.9071 30.3333 83.0657 29.6473 83.3831 29.05C83.7097 28.4527 84.1484 27.9907 84.6991 27.664C85.2591 27.328 85.8751 27.16 86.5471 27.16C87.1537 27.16 87.6811 27.2813 88.1291 27.524C88.5864 27.7573 88.9504 28.0513 89.2211 28.406V27.286H90.8311V35H89.2211V33.852C88.9504 34.216 88.5817 34.5193 88.1151 34.762C87.6484 35.0047 87.1164 35.126 86.5191 35.126C85.8564 35.126 85.2497 34.958 84.6991 34.622C84.1484 34.2767 83.7097 33.8007 83.3831 33.194C83.0657 32.578 82.9071 31.8827 82.9071 31.108ZM89.2211 31.136C89.2211 30.604 89.1091 30.142 88.8851 29.75C88.6704 29.358 88.3857 29.0593 88.0311 28.854C87.6764 28.6487 87.2937 28.546 86.8831 28.546C86.4724 28.546 86.0897 28.6487 85.7351 28.854C85.3804 29.05 85.0911 29.344 84.8671 29.736C84.6524 30.1187 84.5451 30.576 84.5451 31.108C84.5451 31.64 84.6524 32.1067 84.8671 32.508C85.0911 32.9093 85.3804 33.2173 85.7351 33.432C86.0991 33.6373 86.4817 33.74 86.8831 33.74C87.2937 33.74 87.6764 33.6373 88.0311 33.432C88.3857 33.2267 88.6704 32.928 88.8851 32.536C89.1091 32.1347 89.2211 31.668 89.2211 31.136ZM93.8233 28.406C94.0567 28.014 94.3647 27.7107 94.7473 27.496C95.1393 27.272 95.6013 27.16 96.1333 27.16V28.812H95.7273C95.102 28.812 94.626 28.9707 94.2993 29.288C93.982 29.6053 93.8233 30.156 93.8233 30.94V35H92.2273V27.286H93.8233V28.406ZM99.7004 35.126C99.0937 35.126 98.5477 35.0187 98.0624 34.804C97.5864 34.58 97.2084 34.2813 96.9284 33.908C96.6484 33.5253 96.4991 33.1007 96.4804 32.634H98.1324C98.1604 32.9607 98.3144 33.236 98.5944 33.46C98.8837 33.6747 99.2431 33.782 99.6724 33.782C100.12 33.782 100.466 33.698 100.708 33.53C100.96 33.3527 101.086 33.1287 101.086 32.858C101.086 32.5687 100.946 32.354 100.666 32.214C100.396 32.074 99.9617 31.92 99.3644 31.752C98.7857 31.5933 98.3144 31.4393 97.9504 31.29C97.5864 31.1407 97.2691 30.912 96.9984 30.604C96.7371 30.296 96.6064 29.89 96.6064 29.386C96.6064 28.9753 96.7277 28.602 96.9704 28.266C97.2131 27.9207 97.5584 27.65 98.0064 27.454C98.4637 27.258 98.9864 27.16 99.5744 27.16C100.452 27.16 101.156 27.384 101.688 27.832C102.23 28.2707 102.519 28.8727 102.556 29.638H100.96C100.932 29.2927 100.792 29.0173 100.54 28.812C100.288 28.6067 99.9477 28.504 99.5184 28.504C99.0984 28.504 98.7764 28.5833 98.5524 28.742C98.3284 28.9007 98.2164 29.1107 98.2164 29.372C98.2164 29.5773 98.2911 29.75 98.4404 29.89C98.5897 30.03 98.7717 30.142 98.9864 30.226C99.2011 30.3007 99.5184 30.3987 99.9384 30.52C100.498 30.6693 100.956 30.8233 101.31 30.982C101.674 31.1313 101.987 31.3553 102.248 31.654C102.51 31.9527 102.645 32.3493 102.654 32.844C102.654 33.2827 102.533 33.6747 102.29 34.02C102.048 34.3653 101.702 34.636 101.254 34.832C100.816 35.028 100.298 35.126 99.7004 35.126ZM109.962 35.126C109.234 35.126 108.576 34.9627 107.988 34.636C107.4 34.3 106.938 33.8333 106.602 33.236C106.266 32.6293 106.098 31.9293 106.098 31.136C106.098 30.352 106.27 29.6567 106.616 29.05C106.961 28.4433 107.432 27.9767 108.03 27.65C108.627 27.3233 109.294 27.16 110.032 27.16C110.769 27.16 111.436 27.3233 112.034 27.65C112.631 27.9767 113.102 28.4433 113.448 29.05C113.793 29.6567 113.966 30.352 113.966 31.136C113.966 31.92 113.788 32.6153 113.434 33.222C113.079 33.8287 112.594 34.3 111.978 34.636C111.371 34.9627 110.699 35.126 109.962 35.126ZM109.962 33.74C110.372 33.74 110.755 33.642 111.11 33.446C111.474 33.25 111.768 32.956 111.992 32.564C112.216 32.172 112.328 31.696 112.328 31.136C112.328 30.576 112.22 30.1047 112.006 29.722C111.791 29.33 111.506 29.036 111.152 28.84C110.797 28.644 110.414 28.546 110.004 28.546C109.593 28.546 109.21 28.644 108.856 28.84C108.51 29.036 108.235 29.33 108.03 29.722C107.824 30.1047 107.722 30.576 107.722 31.136C107.722 31.9667 107.932 32.6107 108.352 33.068C108.781 33.516 109.318 33.74 109.962 33.74ZM118.077 28.588H116.649V35H115.039V28.588H114.129V27.286H115.039V26.74C115.039 25.8533 115.273 25.2093 115.739 24.808C116.215 24.3973 116.957 24.192 117.965 24.192V25.522C117.48 25.522 117.139 25.6153 116.943 25.802C116.747 25.9793 116.649 26.292 116.649 26.74V27.286H118.077V28.588ZM69.646 44.406C69.8793 44.014 70.1873 43.7107 70.57 43.496C70.962 43.272 71.424 43.16 71.956 43.16V44.812H71.55C70.9247 44.812 70.4487 44.9707 70.122 45.288C69.8047 45.6053 69.646 46.156 69.646 46.94V51H68.05V43.286H69.646V44.406ZM79.793 46.954C79.793 47.2433 79.7744 47.5047 79.737 47.738H73.843C73.8897 48.354 74.1184 48.8487 74.529 49.222C74.9397 49.5953 75.4437 49.782 76.041 49.782C76.8997 49.782 77.5064 49.4227 77.861 48.704H79.583C79.3497 49.4133 78.925 49.9967 78.309 50.454C77.7024 50.902 76.9464 51.126 76.041 51.126C75.3037 51.126 74.641 50.9627 74.053 50.636C73.4744 50.3 73.017 49.8333 72.681 49.236C72.3544 48.6293 72.191 47.9293 72.191 47.136C72.191 46.3427 72.3497 45.6473 72.667 45.05C72.9937 44.4433 73.4464 43.9767 74.025 43.65C74.613 43.3233 75.285 43.16 76.041 43.16C76.769 43.16 77.4177 43.3187 77.987 43.636C78.5564 43.9533 78.9997 44.4013 79.317 44.98C79.6344 45.5493 79.793 46.2073 79.793 46.954ZM78.127 46.45C78.1177 45.862 77.9077 45.3907 77.497 45.036C77.0864 44.6813 76.5777 44.504 75.971 44.504C75.4204 44.504 74.949 44.6813 74.557 45.036C74.165 45.3813 73.9317 45.8527 73.857 46.45H78.127ZM82.2597 40.64V51H80.6637V40.64H82.2597ZM84.4671 42.264C84.1777 42.264 83.9351 42.166 83.7391 41.97C83.5431 41.774 83.4451 41.5313 83.4451 41.242C83.4451 40.9527 83.5431 40.71 83.7391 40.514C83.9351 40.318 84.1777 40.22 84.4671 40.22C84.7471 40.22 84.9851 40.318 85.1811 40.514C85.3771 40.71 85.4751 40.9527 85.4751 41.242C85.4751 41.5313 85.3771 41.774 85.1811 41.97C84.9851 42.166 84.7471 42.264 84.4671 42.264ZM85.2511 43.286V51H83.6551V43.286H85.2511ZM86.1145 47.108C86.1145 46.3333 86.2732 45.6473 86.5905 45.05C86.9172 44.4527 87.3558 43.9907 87.9065 43.664C88.4665 43.328 89.0825 43.16 89.7545 43.16C90.3612 43.16 90.8885 43.2813 91.3365 43.524C91.7938 43.7573 92.1578 44.0513 92.4285 44.406V43.286H94.0385V51H92.4285V49.852C92.1578 50.216 91.7892 50.5193 91.3225 50.762C90.8558 51.0047 90.3238 51.126 89.7265 51.126C89.0638 51.126 88.4572 50.958 87.9065 50.622C87.3558 50.2767 86.9172 49.8007 86.5905 49.194C86.2732 48.578 86.1145 47.8827 86.1145 47.108ZM92.4285 47.136C92.4285 46.604 92.3165 46.142 92.0925 45.75C91.8778 45.358 91.5932 45.0593 91.2385 44.854C90.8838 44.6487 90.5012 44.546 90.0905 44.546C89.6798 44.546 89.2972 44.6487 88.9425 44.854C88.5878 45.05 88.2985 45.344 88.0745 45.736C87.8598 46.1187 87.7525 46.576 87.7525 47.108C87.7525 47.64 87.8598 48.1067 88.0745 48.508C88.2985 48.9093 88.5878 49.2173 88.9425 49.432C89.3065 49.6373 89.6892 49.74 90.0905 49.74C90.5012 49.74 90.8838 49.6373 91.2385 49.432C91.5932 49.2267 91.8778 48.928 92.0925 48.536C92.3165 48.1347 92.4285 47.668 92.4285 47.136ZM97.0308 44.434C97.3014 44.0607 97.6701 43.7573 98.1368 43.524C98.6128 43.2813 99.1401 43.16 99.7188 43.16C100.4 43.16 101.016 43.3233 101.567 43.65C102.117 43.9767 102.551 44.4433 102.869 45.05C103.186 45.6473 103.345 46.3333 103.345 47.108C103.345 47.8827 103.186 48.578 102.869 49.194C102.551 49.8007 102.113 50.2767 101.553 50.622C101.002 50.958 100.391 51.126 99.7188 51.126C99.1214 51.126 98.5894 51.0093 98.1228 50.776C97.6654 50.5427 97.3014 50.244 97.0308 49.88V51H95.4348V40.64H97.0308V44.434ZM101.721 47.108C101.721 46.576 101.609 46.1187 101.385 45.736C101.17 45.344 100.881 45.05 100.517 44.854C100.162 44.6487 99.7794 44.546 99.3688 44.546C98.9674 44.546 98.5848 44.6487 98.2208 44.854C97.8661 45.0593 97.5768 45.358 97.3528 45.75C97.1381 46.142 97.0308 46.604 97.0308 47.136C97.0308 47.668 97.1381 48.1347 97.3528 48.536C97.5768 48.928 97.8661 49.2267 98.2208 49.432C98.5848 49.6373 98.9674 49.74 99.3688 49.74C99.7794 49.74 100.162 49.6373 100.517 49.432C100.881 49.2173 101.17 48.9093 101.385 48.508C101.609 48.1067 101.721 47.64 101.721 47.108ZM105.035 42.264C104.746 42.264 104.503 42.166 104.307 41.97C104.111 41.774 104.013 41.5313 104.013 41.242C104.013 40.9527 104.111 40.71 104.307 40.514C104.503 40.318 104.746 40.22 105.035 40.22C105.315 40.22 105.553 40.318 105.749 40.514C105.945 40.71 106.043 40.9527 106.043 41.242C106.043 41.5313 105.945 41.774 105.749 41.97C105.553 42.166 105.315 42.264 105.035 42.264ZM105.819 43.286V51H104.223V43.286H105.819ZM108.81 40.64V51H107.214V40.64H108.81ZM111.018 42.264C110.729 42.264 110.486 42.166 110.29 41.97C110.094 41.774 109.996 41.5313 109.996 41.242C109.996 40.9527 110.094 40.71 110.29 40.514C110.486 40.318 110.729 40.22 111.018 40.22C111.298 40.22 111.536 40.318 111.732 40.514C111.928 40.71 112.026 40.9527 112.026 41.242C112.026 41.5313 111.928 41.774 111.732 41.97C111.536 42.166 111.298 42.264 111.018 42.264ZM111.802 43.286V51H110.206V43.286H111.802ZM115.059 44.588V48.858C115.059 49.1473 115.125 49.3573 115.255 49.488C115.395 49.6093 115.629 49.67 115.955 49.67H116.935V51H115.675C114.957 51 114.406 50.832 114.023 50.496C113.641 50.16 113.449 49.614 113.449 48.858V44.588H112.539V43.286H113.449V41.368H115.059V43.286H116.935V44.588H115.059ZM124.65 43.286L119.918 54.626H118.266L119.834 50.874L116.796 43.286H118.574L120.744 49.166L122.998 43.286H124.65Z" fill="#0D091F"/>
<defs>
<filter id="filter0_d_1183_23070" x="0.208366" y="0.678384" width="69.5833" height="69.5852" filterUnits="userSpaceOnUse" color-interpolation-filters="sRGB">
<feFlood flood-opacity="0" result="BackgroundImageFix"/>
<feColorMatrix in="SourceAlpha" type="matrix" values="0 0 0 0 0 0 0 0 0 0 0 0 0 0 0 0 0 0 127 0" result="hardAlpha"/>
<feOffset dy="-2.53096"/>
<feGaussianBlur stdDeviation="6.66486"/>
<feComposite in2="hardAlpha" operator="out"/>
<feColorMatrix type="matrix" values="0 0 0 0 0.678906 0 0 0 0 0.678906 0 0 0 0 0.678906 0 0 0 0.15 0"/>
<feBlend mode="normal" in2="BackgroundImageFix" result="effect1_dropShadow_1183_23070"/>
<feBlend mode="normal" in="SourceGraphic" in2="effect1_dropShadow_1183_23070" result="shape"/>
</filter>
<linearGradient id="paint0_linear_1183_23070" x1="29.2421" y1="28.2763" x2="35.8292" y2="45.8784" gradientUnits="userSpaceOnUse">
<stop stop-color="#0D091F"/>
<stop offset="1" stop-color="#0D091F" stop-opacity="0"/>
</linearGradient>
</defs>
</svg>
