<svg width="316" height="149" viewBox="0 0 316 149" fill="none" xmlns="http://www.w3.org/2000/svg">
<g filter="url(#filter0_bd_1183_22975)">
<rect x="57.8984" y="52.1992" width="200.2" height="33.6" rx="16.8" fill="white" fill-opacity="0.4" shape-rendering="crispEdges"/>
<g clip-path="url(#clip0_1183_22975)">
<rect x="60.2988" y="54.5977" width="28.8" height="28.8" rx="14.4" fill="#6438D6"/>
<path d="M80.0529 66.0195L75.0471 71.0254L73.1401 68.1649L69.3262 71.9788" stroke="white" stroke-width="1.78779" stroke-linecap="round" stroke-linejoin="round"/>
<path d="M77.6738 66.0195H80.0576V68.4033" stroke="white" stroke-width="1.78779" stroke-linecap="round" stroke-linejoin="round"/>
</g>
<path d="M99.2902 68.916C99.2902 67.828 99.5409 66.852 100.042 65.988C100.554 65.124 101.242 64.452 102.106 63.972C102.981 63.4813 103.936 63.236 104.97 63.236C106.154 63.236 107.205 63.5293 108.122 64.116C109.05 64.692 109.722 65.5133 110.138 66.58H107.946C107.658 65.9933 107.258 65.556 106.746 65.268C106.234 64.98 105.642 64.836 104.97 64.836C104.234 64.836 103.578 65.0013 103.002 65.332C102.426 65.6627 101.973 66.1373 101.642 66.756C101.322 67.3747 101.162 68.0947 101.162 68.916C101.162 69.7373 101.322 70.4573 101.642 71.076C101.973 71.6947 102.426 72.1747 103.002 72.516C103.578 72.8467 104.234 73.012 104.97 73.012C105.642 73.012 106.234 72.868 106.746 72.58C107.258 72.292 107.658 71.8547 107.946 71.268H110.138C109.722 72.3347 109.05 73.156 108.122 73.732C107.205 74.308 106.154 74.596 104.97 74.596C103.925 74.596 102.97 74.356 102.106 73.876C101.242 73.3853 100.554 72.708 100.042 71.844C99.5409 70.98 99.2902 70.004 99.2902 68.916ZM115.297 74.644C114.465 74.644 113.713 74.4573 113.041 74.084C112.369 73.7 111.841 73.1667 111.457 72.484C111.073 71.7907 110.881 70.9907 110.881 70.084C110.881 69.188 111.079 68.3933 111.473 67.7C111.868 67.0067 112.407 66.4733 113.089 66.1C113.772 65.7267 114.535 65.54 115.377 65.54C116.22 65.54 116.983 65.7267 117.665 66.1C118.348 66.4733 118.887 67.0067 119.281 67.7C119.676 68.3933 119.873 69.188 119.873 70.084C119.873 70.98 119.671 71.7747 119.265 72.468C118.86 73.1613 118.305 73.7 117.601 74.084C116.908 74.4573 116.14 74.644 115.297 74.644ZM115.297 73.06C115.767 73.06 116.204 72.948 116.609 72.724C117.025 72.5 117.361 72.164 117.617 71.716C117.873 71.268 118.001 70.724 118.001 70.084C118.001 69.444 117.879 68.9053 117.633 68.468C117.388 68.02 117.063 67.684 116.657 67.46C116.252 67.236 115.815 67.124 115.345 67.124C114.876 67.124 114.439 67.236 114.033 67.46C113.639 67.684 113.324 68.02 113.089 68.468C112.855 68.9053 112.737 69.444 112.737 70.084C112.737 71.0333 112.977 71.7693 113.457 72.292C113.948 72.804 114.561 73.06 115.297 73.06ZM131.548 65.54C132.242 65.54 132.86 65.684 133.404 65.972C133.959 66.26 134.391 66.6867 134.7 67.252C135.02 67.8173 135.18 68.5 135.18 69.3V74.5H133.372V69.572C133.372 68.7827 133.175 68.18 132.78 67.764C132.386 67.3373 131.847 67.124 131.164 67.124C130.482 67.124 129.938 67.3373 129.532 67.764C129.138 68.18 128.94 68.7827 128.94 69.572V74.5H127.132V69.572C127.132 68.7827 126.935 68.18 126.54 67.764C126.146 67.3373 125.607 67.124 124.924 67.124C124.242 67.124 123.698 67.3373 123.292 67.764C122.898 68.18 122.7 68.7827 122.7 69.572V74.5H120.876V65.684H122.7V66.692C122.999 66.3293 123.378 66.0467 123.836 65.844C124.295 65.6413 124.786 65.54 125.308 65.54C126.012 65.54 126.642 65.6893 127.196 65.988C127.751 66.2867 128.178 66.7187 128.476 67.284C128.743 66.7507 129.159 66.3293 129.724 66.02C130.29 65.7 130.898 65.54 131.548 65.54ZM138.525 66.98C138.835 66.5747 139.256 66.2333 139.789 65.956C140.323 65.6787 140.925 65.54 141.597 65.54C142.365 65.54 143.064 65.732 143.693 66.116C144.333 66.4893 144.835 67.0173 145.197 67.7C145.56 68.3827 145.741 69.1667 145.741 70.052C145.741 70.9373 145.56 71.732 145.197 72.436C144.835 73.1293 144.333 73.6733 143.693 74.068C143.064 74.452 142.365 74.644 141.597 74.644C140.925 74.644 140.328 74.5107 139.805 74.244C139.283 73.9667 138.856 73.6253 138.525 73.22V78.692H136.701V65.684H138.525V66.98ZM143.885 70.052C143.885 69.444 143.757 68.9213 143.501 68.484C143.256 68.036 142.925 67.7 142.509 67.476C142.104 67.2413 141.667 67.124 141.197 67.124C140.739 67.124 140.301 67.2413 139.885 67.476C139.48 67.7107 139.149 68.052 138.893 68.5C138.648 68.948 138.525 69.476 138.525 70.084C138.525 70.692 138.648 71.2253 138.893 71.684C139.149 72.132 139.48 72.4733 139.885 72.708C140.301 72.9427 140.739 73.06 141.197 73.06C141.667 73.06 142.104 72.9427 142.509 72.708C142.925 72.4627 143.256 72.1107 143.501 71.652C143.757 71.1933 143.885 70.66 143.885 70.052ZM154.825 69.876C154.825 70.2067 154.804 70.5053 154.761 70.772H148.025C148.078 71.476 148.34 72.0413 148.809 72.468C149.278 72.8947 149.854 73.108 150.537 73.108C151.518 73.108 152.212 72.6973 152.617 71.876H154.585C154.318 72.6867 153.833 73.3533 153.129 73.876C152.436 74.388 151.572 74.644 150.537 74.644C149.694 74.644 148.937 74.4573 148.265 74.084C147.604 73.7 147.081 73.1667 146.697 72.484C146.324 71.7907 146.137 70.9907 146.137 70.084C146.137 69.1773 146.318 68.3827 146.681 67.7C147.054 67.0067 147.572 66.4733 148.233 66.1C148.905 65.7267 149.673 65.54 150.537 65.54C151.369 65.54 152.11 65.7213 152.761 66.084C153.412 66.4467 153.918 66.9587 154.281 67.62C154.644 68.2707 154.825 69.0227 154.825 69.876ZM152.921 69.3C152.91 68.628 152.67 68.0893 152.201 67.684C151.732 67.2787 151.15 67.076 150.457 67.076C149.828 67.076 149.289 67.2787 148.841 67.684C148.393 68.0787 148.126 68.6173 148.041 69.3H152.921ZM157.948 67.172V72.052C157.948 72.3827 158.023 72.6227 158.172 72.772C158.332 72.9107 158.599 72.98 158.972 72.98H160.092V74.5H158.652C157.831 74.5 157.201 74.308 156.764 73.924C156.327 73.54 156.108 72.916 156.108 72.052V67.172H155.068V65.684H156.108V63.492H157.948V65.684H160.092V67.172H157.948ZM161.901 64.516C161.571 64.516 161.293 64.404 161.069 64.18C160.845 63.956 160.733 63.6787 160.733 63.348C160.733 63.0173 160.845 62.74 161.069 62.516C161.293 62.292 161.571 62.18 161.901 62.18C162.221 62.18 162.493 62.292 162.717 62.516C162.941 62.74 163.053 63.0173 163.053 63.348C163.053 63.6787 162.941 63.956 162.717 64.18C162.493 64.404 162.221 64.516 161.901 64.516ZM162.797 65.684V74.5H160.973V65.684H162.797ZM166.52 67.172V72.052C166.52 72.3827 166.595 72.6227 166.744 72.772C166.904 72.9107 167.171 72.98 167.544 72.98H168.664V74.5H167.224C166.403 74.5 165.773 74.308 165.336 73.924C164.899 73.54 164.68 72.916 164.68 72.052V67.172H163.64V65.684H164.68V63.492H166.52V65.684H168.664V67.172H166.52ZM170.473 64.516C170.142 64.516 169.865 64.404 169.641 64.18C169.417 63.956 169.305 63.6787 169.305 63.348C169.305 63.0173 169.417 62.74 169.641 62.516C169.865 62.292 170.142 62.18 170.473 62.18C170.793 62.18 171.065 62.292 171.289 62.516C171.513 62.74 171.625 63.0173 171.625 63.348C171.625 63.6787 171.513 63.956 171.289 64.18C171.065 64.404 170.793 64.516 170.473 64.516ZM171.369 65.684V74.5H169.545V65.684H171.369ZM176.372 72.868L178.868 65.684H180.804L177.444 74.5H175.268L171.924 65.684H173.876L176.372 72.868ZM189.463 69.876C189.463 70.2067 189.441 70.5053 189.399 70.772H182.663C182.716 71.476 182.977 72.0413 183.447 72.468C183.916 72.8947 184.492 73.108 185.175 73.108C186.156 73.108 186.849 72.6973 187.255 71.876H189.223C188.956 72.6867 188.471 73.3533 187.767 73.876C187.073 74.388 186.209 74.644 185.175 74.644C184.332 74.644 183.575 74.4573 182.903 74.084C182.241 73.7 181.719 73.1667 181.335 72.484C180.961 71.7907 180.775 70.9907 180.775 70.084C180.775 69.1773 180.956 68.3827 181.319 67.7C181.692 67.0067 182.209 66.4733 182.871 66.1C183.543 65.7267 184.311 65.54 185.175 65.54C186.007 65.54 186.748 65.7213 187.399 66.084C188.049 66.4467 188.556 66.9587 188.919 67.62C189.281 68.2707 189.463 69.0227 189.463 69.876ZM187.559 69.3C187.548 68.628 187.308 68.0893 186.839 67.684C186.369 67.2787 185.788 67.076 185.095 67.076C184.465 67.076 183.927 67.2787 183.479 67.684C183.031 68.0787 182.764 68.6173 182.679 69.3H187.559ZM201.59 66.692C201.59 67.2573 201.457 67.7907 201.19 68.292C200.923 68.7933 200.497 69.204 199.91 69.524C199.323 69.8333 198.571 69.988 197.654 69.988H195.638V74.5H193.814V63.38H197.654C198.507 63.38 199.227 63.5293 199.814 63.828C200.411 64.116 200.854 64.5107 201.142 65.012C201.441 65.5133 201.59 66.0733 201.59 66.692ZM197.654 68.5C198.347 68.5 198.865 68.3453 199.206 68.036C199.547 67.716 199.718 67.268 199.718 66.692C199.718 65.476 199.03 64.868 197.654 64.868H195.638V68.5H197.654ZM204.353 66.964C204.62 66.516 204.972 66.1693 205.409 65.924C205.857 65.668 206.385 65.54 206.993 65.54V67.428H206.529C205.815 67.428 205.271 67.6093 204.897 67.972C204.535 68.3347 204.353 68.964 204.353 69.86V74.5H202.529V65.684H204.353V66.964ZM208.798 64.516C208.467 64.516 208.19 64.404 207.966 64.18C207.742 63.956 207.63 63.6787 207.63 63.348C207.63 63.0173 207.742 62.74 207.966 62.516C208.19 62.292 208.467 62.18 208.798 62.18C209.118 62.18 209.39 62.292 209.614 62.516C209.838 62.74 209.95 63.0173 209.95 63.348C209.95 63.6787 209.838 63.956 209.614 64.18C209.39 64.404 209.118 64.516 208.798 64.516ZM209.694 65.684V74.5H207.87V65.684H209.694ZM210.681 70.084C210.681 69.1773 210.862 68.3827 211.225 67.7C211.598 67.0067 212.11 66.4733 212.761 66.1C213.412 65.7267 214.158 65.54 215.001 65.54C216.068 65.54 216.948 65.796 217.641 66.308C218.345 66.8093 218.82 67.5293 219.065 68.468H217.097C216.937 68.0307 216.681 67.6893 216.329 67.444C215.977 67.1987 215.534 67.076 215.001 67.076C214.254 67.076 213.657 67.3427 213.209 67.876C212.772 68.3987 212.553 69.1347 212.553 70.084C212.553 71.0333 212.772 71.7747 213.209 72.308C213.657 72.8413 214.254 73.108 215.001 73.108C216.057 73.108 216.756 72.644 217.097 71.716H219.065C218.809 72.612 218.329 73.3267 217.625 73.86C216.921 74.3827 216.046 74.644 215.001 74.644C214.158 74.644 213.412 74.4573 212.761 74.084C212.11 73.7 211.598 73.1667 211.225 72.484C210.862 71.7907 210.681 70.9907 210.681 70.084ZM221.011 64.516C220.68 64.516 220.403 64.404 220.179 64.18C219.955 63.956 219.843 63.6787 219.843 63.348C219.843 63.0173 219.955 62.74 220.179 62.516C220.403 62.292 220.68 62.18 221.011 62.18C221.331 62.18 221.603 62.292 221.827 62.516C222.051 62.74 222.163 63.0173 222.163 63.348C222.163 63.6787 222.051 63.956 221.827 64.18C221.603 64.404 221.331 64.516 221.011 64.516ZM221.907 65.684V74.5H220.083V65.684H221.907ZM227.949 65.54C228.643 65.54 229.261 65.684 229.805 65.972C230.36 66.26 230.792 66.6867 231.101 67.252C231.411 67.8173 231.565 68.5 231.565 69.3V74.5H229.757V69.572C229.757 68.7827 229.56 68.18 229.165 67.764C228.771 67.3373 228.232 67.124 227.549 67.124C226.867 67.124 226.323 67.3373 225.917 67.764C225.523 68.18 225.325 68.7827 225.325 69.572V74.5H223.501V65.684H225.325V66.692C225.624 66.3293 226.003 66.0467 226.461 65.844C226.931 65.6413 227.427 65.54 227.949 65.54ZM236.644 65.54C237.327 65.54 237.929 65.6787 238.452 65.956C238.985 66.2227 239.401 66.5587 239.7 66.964V65.684H241.54V74.644C241.54 75.4547 241.369 76.1747 241.028 76.804C240.687 77.444 240.191 77.9453 239.54 78.308C238.9 78.6707 238.132 78.852 237.236 78.852C236.041 78.852 235.049 78.5693 234.26 78.004C233.471 77.4493 233.023 76.692 232.916 75.732H234.724C234.863 76.1907 235.156 76.5587 235.604 76.836C236.063 77.124 236.607 77.268 237.236 77.268C237.972 77.268 238.564 77.044 239.012 76.596C239.471 76.148 239.7 75.4973 239.7 74.644V73.172C239.391 73.588 238.969 73.94 238.436 74.228C237.913 74.5053 237.316 74.644 236.644 74.644C235.876 74.644 235.172 74.452 234.532 74.068C233.903 73.6733 233.401 73.1293 233.028 72.436C232.665 71.732 232.484 70.9373 232.484 70.052C232.484 69.1667 232.665 68.3827 233.028 67.7C233.401 67.0173 233.903 66.4893 234.532 66.116C235.172 65.732 235.876 65.54 236.644 65.54ZM239.7 70.084C239.7 69.476 239.572 68.948 239.316 68.5C239.071 68.052 238.745 67.7107 238.34 67.476C237.935 67.2413 237.497 67.124 237.028 67.124C236.559 67.124 236.121 67.2413 235.716 67.476C235.311 67.7 234.98 68.036 234.724 68.484C234.479 68.9213 234.356 69.444 234.356 70.052C234.356 70.66 234.479 71.1933 234.724 71.652C234.98 72.1107 235.311 72.4627 235.716 72.708C236.132 72.9427 236.569 73.06 237.028 73.06C237.497 73.06 237.935 72.9427 238.34 72.708C238.745 72.4733 239.071 72.132 239.316 71.684C239.572 71.2253 239.7 70.692 239.7 70.084Z" fill="#6438D6"/>
</g>
<defs>
<filter id="filter0_bd_1183_22975" x="0.498436" y="0.232551" width="315" height="148.402" filterUnits="userSpaceOnUse" color-interpolation-filters="sRGB">
<feFlood flood-opacity="0" result="BackgroundImageFix"/>
<feGaussianBlur in="BackgroundImageFix" stdDeviation="11.45"/>
<feComposite in2="SourceAlpha" operator="in" result="effect1_backgroundBlur_1183_22975"/>
<feColorMatrix in="SourceAlpha" type="matrix" values="0 0 0 0 0 0 0 0 0 0 0 0 0 0 0 0 0 0 127 0" result="hardAlpha"/>
<feOffset dy="5.43333"/>
<feGaussianBlur stdDeviation="28.7"/>
<feComposite in2="hardAlpha" operator="out"/>
<feColorMatrix type="matrix" values="0 0 0 0 0.432796 0 0 0 0 0.432796 0 0 0 0 0.432796 0 0 0 0.1 0"/>
<feBlend mode="normal" in2="effect1_backgroundBlur_1183_22975" result="effect2_dropShadow_1183_22975"/>
<feBlend mode="normal" in="SourceGraphic" in2="effect2_dropShadow_1183_22975" result="shape"/>
</filter>
<clipPath id="clip0_1183_22975">
<rect x="60.2988" y="54.5977" width="28.8" height="28.8" rx="14.4" fill="white"/>
</clipPath>
</defs>
</svg>
