<svg width="281" height="284" viewBox="0 0 281 284" fill="none" xmlns="http://www.w3.org/2000/svg">
<g filter="url(#filter0_d_1183_22957)">
<g clip-path="url(#clip0_1183_22957)">
<rect x="58" y="52" width="165" height="169" rx="24" fill="#FDFDFD"/>
<g filter="url(#filter1_f_1183_22957)">
<rect width="150.643" height="150.643" transform="matrix(-1 -8.74228e-08 -8.74228e-08 1 253.555 219.062)" fill="#6438D6"/>
</g>
<g filter="url(#filter2_f_1183_22957)">
<rect width="150.643" height="150.643" transform="matrix(-1 -8.74228e-08 -8.74228e-08 1 355.992 142.734)" fill="#6052FF"/>
</g>
<g filter="url(#filter3_f_1183_22957)">
<rect width="88.3772" height="88.3772" transform="matrix(-1 -8.74228e-08 -8.74228e-08 1 280.672 205)" fill="white"/>
</g>
<g style="mix-blend-mode:color-burn">
<g clip-path="url(#clip1_1183_22957)">
<rect width="433.319" height="511.67" rx="40.7525" transform="matrix(-1 -8.74228e-08 -8.74228e-08 1 491.016 -84.2344)" fill="url(#paint0_linear_1183_22957)"/>
<g filter="url(#filter4_b_1183_22957)">
<ellipse cx="276.764" cy="308.376" rx="276.764" ry="308.376" transform="matrix(-0.964458 0.264237 0.264237 0.964458 514.477 -313.355)" fill="url(#paint1_radial_1183_22957)" fill-opacity="0.2"/>
<path d="M62.6514 130.173C107.587 294.187 263.303 394.353 410.368 354.061C557.433 313.769 640.351 148.223 595.415 -15.7904C550.479 -179.804 394.763 -279.97 247.698 -239.678C100.634 -199.386 17.7158 -33.8403 62.6514 130.173Z" stroke="white" stroke-opacity="0.05" stroke-width="1.13201"/>
</g>
<g filter="url(#filter5_b_1183_22957)">
<ellipse cx="291.266" cy="300.566" rx="291.266" ry="300.566" transform="matrix(-0.964458 0.264237 0.264237 0.964458 576.934 -372.898)" fill="url(#paint2_radial_1183_22957)" fill-opacity="0.2"/>
<path d="M95.0725 70.7621C138.857 230.575 299.885 325.705 454.712 283.286C609.539 240.867 699.593 76.9477 655.808 -82.8653C612.024 -242.678 450.996 -337.808 296.169 -295.389C141.342 -252.971 51.2878 -89.0509 95.0725 70.7621Z" stroke="white" stroke-opacity="0.05" stroke-width="1.13201"/>
</g>
<g filter="url(#filter6_b_1183_22957)">
<ellipse cx="212.769" cy="226.808" rx="212.769" ry="226.808" transform="matrix(-0.939788 0.341759 0.341759 0.939788 511.805 -280.586)" fill="url(#paint3_radial_1183_22957)" fill-opacity="0.2"/>
<path d="M189.935 77.8028C232.65 195.262 356.573 257.941 466.681 217.9C576.789 177.858 631.501 50.2173 588.786 -67.2415C546.072 -184.7 422.149 -247.38 312.041 -207.338C201.932 -167.297 147.221 -39.656 189.935 77.8028Z" stroke="white" stroke-opacity="0.05" stroke-width="1.13201"/>
</g>
<g filter="url(#filter7_b_1183_22957)">
<ellipse cx="183.702" cy="208.746" rx="183.702" ry="208.746" transform="matrix(-0.964458 0.264237 0.264237 0.964458 510.23 -285.887)" fill="url(#paint4_radial_1183_22957)" fill-opacity="0.2"/>
<path d="M211.588 12.3725C241.988 123.328 345.74 191.47 443.225 164.762C540.71 138.054 595.242 26.5455 564.843 -84.4104C534.444 -195.366 430.692 -263.508 333.207 -236.8C235.722 -210.091 181.189 -98.5834 211.588 12.3725Z" stroke="white" stroke-opacity="0.05" stroke-width="1.13201"/>
</g>
</g>
</g>
<path d="M78.1012 147.256V159.766H76.0492V147.256H78.1012ZM84.8993 149.686C85.6793 149.686 86.3753 149.848 86.9873 150.172C87.6113 150.496 88.0973 150.976 88.4453 151.612C88.7933 152.248 88.9673 153.016 88.9673 153.916V159.766H86.9333V154.222C86.9333 153.334 86.7113 152.656 86.2673 152.188C85.8233 151.708 85.2173 151.468 84.4493 151.468C83.6813 151.468 83.0693 151.708 82.6133 152.188C82.1693 152.656 81.9473 153.334 81.9473 154.222V159.766H79.8953V149.848H81.9473V150.982C82.2833 150.574 82.7093 150.256 83.2253 150.028C83.7533 149.8 84.3113 149.686 84.8993 149.686ZM94.5188 157.93L97.3268 149.848H99.5048L95.7248 159.766H93.2768L89.5148 149.848H91.7108L94.5188 157.93ZM109.246 154.564C109.246 154.936 109.222 155.272 109.174 155.572H101.596C101.656 156.364 101.95 157 102.478 157.48C103.006 157.96 103.654 158.2 104.422 158.2C105.526 158.2 106.306 157.738 106.762 156.814H108.976C108.676 157.726 108.13 158.476 107.338 159.064C106.558 159.64 105.586 159.928 104.422 159.928C103.474 159.928 102.622 159.718 101.866 159.298C101.122 158.866 100.534 158.266 100.102 157.498C99.6819 156.718 99.4719 155.818 99.4719 154.798C99.4719 153.778 99.6759 152.884 100.084 152.116C100.504 151.336 101.086 150.736 101.83 150.316C102.586 149.896 103.45 149.686 104.422 149.686C105.358 149.686 106.192 149.89 106.924 150.298C107.656 150.706 108.226 151.282 108.634 152.026C109.042 152.758 109.246 153.604 109.246 154.564ZM107.104 153.916C107.092 153.16 106.822 152.554 106.294 152.098C105.766 151.642 105.112 151.414 104.332 151.414C103.624 151.414 103.018 151.642 102.514 152.098C102.01 152.542 101.71 153.148 101.614 153.916H107.104ZM113.965 159.928C113.185 159.928 112.483 159.79 111.859 159.514C111.247 159.226 110.761 158.842 110.401 158.362C110.041 157.87 109.849 157.324 109.825 156.724H111.949C111.985 157.144 112.183 157.498 112.543 157.786C112.915 158.062 113.377 158.2 113.929 158.2C114.505 158.2 114.949 158.092 115.261 157.876C115.585 157.648 115.747 157.36 115.747 157.012C115.747 156.64 115.567 156.364 115.207 156.184C114.859 156.004 114.301 155.806 113.533 155.59C112.789 155.386 112.183 155.188 111.715 154.996C111.247 154.804 110.839 154.51 110.491 154.114C110.155 153.718 109.987 153.196 109.987 152.548C109.987 152.02 110.143 151.54 110.455 151.108C110.767 150.664 111.211 150.316 111.787 150.064C112.375 149.812 113.047 149.686 113.803 149.686C114.931 149.686 115.837 149.974 116.521 150.55C117.217 151.114 117.589 151.888 117.637 152.872H115.585C115.549 152.428 115.369 152.074 115.045 151.81C114.721 151.546 114.283 151.414 113.731 151.414C113.191 151.414 112.777 151.516 112.489 151.72C112.201 151.924 112.057 152.194 112.057 152.53C112.057 152.794 112.153 153.016 112.345 153.196C112.537 153.376 112.771 153.52 113.047 153.628C113.323 153.724 113.731 153.85 114.271 154.006C114.991 154.198 115.579 154.396 116.035 154.6C116.503 154.792 116.905 155.08 117.241 155.464C117.577 155.848 117.751 156.358 117.763 156.994C117.763 157.558 117.607 158.062 117.295 158.506C116.983 158.95 116.539 159.298 115.963 159.55C115.399 159.802 114.733 159.928 113.965 159.928ZM121.474 151.522V157.012C121.474 157.384 121.558 157.654 121.726 157.822C121.906 157.978 122.206 158.056 122.626 158.056H123.886V159.766H122.266C121.342 159.766 120.634 159.55 120.142 159.118C119.65 158.686 119.404 157.984 119.404 157.012V151.522H118.234V149.848H119.404V147.382H121.474V149.848H123.886V151.522H121.474ZM130.706 146.446V159.766H128.654V146.446H130.706ZM133.544 148.534C133.172 148.534 132.86 148.408 132.608 148.156C132.356 147.904 132.23 147.592 132.23 147.22C132.23 146.848 132.356 146.536 132.608 146.284C132.86 146.032 133.172 145.906 133.544 145.906C133.904 145.906 134.21 146.032 134.462 146.284C134.714 146.536 134.84 146.848 134.84 147.22C134.84 147.592 134.714 147.904 134.462 148.156C134.21 148.408 133.904 148.534 133.544 148.534ZM134.552 149.848V159.766H132.5V149.848H134.552ZM140.27 154.816L144.842 159.766H142.07L138.398 155.5V159.766H136.346V146.446H138.398V154.186L141.998 149.848H144.842L140.27 154.816ZM154.503 154.564C154.503 154.936 154.479 155.272 154.431 155.572H146.853C146.913 156.364 147.207 157 147.735 157.48C148.263 157.96 148.911 158.2 149.679 158.2C150.783 158.2 151.563 157.738 152.019 156.814H154.232C153.933 157.726 153.387 158.476 152.595 159.064C151.815 159.64 150.843 159.928 149.679 159.928C148.731 159.928 147.879 159.718 147.123 159.298C146.379 158.866 145.791 158.266 145.359 157.498C144.939 156.718 144.729 155.818 144.729 154.798C144.729 153.778 144.933 152.884 145.341 152.116C145.761 151.336 146.343 150.736 147.087 150.316C147.843 149.896 148.707 149.686 149.679 149.686C150.615 149.686 151.449 149.89 152.181 150.298C152.913 150.706 153.483 151.282 153.891 152.026C154.299 152.758 154.503 153.604 154.503 154.564ZM152.361 153.916C152.349 153.16 152.079 152.554 151.551 152.098C151.023 151.642 150.369 151.414 149.589 151.414C148.881 151.414 148.275 151.642 147.771 152.098C147.267 152.542 146.967 153.148 146.871 153.916H152.361ZM158.714 154.762C158.714 153.766 158.918 152.884 159.326 152.116C159.746 151.348 160.31 150.754 161.018 150.334C161.738 149.902 162.53 149.686 163.394 149.686C164.174 149.686 164.852 149.842 165.428 150.154C166.016 150.454 166.484 150.832 166.832 151.288V149.848H168.902V159.766H166.832V158.29C166.484 158.758 166.01 159.148 165.41 159.46C164.81 159.772 164.126 159.928 163.358 159.928C162.506 159.928 161.726 159.712 161.018 159.28C160.31 158.836 159.746 158.224 159.326 157.444C158.918 156.652 158.714 155.758 158.714 154.762ZM166.832 154.798C166.832 154.114 166.688 153.52 166.4 153.016C166.124 152.512 165.758 152.128 165.302 151.864C164.846 151.6 164.354 151.468 163.826 151.468C163.298 151.468 162.806 151.6 162.35 151.864C161.894 152.116 161.522 152.494 161.234 152.998C160.958 153.49 160.82 154.078 160.82 154.762C160.82 155.446 160.958 156.046 161.234 156.562C161.522 157.078 161.894 157.474 162.35 157.75C162.818 158.014 163.31 158.146 163.826 158.146C164.354 158.146 164.846 158.014 165.302 157.75C165.758 157.486 166.124 157.102 166.4 156.598C166.688 156.082 166.832 155.482 166.832 154.798ZM183.221 150.982C183.221 151.618 183.071 152.218 182.771 152.782C182.471 153.346 181.991 153.808 181.331 154.168C180.671 154.516 179.825 154.69 178.793 154.69H176.525V159.766H174.473V147.256H178.793C179.753 147.256 180.563 147.424 181.223 147.76C181.895 148.084 182.393 148.528 182.717 149.092C183.053 149.656 183.221 150.286 183.221 150.982ZM178.793 153.016C179.573 153.016 180.155 152.842 180.539 152.494C180.923 152.134 181.115 151.63 181.115 150.982C181.115 149.614 180.341 148.93 178.793 148.93H176.525V153.016H178.793ZM186.33 151.288C186.63 150.784 187.026 150.394 187.518 150.118C188.022 149.83 188.616 149.686 189.3 149.686V151.81H188.778C187.974 151.81 187.362 152.014 186.942 152.422C186.534 152.83 186.33 153.538 186.33 154.546V159.766H184.278V149.848H186.33V151.288ZM194.588 159.928C193.652 159.928 192.806 159.718 192.05 159.298C191.294 158.866 190.7 158.266 190.268 157.498C189.836 156.718 189.62 155.818 189.62 154.798C189.62 153.79 189.842 152.896 190.286 152.116C190.73 151.336 191.336 150.736 192.104 150.316C192.872 149.896 193.73 149.686 194.678 149.686C195.626 149.686 196.484 149.896 197.252 150.316C198.02 150.736 198.626 151.336 199.07 152.116C199.514 152.896 199.736 153.79 199.736 154.798C199.736 155.806 199.508 156.7 199.052 157.48C198.596 158.26 197.972 158.866 197.18 159.298C196.4 159.718 195.536 159.928 194.588 159.928ZM194.588 158.146C195.116 158.146 195.608 158.02 196.064 157.768C196.532 157.516 196.91 157.138 197.198 156.634C197.486 156.13 197.63 155.518 197.63 154.798C197.63 154.078 197.492 153.472 197.216 152.98C196.94 152.476 196.574 152.098 196.118 151.846C195.662 151.594 195.17 151.468 194.642 151.468C194.114 151.468 193.622 151.594 193.166 151.846C192.722 152.098 192.368 152.476 192.104 152.98C191.84 153.472 191.708 154.078 191.708 154.798C191.708 155.866 191.978 156.694 192.518 157.282C193.07 157.858 193.76 158.146 194.588 158.146ZM89.3692 169.848L86.2912 179.766H84.1312L82.1332 172.44L80.1352 179.766H77.9752L74.8792 169.848H76.9672L79.0372 177.822L81.1432 169.848H83.2852L85.3012 177.786L87.3532 169.848H89.3692ZM91.0467 168.534C90.6747 168.534 90.3627 168.408 90.1107 168.156C89.8587 167.904 89.7327 167.592 89.7327 167.22C89.7327 166.848 89.8587 166.536 90.1107 166.284C90.3627 166.032 90.6747 165.906 91.0467 165.906C91.4067 165.906 91.7127 166.032 91.9647 166.284C92.2167 166.536 92.3427 166.848 92.3427 167.22C92.3427 167.592 92.2167 167.904 91.9647 168.156C91.7127 168.408 91.4067 168.534 91.0467 168.534ZM92.0547 169.848V179.766H90.0027V169.848H92.0547ZM96.2428 171.522V177.012C96.2428 177.384 96.3268 177.654 96.4948 177.822C96.6748 177.978 96.9748 178.056 97.3948 178.056H98.6548V179.766H97.0348C96.1108 179.766 95.4028 179.55 94.9108 179.118C94.4188 178.686 94.1728 177.984 94.1728 177.012V171.522H93.0028V169.848H94.1728V167.382H96.2428V169.848H98.6548V171.522H96.2428ZM104.776 169.686C105.532 169.686 106.204 169.848 106.792 170.172C107.392 170.496 107.86 170.976 108.196 171.612C108.544 172.248 108.718 173.016 108.718 173.916V179.766H106.684V174.222C106.684 173.334 106.462 172.656 106.018 172.188C105.574 171.708 104.968 171.468 104.2 171.468C103.432 171.468 102.82 171.708 102.364 172.188C101.92 172.656 101.698 173.334 101.698 174.222V179.766H99.6461V166.446H101.698V171C102.046 170.58 102.484 170.256 103.012 170.028C103.552 169.8 104.14 169.686 104.776 169.686ZM121.753 177.21H116.515L115.615 179.766H113.473L117.955 167.238H120.331L124.813 179.766H122.653L121.753 177.21ZM121.177 175.536L119.143 169.722L117.091 175.536H121.177ZM127.914 166.446V179.766H125.862V166.446H127.914ZM129.024 174.798C129.024 173.778 129.228 172.884 129.636 172.116C130.056 171.336 130.632 170.736 131.364 170.316C132.096 169.896 132.936 169.686 133.884 169.686C135.084 169.686 136.074 169.974 136.854 170.55C137.646 171.114 138.18 171.924 138.456 172.98H136.242C136.062 172.488 135.774 172.104 135.378 171.828C134.982 171.552 134.484 171.414 133.884 171.414C133.044 171.414 132.372 171.714 131.868 172.314C131.376 172.902 131.13 173.73 131.13 174.798C131.13 175.866 131.376 176.7 131.868 177.3C132.372 177.9 133.044 178.2 133.884 178.2C135.072 178.2 135.858 177.678 136.242 176.634H138.456C138.168 177.642 137.628 178.446 136.836 179.046C136.044 179.634 135.06 179.928 133.884 179.928C132.936 179.928 132.096 179.718 131.364 179.298C130.632 178.866 130.056 178.266 129.636 177.498C129.228 176.718 129.024 175.818 129.024 174.798ZM144.731 169.686C145.487 169.686 146.159 169.848 146.747 170.172C147.347 170.496 147.815 170.976 148.151 171.612C148.499 172.248 148.673 173.016 148.673 173.916V179.766H146.639V174.222C146.639 173.334 146.417 172.656 145.973 172.188C145.529 171.708 144.923 171.468 144.155 171.468C143.387 171.468 142.775 171.708 142.319 172.188C141.875 172.656 141.653 173.334 141.653 174.222V179.766H139.601V166.446H141.653V171C142.001 170.58 142.439 170.256 142.967 170.028C143.507 169.8 144.095 169.686 144.731 169.686ZM159.481 174.564C159.481 174.936 159.457 175.272 159.409 175.572H151.831C151.891 176.364 152.185 177 152.713 177.48C153.241 177.96 153.889 178.2 154.657 178.2C155.761 178.2 156.541 177.738 156.997 176.814H159.211C158.911 177.726 158.365 178.476 157.573 179.064C156.793 179.64 155.821 179.928 154.657 179.928C153.709 179.928 152.857 179.718 152.101 179.298C151.357 178.866 150.769 178.266 150.337 177.498C149.917 176.718 149.707 175.818 149.707 174.798C149.707 173.778 149.911 172.884 150.319 172.116C150.739 171.336 151.321 170.736 152.065 170.316C152.821 169.896 153.685 169.686 154.657 169.686C155.593 169.686 156.427 169.89 157.159 170.298C157.891 170.706 158.461 171.282 158.869 172.026C159.277 172.758 159.481 173.604 159.481 174.564ZM157.339 173.916C157.327 173.16 157.057 172.554 156.529 172.098C156.001 171.642 155.347 171.414 154.567 171.414C153.859 171.414 153.253 171.642 152.749 172.098C152.245 172.542 151.945 173.148 151.849 173.916H157.339ZM172.606 169.686C173.386 169.686 174.082 169.848 174.694 170.172C175.318 170.496 175.804 170.976 176.152 171.612C176.512 172.248 176.692 173.016 176.692 173.916V179.766H174.658V174.222C174.658 173.334 174.436 172.656 173.992 172.188C173.548 171.708 172.942 171.468 172.174 171.468C171.406 171.468 170.794 171.708 170.338 172.188C169.894 172.656 169.672 173.334 169.672 174.222V179.766H167.638V174.222C167.638 173.334 167.416 172.656 166.972 172.188C166.528 171.708 165.922 171.468 165.154 171.468C164.386 171.468 163.774 171.708 163.318 172.188C162.874 172.656 162.652 173.334 162.652 174.222V179.766H160.6V169.848H162.652V170.982C162.988 170.574 163.414 170.256 163.93 170.028C164.446 169.8 164.998 169.686 165.586 169.686C166.378 169.686 167.086 169.854 167.71 170.19C168.334 170.526 168.814 171.012 169.15 171.648C169.45 171.048 169.918 170.574 170.554 170.226C171.19 169.866 171.874 169.686 172.606 169.686ZM187.331 169.848L181.247 184.428H179.123L181.139 179.604L177.233 169.848H179.519L182.309 177.408L185.207 169.848H187.331ZM89.2252 187.256V199.766H87.1732V191.198L83.3572 199.766H81.9352L78.1012 191.198V199.766H76.0492V187.256H78.2632L82.6552 197.066L87.0292 187.256H89.2252ZM90.3383 194.762C90.3383 193.766 90.5423 192.884 90.9503 192.116C91.3703 191.348 91.9343 190.754 92.6423 190.334C93.3623 189.902 94.1543 189.686 95.0183 189.686C95.7983 189.686 96.4763 189.842 97.0523 190.154C97.6403 190.454 98.1083 190.832 98.4563 191.288V189.848H100.526V199.766H98.4563V198.29C98.1083 198.758 97.6343 199.148 97.0343 199.46C96.4343 199.772 95.7503 199.928 94.9823 199.928C94.1303 199.928 93.3503 199.712 92.6423 199.28C91.9343 198.836 91.3703 198.224 90.9503 197.444C90.5423 196.652 90.3383 195.758 90.3383 194.762ZM98.4563 194.798C98.4563 194.114 98.3123 193.52 98.0243 193.016C97.7483 192.512 97.3823 192.128 96.9263 191.864C96.4703 191.6 95.9783 191.468 95.4503 191.468C94.9223 191.468 94.4303 191.6 93.9743 191.864C93.5183 192.116 93.1463 192.494 92.8583 192.998C92.5823 193.49 92.4443 194.078 92.4443 194.762C92.4443 195.446 92.5823 196.046 92.8583 196.562C93.1463 197.078 93.5183 197.474 93.9743 197.75C94.4423 198.014 94.9343 198.146 95.4503 198.146C95.9783 198.146 96.4703 198.014 96.9263 197.75C97.3823 197.486 97.7483 197.102 98.0243 196.598C98.3123 196.082 98.4563 195.482 98.4563 194.798ZM104.373 191.288C104.673 190.784 105.069 190.394 105.561 190.118C106.065 189.83 106.659 189.686 107.343 189.686V191.81H106.821C106.017 191.81 105.405 192.014 104.985 192.422C104.577 192.83 104.373 193.538 104.373 194.546V199.766H102.321V189.848H104.373V191.288ZM112.254 194.816L116.826 199.766H114.054L110.382 195.5V199.766H108.33V186.446H110.382V194.186L113.982 189.848H116.826L112.254 194.816ZM126.486 194.564C126.486 194.936 126.462 195.272 126.414 195.572H118.836C118.896 196.364 119.19 197 119.718 197.48C120.246 197.96 120.894 198.2 121.662 198.2C122.766 198.2 123.546 197.738 124.002 196.814H126.216C125.916 197.726 125.37 198.476 124.578 199.064C123.798 199.64 122.826 199.928 121.662 199.928C120.714 199.928 119.862 199.718 119.106 199.298C118.362 198.866 117.774 198.266 117.342 197.498C116.922 196.718 116.712 195.818 116.712 194.798C116.712 193.778 116.916 192.884 117.324 192.116C117.744 191.336 118.326 190.736 119.07 190.316C119.826 189.896 120.69 189.686 121.662 189.686C122.598 189.686 123.432 189.89 124.164 190.298C124.896 190.706 125.466 191.282 125.874 192.026C126.282 192.758 126.486 193.604 126.486 194.564ZM124.344 193.916C124.332 193.16 124.062 192.554 123.534 192.098C123.006 191.642 122.352 191.414 121.572 191.414C120.864 191.414 120.258 191.642 119.754 192.098C119.25 192.542 118.95 193.148 118.854 193.916H124.344ZM130 191.522V197.012C130 197.384 130.084 197.654 130.252 197.822C130.432 197.978 130.732 198.056 131.152 198.056H132.412V199.766H130.792C129.868 199.766 129.16 199.55 128.668 199.118C128.176 198.686 127.93 197.984 127.93 197.012V191.522H126.76V189.848H127.93V187.382H130V189.848H132.412V191.522H130ZM137.003 199.928C136.223 199.928 135.521 199.79 134.897 199.514C134.285 199.226 133.799 198.842 133.439 198.362C133.079 197.87 132.887 197.324 132.863 196.724H134.987C135.023 197.144 135.221 197.498 135.581 197.786C135.953 198.062 136.415 198.2 136.967 198.2C137.543 198.2 137.987 198.092 138.299 197.876C138.623 197.648 138.785 197.36 138.785 197.012C138.785 196.64 138.605 196.364 138.245 196.184C137.897 196.004 137.339 195.806 136.571 195.59C135.827 195.386 135.221 195.188 134.753 194.996C134.285 194.804 133.877 194.51 133.529 194.114C133.193 193.718 133.025 193.196 133.025 192.548C133.025 192.02 133.181 191.54 133.493 191.108C133.805 190.664 134.249 190.316 134.825 190.064C135.413 189.812 136.085 189.686 136.841 189.686C137.969 189.686 138.875 189.974 139.559 190.55C140.255 191.114 140.627 191.888 140.675 192.872H138.623C138.587 192.428 138.407 192.074 138.083 191.81C137.759 191.546 137.321 191.414 136.769 191.414C136.229 191.414 135.815 191.516 135.527 191.72C135.239 191.924 135.095 192.194 135.095 192.53C135.095 192.794 135.191 193.016 135.383 193.196C135.575 193.376 135.809 193.52 136.085 193.628C136.361 193.724 136.769 193.85 137.309 194.006C138.029 194.198 138.617 194.396 139.073 194.6C139.541 194.792 139.943 195.08 140.279 195.464C140.615 195.848 140.789 196.358 140.801 196.994C140.801 197.558 140.645 198.062 140.333 198.506C140.021 198.95 139.577 199.298 139.001 199.55C138.437 199.802 137.771 199.928 137.003 199.928Z" fill="white"/>
<path fill-rule="evenodd" clip-rule="evenodd" d="M82.6312 70.8613C82.8326 70.7656 83.0636 70.7656 83.5254 70.7656H83.8243C84.2861 70.7656 84.5171 70.7656 84.7185 70.8613C84.9199 70.957 85.0657 71.136 85.3575 71.494L92.6544 80.4484C92.6544 80.4484 86.0366 80.3584 85.0775 77.5135C84.6205 76.262 84.1015 73.5382 83.8749 72.0118C83.8653 71.9471 83.8605 71.9148 83.844 71.8912C83.8323 71.8746 83.8169 71.8612 83.7987 71.8521C83.7729 71.8392 83.7402 71.8392 83.6748 71.8392C83.6095 71.8392 83.5768 71.8392 83.551 71.8521C83.5328 71.8612 83.5174 71.8746 83.5057 71.8912C83.4892 71.9148 83.4844 71.9471 83.4748 72.0118C83.2481 73.5382 82.7292 76.262 82.2722 77.5135C81.3131 80.3584 74.6953 80.4484 74.6953 80.4484L81.9922 71.494C82.284 71.136 82.4298 70.957 82.6312 70.8613ZM82.6312 91.6699C82.8326 91.7656 83.0636 91.7656 83.5254 91.7656H83.8243C84.2861 91.7656 84.5171 91.7656 84.7185 91.6699C84.9199 91.5743 85.0657 91.3952 85.3575 91.0372L92.6544 82.0829C92.6544 82.0829 86.0366 82.1728 85.0775 85.0177C84.6205 86.2692 84.1015 88.9931 83.8749 90.5195C83.8653 90.5841 83.8605 90.6164 83.844 90.64C83.8323 90.6567 83.8169 90.67 83.7987 90.6791C83.7729 90.692 83.7402 90.692 83.6748 90.692C83.6095 90.692 83.5768 90.692 83.551 90.6791C83.5328 90.67 83.5174 90.6567 83.5057 90.64C83.4892 90.6164 83.4844 90.5841 83.4748 90.5195C83.2481 88.9931 82.7292 86.2692 82.2722 85.0177C81.3131 82.1728 74.6953 82.0829 74.6953 82.0829L81.9922 91.0372C82.284 91.3952 82.4298 91.5743 82.6312 91.6699Z" fill="white"/>
</g>
<rect x="58.3516" y="52.3516" width="164.297" height="168.297" rx="23.6484" stroke="#E8E8E8" stroke-opacity="0.5" stroke-width="0.703268"/>
</g>
<defs>
<filter id="filter0_d_1183_22957" x="0.599998" y="0.0333319" width="279.8" height="283.8" filterUnits="userSpaceOnUse" color-interpolation-filters="sRGB">
<feFlood flood-opacity="0" result="BackgroundImageFix"/>
<feColorMatrix in="SourceAlpha" type="matrix" values="0 0 0 0 0 0 0 0 0 0 0 0 0 0 0 0 0 0 127 0" result="hardAlpha"/>
<feOffset dy="5.43333"/>
<feGaussianBlur stdDeviation="28.7"/>
<feComposite in2="hardAlpha" operator="out"/>
<feColorMatrix type="matrix" values="0 0 0 0 0.432796 0 0 0 0 0.432796 0 0 0 0 0.432796 0 0 0 0.1 0"/>
<feBlend mode="normal" in2="BackgroundImageFix" result="effect1_dropShadow_1183_22957"/>
<feBlend mode="normal" in="SourceGraphic" in2="effect1_dropShadow_1183_22957" result="shape"/>
</filter>
<filter id="filter1_f_1183_22957" x="-114.215" y="1.93588" width="584.896" height="584.898" filterUnits="userSpaceOnUse" color-interpolation-filters="sRGB">
<feFlood flood-opacity="0" result="BackgroundImageFix"/>
<feBlend mode="normal" in="SourceGraphic" in2="BackgroundImageFix" result="shape"/>
<feGaussianBlur stdDeviation="108.563" result="effect1_foregroundBlur_1183_22957"/>
</filter>
<filter id="filter2_f_1183_22957" x="-11.777" y="-74.3922" width="584.896" height="584.898" filterUnits="userSpaceOnUse" color-interpolation-filters="sRGB">
<feFlood flood-opacity="0" result="BackgroundImageFix"/>
<feBlend mode="normal" in="SourceGraphic" in2="BackgroundImageFix" result="shape"/>
<feGaussianBlur stdDeviation="108.563" result="effect1_foregroundBlur_1183_22957"/>
</filter>
<filter id="filter3_f_1183_22957" x="43.058" y="55.7631" width="386.851" height="386.853" filterUnits="userSpaceOnUse" color-interpolation-filters="sRGB">
<feFlood flood-opacity="0" result="BackgroundImageFix"/>
<feBlend mode="normal" in="SourceGraphic" in2="BackgroundImageFix" result="shape"/>
<feGaussianBlur stdDeviation="74.6185" result="effect1_foregroundBlur_1183_22957"/>
</filter>
<filter id="filter4_b_1183_22957" x="-4.57874" y="-303.606" width="667.224" height="721.595" filterUnits="userSpaceOnUse" color-interpolation-filters="sRGB">
<feFlood flood-opacity="0" result="BackgroundImageFix"/>
<feGaussianBlur in="BackgroundImageFix" stdDeviation="27.2249"/>
<feComposite in2="SourceAlpha" operator="in" result="effect1_backgroundBlur_1183_22957"/>
<feBlend mode="normal" in="SourceGraphic" in2="effect1_backgroundBlur_1183_22957" result="shape"/>
</filter>
<filter id="filter5_b_1183_22957" x="28.9906" y="-360.501" width="692.9" height="708.9" filterUnits="userSpaceOnUse" color-interpolation-filters="sRGB">
<feFlood flood-opacity="0" result="BackgroundImageFix"/>
<feGaussianBlur in="BackgroundImageFix" stdDeviation="27.2249"/>
<feComposite in2="SourceAlpha" operator="in" result="effect1_backgroundBlur_1183_22957"/>
<feBlend mode="normal" in="SourceGraphic" in2="effect1_backgroundBlur_1183_22957" result="shape"/>
</filter>
<filter id="filter6_b_1183_22957" x="120.397" y="-274.442" width="537.927" height="559.447" filterUnits="userSpaceOnUse" color-interpolation-filters="sRGB">
<feFlood flood-opacity="0" result="BackgroundImageFix"/>
<feGaussianBlur in="BackgroundImageFix" stdDeviation="27.2249"/>
<feComposite in2="SourceAlpha" operator="in" result="effect1_backgroundBlur_1183_22957"/>
<feBlend mode="normal" in="SourceGraphic" in2="effect1_backgroundBlur_1183_22957" result="shape"/>
</filter>
<filter id="filter7_b_1183_22957" x="148.156" y="-297.614" width="480.12" height="523.189" filterUnits="userSpaceOnUse" color-interpolation-filters="sRGB">
<feFlood flood-opacity="0" result="BackgroundImageFix"/>
<feGaussianBlur in="BackgroundImageFix" stdDeviation="27.2249"/>
<feComposite in2="SourceAlpha" operator="in" result="effect1_backgroundBlur_1183_22957"/>
<feBlend mode="normal" in="SourceGraphic" in2="effect1_backgroundBlur_1183_22957" result="shape"/>
</filter>
<linearGradient id="paint0_linear_1183_22957" x1="216.659" y1="0" x2="216.659" y2="511.67" gradientUnits="userSpaceOnUse">
<stop stop-color="#848DF5"/>
<stop offset="1" stop-color="#6541F5"/>
</linearGradient>
<radialGradient id="paint1_radial_1183_22957" cx="0" cy="0" r="1" gradientUnits="userSpaceOnUse" gradientTransform="translate(276.764 308.376) rotate(90) scale(308.376 276.764)">
<stop stop-color="white" stop-opacity="0"/>
<stop offset="1" stop-color="white" stop-opacity="0.21"/>
</radialGradient>
<radialGradient id="paint2_radial_1183_22957" cx="0" cy="0" r="1" gradientUnits="userSpaceOnUse" gradientTransform="translate(291.266 300.566) rotate(90) scale(300.566 291.266)">
<stop stop-color="white" stop-opacity="0"/>
<stop offset="1" stop-color="white" stop-opacity="0.21"/>
</radialGradient>
<radialGradient id="paint3_radial_1183_22957" cx="0" cy="0" r="1" gradientUnits="userSpaceOnUse" gradientTransform="translate(212.769 226.808) rotate(90) scale(226.808 212.769)">
<stop stop-color="white" stop-opacity="0"/>
<stop offset="1" stop-color="white" stop-opacity="0.21"/>
</radialGradient>
<radialGradient id="paint4_radial_1183_22957" cx="0" cy="0" r="1" gradientUnits="userSpaceOnUse" gradientTransform="translate(183.702 208.746) rotate(90) scale(208.746 183.702)">
<stop stop-color="white" stop-opacity="0"/>
<stop offset="1" stop-color="white" stop-opacity="0.21"/>
</radialGradient>
<clipPath id="clip0_1183_22957">
<rect x="58" y="52" width="165" height="169" rx="24" fill="white"/>
</clipPath>
<clipPath id="clip1_1183_22957">
<rect width="433.319" height="511.67" rx="40.7525" transform="matrix(-1 -8.74228e-08 -8.74228e-08 1 491.016 -84.2344)" fill="white"/>
</clipPath>
</defs>
</svg>
