<svg width="628" height="345" viewBox="0 0 628 345" fill="none" xmlns="http://www.w3.org/2000/svg">
<path d="M169.444 111.176C169.444 127.34 162.902 130.384 236.153 130.948C279.108 131.279 314 165.896 314 208.852V208.852" stroke="#BBA3FB" stroke-width="1.20588"/>
<g clip-path="url(#clip0_4292_23631)">
<path d="M174.262 111.176C174.262 127.143 168.091 130.308 236.196 130.927C279.15 131.317 314 165.896 314 208.852V208.852" stroke="url(#paint0_linear_4292_23631)" stroke-width="1.20588"/>
</g>
<g clip-path="url(#clip1_4292_23631)">
<path d="M169.437 111.176C169.437 131.676 159.265 131.073 309.174 131.073" stroke="url(#paint1_linear_4292_23631)" stroke-width="1.20588"/>
</g>
<path d="M342.97 111V111C342.97 139.486 314 161.389 314 189.875V245" stroke="#BBA3FB" stroke-width="1.20588"/>
<g clip-path="url(#clip2_4292_23631)">
<path d="M342.97 111V111C342.97 139.486 314 161.389 314 189.875V245" stroke="url(#paint2_linear_4292_23631)" stroke-width="1.20588"/>
</g>
<path d="M459.761 111.176C459.761 127.386 466.395 130.401 391.86 130.953C348.905 131.271 314 165.896 314 208.852V208.852" stroke="#BBA3FB" stroke-width="1.20588"/>
<g clip-path="url(#clip3_4292_23631)">
<path d="M453.738 111.176C453.738 127.143 459.909 130.308 391.804 130.927C348.85 131.317 314 165.896 314 208.852V208.852" stroke="url(#paint3_linear_4292_23631)" stroke-width="1.20588"/>
</g>
<g clip-path="url(#clip4_4292_23631)">
<path d="M459.762 111.176C459.762 127.386 466.396 130.401 391.861 130.953C348.906 131.271 314.001 165.896 314.001 208.852V208.852" stroke="url(#paint4_linear_4292_23631)" stroke-width="1.20588"/>
</g>
<path d="M285.03 111V111C285.03 139.486 314 161.389 314 189.875V245" stroke="#BBA3FB" stroke-width="1.20588"/>
<g clip-path="url(#clip5_4292_23631)">
<path d="M285.03 111V111C285.03 139.486 314 161.389 314 189.875V245" stroke="url(#paint5_linear_4292_23631)" stroke-width="1.20588"/>
</g>
<g filter="url(#filter0_d_4292_23631)">
<rect x="262.617" y="181" width="103" height="40" rx="10.8529" fill="#5029B7" shape-rendering="crispEdges"/>
<path d="M297.097 194.1V195.96H293.397V208H291.117V195.96H287.397V194.1H297.097ZM300.686 198.58C301.02 198.02 301.46 197.587 302.006 197.28C302.566 196.96 303.226 196.8 303.986 196.8V199.16H303.406C302.513 199.16 301.833 199.387 301.366 199.84C300.913 200.293 300.686 201.08 300.686 202.2V208H298.406V196.98H300.686V198.58ZM304.322 202.44C304.322 201.333 304.549 200.353 305.002 199.5C305.469 198.647 306.095 197.987 306.882 197.52C307.682 197.04 308.562 196.8 309.522 196.8C310.389 196.8 311.142 196.973 311.782 197.32C312.435 197.653 312.955 198.073 313.342 198.58V196.98H315.642V208H313.342V206.36C312.955 206.88 312.429 207.313 311.762 207.66C311.095 208.007 310.335 208.18 309.482 208.18C308.535 208.18 307.669 207.94 306.882 207.46C306.095 206.967 305.469 206.287 305.002 205.42C304.549 204.54 304.322 203.547 304.322 202.44ZM313.342 202.48C313.342 201.72 313.182 201.06 312.862 200.5C312.555 199.94 312.149 199.513 311.642 199.22C311.135 198.927 310.589 198.78 310.002 198.78C309.415 198.78 308.869 198.927 308.362 199.22C307.855 199.5 307.442 199.92 307.122 200.48C306.815 201.027 306.662 201.68 306.662 202.44C306.662 203.2 306.815 203.867 307.122 204.44C307.442 205.013 307.855 205.453 308.362 205.76C308.882 206.053 309.429 206.2 310.002 206.2C310.589 206.2 311.135 206.053 311.642 205.76C312.149 205.467 312.555 205.04 312.862 204.48C313.182 203.907 313.342 203.24 313.342 202.48ZM316.877 202.44C316.877 201.333 317.103 200.353 317.557 199.5C318.023 198.647 318.65 197.987 319.437 197.52C320.237 197.04 321.123 196.8 322.097 196.8C322.817 196.8 323.523 196.96 324.217 197.28C324.923 197.587 325.483 198 325.897 198.52V193.2H328.197V208H325.897V206.34C325.523 206.873 325.003 207.313 324.337 207.66C323.683 208.007 322.93 208.18 322.077 208.18C321.117 208.18 320.237 207.94 319.437 207.46C318.65 206.967 318.023 206.287 317.557 205.42C317.103 204.54 316.877 203.547 316.877 202.44ZM325.897 202.48C325.897 201.72 325.737 201.06 325.417 200.5C325.11 199.94 324.703 199.513 324.197 199.22C323.69 198.927 323.143 198.78 322.557 198.78C321.97 198.78 321.423 198.927 320.917 199.22C320.41 199.5 319.997 199.92 319.677 200.48C319.37 201.027 319.217 201.68 319.217 202.44C319.217 203.2 319.37 203.867 319.677 204.44C319.997 205.013 320.41 205.453 320.917 205.76C321.437 206.053 321.983 206.2 322.557 206.2C323.143 206.2 323.69 206.053 324.197 205.76C324.703 205.467 325.11 205.04 325.417 204.48C325.737 203.907 325.897 203.24 325.897 202.48ZM340.291 202.22C340.291 202.633 340.265 203.007 340.211 203.34H331.791C331.858 204.22 332.185 204.927 332.771 205.46C333.358 205.993 334.078 206.26 334.931 206.26C336.158 206.26 337.025 205.747 337.531 204.72H339.991C339.658 205.733 339.051 206.567 338.171 207.22C337.305 207.86 336.225 208.18 334.931 208.18C333.878 208.18 332.931 207.947 332.091 207.48C331.265 207 330.611 206.333 330.131 205.48C329.665 204.613 329.431 203.613 329.431 202.48C329.431 201.347 329.658 200.353 330.111 199.5C330.578 198.633 331.225 197.967 332.051 197.5C332.891 197.033 333.851 196.8 334.931 196.8C335.971 196.8 336.898 197.027 337.711 197.48C338.525 197.933 339.158 198.573 339.611 199.4C340.065 200.213 340.291 201.153 340.291 202.22ZM337.911 201.5C337.898 200.66 337.598 199.987 337.011 199.48C336.425 198.973 335.698 198.72 334.831 198.72C334.045 198.72 333.371 198.973 332.811 199.48C332.251 199.973 331.918 200.647 331.811 201.5H337.911Z" fill="white"/>
<g filter="url(#filter1_f_4292_23631)">
<circle cx="314.234" cy="217.175" r="16.8824" fill="#BBA3FB"/>
</g>
</g>
<g filter="url(#filter2_d_4292_23631)">
<rect x="70" y="63" width="152" height="48" rx="24" fill="white" fill-opacity="0.4" shape-rendering="crispEdges"/>
<rect x="74" y="71" width="32" height="32" rx="16" fill="#A887FF" fill-opacity="0.16"/>
<path opacity="0.4" d="M96 94.1641H84C83.7267 94.1641 83.5 93.9374 83.5 93.6641C83.5 93.3907 83.7267 93.1641 84 93.1641H96C96.2733 93.1641 96.5 93.3907 96.5 93.6641C96.5 93.9374 96.2733 94.1641 96 94.1641Z" fill="#6438D6"/>
<path d="M85.7333 84.5898H84.6667C84.3 84.5898 84 84.8898 84 85.2565V91.0032C84 91.3698 84.3 91.6698 84.6667 91.6698H85.7333C86.1 91.6698 86.4 91.3698 86.4 91.0032V85.2565C86.4 84.8832 86.1 84.5898 85.7333 84.5898Z" fill="#6438D6"/>
<path d="M90.5336 82.4648H89.467C89.1003 82.4648 88.8003 82.7648 88.8003 83.1315V91.0048C88.8003 91.3715 89.1003 91.6715 89.467 91.6715H90.5336C90.9003 91.6715 91.2003 91.3715 91.2003 91.0048V83.1315C91.2003 82.7648 90.9003 82.4648 90.5336 82.4648Z" fill="#6438D6"/>
<path d="M95.3334 80.3359H94.2668C93.9001 80.3359 93.6001 80.6359 93.6001 81.0026V91.0026C93.6001 91.3693 93.9001 91.6693 94.2668 91.6693H95.3334C95.7001 91.6693 96.0001 91.3693 96.0001 91.0026V81.0026C96.0001 80.6359 95.7001 80.3359 95.3334 80.3359Z" fill="#6438D6"/>
<path d="M122.384 71.88V73.368H119.424V83H117.6V73.368H114.624V71.88H122.384ZM125.255 75.464C125.522 75.016 125.874 74.6693 126.311 74.424C126.759 74.168 127.287 74.04 127.895 74.04V75.928H127.431C126.717 75.928 126.173 76.1093 125.799 76.472C125.437 76.8347 125.255 77.464 125.255 78.36V83H123.431V74.184H125.255V75.464ZM128.164 78.552C128.164 77.6667 128.345 76.8827 128.708 76.2C129.081 75.5173 129.583 74.9893 130.212 74.616C130.852 74.232 131.556 74.04 132.324 74.04C133.017 74.04 133.62 74.1787 134.132 74.456C134.655 74.7227 135.071 75.0587 135.38 75.464V74.184H137.22V83H135.38V81.688C135.071 82.104 134.649 82.4507 134.116 82.728C133.583 83.0053 132.975 83.144 132.292 83.144C131.535 83.144 130.841 82.952 130.212 82.568C129.583 82.1733 129.081 81.6293 128.708 80.936C128.345 80.232 128.164 79.4373 128.164 78.552ZM135.38 78.584C135.38 77.976 135.252 77.448 134.996 77C134.751 76.552 134.425 76.2107 134.02 75.976C133.615 75.7413 133.177 75.624 132.708 75.624C132.239 75.624 131.801 75.7413 131.396 75.976C130.991 76.2 130.66 76.536 130.404 76.984C130.159 77.4213 130.036 77.944 130.036 78.552C130.036 79.16 130.159 79.6933 130.404 80.152C130.66 80.6107 130.991 80.9627 131.396 81.208C131.812 81.4427 132.249 81.56 132.708 81.56C133.177 81.56 133.615 81.4427 134.02 81.208C134.425 80.9733 134.751 80.632 134.996 80.184C135.252 79.7253 135.38 79.192 135.38 78.584ZM138.208 78.552C138.208 77.6667 138.389 76.8827 138.752 76.2C139.125 75.5173 139.626 74.9893 140.256 74.616C140.896 74.232 141.605 74.04 142.384 74.04C142.96 74.04 143.525 74.168 144.08 74.424C144.645 74.6693 145.093 75 145.424 75.416V71.16H147.264V83H145.424V81.672C145.125 82.0987 144.709 82.4507 144.176 82.728C143.653 83.0053 143.05 83.144 142.368 83.144C141.6 83.144 140.896 82.952 140.256 82.568C139.626 82.1733 139.125 81.6293 138.752 80.936C138.389 80.232 138.208 79.4373 138.208 78.552ZM145.424 78.584C145.424 77.976 145.296 77.448 145.04 77C144.794 76.552 144.469 76.2107 144.064 75.976C143.658 75.7413 143.221 75.624 142.752 75.624C142.282 75.624 141.845 75.7413 141.44 75.976C141.034 76.2 140.704 76.536 140.448 76.984C140.202 77.4213 140.08 77.944 140.08 78.552C140.08 79.16 140.202 79.6933 140.448 80.152C140.704 80.6107 141.034 80.9627 141.44 81.208C141.856 81.4427 142.293 81.56 142.752 81.56C143.221 81.56 143.658 81.4427 144.064 81.208C144.469 80.9733 144.794 80.632 145.04 80.184C145.296 79.7253 145.424 79.192 145.424 78.584ZM149.787 73.016C149.457 73.016 149.179 72.904 148.955 72.68C148.731 72.456 148.619 72.1787 148.619 71.848C148.619 71.5173 148.731 71.24 148.955 71.016C149.179 70.792 149.457 70.68 149.787 70.68C150.107 70.68 150.379 70.792 150.603 71.016C150.827 71.24 150.939 71.5173 150.939 71.848C150.939 72.1787 150.827 72.456 150.603 72.68C150.379 72.904 150.107 73.016 149.787 73.016ZM150.683 74.184V83H148.859V74.184H150.683ZM156.726 74.04C157.419 74.04 158.038 74.184 158.582 74.472C159.137 74.76 159.569 75.1867 159.878 75.752C160.187 76.3173 160.342 77 160.342 77.8V83H158.534V78.072C158.534 77.2827 158.337 76.68 157.942 76.264C157.547 75.8373 157.009 75.624 156.326 75.624C155.643 75.624 155.099 75.8373 154.694 76.264C154.299 76.68 154.102 77.2827 154.102 78.072V83H152.278V74.184H154.102V75.192C154.401 74.8293 154.779 74.5467 155.238 74.344C155.707 74.1413 156.203 74.04 156.726 74.04ZM165.421 74.04C166.103 74.04 166.706 74.1787 167.229 74.456C167.762 74.7227 168.178 75.0587 168.477 75.464V74.184H170.317V83.144C170.317 83.9547 170.146 84.6747 169.805 85.304C169.463 85.944 168.967 86.4453 168.317 86.808C167.677 87.1707 166.909 87.352 166.013 87.352C164.818 87.352 163.826 87.0693 163.037 86.504C162.247 85.9493 161.799 85.192 161.693 84.232H163.501C163.639 84.6907 163.933 85.0587 164.381 85.336C164.839 85.624 165.383 85.768 166.013 85.768C166.749 85.768 167.341 85.544 167.789 85.096C168.247 84.648 168.477 83.9973 168.477 83.144V81.672C168.167 82.088 167.746 82.44 167.213 82.728C166.69 83.0053 166.093 83.144 165.421 83.144C164.653 83.144 163.949 82.952 163.309 82.568C162.679 82.1733 162.178 81.6293 161.805 80.936C161.442 80.232 161.261 79.4373 161.261 78.552C161.261 77.6667 161.442 76.8827 161.805 76.2C162.178 75.5173 162.679 74.9893 163.309 74.616C163.949 74.232 164.653 74.04 165.421 74.04ZM168.477 78.584C168.477 77.976 168.349 77.448 168.093 77C167.847 76.552 167.522 76.2107 167.117 75.976C166.711 75.7413 166.274 75.624 165.805 75.624C165.335 75.624 164.898 75.7413 164.493 75.976C164.087 76.2 163.757 76.536 163.501 76.984C163.255 77.4213 163.133 77.944 163.133 78.552C163.133 79.16 163.255 79.6933 163.501 80.152C163.757 80.6107 164.087 80.9627 164.493 81.208C164.909 81.4427 165.346 81.56 165.805 81.56C166.274 81.56 166.711 81.4427 167.117 81.208C167.522 80.9733 167.847 80.632 168.093 80.184C168.349 79.7253 168.477 79.192 168.477 78.584ZM122.976 95.192C122.976 95.7573 122.843 96.2907 122.576 96.792C122.309 97.2933 121.883 97.704 121.296 98.024C120.709 98.3333 119.957 98.488 119.04 98.488H117.024V103H115.2V91.88H119.04C119.893 91.88 120.613 92.0293 121.2 92.328C121.797 92.616 122.24 93.0107 122.528 93.512C122.827 94.0133 122.976 94.5733 122.976 95.192ZM119.04 97C119.733 97 120.251 96.8453 120.592 96.536C120.933 96.216 121.104 95.768 121.104 95.192C121.104 93.976 120.416 93.368 119.04 93.368H117.024V97H119.04ZM125.74 91.16V103H123.916V91.16H125.74ZM126.726 98.552C126.726 97.6667 126.908 96.8827 127.27 96.2C127.644 95.5173 128.145 94.9893 128.774 94.616C129.414 94.232 130.118 94.04 130.886 94.04C131.58 94.04 132.182 94.1787 132.694 94.456C133.217 94.7227 133.633 95.0587 133.942 95.464V94.184H135.782V103H133.942V101.688C133.633 102.104 133.212 102.451 132.678 102.728C132.145 103.005 131.537 103.144 130.854 103.144C130.097 103.144 129.404 102.952 128.774 102.568C128.145 102.173 127.644 101.629 127.27 100.936C126.908 100.232 126.726 99.4373 126.726 98.552ZM133.942 98.584C133.942 97.976 133.814 97.448 133.558 97C133.313 96.552 132.988 96.2107 132.582 95.976C132.177 95.7413 131.74 95.624 131.27 95.624C130.801 95.624 130.364 95.7413 129.958 95.976C129.553 96.2 129.222 96.536 128.966 96.984C128.721 97.4213 128.598 97.944 128.598 98.552C128.598 99.16 128.721 99.6933 128.966 100.152C129.222 100.611 129.553 100.963 129.958 101.208C130.374 101.443 130.812 101.56 131.27 101.56C131.74 101.56 132.177 101.443 132.582 101.208C132.988 100.973 133.313 100.632 133.558 100.184C133.814 99.7253 133.942 99.192 133.942 98.584ZM139.506 95.672V100.552C139.506 100.883 139.581 101.123 139.73 101.272C139.89 101.411 140.157 101.48 140.53 101.48H141.65V103H140.21C139.389 103 138.759 102.808 138.322 102.424C137.885 102.04 137.666 101.416 137.666 100.552V95.672H136.626V94.184H137.666V91.992H139.506V94.184H141.65V95.672H139.506ZM146.227 95.672H144.595V103H142.755V95.672H141.715V94.184H142.755V93.56C142.755 92.5467 143.022 91.8107 143.555 91.352C144.099 90.8827 144.947 90.648 146.099 90.648V92.168C145.545 92.168 145.155 92.2747 144.931 92.488C144.707 92.6907 144.595 93.048 144.595 93.56V94.184H146.227V95.672ZM150.868 103.144C150.036 103.144 149.284 102.957 148.612 102.584C147.94 102.2 147.412 101.667 147.028 100.984C146.644 100.291 146.452 99.4907 146.452 98.584C146.452 97.688 146.649 96.8933 147.044 96.2C147.438 95.5067 147.977 94.9733 148.66 94.6C149.342 94.2267 150.105 94.04 150.948 94.04C151.79 94.04 152.553 94.2267 153.236 94.6C153.918 94.9733 154.457 95.5067 154.852 96.2C155.246 96.8933 155.444 97.688 155.444 98.584C155.444 99.48 155.241 100.275 154.836 100.968C154.43 101.661 153.876 102.2 153.172 102.584C152.478 102.957 151.71 103.144 150.868 103.144ZM150.868 101.56C151.337 101.56 151.774 101.448 152.18 101.224C152.596 101 152.932 100.664 153.188 100.216C153.444 99.768 153.572 99.224 153.572 98.584C153.572 97.944 153.449 97.4053 153.204 96.968C152.958 96.52 152.633 96.184 152.228 95.96C151.822 95.736 151.385 95.624 150.916 95.624C150.446 95.624 150.009 95.736 149.604 95.96C149.209 96.184 148.894 96.52 148.66 96.968C148.425 97.4053 148.308 97.944 148.308 98.584C148.308 99.5333 148.548 100.269 149.028 100.792C149.518 101.304 150.132 101.56 150.868 101.56ZM158.271 95.464C158.538 95.016 158.89 94.6693 159.327 94.424C159.775 94.168 160.303 94.04 160.911 94.04V95.928H160.447C159.732 95.928 159.188 96.1093 158.815 96.472C158.452 96.8347 158.271 97.464 158.271 98.36V103H156.447V94.184H158.271V95.464ZM172.46 94.04C173.153 94.04 173.772 94.184 174.316 94.472C174.87 94.76 175.302 95.1867 175.612 95.752C175.932 96.3173 176.092 97 176.092 97.8V103H174.284V98.072C174.284 97.2827 174.086 96.68 173.692 96.264C173.297 95.8373 172.758 95.624 172.076 95.624C171.393 95.624 170.849 95.8373 170.444 96.264C170.049 96.68 169.852 97.2827 169.852 98.072V103H168.044V98.072C168.044 97.2827 167.846 96.68 167.452 96.264C167.057 95.8373 166.518 95.624 165.836 95.624C165.153 95.624 164.609 95.8373 164.204 96.264C163.809 96.68 163.612 97.2827 163.612 98.072V103H161.788V94.184H163.612V95.192C163.91 94.8293 164.289 94.5467 164.748 94.344C165.206 94.1413 165.697 94.04 166.22 94.04C166.924 94.04 167.553 94.1893 168.108 94.488C168.662 94.7867 169.089 95.2187 169.388 95.784C169.654 95.2507 170.07 94.8293 170.636 94.52C171.201 94.2 171.809 94.04 172.46 94.04ZM180.812 103.144C180.119 103.144 179.495 103.021 178.94 102.776C178.396 102.52 177.964 102.179 177.644 101.752C177.324 101.315 177.154 100.829 177.132 100.296H179.02C179.052 100.669 179.228 100.984 179.548 101.24C179.879 101.485 180.29 101.608 180.78 101.608C181.292 101.608 181.687 101.512 181.964 101.32C182.252 101.117 182.396 100.861 182.396 100.552C182.396 100.221 182.236 99.976 181.916 99.816C181.607 99.656 181.111 99.48 180.428 99.288C179.767 99.1067 179.228 98.9307 178.812 98.76C178.396 98.5893 178.034 98.328 177.724 97.976C177.426 97.624 177.276 97.16 177.276 96.584C177.276 96.1147 177.415 95.688 177.692 95.304C177.97 94.9093 178.364 94.6 178.876 94.376C179.399 94.152 179.996 94.04 180.668 94.04C181.671 94.04 182.476 94.296 183.084 94.808C183.703 95.3093 184.034 95.9973 184.076 96.872H182.252C182.22 96.4773 182.06 96.1627 181.772 95.928C181.484 95.6933 181.095 95.576 180.604 95.576C180.124 95.576 179.756 95.6667 179.5 95.848C179.244 96.0293 179.116 96.2693 179.116 96.568C179.116 96.8027 179.202 97 179.372 97.16C179.543 97.32 179.751 97.448 179.996 97.544C180.242 97.6293 180.604 97.7413 181.084 97.88C181.724 98.0507 182.247 98.2267 182.652 98.408C183.068 98.5787 183.426 98.8347 183.724 99.176C184.023 99.5173 184.178 99.9707 184.188 100.536C184.188 101.037 184.05 101.485 183.772 101.88C183.495 102.275 183.1 102.584 182.588 102.808C182.087 103.032 181.495 103.144 180.812 103.144Z" fill="#6438D6"/>
</g>
<g filter="url(#filter3_d_4292_23631)">
<rect x="238" y="63" width="152" height="48" rx="24" fill="white" fill-opacity="0.4" shape-rendering="crispEdges"/>
<rect x="242" y="71" width="32" height="32" rx="16" fill="#A887FF" fill-opacity="0.16"/>
<path d="M260.347 80.932C259.947 80.532 259.367 80.332 258.62 80.332H254.9C253.4 80.332 252.573 81.1587 252.573 82.6587C252.573 83.4054 252.773 83.9854 253.173 84.3854C253.573 84.7854 254.153 84.9854 254.9 84.9854H258.62C260.12 84.9854 260.947 84.1587 260.947 82.6587C260.947 81.912 260.747 81.332 260.347 80.932Z" fill="#6438D6"/>
<path opacity="0.4" d="M257.067 89.0156H256.447C255.813 89.0156 255.053 89.2556 255.053 90.409V92.269C255.053 93.4223 255.813 93.6623 256.447 93.6623H257.067C257.7 93.6623 258.46 93.4223 258.46 92.269V90.409C258.467 89.2623 257.707 89.0156 257.067 89.0156Z" fill="#6438D6"/>
<path opacity="0.4" d="M261.1 82.1953H260.913C260.933 82.342 260.946 82.4953 260.946 82.662C260.946 82.8286 260.933 82.982 260.913 83.1286H261.1C262.493 83.1286 262.493 83.3153 262.493 84.522V85.762C262.493 86.9686 262.493 87.1553 261.1 87.1553H258.62C256.626 87.1553 256.34 88.102 256.3 89.022C256.346 89.022 256.4 89.0153 256.446 89.0153H257.066C257.12 89.0153 257.173 89.022 257.233 89.022C257.266 88.3486 257.46 88.082 258.62 88.082H261.1C263.266 88.082 263.426 87.202 263.426 85.7553V84.522C263.426 83.0753 263.266 82.1953 261.1 82.1953Z" fill="#6438D6"/>
<path d="M290.384 71.88V73.368H287.424V83H285.6V73.368H282.624V71.88H290.384ZM293.255 75.464C293.522 75.016 293.874 74.6693 294.311 74.424C294.759 74.168 295.287 74.04 295.895 74.04V75.928H295.431C294.717 75.928 294.173 76.1093 293.799 76.472C293.437 76.8347 293.255 77.464 293.255 78.36V83H291.431V74.184H293.255V75.464ZM296.164 78.552C296.164 77.6667 296.345 76.8827 296.708 76.2C297.081 75.5173 297.583 74.9893 298.212 74.616C298.852 74.232 299.556 74.04 300.324 74.04C301.017 74.04 301.62 74.1787 302.132 74.456C302.655 74.7227 303.071 75.0587 303.38 75.464V74.184H305.22V83H303.38V81.688C303.071 82.104 302.649 82.4507 302.116 82.728C301.583 83.0053 300.975 83.144 300.292 83.144C299.535 83.144 298.841 82.952 298.212 82.568C297.583 82.1733 297.081 81.6293 296.708 80.936C296.345 80.232 296.164 79.4373 296.164 78.552ZM303.38 78.584C303.38 77.976 303.252 77.448 302.996 77C302.751 76.552 302.425 76.2107 302.02 75.976C301.615 75.7413 301.177 75.624 300.708 75.624C300.239 75.624 299.801 75.7413 299.396 75.976C298.991 76.2 298.66 76.536 298.404 76.984C298.159 77.4213 298.036 77.944 298.036 78.552C298.036 79.16 298.159 79.6933 298.404 80.152C298.66 80.6107 298.991 80.9627 299.396 81.208C299.812 81.4427 300.249 81.56 300.708 81.56C301.177 81.56 301.615 81.4427 302.02 81.208C302.425 80.9733 302.751 80.632 302.996 80.184C303.252 79.7253 303.38 79.192 303.38 78.584ZM306.208 78.552C306.208 77.6667 306.389 76.8827 306.752 76.2C307.125 75.5173 307.626 74.9893 308.256 74.616C308.896 74.232 309.605 74.04 310.384 74.04C310.96 74.04 311.525 74.168 312.08 74.424C312.645 74.6693 313.093 75 313.424 75.416V71.16H315.264V83H313.424V81.672C313.125 82.0987 312.709 82.4507 312.176 82.728C311.653 83.0053 311.05 83.144 310.368 83.144C309.6 83.144 308.896 82.952 308.256 82.568C307.626 82.1733 307.125 81.6293 306.752 80.936C306.389 80.232 306.208 79.4373 306.208 78.552ZM313.424 78.584C313.424 77.976 313.296 77.448 313.04 77C312.794 76.552 312.469 76.2107 312.064 75.976C311.658 75.7413 311.221 75.624 310.752 75.624C310.282 75.624 309.845 75.7413 309.44 75.976C309.034 76.2 308.704 76.536 308.448 76.984C308.202 77.4213 308.08 77.944 308.08 78.552C308.08 79.16 308.202 79.6933 308.448 80.152C308.704 80.6107 309.034 80.9627 309.44 81.208C309.856 81.4427 310.293 81.56 310.752 81.56C311.221 81.56 311.658 81.4427 312.064 81.208C312.469 80.9733 312.794 80.632 313.04 80.184C313.296 79.7253 313.424 79.192 313.424 78.584ZM317.787 73.016C317.457 73.016 317.179 72.904 316.955 72.68C316.731 72.456 316.619 72.1787 316.619 71.848C316.619 71.5173 316.731 71.24 316.955 71.016C317.179 70.792 317.457 70.68 317.787 70.68C318.107 70.68 318.379 70.792 318.603 71.016C318.827 71.24 318.939 71.5173 318.939 71.848C318.939 72.1787 318.827 72.456 318.603 72.68C318.379 72.904 318.107 73.016 317.787 73.016ZM318.683 74.184V83H316.859V74.184H318.683ZM324.726 74.04C325.419 74.04 326.038 74.184 326.582 74.472C327.137 74.76 327.569 75.1867 327.878 75.752C328.187 76.3173 328.342 77 328.342 77.8V83H326.534V78.072C326.534 77.2827 326.337 76.68 325.942 76.264C325.547 75.8373 325.009 75.624 324.326 75.624C323.643 75.624 323.099 75.8373 322.694 76.264C322.299 76.68 322.102 77.2827 322.102 78.072V83H320.278V74.184H322.102V75.192C322.401 74.8293 322.779 74.5467 323.238 74.344C323.707 74.1413 324.203 74.04 324.726 74.04ZM333.421 74.04C334.103 74.04 334.706 74.1787 335.229 74.456C335.762 74.7227 336.178 75.0587 336.477 75.464V74.184H338.317V83.144C338.317 83.9547 338.146 84.6747 337.805 85.304C337.463 85.944 336.967 86.4453 336.317 86.808C335.677 87.1707 334.909 87.352 334.013 87.352C332.818 87.352 331.826 87.0693 331.037 86.504C330.247 85.9493 329.799 85.192 329.693 84.232H331.501C331.639 84.6907 331.933 85.0587 332.381 85.336C332.839 85.624 333.383 85.768 334.013 85.768C334.749 85.768 335.341 85.544 335.789 85.096C336.247 84.648 336.477 83.9973 336.477 83.144V81.672C336.167 82.088 335.746 82.44 335.213 82.728C334.69 83.0053 334.093 83.144 333.421 83.144C332.653 83.144 331.949 82.952 331.309 82.568C330.679 82.1733 330.178 81.6293 329.805 80.936C329.442 80.232 329.261 79.4373 329.261 78.552C329.261 77.6667 329.442 76.8827 329.805 76.2C330.178 75.5173 330.679 74.9893 331.309 74.616C331.949 74.232 332.653 74.04 333.421 74.04ZM336.477 78.584C336.477 77.976 336.349 77.448 336.093 77C335.847 76.552 335.522 76.2107 335.117 75.976C334.711 75.7413 334.274 75.624 333.805 75.624C333.335 75.624 332.898 75.7413 332.493 75.976C332.087 76.2 331.757 76.536 331.501 76.984C331.255 77.4213 331.133 77.944 331.133 78.552C331.133 79.16 331.255 79.6933 331.501 80.152C331.757 80.6107 332.087 80.9627 332.493 81.208C332.909 81.4427 333.346 81.56 333.805 81.56C334.274 81.56 334.711 81.4427 335.117 81.208C335.522 80.9733 335.847 80.632 336.093 80.184C336.349 79.7253 336.477 79.192 336.477 78.584ZM290.384 91.88V93.368H287.424V103H285.6V93.368H282.624V91.88H290.384ZM295.255 103.144C294.423 103.144 293.671 102.957 292.999 102.584C292.327 102.2 291.799 101.667 291.415 100.984C291.031 100.291 290.839 99.4907 290.839 98.584C290.839 97.688 291.037 96.8933 291.431 96.2C291.826 95.5067 292.365 94.9733 293.047 94.6C293.73 94.2267 294.493 94.04 295.335 94.04C296.178 94.04 296.941 94.2267 297.623 94.6C298.306 94.9733 298.845 95.5067 299.239 96.2C299.634 96.8933 299.831 97.688 299.831 98.584C299.831 99.48 299.629 100.275 299.223 100.968C298.818 101.661 298.263 102.2 297.559 102.584C296.866 102.957 296.098 103.144 295.255 103.144ZM295.255 101.56C295.725 101.56 296.162 101.448 296.567 101.224C296.983 101 297.319 100.664 297.575 100.216C297.831 99.768 297.959 99.224 297.959 98.584C297.959 97.944 297.837 97.4053 297.591 96.968C297.346 96.52 297.021 96.184 296.615 95.96C296.21 95.736 295.773 95.624 295.303 95.624C294.834 95.624 294.397 95.736 293.991 95.96C293.597 96.184 293.282 96.52 293.047 96.968C292.813 97.4053 292.695 97.944 292.695 98.584C292.695 99.5333 292.935 100.269 293.415 100.792C293.906 101.304 294.519 101.56 295.255 101.56ZM304.658 103.144C303.826 103.144 303.074 102.957 302.402 102.584C301.73 102.2 301.202 101.667 300.818 100.984C300.434 100.291 300.242 99.4907 300.242 98.584C300.242 97.688 300.44 96.8933 300.834 96.2C301.229 95.5067 301.768 94.9733 302.45 94.6C303.133 94.2267 303.896 94.04 304.738 94.04C305.581 94.04 306.344 94.2267 307.026 94.6C307.709 94.9733 308.248 95.5067 308.642 96.2C309.037 96.8933 309.234 97.688 309.234 98.584C309.234 99.48 309.032 100.275 308.626 100.968C308.221 101.661 307.666 102.2 306.962 102.584C306.269 102.957 305.501 103.144 304.658 103.144ZM304.658 101.56C305.128 101.56 305.565 101.448 305.97 101.224C306.386 101 306.722 100.664 306.978 100.216C307.234 99.768 307.362 99.224 307.362 98.584C307.362 97.944 307.24 97.4053 306.994 96.968C306.749 96.52 306.424 96.184 306.018 95.96C305.613 95.736 305.176 95.624 304.706 95.624C304.237 95.624 303.8 95.736 303.394 95.96C303 96.184 302.685 96.52 302.45 96.968C302.216 97.4053 302.098 97.944 302.098 98.584C302.098 99.5333 302.338 100.269 302.818 100.792C303.309 101.304 303.922 101.56 304.658 101.56ZM312.062 91.16V103H310.238V91.16H312.062ZM316.856 103.144C316.163 103.144 315.539 103.021 314.984 102.776C314.44 102.52 314.008 102.179 313.688 101.752C313.368 101.315 313.198 100.829 313.176 100.296H315.064C315.096 100.669 315.272 100.984 315.592 101.24C315.923 101.485 316.334 101.608 316.824 101.608C317.336 101.608 317.731 101.512 318.008 101.32C318.296 101.117 318.44 100.861 318.44 100.552C318.44 100.221 318.28 99.976 317.96 99.816C317.651 99.656 317.155 99.48 316.472 99.288C315.811 99.1067 315.272 98.9307 314.856 98.76C314.44 98.5893 314.078 98.328 313.768 97.976C313.47 97.624 313.32 97.16 313.32 96.584C313.32 96.1147 313.459 95.688 313.736 95.304C314.014 94.9093 314.408 94.6 314.92 94.376C315.443 94.152 316.04 94.04 316.712 94.04C317.715 94.04 318.52 94.296 319.128 94.808C319.747 95.3093 320.078 95.9973 320.12 96.872H318.296C318.264 96.4773 318.104 96.1627 317.816 95.928C317.528 95.6933 317.139 95.576 316.648 95.576C316.168 95.576 315.8 95.6667 315.544 95.848C315.288 96.0293 315.16 96.2693 315.16 96.568C315.16 96.8027 315.246 97 315.416 97.16C315.587 97.32 315.795 97.448 316.04 97.544C316.286 97.6293 316.648 97.7413 317.128 97.88C317.768 98.0507 318.291 98.2267 318.696 98.408C319.112 98.5787 319.47 98.8347 319.768 99.176C320.067 99.5173 320.222 99.9707 320.232 100.536C320.232 101.037 320.094 101.485 319.816 101.88C319.539 102.275 319.144 102.584 318.632 102.808C318.131 103.032 317.539 103.144 316.856 103.144Z" fill="#6438D6"/>
</g>
<g filter="url(#filter4_d_4292_23631)">
<rect x="406" y="63" width="152" height="48" rx="24" fill="white" fill-opacity="0.4" shape-rendering="crispEdges"/>
<rect x="410" y="71" width="32" height="32" rx="16" fill="#A887FF" fill-opacity="0.16"/>
<path opacity="0.4" d="M429.687 84.1787C429.64 84.172 429.593 84.172 429.547 84.1787C428.513 84.1454 427.693 83.2987 427.693 82.2587C427.693 81.1987 428.553 80.332 429.62 80.332C430.68 80.332 431.547 81.192 431.547 82.2587C431.54 83.2987 430.72 84.1454 429.687 84.1787Z" fill="#6438D6"/>
<path opacity="0.4" d="M431.86 88.8003C431.113 89.3003 430.066 89.4869 429.1 89.3603C429.353 88.8136 429.486 88.2069 429.493 87.5669C429.493 86.9003 429.346 86.2669 429.066 85.7136C430.053 85.5803 431.1 85.7669 431.853 86.2669C432.906 86.9603 432.906 88.1003 431.86 88.8003Z" fill="#6438D6"/>
<path opacity="0.4" d="M422.294 84.1787C422.34 84.172 422.387 84.172 422.434 84.1787C423.467 84.1454 424.287 83.2987 424.287 82.2587C424.287 81.1987 423.427 80.332 422.36 80.332C421.3 80.332 420.434 81.192 420.434 82.2587C420.44 83.2987 421.26 84.1454 422.294 84.1787Z" fill="#6438D6"/>
<path opacity="0.4" d="M422.367 87.5671C422.367 88.2137 422.507 88.8271 422.76 89.3804C421.82 89.4804 420.84 89.2804 420.12 88.8071C419.067 88.1071 419.067 86.9671 420.12 86.2671C420.833 85.7871 421.84 85.5937 422.787 85.7004C422.513 86.2604 422.367 86.8937 422.367 87.5671Z" fill="#6438D6"/>
<path d="M426.08 89.58C426.026 89.5733 425.966 89.5733 425.906 89.58C424.68 89.54 423.7 88.5333 423.7 87.2933C423.7 86.0267 424.72 85 425.993 85C427.26 85 428.286 86.0267 428.286 87.2933C428.286 88.5333 427.313 89.54 426.08 89.58Z" fill="#6438D6"/>
<path d="M423.913 90.9617C422.907 91.6351 422.907 92.7417 423.913 93.4084C425.06 94.1751 426.94 94.1751 428.087 93.4084C429.093 92.7351 429.093 91.6284 428.087 90.9617C426.947 90.1951 425.067 90.1951 423.913 90.9617Z" fill="#6438D6"/>
<path d="M458.384 71.88V73.368H455.424V83H453.6V73.368H450.624V71.88H458.384ZM461.255 75.464C461.522 75.016 461.874 74.6693 462.311 74.424C462.759 74.168 463.287 74.04 463.895 74.04V75.928H463.431C462.717 75.928 462.173 76.1093 461.799 76.472C461.437 76.8347 461.255 77.464 461.255 78.36V83H459.431V74.184H461.255V75.464ZM464.164 78.552C464.164 77.6667 464.345 76.8827 464.708 76.2C465.081 75.5173 465.583 74.9893 466.212 74.616C466.852 74.232 467.556 74.04 468.324 74.04C469.017 74.04 469.62 74.1787 470.132 74.456C470.655 74.7227 471.071 75.0587 471.38 75.464V74.184H473.22V83H471.38V81.688C471.071 82.104 470.649 82.4507 470.116 82.728C469.583 83.0053 468.975 83.144 468.292 83.144C467.535 83.144 466.841 82.952 466.212 82.568C465.583 82.1733 465.081 81.6293 464.708 80.936C464.345 80.232 464.164 79.4373 464.164 78.552ZM471.38 78.584C471.38 77.976 471.252 77.448 470.996 77C470.751 76.552 470.425 76.2107 470.02 75.976C469.615 75.7413 469.177 75.624 468.708 75.624C468.239 75.624 467.801 75.7413 467.396 75.976C466.991 76.2 466.66 76.536 466.404 76.984C466.159 77.4213 466.036 77.944 466.036 78.552C466.036 79.16 466.159 79.6933 466.404 80.152C466.66 80.6107 466.991 80.9627 467.396 81.208C467.812 81.4427 468.249 81.56 468.708 81.56C469.177 81.56 469.615 81.4427 470.02 81.208C470.425 80.9733 470.751 80.632 470.996 80.184C471.252 79.7253 471.38 79.192 471.38 78.584ZM474.208 78.552C474.208 77.6667 474.389 76.8827 474.752 76.2C475.125 75.5173 475.626 74.9893 476.256 74.616C476.896 74.232 477.605 74.04 478.384 74.04C478.96 74.04 479.525 74.168 480.08 74.424C480.645 74.6693 481.093 75 481.424 75.416V71.16H483.264V83H481.424V81.672C481.125 82.0987 480.709 82.4507 480.176 82.728C479.653 83.0053 479.05 83.144 478.368 83.144C477.6 83.144 476.896 82.952 476.256 82.568C475.626 82.1733 475.125 81.6293 474.752 80.936C474.389 80.232 474.208 79.4373 474.208 78.552ZM481.424 78.584C481.424 77.976 481.296 77.448 481.04 77C480.794 76.552 480.469 76.2107 480.064 75.976C479.658 75.7413 479.221 75.624 478.752 75.624C478.282 75.624 477.845 75.7413 477.44 75.976C477.034 76.2 476.704 76.536 476.448 76.984C476.202 77.4213 476.08 77.944 476.08 78.552C476.08 79.16 476.202 79.6933 476.448 80.152C476.704 80.6107 477.034 80.9627 477.44 81.208C477.856 81.4427 478.293 81.56 478.752 81.56C479.221 81.56 479.658 81.4427 480.064 81.208C480.469 80.9733 480.794 80.632 481.04 80.184C481.296 79.7253 481.424 79.192 481.424 78.584ZM485.787 73.016C485.457 73.016 485.179 72.904 484.955 72.68C484.731 72.456 484.619 72.1787 484.619 71.848C484.619 71.5173 484.731 71.24 484.955 71.016C485.179 70.792 485.457 70.68 485.787 70.68C486.107 70.68 486.379 70.792 486.603 71.016C486.827 71.24 486.939 71.5173 486.939 71.848C486.939 72.1787 486.827 72.456 486.603 72.68C486.379 72.904 486.107 73.016 485.787 73.016ZM486.683 74.184V83H484.859V74.184H486.683ZM492.726 74.04C493.419 74.04 494.038 74.184 494.582 74.472C495.137 74.76 495.569 75.1867 495.878 75.752C496.187 76.3173 496.342 77 496.342 77.8V83H494.534V78.072C494.534 77.2827 494.337 76.68 493.942 76.264C493.547 75.8373 493.009 75.624 492.326 75.624C491.643 75.624 491.099 75.8373 490.694 76.264C490.299 76.68 490.102 77.2827 490.102 78.072V83H488.278V74.184H490.102V75.192C490.401 74.8293 490.779 74.5467 491.238 74.344C491.707 74.1413 492.203 74.04 492.726 74.04ZM501.421 74.04C502.103 74.04 502.706 74.1787 503.229 74.456C503.762 74.7227 504.178 75.0587 504.477 75.464V74.184H506.317V83.144C506.317 83.9547 506.146 84.6747 505.805 85.304C505.463 85.944 504.967 86.4453 504.317 86.808C503.677 87.1707 502.909 87.352 502.013 87.352C500.818 87.352 499.826 87.0693 499.037 86.504C498.247 85.9493 497.799 85.192 497.693 84.232H499.501C499.639 84.6907 499.933 85.0587 500.381 85.336C500.839 85.624 501.383 85.768 502.013 85.768C502.749 85.768 503.341 85.544 503.789 85.096C504.247 84.648 504.477 83.9973 504.477 83.144V81.672C504.167 82.088 503.746 82.44 503.213 82.728C502.69 83.0053 502.093 83.144 501.421 83.144C500.653 83.144 499.949 82.952 499.309 82.568C498.679 82.1733 498.178 81.6293 497.805 80.936C497.442 80.232 497.261 79.4373 497.261 78.552C497.261 77.6667 497.442 76.8827 497.805 76.2C498.178 75.5173 498.679 74.9893 499.309 74.616C499.949 74.232 500.653 74.04 501.421 74.04ZM504.477 78.584C504.477 77.976 504.349 77.448 504.093 77C503.847 76.552 503.522 76.2107 503.117 75.976C502.711 75.7413 502.274 75.624 501.805 75.624C501.335 75.624 500.898 75.7413 500.493 75.976C500.087 76.2 499.757 76.536 499.501 76.984C499.255 77.4213 499.133 77.944 499.133 78.552C499.133 79.16 499.255 79.6933 499.501 80.152C499.757 80.6107 500.087 80.9627 500.493 81.208C500.909 81.4427 501.346 81.56 501.805 81.56C502.274 81.56 502.711 81.4427 503.117 81.208C503.522 80.9733 503.847 80.632 504.093 80.184C504.349 79.7253 504.477 79.192 504.477 78.584ZM450.592 97.416C450.592 96.328 450.843 95.352 451.344 94.488C451.856 93.624 452.544 92.952 453.408 92.472C454.283 91.9813 455.237 91.736 456.272 91.736C457.456 91.736 458.507 92.0293 459.424 92.616C460.352 93.192 461.024 94.0133 461.44 95.08H459.248C458.96 94.4933 458.56 94.056 458.048 93.768C457.536 93.48 456.944 93.336 456.272 93.336C455.536 93.336 454.88 93.5013 454.304 93.832C453.728 94.1627 453.275 94.6373 452.944 95.256C452.624 95.8747 452.464 96.5947 452.464 97.416C452.464 98.2373 452.624 98.9573 452.944 99.576C453.275 100.195 453.728 100.675 454.304 101.016C454.88 101.347 455.536 101.512 456.272 101.512C456.944 101.512 457.536 101.368 458.048 101.08C458.56 100.792 458.96 100.355 459.248 99.768H461.44C461.024 100.835 460.352 101.656 459.424 102.232C458.507 102.808 457.456 103.096 456.272 103.096C455.227 103.096 454.272 102.856 453.408 102.376C452.544 101.885 451.856 101.208 451.344 100.344C450.843 99.48 450.592 98.504 450.592 97.416ZM466.599 103.144C465.767 103.144 465.015 102.957 464.343 102.584C463.671 102.2 463.143 101.667 462.759 100.984C462.375 100.291 462.183 99.4907 462.183 98.584C462.183 97.688 462.38 96.8933 462.775 96.2C463.17 95.5067 463.708 94.9733 464.391 94.6C465.074 94.2267 465.836 94.04 466.679 94.04C467.522 94.04 468.284 94.2267 468.967 94.6C469.65 94.9733 470.188 95.5067 470.583 96.2C470.978 96.8933 471.175 97.688 471.175 98.584C471.175 99.48 470.972 100.275 470.567 100.968C470.162 101.661 469.607 102.2 468.903 102.584C468.21 102.957 467.442 103.144 466.599 103.144ZM466.599 101.56C467.068 101.56 467.506 101.448 467.911 101.224C468.327 101 468.663 100.664 468.919 100.216C469.175 99.768 469.303 99.224 469.303 98.584C469.303 97.944 469.18 97.4053 468.935 96.968C468.69 96.52 468.364 96.184 467.959 95.96C467.554 95.736 467.116 95.624 466.647 95.624C466.178 95.624 465.74 95.736 465.335 95.96C464.94 96.184 464.626 96.52 464.391 96.968C464.156 97.4053 464.039 97.944 464.039 98.584C464.039 99.5333 464.279 100.269 464.759 100.792C465.25 101.304 465.863 101.56 466.599 101.56ZM476.626 94.04C477.319 94.04 477.938 94.184 478.482 94.472C479.037 94.76 479.469 95.1867 479.778 95.752C480.087 96.3173 480.242 97 480.242 97.8V103H478.434V98.072C478.434 97.2827 478.237 96.68 477.842 96.264C477.447 95.8373 476.909 95.624 476.226 95.624C475.543 95.624 474.999 95.8373 474.594 96.264C474.199 96.68 474.002 97.2827 474.002 98.072V103H472.178V94.184H474.002V95.192C474.301 94.8293 474.679 94.5467 475.138 94.344C475.607 94.1413 476.103 94.04 476.626 94.04ZM481.161 98.552C481.161 97.6667 481.342 96.8827 481.705 96.2C482.078 95.5173 482.579 94.9893 483.209 94.616C483.849 94.232 484.558 94.04 485.337 94.04C485.913 94.04 486.478 94.168 487.033 94.424C487.598 94.6693 488.046 95 488.377 95.416V91.16H490.217V103H488.377V101.672C488.078 102.099 487.662 102.451 487.129 102.728C486.606 103.005 486.003 103.144 485.321 103.144C484.553 103.144 483.849 102.952 483.209 102.568C482.579 102.173 482.078 101.629 481.705 100.936C481.342 100.232 481.161 99.4373 481.161 98.552ZM488.377 98.584C488.377 97.976 488.249 97.448 487.993 97C487.747 96.552 487.422 96.2107 487.017 95.976C486.611 95.7413 486.174 95.624 485.705 95.624C485.235 95.624 484.798 95.7413 484.393 95.976C483.987 96.2 483.657 96.536 483.401 96.984C483.155 97.4213 483.033 97.944 483.033 98.552C483.033 99.16 483.155 99.6933 483.401 100.152C483.657 100.611 483.987 100.963 484.393 101.208C484.809 101.443 485.246 101.56 485.705 101.56C486.174 101.56 486.611 101.443 487.017 101.208C487.422 100.973 487.747 100.632 487.993 100.184C488.249 99.7253 488.377 99.192 488.377 98.584ZM492.74 93.016C492.41 93.016 492.132 92.904 491.908 92.68C491.684 92.456 491.572 92.1787 491.572 91.848C491.572 91.5173 491.684 91.24 491.908 91.016C492.132 90.792 492.41 90.68 492.74 90.68C493.06 90.68 493.332 90.792 493.556 91.016C493.78 91.24 493.892 91.5173 493.892 91.848C493.892 92.1787 493.78 92.456 493.556 92.68C493.332 92.904 493.06 93.016 492.74 93.016ZM493.636 94.184V103H491.812V94.184H493.636ZM497.359 95.672V100.552C497.359 100.883 497.434 101.123 497.583 101.272C497.743 101.411 498.01 101.48 498.383 101.48H499.503V103H498.063C497.242 103 496.613 102.808 496.175 102.424C495.738 102.04 495.519 101.416 495.519 100.552V95.672H494.479V94.184H495.519V91.992H497.359V94.184H499.503V95.672H497.359ZM501.312 93.016C500.982 93.016 500.704 92.904 500.48 92.68C500.256 92.456 500.144 92.1787 500.144 91.848C500.144 91.5173 500.256 91.24 500.48 91.016C500.704 90.792 500.982 90.68 501.312 90.68C501.632 90.68 501.904 90.792 502.128 91.016C502.352 91.24 502.464 91.5173 502.464 91.848C502.464 92.1787 502.352 92.456 502.128 92.68C501.904 92.904 501.632 93.016 501.312 93.016ZM502.208 94.184V103H500.384V94.184H502.208ZM507.627 103.144C506.795 103.144 506.043 102.957 505.371 102.584C504.699 102.2 504.171 101.667 503.787 100.984C503.403 100.291 503.211 99.4907 503.211 98.584C503.211 97.688 503.408 96.8933 503.803 96.2C504.198 95.5067 504.736 94.9733 505.419 94.6C506.102 94.2267 506.864 94.04 507.707 94.04C508.55 94.04 509.312 94.2267 509.995 94.6C510.678 94.9733 511.216 95.5067 511.611 96.2C512.006 96.8933 512.203 97.688 512.203 98.584C512.203 99.48 512 100.275 511.595 100.968C511.19 101.661 510.635 102.2 509.931 102.584C509.238 102.957 508.47 103.144 507.627 103.144ZM507.627 101.56C508.096 101.56 508.534 101.448 508.939 101.224C509.355 101 509.691 100.664 509.947 100.216C510.203 99.768 510.331 99.224 510.331 98.584C510.331 97.944 510.208 97.4053 509.963 96.968C509.718 96.52 509.392 96.184 508.987 95.96C508.582 95.736 508.144 95.624 507.675 95.624C507.206 95.624 506.768 95.736 506.363 95.96C505.968 96.184 505.654 96.52 505.419 96.968C505.184 97.4053 505.067 97.944 505.067 98.584C505.067 99.5333 505.307 100.269 505.787 100.792C506.278 101.304 506.891 101.56 507.627 101.56ZM517.654 94.04C518.348 94.04 518.966 94.184 519.51 94.472C520.065 94.76 520.497 95.1867 520.806 95.752C521.116 96.3173 521.27 97 521.27 97.8V103H519.462V98.072C519.462 97.2827 519.265 96.68 518.87 96.264C518.476 95.8373 517.937 95.624 517.254 95.624C516.572 95.624 516.028 95.8373 515.622 96.264C515.228 96.68 515.03 97.2827 515.03 98.072V103H513.206V94.184H515.03V95.192C515.329 94.8293 515.708 94.5467 516.166 94.344C516.636 94.1413 517.132 94.04 517.654 94.04ZM525.997 103.144C525.304 103.144 524.68 103.021 524.125 102.776C523.581 102.52 523.149 102.179 522.829 101.752C522.509 101.315 522.338 100.829 522.317 100.296H524.205C524.237 100.669 524.413 100.984 524.733 101.24C525.064 101.485 525.474 101.608 525.965 101.608C526.477 101.608 526.872 101.512 527.149 101.32C527.437 101.117 527.581 100.861 527.581 100.552C527.581 100.221 527.421 99.976 527.101 99.816C526.792 99.656 526.296 99.48 525.613 99.288C524.952 99.1067 524.413 98.9307 523.997 98.76C523.581 98.5893 523.218 98.328 522.909 97.976C522.61 97.624 522.461 97.16 522.461 96.584C522.461 96.1147 522.6 95.688 522.877 95.304C523.154 94.9093 523.549 94.6 524.061 94.376C524.584 94.152 525.181 94.04 525.853 94.04C526.856 94.04 527.661 94.296 528.269 94.808C528.888 95.3093 529.218 95.9973 529.261 96.872H527.437C527.405 96.4773 527.245 96.1627 526.957 95.928C526.669 95.6933 526.28 95.576 525.789 95.576C525.309 95.576 524.941 95.6667 524.685 95.848C524.429 96.0293 524.301 96.2693 524.301 96.568C524.301 96.8027 524.386 97 524.557 97.16C524.728 97.32 524.936 97.448 525.181 97.544C525.426 97.6293 525.789 97.7413 526.269 97.88C526.909 98.0507 527.432 98.2267 527.837 98.408C528.253 98.5787 528.61 98.8347 528.909 99.176C529.208 99.5173 529.362 99.9707 529.373 100.536C529.373 101.037 529.234 101.485 528.957 101.88C528.68 102.275 528.285 102.584 527.773 102.808C527.272 103.032 526.68 103.144 525.997 103.144Z" fill="#6438D6"/>
</g>
<path opacity="0.1" fill-rule="evenodd" clip-rule="evenodd" d="M363.524 295C363.524 322.353 341.351 344.526 313.998 344.526C286.645 344.526 264.472 322.353 264.472 295C264.472 267.647 286.645 245.474 313.998 245.474C341.351 245.474 363.524 267.647 363.524 295ZM363.998 295C363.998 322.614 341.612 345 313.998 345C286.384 345 263.998 322.614 263.998 295C263.998 267.386 286.384 245 313.998 245C341.612 245 363.998 267.386 363.998 295ZM314.001 328.752C332.739 328.752 347.929 313.561 347.929 294.823C347.929 276.085 332.739 260.895 314.001 260.895C295.263 260.895 280.072 276.085 280.072 294.823C280.072 313.561 295.263 328.752 314.001 328.752Z" fill="url(#paint6_linear_4292_23631)"/>
<circle opacity="0.7" cx="314.007" cy="294.83" r="41.6756" stroke="url(#paint7_linear_4292_23631)" stroke-width="0.473586"/>
<path fill-rule="evenodd" clip-rule="evenodd" d="M308.831 286.515C309.085 286.395 309.376 286.395 309.958 286.395H310.334C310.917 286.395 311.208 286.395 311.461 286.515C311.715 286.636 311.899 286.861 312.267 287.313L321.464 298.599C321.464 298.599 313.123 298.485 311.914 294.9C311.338 293.322 310.684 289.889 310.398 287.965C310.386 287.884 310.38 287.843 310.359 287.813C310.345 287.792 310.325 287.775 310.302 287.764C310.27 287.748 310.228 287.748 310.146 287.748C310.064 287.748 310.022 287.748 309.99 287.764C309.967 287.775 309.948 287.792 309.933 287.813C309.912 287.843 309.906 287.884 309.894 287.965C309.608 289.889 308.954 293.322 308.378 294.9C307.169 298.485 298.828 298.599 298.828 298.599L308.025 287.313C308.393 286.861 308.577 286.636 308.831 286.515ZM308.831 312.743C309.085 312.863 309.376 312.863 309.958 312.863H310.334C310.917 312.863 311.208 312.863 311.461 312.743C311.715 312.622 311.899 312.396 312.267 311.945L321.464 300.659C321.464 300.659 313.123 300.772 311.914 304.358C311.338 305.936 310.684 309.369 310.398 311.293C310.386 311.374 310.38 311.415 310.359 311.445C310.345 311.466 310.325 311.482 310.302 311.494C310.27 311.51 310.228 311.51 310.146 311.51C310.064 311.51 310.022 311.51 309.99 311.494C309.967 311.482 309.948 311.466 309.933 311.445C309.912 311.415 309.906 311.374 309.894 311.293C309.608 309.369 308.954 305.936 308.378 304.358C307.169 300.772 298.828 300.659 298.828 300.659L308.025 311.945C308.393 312.396 308.577 312.622 308.831 312.743Z" fill="url(#paint8_linear_4292_23631)"/>
<path d="M319.569 286.597C322.417 286.417 324.687 284.148 324.867 281.3C325.047 284.148 327.316 286.417 330.164 286.597C327.316 286.777 325.047 289.047 324.867 291.895C324.687 289.047 322.417 286.777 319.569 286.597Z" fill="#6438D6"/>
<path d="M315.775 279.885C317.303 279.789 318.52 278.571 318.617 277.044C318.713 278.571 319.931 279.789 321.458 279.885C319.931 279.982 318.713 281.199 318.617 282.727C318.52 281.199 317.303 279.982 315.775 279.885Z" fill="#6438D6"/>
<circle opacity="0.1" cx="419.499" cy="260.879" r="1.60784" transform="rotate(15 419.499 260.879)" fill="#6438D6"/>
<circle opacity="0.2" cx="409.853" cy="262.086" r="1.60784" transform="rotate(15 409.853 262.086)" fill="#6438D6"/>
<circle opacity="0.2" cx="411.058" cy="253.645" r="1.60784" transform="rotate(15 411.058 253.645)" fill="#6438D6"/>
<circle opacity="0.2" cx="407.062" cy="245.75" r="1.0719" transform="rotate(15 407.062 245.75)" fill="#6438D6"/>
<circle opacity="0.1" cx="404.65" cy="256.606" r="1.0719" transform="rotate(15 404.65 256.606)" fill="#6438D6"/>
<g filter="url(#filter6_d_4292_23631)">
<rect x="417.288" y="203.441" width="50.8673" height="50.8673" rx="10.1735" transform="rotate(12.475 417.288 203.441)" fill="white"/>
</g>
<path opacity="0.4" d="M436.391 220.436C433.339 219.618 430.194 221.434 429.376 224.486C428.574 227.479 430.266 230.53 433.29 231.452C433.386 231.465 433.479 231.49 433.546 231.521C433.569 231.527 433.581 231.53 433.604 231.536C433.616 231.539 433.616 231.539 433.627 231.543C436.637 232.237 439.628 230.441 440.441 227.451C441.259 224.399 439.443 221.253 436.391 220.436Z" fill="#512AB7"/>
<path d="M438.516 236.173C435.847 233.136 430.547 231.716 426.693 233.005C424.949 233.599 423.774 234.72 423.39 236.153C423.007 237.585 423.466 239.132 424.672 240.504C426.009 242.035 428.005 243.157 430.149 243.731C432.292 244.306 434.582 244.332 436.506 243.674C438.239 243.078 439.41 241.968 439.797 240.524C440.169 239.088 439.721 237.545 438.516 236.173Z" fill="#512AB7"/>
<path opacity="0.4" d="M447.525 230.086C447.106 232.395 444.968 233.945 442.672 233.616C442.66 233.613 442.66 233.613 442.648 233.61L442.613 233.601C442.544 233.582 442.474 233.563 442.409 233.571C441.264 233.326 440.324 232.688 439.721 231.815C441.208 231.064 442.326 229.641 442.655 227.857C442.826 226.891 442.731 225.942 442.438 225.077C442.94 224.974 443.49 224.972 444.027 225.066C446.363 225.479 447.945 227.726 447.525 230.086Z" fill="#512AB7"/>
<path d="M446.968 241.484C446.573 242.589 445.588 243.374 444.199 243.713C442.862 244.042 441.314 243.951 439.867 243.526C440.909 242.994 441.651 242.181 442.012 241.205C442.516 239.791 442.2 238.221 441.122 236.746C440.507 235.92 439.729 235.187 438.836 234.561C441.61 234.505 444.714 235.874 446.275 238.015C447.116 239.164 447.373 240.394 446.968 241.484Z" fill="#512AB7"/>
<g opacity="0.88" filter="url(#filter7_f_4292_23631)">
<ellipse cx="433.117" cy="245.797" rx="19.7032" ry="7.69241" transform="rotate(16.987 433.117 245.797)" fill="white"/>
</g>
<g filter="url(#filter8_d_4292_23631)">
<circle opacity="0.1" cx="148.329" cy="315.5" r="1.60784" transform="rotate(-15 148.329 315.5)" fill="#6438D6"/>
<circle opacity="0.2" cx="140.581" cy="321.367" r="1.60784" transform="rotate(-15 140.581 321.367)" fill="#6438D6"/>
<circle opacity="0.2" cx="137.401" cy="313.453" r="1.60784" transform="rotate(-15 137.401 313.453)" fill="#6438D6"/>
<circle opacity="0.2" cx="129.994" cy="308.617" r="1.0719" transform="rotate(-15 129.994 308.617)" fill="#6438D6"/>
<circle opacity="0.1" cx="133.329" cy="319.223" r="1.0719" transform="rotate(-15 133.329 319.223)" fill="#6438D6"/>
<g filter="url(#filter9_d_4292_23631)">
<rect x="117.696" y="266.859" width="50.8673" height="50.8673" rx="10.1735" transform="rotate(-17.525 117.696 266.859)" fill="white"/>
</g>
<path opacity="0.4" d="M160.119 278.4C161.645 284.096 158.94 290.539 153.709 293.613C153.353 293.821 152.933 293.933 152.521 293.932C146.453 293.884 140.889 289.658 139.363 283.962L137.992 278.848C137.737 277.893 138.168 276.616 138.969 276.015L144.745 271.621C146.042 270.637 147.684 270.197 149.299 270.401L156.499 271.318C157.481 271.442 158.505 272.328 158.761 273.284L160.119 278.4Z" fill="#522BB8"/>
<path d="M152.46 279.676C152.029 278.068 150.375 277.113 148.767 277.544C147.16 277.975 146.205 279.629 146.636 281.236C146.985 282.541 148.137 283.393 149.414 283.451L150.235 286.514C150.363 286.992 150.865 287.281 151.342 287.153C151.82 287.026 152.11 286.523 151.982 286.046L151.161 282.982C152.238 282.294 152.809 280.98 152.46 279.676Z" fill="#522BB8"/>
<g opacity="0.88" filter="url(#filter10_f_4292_23631)">
<ellipse cx="152.583" cy="295.629" rx="19.7032" ry="7.69241" transform="rotate(-13.013 152.583 295.629)" fill="white"/>
</g>
</g>
<circle opacity="0.1" cx="484.145" cy="320.391" r="1.19345" transform="rotate(-15 484.145 320.391)" fill="#6587FF"/>
<circle opacity="0.2" cx="478.389" cy="324.746" r="1.19345" transform="rotate(-15 478.389 324.746)" fill="#6587FF"/>
<circle opacity="0.2" cx="476.034" cy="318.871" r="1.19345" transform="rotate(-15 476.034 318.871)" fill="#6587FF"/>
<circle opacity="0.2" cx="470.535" cy="315.281" r="0.795634" transform="rotate(-15 470.535 315.281)" fill="#6587FF"/>
<circle opacity="0.1" cx="473.013" cy="323.152" r="0.795634" transform="rotate(-15 473.013 323.152)" fill="#6587FF"/>
<g filter="url(#filter11_d_4292_23631)">
<rect x="461.407" y="284.285" width="37.7572" height="37.7572" rx="7.55144" transform="rotate(-17.525 461.407 284.285)" fill="white"/>
</g>
<path d="M492.882 289.41C491.815 287.664 489.81 286.507 487.765 286.456C486.211 286.422 485.225 286.724 484.673 287.425C484.009 288.267 484.212 289.411 484.425 290.206L485.008 292.381C485.584 294.53 486.855 295.36 488.777 294.845L491.284 294.173C492.07 293.963 493.172 293.565 493.569 292.569C493.92 291.744 493.697 290.737 492.882 289.41Z" fill="#6587FF"/>
<path opacity="0.4" d="M491.972 295.659C491.675 295.457 491.303 295.398 490.962 295.489L487.835 296.327C486.297 296.739 484.713 295.825 484.301 294.287L483.463 291.16C483.372 290.819 483.134 290.527 482.812 290.37C482.497 290.211 482.12 290.199 481.8 290.332C479.817 291.144 478.232 292.777 477.454 294.802C476.67 296.838 476.773 299.038 477.723 301.012C479.096 303.865 482.142 305.624 485.308 305.384C485.815 305.352 486.307 305.266 486.787 305.138C488.368 304.714 489.766 303.815 490.813 302.514C492.177 300.828 492.799 298.639 492.511 296.516C492.463 296.164 492.267 295.851 491.972 295.659Z" fill="#6587FF"/>
<g opacity="0.88" filter="url(#filter12_f_4292_23631)">
<ellipse cx="487.3" cy="305.641" rx="14.6251" ry="5.70983" transform="rotate(-13.013 487.3 305.641)" fill="white"/>
</g>
<g filter="url(#filter13_d_4292_23631)">
<circle opacity="0.1" cx="177.891" cy="236.743" r="1.19345" transform="rotate(15 177.891 236.743)" fill="#06BC00"/>
<circle opacity="0.2" cx="170.731" cy="237.637" r="1.19345" transform="rotate(15 170.731 237.637)" fill="#06BC00"/>
<circle opacity="0.2" cx="171.625" cy="231.372" r="1.19345" transform="rotate(15 171.625 231.372)" fill="#06BC00"/>
<circle opacity="0.2" cx="168.659" cy="225.514" r="0.795634" transform="rotate(15 168.659 225.514)" fill="#06BC00"/>
<circle opacity="0.1" cx="166.869" cy="233.568" r="0.795634" transform="rotate(15 166.869 233.568)" fill="#06BC00"/>
<g filter="url(#filter14_d_4292_23631)">
<rect x="176.251" y="194.105" width="37.7572" height="37.7572" rx="7.55144" transform="rotate(12.475 176.251 194.105)" fill="white"/>
</g>
<path opacity="0.4" d="M189.508 225.176C194.333 226.469 199.292 223.606 200.585 218.781C201.877 213.956 199.014 208.997 194.19 207.704C189.365 206.411 184.406 209.274 183.113 214.099C181.82 218.924 184.683 223.883 189.508 225.176Z" fill="#06BC00"/>
<path d="M193.8 217.055L192.605 216.239L193.399 213.277L193.713 213.361C194.421 213.551 194.831 214.326 194.628 215.086C194.532 215.444 194.749 215.821 195.107 215.916C195.465 216.012 195.842 215.795 195.938 215.437C196.336 213.952 195.497 212.435 194.064 212.051L193.75 211.967L193.886 211.46C193.982 211.102 193.764 210.725 193.406 210.629C193.048 210.533 192.671 210.751 192.575 211.109L192.439 211.616L191.872 211.463C190.579 211.117 189.229 211.926 188.871 213.262C188.452 214.826 189.227 215.567 189.852 215.997L191.047 216.813L190.256 219.766L189.941 219.682C189.233 219.492 188.823 218.718 189.027 217.958C189.123 217.599 188.905 217.223 188.547 217.127C188.189 217.031 187.812 217.248 187.716 217.606C187.318 219.092 188.157 220.608 189.59 220.992L189.904 221.077L189.766 221.592C189.67 221.95 189.888 222.327 190.246 222.423C190.604 222.519 190.981 222.301 191.077 221.943L191.212 221.436L191.78 221.589C193.073 221.935 194.423 221.126 194.781 219.79C195.194 218.215 194.419 217.473 193.8 217.055ZM190.619 214.882C190.215 214.606 189.984 214.385 190.188 213.625C190.354 213.004 190.95 212.63 191.527 212.785L192.095 212.937L191.425 215.436L190.619 214.882ZM192.131 220.278L191.564 220.126L192.233 217.628L193.033 218.17C193.437 218.446 193.668 218.667 193.464 219.427C193.298 220.048 192.699 220.43 192.131 220.278Z" fill="#06BC00"/>
<g opacity="0.88" filter="url(#filter15_f_4292_23631)">
<ellipse cx="187.999" cy="225.546" rx="14.625" ry="5.70983" transform="rotate(16.987 187.999 225.546)" fill="white"/>
</g>
</g>
<defs>
<filter id="filter0_d_4292_23631" x="243.564" y="166.771" width="141.106" height="91.1645" filterUnits="userSpaceOnUse" color-interpolation-filters="sRGB">
<feFlood flood-opacity="0" result="BackgroundImageFix"/>
<feColorMatrix in="SourceAlpha" type="matrix" values="0 0 0 0 0 0 0 0 0 0 0 0 0 0 0 0 0 0 127 0" result="hardAlpha"/>
<feOffset dy="4.82353"/>
<feGaussianBlur stdDeviation="9.52647"/>
<feComposite in2="hardAlpha" operator="out"/>
<feColorMatrix type="matrix" values="0 0 0 0 0 0 0 0 0 0 0 0 0 0 0 0 0 0 0.02 0"/>
<feBlend mode="normal" in2="BackgroundImageFix" result="effect1_dropShadow_4292_23631"/>
<feBlend mode="normal" in="SourceGraphic" in2="effect1_dropShadow_4292_23631" result="shape"/>
</filter>
<filter id="filter1_f_4292_23631" x="261.175" y="164.117" width="106.118" height="106.119" filterUnits="userSpaceOnUse" color-interpolation-filters="sRGB">
<feFlood flood-opacity="0" result="BackgroundImageFix"/>
<feBlend mode="normal" in="SourceGraphic" in2="BackgroundImageFix" result="shape"/>
<feGaussianBlur stdDeviation="18.0882" result="effect1_foregroundBlur_4292_23631"/>
</filter>
<filter id="filter2_d_4292_23631" x="0.782356" y="0.334317" width="290.435" height="186.435" filterUnits="userSpaceOnUse" color-interpolation-filters="sRGB">
<feFlood flood-opacity="0" result="BackgroundImageFix"/>
<feColorMatrix in="SourceAlpha" type="matrix" values="0 0 0 0 0 0 0 0 0 0 0 0 0 0 0 0 0 0 127 0" result="hardAlpha"/>
<feOffset dy="6.55196"/>
<feGaussianBlur stdDeviation="34.6088"/>
<feComposite in2="hardAlpha" operator="out"/>
<feColorMatrix type="matrix" values="0 0 0 0 0.432796 0 0 0 0 0.432796 0 0 0 0 0.432796 0 0 0 0.1 0"/>
<feBlend mode="normal" in2="BackgroundImageFix" result="effect1_dropShadow_4292_23631"/>
<feBlend mode="normal" in="SourceGraphic" in2="effect1_dropShadow_4292_23631" result="shape"/>
</filter>
<filter id="filter3_d_4292_23631" x="168.782" y="0.334317" width="290.435" height="186.435" filterUnits="userSpaceOnUse" color-interpolation-filters="sRGB">
<feFlood flood-opacity="0" result="BackgroundImageFix"/>
<feColorMatrix in="SourceAlpha" type="matrix" values="0 0 0 0 0 0 0 0 0 0 0 0 0 0 0 0 0 0 127 0" result="hardAlpha"/>
<feOffset dy="6.55196"/>
<feGaussianBlur stdDeviation="34.6088"/>
<feComposite in2="hardAlpha" operator="out"/>
<feColorMatrix type="matrix" values="0 0 0 0 0.432796 0 0 0 0 0.432796 0 0 0 0 0.432796 0 0 0 0.1 0"/>
<feBlend mode="normal" in2="BackgroundImageFix" result="effect1_dropShadow_4292_23631"/>
<feBlend mode="normal" in="SourceGraphic" in2="effect1_dropShadow_4292_23631" result="shape"/>
</filter>
<filter id="filter4_d_4292_23631" x="336.782" y="0.334317" width="290.435" height="186.435" filterUnits="userSpaceOnUse" color-interpolation-filters="sRGB">
<feFlood flood-opacity="0" result="BackgroundImageFix"/>
<feColorMatrix in="SourceAlpha" type="matrix" values="0 0 0 0 0 0 0 0 0 0 0 0 0 0 0 0 0 0 127 0" result="hardAlpha"/>
<feOffset dy="6.55196"/>
<feGaussianBlur stdDeviation="34.6088"/>
<feComposite in2="hardAlpha" operator="out"/>
<feColorMatrix type="matrix" values="0 0 0 0 0.432796 0 0 0 0 0.432796 0 0 0 0 0.432796 0 0 0 0.1 0"/>
<feBlend mode="normal" in2="BackgroundImageFix" result="effect1_dropShadow_4292_23631"/>
<feBlend mode="normal" in="SourceGraphic" in2="effect1_dropShadow_4292_23631" result="shape"/>
</filter>
<filter id="filter6_d_4292_23631" x="392.5" y="186.589" width="88.2546" height="88.2536" filterUnits="userSpaceOnUse" color-interpolation-filters="sRGB">
<feFlood flood-opacity="0" result="BackgroundImageFix"/>
<feColorMatrix in="SourceAlpha" type="matrix" values="0 0 0 0 0 0 0 0 0 0 0 0 0 0 0 0 0 0 127 0" result="hardAlpha"/>
<feOffset dy="-3.05204"/>
<feGaussianBlur stdDeviation="8.03704"/>
<feComposite in2="hardAlpha" operator="out"/>
<feColorMatrix type="matrix" values="0 0 0 0 0.678906 0 0 0 0 0.678906 0 0 0 0 0.678906 0 0 0 0.15 0"/>
<feBlend mode="normal" in2="BackgroundImageFix" result="effect1_dropShadow_4292_23631"/>
<feBlend mode="normal" in="SourceGraphic" in2="effect1_dropShadow_4292_23631" result="shape"/>
</filter>
<filter id="filter7_f_4292_23631" x="409.314" y="231.634" width="47.6051" height="28.3267" filterUnits="userSpaceOnUse" color-interpolation-filters="sRGB">
<feFlood flood-opacity="0" result="BackgroundImageFix"/>
<feBlend mode="normal" in="SourceGraphic" in2="BackgroundImageFix" result="shape"/>
<feGaussianBlur stdDeviation="2.41176" result="effect1_foregroundBlur_4292_23631"/>
</filter>
<filter id="filter8_d_4292_23631" x="106.325" y="238.766" width="87.9823" height="95.7099" filterUnits="userSpaceOnUse" color-interpolation-filters="sRGB">
<feFlood flood-opacity="0" result="BackgroundImageFix"/>
<feColorMatrix in="SourceAlpha" type="matrix" values="0 0 0 0 0 0 0 0 0 0 0 0 0 0 0 0 0 0 127 0" result="hardAlpha"/>
<feMorphology radius="10.2064" operator="erode" in="SourceAlpha" result="effect1_dropShadow_4292_23631"/>
<feOffset/>
<feGaussianBlur stdDeviation="10.8529"/>
<feComposite in2="hardAlpha" operator="out"/>
<feColorMatrix type="matrix" values="0 0 0 0 0.0509804 0 0 0 0 0.0352941 0 0 0 0 0.121569 0 0 0 0.12 0"/>
<feBlend mode="normal" in2="BackgroundImageFix" result="effect1_dropShadow_4292_23631"/>
<feBlend mode="normal" in="SourceGraphic" in2="effect1_dropShadow_4292_23631" result="shape"/>
</filter>
<filter id="filter9_d_4292_23631" x="104.471" y="235.265" width="90.2731" height="90.2731" filterUnits="userSpaceOnUse" color-interpolation-filters="sRGB">
<feFlood flood-opacity="0" result="BackgroundImageFix"/>
<feColorMatrix in="SourceAlpha" type="matrix" values="0 0 0 0 0 0 0 0 0 0 0 0 0 0 0 0 0 0 127 0" result="hardAlpha"/>
<feOffset dy="-3.05204"/>
<feGaussianBlur stdDeviation="8.03704"/>
<feComposite in2="hardAlpha" operator="out"/>
<feColorMatrix type="matrix" values="0 0 0 0 0.678906 0 0 0 0 0.678906 0 0 0 0 0.678906 0 0 0 0.15 0"/>
<feBlend mode="normal" in2="BackgroundImageFix" result="effect1_dropShadow_4292_23631"/>
<feBlend mode="normal" in="SourceGraphic" in2="effect1_dropShadow_4292_23631" result="shape"/>
</filter>
<filter id="filter10_f_4292_23631" x="128.483" y="282.094" width="48.1998" height="27.0689" filterUnits="userSpaceOnUse" color-interpolation-filters="sRGB">
<feFlood flood-opacity="0" result="BackgroundImageFix"/>
<feBlend mode="normal" in="SourceGraphic" in2="BackgroundImageFix" result="shape"/>
<feGaussianBlur stdDeviation="2.41176" result="effect1_foregroundBlur_4292_23631"/>
</filter>
<filter id="filter11_d_4292_23631" x="451.591" y="260.835" width="67.0071" height="67.0071" filterUnits="userSpaceOnUse" color-interpolation-filters="sRGB">
<feFlood flood-opacity="0" result="BackgroundImageFix"/>
<feColorMatrix in="SourceAlpha" type="matrix" values="0 0 0 0 0 0 0 0 0 0 0 0 0 0 0 0 0 0 127 0" result="hardAlpha"/>
<feOffset dy="-2.26543"/>
<feGaussianBlur stdDeviation="5.96564"/>
<feComposite in2="hardAlpha" operator="out"/>
<feColorMatrix type="matrix" values="0 0 0 0 0.678906 0 0 0 0 0.678906 0 0 0 0 0.678906 0 0 0 0.15 0"/>
<feBlend mode="normal" in2="BackgroundImageFix" result="effect1_dropShadow_4292_23631"/>
<feBlend mode="normal" in="SourceGraphic" in2="effect1_dropShadow_4292_23631" result="shape"/>
</filter>
<filter id="filter12_f_4292_23631" x="469.411" y="295.595" width="35.7769" height="20.0904" filterUnits="userSpaceOnUse" color-interpolation-filters="sRGB">
<feFlood flood-opacity="0" result="BackgroundImageFix"/>
<feBlend mode="normal" in="SourceGraphic" in2="BackgroundImageFix" result="shape"/>
<feGaussianBlur stdDeviation="1.79018" result="effect1_foregroundBlur_4292_23631"/>
</filter>
<filter id="filter13_d_4292_23631" x="157.538" y="183.781" width="66.4337" height="65.3058" filterUnits="userSpaceOnUse" color-interpolation-filters="sRGB">
<feFlood flood-opacity="0" result="BackgroundImageFix"/>
<feColorMatrix in="SourceAlpha" type="matrix" values="0 0 0 0 0 0 0 0 0 0 0 0 0 0 0 0 0 0 127 0" result="hardAlpha"/>
<feMorphology radius="7.57589" operator="erode" in="SourceAlpha" result="effect1_dropShadow_4292_23631"/>
<feOffset/>
<feGaussianBlur stdDeviation="8.05579"/>
<feComposite in2="hardAlpha" operator="out"/>
<feColorMatrix type="matrix" values="0 0 0 0 0.0509804 0 0 0 0 0.0352941 0 0 0 0 0.121569 0 0 0 0.12 0"/>
<feBlend mode="normal" in2="BackgroundImageFix" result="effect1_dropShadow_4292_23631"/>
<feBlend mode="normal" in="SourceGraphic" in2="effect1_dropShadow_4292_23631" result="shape"/>
</filter>
<filter id="filter14_d_4292_23631" x="157.851" y="181.596" width="65.5085" height="65.5071" filterUnits="userSpaceOnUse" color-interpolation-filters="sRGB">
<feFlood flood-opacity="0" result="BackgroundImageFix"/>
<feColorMatrix in="SourceAlpha" type="matrix" values="0 0 0 0 0 0 0 0 0 0 0 0 0 0 0 0 0 0 127 0" result="hardAlpha"/>
<feOffset dy="-2.26543"/>
<feGaussianBlur stdDeviation="5.96564"/>
<feComposite in2="hardAlpha" operator="out"/>
<feColorMatrix type="matrix" values="0 0 0 0 0.678906 0 0 0 0 0.678906 0 0 0 0 0.678906 0 0 0 0.15 0"/>
<feBlend mode="normal" in2="BackgroundImageFix" result="effect1_dropShadow_4292_23631"/>
<feBlend mode="normal" in="SourceGraphic" in2="effect1_dropShadow_4292_23631" result="shape"/>
</filter>
<filter id="filter15_f_4292_23631" x="170.332" y="215.033" width="35.3355" height="21.0279" filterUnits="userSpaceOnUse" color-interpolation-filters="sRGB">
<feFlood flood-opacity="0" result="BackgroundImageFix"/>
<feBlend mode="normal" in="SourceGraphic" in2="BackgroundImageFix" result="shape"/>
<feGaussianBlur stdDeviation="1.79018" result="effect1_foregroundBlur_4292_23631"/>
</filter>
<linearGradient id="paint0_linear_4292_23631" x1="258.529" y1="134.088" x2="289.279" y2="154.588" gradientUnits="userSpaceOnUse">
<stop stop-color="#512BB7" stop-opacity="0"/>
<stop offset="1" stop-color="#512BB7"/>
</linearGradient>
<linearGradient id="paint1_linear_4292_23631" x1="169.292" y1="112.382" x2="231.998" y2="132.882" gradientUnits="userSpaceOnUse">
<stop stop-color="#512BB7" stop-opacity="0"/>
<stop offset="1" stop-color="#512BB7"/>
</linearGradient>
<linearGradient id="paint2_linear_4292_23631" x1="343" y1="119.12" x2="337.569" y2="117.444" gradientUnits="userSpaceOnUse">
<stop stop-color="#512BB7" stop-opacity="0"/>
<stop offset="1" stop-color="#512BB7"/>
</linearGradient>
<linearGradient id="paint3_linear_4292_23631" x1="329.677" y1="178.705" x2="311.019" y2="181.719" gradientUnits="userSpaceOnUse">
<stop stop-color="#512BB7" stop-opacity="0"/>
<stop offset="1" stop-color="#512BB7"/>
</linearGradient>
<linearGradient id="paint4_linear_4292_23631" x1="459.913" y1="118.411" x2="424.051" y2="82.7992" gradientUnits="userSpaceOnUse">
<stop stop-color="#512BB7" stop-opacity="0"/>
<stop offset="1" stop-color="#512BB7"/>
</linearGradient>
<linearGradient id="paint5_linear_4292_23631" x1="285" y1="119.12" x2="290.431" y2="117.444" gradientUnits="userSpaceOnUse">
<stop stop-color="#512BB7" stop-opacity="0"/>
<stop offset="1" stop-color="#512BB7"/>
</linearGradient>
<linearGradient id="paint6_linear_4292_23631" x1="313.998" y1="245" x2="313.998" y2="345" gradientUnits="userSpaceOnUse">
<stop stop-color="#6438D6"/>
<stop offset="1" stop-color="#6438D6" stop-opacity="0"/>
</linearGradient>
<linearGradient id="paint7_linear_4292_23631" x1="314.007" y1="252.918" x2="314.007" y2="336.743" gradientUnits="userSpaceOnUse">
<stop stop-color="#6438D6"/>
<stop offset="0.791776" stop-color="#6438D6" stop-opacity="0"/>
</linearGradient>
<linearGradient id="paint8_linear_4292_23631" x1="298.828" y1="299.629" x2="321.464" y2="299.629" gradientUnits="userSpaceOnUse">
<stop stop-color="#663AD7"/>
<stop offset="1" stop-color="#8763E5"/>
</linearGradient>
<clipPath id="clip0_4292_23631">
<rect width="57.8824" height="97.6765" fill="white" transform="translate(256.117 111.176)"/>
</clipPath>
<clipPath id="clip1_4292_23631">
<rect width="69.9412" height="28.9412" fill="white" transform="translate(168.088 111.176)"/>
</clipPath>
<clipPath id="clip2_4292_23631">
<rect width="29" height="57" fill="white" transform="translate(314 122)"/>
</clipPath>
<clipPath id="clip3_4292_23631">
<rect width="41" height="56.6765" fill="white" transform="translate(314 152.176)"/>
</clipPath>
<clipPath id="clip4_4292_23631">
<rect width="69.9412" height="44.6176" fill="white" transform="translate(370.677 111.176)"/>
</clipPath>
<clipPath id="clip5_4292_23631">
<rect width="29" height="45" fill="white" transform="translate(285 111)"/>
</clipPath>
</defs>
</svg>
