<svg width="560" height="223" viewBox="0 0 560 223" fill="none" xmlns="http://www.w3.org/2000/svg">
<mask id="mask0_2198_37560" style="mask-type:alpha" maskUnits="userSpaceOnUse" x="0" y="0" width="560" height="183">
<rect width="560" height="182.275" fill="url(#paint0_linear_2198_37560)"/>
</mask>
<g mask="url(#mask0_2198_37560)">
<circle cx="-7.95186" cy="63.4192" r="28.9114" fill="#FAFAFC"/>
<circle cx="-7.95186" cy="63.4192" r="28.335" stroke="black" stroke-opacity="0.05" stroke-width="1.15292"/>
<circle cx="62.263" cy="63.4192" r="28.9114" fill="#FAFAFC"/>
<circle cx="62.263" cy="63.4192" r="28.335" stroke="black" stroke-opacity="0.05" stroke-width="1.15292"/>
<circle cx="132.478" cy="63.4192" r="28.9114" fill="#FAFAFC"/>
<circle cx="132.478" cy="63.4192" r="28.335" stroke="black" stroke-opacity="0.05" stroke-width="1.15292"/>
<g clip-path="url(#clip0_2198_37560)">
<path d="M132.92 78.7397C141.487 78.7397 148.432 71.7946 148.432 63.2273C148.432 54.66 141.487 47.7148 132.92 47.7148C124.352 47.7148 117.407 54.66 117.407 63.2273C117.407 71.7946 124.352 78.7397 132.92 78.7397Z" fill="#D80027"/>
<path d="M132.274 60.3906L133.546 62.1446L135.608 61.4762L134.333 63.2286L135.606 64.9825L133.545 64.3116L132.27 66.064L132.272 63.897L130.211 63.2261L132.272 62.5578L132.274 60.3906Z" fill="#F0F0F0"/>
<path d="M128.799 67.6117C126.377 67.6117 124.415 65.6488 124.415 63.2277C124.415 60.8065 126.377 58.8437 128.799 58.8437C129.553 58.8437 130.264 59.0347 130.884 59.3707C129.911 58.4192 128.581 57.832 127.112 57.832C124.132 57.832 121.717 60.2477 121.717 63.2276C121.717 66.2075 124.132 68.6232 127.112 68.6232C128.581 68.6232 129.911 68.036 130.884 67.0846C130.264 67.4207 129.553 67.6117 128.799 67.6117Z" fill="#F0F0F0"/>
</g>
<circle cx="202.689" cy="63.4192" r="28.9114" fill="#FAFAFC"/>
<circle cx="202.689" cy="63.4192" r="28.335" stroke="black" stroke-opacity="0.05" stroke-width="1.15292"/>
<g filter="url(#filter0_d_2198_37560)">
<circle cx="272.9" cy="63.4192" r="28.9114" fill="#FAFAFC"/>
<circle cx="272.9" cy="63.4192" r="28.335" stroke="black" stroke-opacity="0.05" stroke-width="1.15292"/>
</g>
<g clip-path="url(#clip1_2198_37560)">
<path d="M273.336 78.7397C281.903 78.7397 288.848 71.7946 288.848 63.2273C288.848 54.66 281.903 47.7148 273.336 47.7148C264.768 47.7148 257.823 54.66 257.823 63.2273C257.823 71.7946 264.768 78.7397 273.336 78.7397Z" fill="#0052B4"/>
<path d="M273.313 53.7812L273.815 55.327H275.44L274.126 56.2823L274.628 57.828L273.313 56.8726L271.998 57.828L272.5 56.2823L271.186 55.327H272.811L273.313 53.7812Z" fill="#FFDA44"/>
<path d="M266.653 56.548L268.102 57.2859L269.251 56.1367L268.997 57.7419L270.445 58.4798L268.839 58.734L268.585 60.3393L267.847 58.8911L266.242 59.1455L267.391 57.9963L266.653 56.548Z" fill="#FFDA44"/>
<path d="M263.876 63.2252L265.422 62.7229V61.0977L266.377 62.4126L267.923 61.9103L266.967 63.2252L267.923 64.54L266.377 64.0378L265.422 65.3527V63.7274L263.876 63.2252Z" fill="#FFDA44"/>
<path d="M266.653 69.9006L267.391 68.4524L266.242 67.3032L267.847 67.5575L268.585 66.1094L268.839 67.7146L270.445 67.9689L268.997 68.7067L269.251 70.3119L268.102 69.1627L266.653 69.9006Z" fill="#FFDA44"/>
<path d="M273.313 72.6677L272.811 71.122H271.186L272.5 70.1667L271.998 68.6211L273.313 69.5763L274.628 68.6211L274.126 70.1667L275.44 71.122H273.815L273.313 72.6677Z" fill="#FFDA44"/>
<path d="M280.011 69.9006L278.563 69.1628L277.413 70.312L277.668 68.7067L276.22 67.9689L277.825 67.7146L278.079 66.1094L278.817 67.5575L280.422 67.3032L279.273 68.4525L280.011 69.9006Z" fill="#FFDA44"/>
<path d="M282.766 63.2252L281.221 63.7274V65.3527L280.265 64.0377L278.72 64.54L279.675 63.2252L278.72 61.9103L280.265 62.4126L281.221 61.0977V62.7229L282.766 63.2252Z" fill="#FFDA44"/>
<path d="M280.011 56.548L279.273 57.9962L280.422 59.1454L278.817 58.891L278.079 60.3392L277.825 58.734L276.22 58.4796L277.668 57.7418L277.413 56.1367L278.563 57.2859L280.011 56.548Z" fill="#FFDA44"/>
</g>
<circle cx="343.115" cy="63.4192" r="28.9114" fill="#FAFAFC"/>
<circle cx="343.115" cy="63.4192" r="28.335" stroke="black" stroke-opacity="0.05" stroke-width="1.15292"/>
<circle cx="413.329" cy="63.4192" r="28.9114" fill="#FAFAFC"/>
<circle cx="413.329" cy="63.4192" r="28.335" stroke="black" stroke-opacity="0.05" stroke-width="1.15292"/>
<g clip-path="url(#clip2_2198_37560)">
<path d="M413.76 78.7397C422.327 78.7397 429.272 71.7946 429.272 63.2273C429.272 54.66 422.327 47.7148 413.76 47.7148C405.192 47.7148 398.247 54.66 398.247 63.2273C398.247 71.7946 405.192 78.7397 413.76 78.7397Z" fill="#F0F0F0"/>
<path d="M429.256 63.2273C429.256 56.5575 425.047 50.8715 419.14 48.6797V77.7749C425.047 75.583 429.256 69.8971 429.256 63.2273Z" fill="#D80027"/>
<path d="M398.247 63.2273C398.247 69.8971 402.457 75.583 408.364 77.7748V48.6797C402.457 50.8715 398.247 56.5575 398.247 63.2273Z" fill="#0052B4"/>
</g>
<circle cx="483.544" cy="63.4192" r="28.9114" fill="#FAFAFC"/>
<circle cx="483.544" cy="63.4192" r="28.335" stroke="black" stroke-opacity="0.05" stroke-width="1.15292"/>
<circle cx="553.755" cy="63.4192" r="28.9114" fill="#FAFAFC"/>
<circle cx="553.755" cy="63.4192" r="28.335" stroke="black" stroke-opacity="0.05" stroke-width="1.15292"/>
<circle cx="-7.95186" cy="133.634" r="28.9114" fill="#FAFAFC"/>
<circle cx="-7.95186" cy="133.634" r="28.335" stroke="black" stroke-opacity="0.05" stroke-width="1.15292"/>
<circle cx="62.263" cy="133.634" r="28.9114" fill="#FAFAFC"/>
<circle cx="62.263" cy="133.634" r="28.335" stroke="black" stroke-opacity="0.05" stroke-width="1.15292"/>
<circle cx="132.478" cy="133.634" r="28.9114" fill="#FAFAFC"/>
<circle cx="132.478" cy="133.634" r="28.335" stroke="black" stroke-opacity="0.05" stroke-width="1.15292"/>
<circle cx="202.689" cy="133.634" r="28.9114" fill="#FAFAFC"/>
<circle cx="202.689" cy="133.634" r="28.335" stroke="black" stroke-opacity="0.05" stroke-width="1.15292"/>
<g clip-path="url(#clip3_2198_37560)">
<path d="M203.131 148.951C211.698 148.951 218.643 142.006 218.643 133.438C218.643 124.871 211.698 117.926 203.131 117.926C194.563 117.926 187.618 124.871 187.618 133.438C187.618 142.006 194.563 148.951 203.131 148.951Z" fill="#F0F0F0"/>
<path d="M218.618 133.434C218.618 127.284 215.038 121.97 209.85 119.461V147.407C215.038 144.898 218.618 139.584 218.618 133.434Z" fill="#D80027"/>
<path d="M187.605 133.434C187.605 139.584 191.185 144.898 196.373 147.407V119.461C191.185 121.97 187.605 127.284 187.605 133.434Z" fill="#D80027"/>
<path d="M205.83 135.459L208.528 134.11L207.179 133.436V132.087L204.481 133.436L205.83 130.738H204.481L203.132 128.715L201.783 130.738H200.434L201.783 133.436L199.085 132.087V133.436L197.736 134.11L200.434 135.459L199.76 136.808H202.458V138.832H203.806V136.808H206.504L205.83 135.459Z" fill="#D80027"/>
</g>
<circle cx="272.9" cy="133.634" r="28.9114" fill="#FAFAFC"/>
<circle cx="272.9" cy="133.634" r="28.335" stroke="black" stroke-opacity="0.05" stroke-width="1.15292"/>
<g clip-path="url(#clip4_2198_37560)">
<path d="M288.85 133.438C288.85 142.005 281.905 148.951 273.338 148.951C264.77 148.951 257.825 142.005 257.825 133.438C257.825 133.442 273.338 117.928 273.338 117.926C281.905 117.926 288.85 124.871 288.85 133.438Z" fill="#0052B4"/>
<path d="M273.283 133.436H273.325C273.325 133.422 273.325 133.409 273.325 133.395C273.311 133.408 273.297 133.422 273.283 133.436Z" fill="#F0F0F0"/>
<path d="M273.325 126.019C273.325 123.29 273.325 121.501 273.325 117.926H273.322C264.756 117.927 257.812 124.872 257.812 133.438H265.906V128.881L270.463 133.438H273.283C273.297 133.424 273.311 133.411 273.325 133.397C273.325 132.352 273.325 131.419 273.325 130.577L268.767 126.019H273.325Z" fill="#F0F0F0"/>
<path d="M265.647 119.949C263.221 121.331 261.204 123.348 259.822 125.774V133.438H263.869V123.996V123.996H273.311C273.311 122.72 273.311 121.504 273.311 119.949H265.647Z" fill="#D80027"/>
<path d="M273.298 131.535L267.787 126.023H265.879C265.879 126.023 265.879 126.023 265.879 126.023L273.298 133.442H273.298C273.298 133.442 273.298 132.127 273.298 131.535Z" fill="#D80027"/>
<path d="M267.128 136.133L267.979 137.913L269.902 137.469L269.041 139.244L270.587 140.47L268.662 140.904L268.667 142.877L267.128 141.643L265.589 142.877L265.594 140.904L263.669 140.47L265.215 139.244L264.354 137.469L266.277 137.913L267.128 136.133Z" fill="#F0F0F0"/>
<path d="M280.999 139.508L281.425 140.398L282.386 140.176L281.955 141.063L282.729 141.677L281.766 141.893L281.769 142.88L280.999 142.263L280.229 142.88L280.232 141.893L279.27 141.677L280.043 141.063L279.612 140.176L280.573 140.398L280.999 139.508Z" fill="#F0F0F0"/>
<path d="M277.052 130.062L277.477 130.953L278.439 130.73L278.008 131.618L278.781 132.231L277.819 132.448L277.821 133.435L277.052 132.817L276.282 133.435L276.285 132.448L275.322 132.231L276.095 131.618L275.665 130.73L276.626 130.953L277.052 130.062Z" fill="#F0F0F0"/>
<path d="M280.999 124.668L281.425 125.558L282.386 125.336L281.955 126.224L282.728 126.837L281.766 127.054L281.769 128.04L280.999 127.423L280.229 128.04L280.232 127.054L279.27 126.837L280.042 126.224L279.612 125.336L280.573 125.558L280.999 124.668Z" fill="#F0F0F0"/>
<path d="M284.452 128.715L284.878 129.605L285.839 129.383L285.409 130.271L286.182 130.884L285.219 131.101L285.222 132.087L284.452 131.47L283.682 132.087L283.685 131.101L282.723 130.884L283.496 130.271L283.065 129.383L284.026 129.605L284.452 128.715Z" fill="#F0F0F0"/>
<path d="M281.968 133.438L282.303 134.468H283.387L282.51 135.105L282.845 136.135L281.968 135.498L281.092 136.135L281.426 135.105L280.55 134.468H281.633L281.968 133.438Z" fill="#F0F0F0"/>
</g>
<circle cx="343.115" cy="133.634" r="28.9114" fill="#FAFAFC"/>
<circle cx="343.115" cy="133.634" r="28.335" stroke="black" stroke-opacity="0.05" stroke-width="1.15292"/>
<circle cx="413.329" cy="133.634" r="28.9114" fill="#FAFAFC"/>
<circle cx="413.329" cy="133.634" r="28.335" stroke="black" stroke-opacity="0.05" stroke-width="1.15292"/>
<g clip-path="url(#clip5_2198_37560)">
<path d="M398.247 133.438C398.247 124.871 405.192 117.926 413.76 117.926C422.327 117.926 429.272 124.871 429.272 133.438L413.76 134.787L398.247 133.438Z" fill="#FFDA44"/>
<path d="M400.32 141.195C403.003 145.832 408.015 148.952 413.757 148.952C419.499 148.952 424.511 145.832 427.194 141.195L413.757 140.184L400.32 141.195Z" fill="#D80027"/>
<path d="M427.196 141.194C428.516 138.912 429.272 136.263 429.272 133.438H398.247C398.247 136.263 399.003 138.912 400.323 141.194H427.196Z" fill="#0052B4"/>
</g>
<circle cx="483.544" cy="133.634" r="28.9114" fill="#FAFAFC"/>
<circle cx="483.544" cy="133.634" r="28.335" stroke="black" stroke-opacity="0.05" stroke-width="1.15292"/>
<circle cx="553.755" cy="133.634" r="28.9114" fill="#FAFAFC"/>
<circle cx="553.755" cy="133.634" r="28.335" stroke="black" stroke-opacity="0.05" stroke-width="1.15292"/>
<g clip-path="url(#clip6_2198_37560)">
<path d="M343.548 78.7397C352.115 78.7397 359.06 71.7946 359.06 63.2273C359.06 54.66 352.115 47.7148 343.548 47.7148C334.98 47.7148 328.035 54.66 328.035 63.2273C328.035 71.7946 334.98 78.7397 343.548 78.7397Z" fill="#F0F0F0"/>
<path d="M342.905 63.2303H359.092C359.092 61.8302 358.906 60.4739 358.558 59.1836H342.905V63.2303Z" fill="#D80027"/>
<path d="M342.905 55.1366H356.815C355.866 53.587 354.652 52.2174 353.236 51.0898H342.905V55.1366Z" fill="#D80027"/>
<path d="M343.576 78.7394C347.227 78.7394 350.583 77.4776 353.232 75.3672H333.92C336.57 77.4776 339.925 78.7394 343.576 78.7394Z" fill="#D80027"/>
<path d="M330.335 71.3241H356.806C357.569 70.0801 358.16 68.7204 358.549 67.2773H328.593C328.982 68.7204 329.573 70.0801 330.335 71.3241Z" fill="#D80027"/>
<path d="M335.221 50.1373H336.634L335.32 51.0926L335.822 52.6383L334.507 51.6831L333.192 52.6383L333.626 51.303C332.468 52.2674 331.453 53.3972 330.617 54.6562H331.07L330.233 55.2643C330.103 55.4818 329.978 55.7028 329.858 55.927L330.258 57.1572L329.512 56.6154C329.327 57.0081 329.157 57.4097 329.005 57.8196L329.445 59.175H331.07L329.755 60.1303L330.258 61.676L328.943 60.7207L328.155 61.293C328.076 61.9267 328.035 62.5722 328.035 63.2273H343.548C343.548 54.6601 343.548 53.65 343.548 47.7148C340.483 47.7148 337.627 48.6038 335.221 50.1373ZM335.822 61.676L334.507 60.7207L333.192 61.676L333.694 60.1303L332.379 59.175H334.005L334.507 57.6293L335.009 59.175H336.634L335.32 60.1303L335.822 61.676ZM335.32 55.6115L335.822 57.1572L334.507 56.2019L333.192 57.1572L333.694 55.6115L332.379 54.6562H334.005L334.507 53.1104L335.009 54.6562H336.634L335.32 55.6115ZM341.386 61.676L340.071 60.7207L338.756 61.676L339.259 60.1303L337.944 59.175H339.569L340.071 57.6293L340.573 59.175H342.199L340.884 60.1303L341.386 61.676ZM340.884 55.6115L341.386 57.1572L340.071 56.2019L338.756 57.1572L339.259 55.6115L337.944 54.6562H339.569L340.071 53.1104L340.573 54.6562H342.199L340.884 55.6115ZM340.884 51.0926L341.386 52.6383L340.071 51.6831L338.756 52.6383L339.259 51.0926L337.944 50.1373H339.569L340.071 48.5916L340.573 50.1373H342.199L340.884 51.0926Z" fill="#0052B4"/>
</g>
<g clip-path="url(#clip7_2198_37560)">
<path d="M148.431 134.363C148.431 132.466 148.09 130.648 147.466 128.967L132.919 128.293L118.371 128.967C117.748 130.648 117.406 132.466 117.406 134.363C117.406 136.261 117.748 138.078 118.371 139.759L132.919 140.433L147.466 139.759C148.09 138.078 148.431 136.261 148.431 134.363Z" fill="#0052B4"/>
<path d="M132.913 149.879C139.583 149.879 145.269 145.669 147.46 139.762H118.365C120.557 145.669 126.243 149.879 132.913 149.879Z" fill="#FF9811"/>
<path d="M118.365 128.968H147.46C145.269 123.061 139.583 118.852 132.913 118.852C126.243 118.852 120.557 123.061 118.365 128.968Z" fill="#D80027"/>
</g>
<g clip-path="url(#clip8_2198_37560)">
<path d="M203.13 78.7397C211.697 78.7397 218.642 71.7946 218.642 63.2273C218.642 54.66 211.697 47.7148 203.13 47.7148C194.562 47.7148 187.617 54.66 187.617 63.2273C187.617 71.7946 194.562 78.7397 203.13 78.7397Z" fill="#F0F0F0"/>
<path d="M190.826 53.7812C189.607 55.3666 188.688 57.1939 188.153 59.1789H196.223L190.826 53.7812Z" fill="#0052B4"/>
<path d="M218.111 59.1789C217.576 57.1939 216.657 55.3666 215.439 53.7812L210.041 59.1789H218.111Z" fill="#0052B4"/>
<path d="M188.153 67.2695C188.688 69.2545 189.607 71.0818 190.826 72.6671L196.223 67.2695H188.153Z" fill="#0052B4"/>
<path d="M212.573 50.9185C210.988 49.7 209.161 48.7812 207.176 48.2461V56.316L212.573 50.9185Z" fill="#0052B4"/>
<path d="M193.679 75.5303C195.264 76.7488 197.091 77.6676 199.076 78.2027V70.1328L193.679 75.5303Z" fill="#0052B4"/>
<path d="M199.076 48.2461C197.091 48.7812 195.264 49.7 193.679 50.9184L199.076 56.316V48.2461Z" fill="#0052B4"/>
<path d="M207.176 78.2027C209.161 77.6676 210.988 76.7488 212.573 75.5304L207.176 70.1328V78.2027Z" fill="#0052B4"/>
<path d="M210.041 67.2695L215.439 72.6671C216.657 71.0818 217.576 69.2545 218.111 67.2695H210.041Z" fill="#0052B4"/>
<path d="M218.515 61.2039H205.157H205.157V47.8462C204.495 47.7599 203.819 47.7148 203.134 47.7148C202.448 47.7148 201.772 47.7599 201.11 47.8462V61.2038V61.2039H187.752C187.666 61.8662 187.621 62.5415 187.621 63.2273C187.621 63.9132 187.666 64.5883 187.752 65.2506H201.11H201.11V78.6084C201.772 78.6946 202.448 78.7397 203.134 78.7397C203.819 78.7397 204.495 78.6947 205.157 78.6084V65.2507V65.2507H218.515C218.601 64.5883 218.646 63.9132 218.646 63.2273C218.646 62.5415 218.601 61.8662 218.515 61.2039Z" fill="#D80027"/>
<path d="M207.166 67.2735L214.088 74.1957C214.407 73.8774 214.71 73.5447 215 73.1998L209.074 67.2734H207.166V67.2735Z" fill="#D80027"/>
<path d="M199.085 67.2734H199.085L192.163 74.1956C192.481 74.5139 192.814 74.8176 193.159 75.1074L199.085 69.1809V67.2734Z" fill="#D80027"/>
<path d="M199.073 59.1802V59.1801L192.151 52.2578C191.833 52.5761 191.529 52.9088 191.239 53.2537L197.166 59.1801H199.073V59.1802Z" fill="#D80027"/>
<path d="M207.166 59.1817L214.088 52.2594C213.77 51.9411 213.437 51.6374 213.092 51.3477L207.166 57.2741V59.1817Z" fill="#D80027"/>
</g>
<g clip-path="url(#clip9_2198_37560)">
<path d="M343.546 148.951C352.113 148.951 359.058 142.006 359.058 133.438C359.058 124.871 352.113 117.926 343.546 117.926C334.978 117.926 328.033 124.871 328.033 133.438C328.033 142.006 334.978 148.951 343.546 148.951Z" fill="#F0F0F0"/>
<path d="M343.517 117.922C337.367 117.922 332.053 121.501 329.544 126.69H357.49C354.981 121.501 349.667 117.922 343.517 117.922Z" fill="#338AF3"/>
<path d="M343.517 148.948C349.667 148.948 354.981 145.369 357.49 140.18H329.544C332.053 145.369 337.367 148.948 343.517 148.948Z" fill="#338AF3"/>
<path d="M348.163 133.438L346.268 134.329L347.277 136.164L345.22 135.77L344.959 137.848L343.526 136.32L342.093 137.848L341.833 135.77L339.775 136.164L340.784 134.329L338.89 133.438L340.784 132.547L339.775 130.712L341.832 131.106L342.093 129.027L343.526 130.556L344.959 129.027L345.22 131.106L347.277 130.712L346.268 132.547L348.163 133.438Z" fill="#FFDA44"/>
</g>
<g clip-path="url(#clip10_2198_37560)">
<path d="M483.97 78.7397C492.538 78.7397 499.483 71.7946 499.483 63.2273C499.483 54.66 492.538 47.7148 483.97 47.7148C475.403 47.7148 468.458 54.66 468.458 63.2273C468.458 71.7946 475.403 78.7397 483.97 78.7397Z" fill="#F0F0F0"/>
<path d="M499.352 61.2039H485.994H485.994V47.8462C485.331 47.7599 484.656 47.7148 483.97 47.7148C483.285 47.7148 482.609 47.7599 481.947 47.8462V61.2038V61.2039H468.589C468.503 61.8662 468.458 62.5414 468.458 63.2273C468.458 63.9132 468.503 64.5883 468.589 65.2506H481.947H481.947V78.6084C482.609 78.6946 483.285 78.7397 483.97 78.7397C484.656 78.7397 485.331 78.6947 485.994 78.6084V65.2507V65.2507H499.352C499.438 64.5883 499.483 63.9132 499.483 63.2273C499.483 62.5414 499.438 61.8662 499.352 61.2039Z" fill="#D80027"/>
</g>
<g clip-path="url(#clip11_2198_37560)">
<path d="M62.4324 78.9038C70.9996 78.9038 77.9448 71.9586 77.9448 63.3913C77.9448 54.8241 70.9996 47.8789 62.4324 47.8789C53.8651 47.8789 46.9199 54.8241 46.9199 63.3913C46.9199 71.9586 53.8651 78.9038 62.4324 78.9038Z" fill="#F0F0F0"/>
<path d="M77.9401 63.3913C77.9401 56.7215 73.7304 51.0355 67.8232 48.8438V77.939C73.7304 75.7471 77.9401 70.0611 77.9401 63.3913Z" fill="#D80027"/>
<path d="M46.9199 63.3913C46.9199 70.0611 51.1296 75.7471 57.0368 77.9389V48.8438C51.1296 51.0355 46.9199 56.7215 46.9199 63.3913Z" fill="#6DA544"/>
</g>
<g clip-path="url(#clip12_2198_37560)">
<path d="M62.7068 148.951C71.2741 148.951 78.2192 142.006 78.2192 133.438C78.2192 124.871 71.2741 117.926 62.7068 117.926C54.1395 117.926 47.1943 124.871 47.1943 133.438C47.1943 142.006 54.1395 148.951 62.7068 148.951Z" fill="#F0F0F0"/>
<path d="M78.0879 131.413H59.3346H59.3345V118.293C57.9009 118.611 56.5419 119.126 55.2878 119.81V131.413V131.413H47.3256C47.2393 132.076 47.1943 132.751 47.1943 133.437C47.1943 134.122 47.2393 134.798 47.3256 135.46H55.2877H55.2878V147.063C56.5419 147.747 57.9009 148.263 59.3345 148.58V135.46V135.46H78.0879C78.1741 134.798 78.2192 134.122 78.2192 133.437C78.2192 132.751 78.1741 132.076 78.0879 131.413Z" fill="#0052B4"/>
</g>
<g clip-path="url(#clip13_2198_37560)">
<path d="M483.969 148.951C492.537 148.951 499.482 142.006 499.482 133.438C499.482 124.871 492.537 117.926 483.969 117.926C475.402 117.926 468.457 124.871 468.457 133.438C468.457 142.006 475.402 148.951 483.969 148.951Z" fill="#F0F0F0"/>
<path d="M468.457 133.438C468.457 124.871 475.402 117.926 483.969 117.926C492.537 117.926 499.482 124.871 499.482 133.438" fill="#D80027"/>
<path d="M477.925 126.018C477.925 123.758 479.513 121.87 481.634 121.407C481.308 121.335 480.97 121.297 480.623 121.297C478.015 121.297 475.901 123.411 475.901 126.018C475.901 128.626 478.015 130.739 480.623 130.739C480.97 130.739 481.308 130.701 481.634 130.629C479.513 130.166 477.925 128.278 477.925 126.018Z" fill="#F0F0F0"/>
<path d="M483.998 121.633L484.333 122.663H485.417L484.54 123.3L484.875 124.331L483.998 123.694L483.122 124.331L483.457 123.3L482.58 122.663H483.664L483.998 121.633Z" fill="#F0F0F0"/>
<path d="M481.371 123.656L481.705 124.687H482.789L481.912 125.324L482.247 126.354L481.371 125.717L480.494 126.354L480.829 125.324L479.952 124.687H481.036L481.371 123.656Z" fill="#F0F0F0"/>
<path d="M486.63 123.656L486.965 124.687H488.049L487.172 125.324L487.507 126.354L486.63 125.717L485.754 126.354L486.088 125.324L485.212 124.687H486.295L486.63 123.656Z" fill="#F0F0F0"/>
<path d="M485.612 126.691L485.947 127.722H487.03L486.153 128.359L486.488 129.389L485.612 128.752L484.735 129.389L485.07 128.359L484.193 127.722H485.277L485.612 126.691Z" fill="#F0F0F0"/>
<path d="M482.389 126.691L482.724 127.722H483.807L482.931 128.359L483.266 129.389L482.389 128.752L481.512 129.389L481.847 128.359L480.971 127.722H482.054L482.389 126.691Z" fill="#F0F0F0"/>
</g>
</g>
<g filter="url(#filter1_d_2198_37560)">
<circle cx="277.61" cy="97.9186" r="62.3951" fill="#EDEAFF"/>
<circle cx="277.61" cy="97.9186" r="61.2809" stroke="white" stroke-width="2.2284"/>
</g>
<path d="M325.521 99.0335C325.521 126.133 304.047 148.058 277.611 148.058C251.174 148.058 229.7 126.133 229.7 99.0335C229.7 71.9341 251.174 50.0087 277.611 50.0087C304.047 50.0087 325.521 71.9341 325.521 99.0335Z" fill="url(#paint1_linear_2198_37560)" stroke="white" stroke-width="2.2284"/>
<path fill-rule="evenodd" clip-rule="evenodd" d="M275.372 76.606C275.784 76.4102 276.257 76.4102 277.202 76.4102H277.814C278.759 76.4102 279.232 76.4102 279.644 76.606C280.056 76.8018 280.355 77.1682 280.952 77.901L295.887 96.2285C295.887 96.2285 282.342 96.0444 280.379 90.2216C279.444 87.66 278.382 82.0849 277.918 78.9607C277.898 78.8285 277.888 78.7623 277.854 78.714C277.83 78.6799 277.799 78.6526 277.762 78.634C277.709 78.6076 277.642 78.6076 277.508 78.6076C277.374 78.6076 277.308 78.6076 277.255 78.634C277.217 78.6526 277.186 78.6799 277.162 78.714C277.128 78.7623 277.118 78.8285 277.099 78.9607C276.635 82.0849 275.573 87.66 274.637 90.2216C272.674 96.0444 259.129 96.2285 259.129 96.2285L274.064 77.901C274.661 77.1682 274.96 76.8018 275.372 76.606ZM275.372 119.196C275.784 119.392 276.257 119.392 277.202 119.392H277.814C278.759 119.392 279.232 119.392 279.644 119.196C280.056 119 280.355 118.634 280.952 117.901L295.887 99.5737C295.887 99.5737 282.342 99.7578 280.379 105.581C279.443 108.142 278.381 113.717 277.917 116.841C277.898 116.974 277.888 117.04 277.854 117.088C277.83 117.122 277.799 117.15 277.761 117.168C277.709 117.195 277.642 117.195 277.508 117.195C277.374 117.195 277.307 117.195 277.254 117.168C277.217 117.15 277.186 117.122 277.162 117.088C277.128 117.04 277.118 116.974 277.098 116.841C276.635 113.717 275.572 108.142 274.637 105.581C272.674 99.7578 259.129 99.5737 259.129 99.5737L274.064 117.901C274.661 118.634 274.96 119 275.372 119.196Z" fill="url(#paint2_linear_2198_37560)"/>
<path d="M281.807 148.538C254.138 149.626 230.845 128.576 229.781 101.521" stroke="url(#paint3_linear_2198_37560)" stroke-width="2.2284" stroke-linecap="round"/>
<path d="M273.63 49.7469C301.3 48.6591 324.593 69.7095 325.656 96.7642" stroke="url(#paint4_linear_2198_37560)" stroke-width="2.2284" stroke-linecap="round"/>
<circle cx="218.558" cy="38.8662" r="3.34278" fill="white"/>
<circle cx="336.663" cy="38.8662" r="3.34278" fill="white"/>
<circle cx="336.663" cy="156.968" r="3.34278" fill="white"/>
<circle cx="218.558" cy="156.968" r="3.34278" fill="white"/>
<defs>
<filter id="filter0_d_2198_37560" x="226.343" y="20.5583" width="93.1129" height="93.1138" filterUnits="userSpaceOnUse" color-interpolation-filters="sRGB">
<feFlood flood-opacity="0" result="BackgroundImageFix"/>
<feColorMatrix in="SourceAlpha" type="matrix" values="0 0 0 0 0 0 0 0 0 0 0 0 0 0 0 0 0 0 127 0" result="hardAlpha"/>
<feOffset dy="3.69525"/>
<feGaussianBlur stdDeviation="8.8224"/>
<feComposite in2="hardAlpha" operator="out"/>
<feColorMatrix type="matrix" values="0 0 0 0 0 0 0 0 0 0 0 0 0 0 0 0 0 0 0.1 0"/>
<feBlend mode="normal" in2="BackgroundImageFix" result="effect1_dropShadow_2198_37560"/>
<feBlend mode="normal" in="SourceGraphic" in2="effect1_dropShadow_2198_37560" result="shape"/>
</filter>
<filter id="filter1_d_2198_37560" x="170.87" y="0.0919228" width="222.394" height="222.393" filterUnits="userSpaceOnUse" color-interpolation-filters="sRGB">
<feFlood flood-opacity="0" result="BackgroundImageFix"/>
<feColorMatrix in="SourceAlpha" type="matrix" values="0 0 0 0 0 0 0 0 0 0 0 0 0 0 0 0 0 0 127 0" result="hardAlpha"/>
<feOffset dx="4.45679" dy="13.3704"/>
<feGaussianBlur stdDeviation="24.4009"/>
<feComposite in2="hardAlpha" operator="out"/>
<feColorMatrix type="matrix" values="0 0 0 0 0.394786 0 0 0 0 0.341409 0 0 0 0 0.999723 0 0 0 0.22 0"/>
<feBlend mode="normal" in2="BackgroundImageFix" result="effect1_dropShadow_2198_37560"/>
<feBlend mode="normal" in="SourceGraphic" in2="effect1_dropShadow_2198_37560" result="shape"/>
</filter>
<linearGradient id="paint0_linear_2198_37560" x1="22.7306" y1="91.1372" x2="528.487" y2="91.1373" gradientUnits="userSpaceOnUse">
<stop stop-color="white" stop-opacity="0"/>
<stop offset="0.523159" stop-color="white"/>
<stop offset="1" stop-color="white" stop-opacity="0"/>
</linearGradient>
<linearGradient id="paint1_linear_2198_37560" x1="342.234" y1="41.0951" x2="240.842" y2="131.345" gradientUnits="userSpaceOnUse">
<stop stop-color="#C4B5FF"/>
<stop offset="1" stop-color="white"/>
</linearGradient>
<linearGradient id="paint2_linear_2198_37560" x1="259.129" y1="97.9012" x2="295.887" y2="97.9012" gradientUnits="userSpaceOnUse">
<stop stop-color="#663AD7"/>
<stop offset="1" stop-color="#8763E5"/>
</linearGradient>
<linearGradient id="paint3_linear_2198_37560" x1="229.781" y1="101.521" x2="329.982" y2="97.5819" gradientUnits="userSpaceOnUse">
<stop stop-color="#6438D6"/>
<stop offset="0.29" stop-color="#7B74FD" stop-opacity="0"/>
</linearGradient>
<linearGradient id="paint4_linear_2198_37560" x1="325.656" y1="96.7642" x2="225.456" y2="100.703" gradientUnits="userSpaceOnUse">
<stop stop-color="#6438D6"/>
<stop offset="0.29" stop-color="#7B74FD" stop-opacity="0"/>
</linearGradient>
<clipPath id="clip0_2198_37560">
<rect width="31.0249" height="31.0249" fill="white" transform="translate(117.406 47.7148)"/>
</clipPath>
<clipPath id="clip1_2198_37560">
<rect width="31.0249" height="31.0249" fill="white" transform="translate(257.824 47.7148)"/>
</clipPath>
<clipPath id="clip2_2198_37560">
<rect width="31.0249" height="31.0249" fill="white" transform="translate(398.246 47.7148)"/>
</clipPath>
<clipPath id="clip3_2198_37560">
<rect width="31.0249" height="31.0249" fill="white" transform="translate(187.617 117.926)"/>
</clipPath>
<clipPath id="clip4_2198_37560">
<rect width="31.0249" height="31.0249" fill="white" transform="translate(257.824 117.926)"/>
</clipPath>
<clipPath id="clip5_2198_37560">
<rect width="31.0249" height="31.0249" fill="white" transform="translate(398.246 117.926)"/>
</clipPath>
<clipPath id="clip6_2198_37560">
<rect width="31.0249" height="31.0249" fill="white" transform="translate(328.035 47.7148)"/>
</clipPath>
<clipPath id="clip7_2198_37560">
<rect width="31.0249" height="31.0249" fill="white" transform="translate(117.406 118.852)"/>
</clipPath>
<clipPath id="clip8_2198_37560">
<rect width="31.0249" height="31.0249" fill="white" transform="translate(187.617 47.7148)"/>
</clipPath>
<clipPath id="clip9_2198_37560">
<rect width="31.0249" height="31.0249" fill="white" transform="translate(328.035 117.926)"/>
</clipPath>
<clipPath id="clip10_2198_37560">
<rect width="31.0249" height="31.0249" fill="white" transform="translate(468.457 47.7148)"/>
</clipPath>
<clipPath id="clip11_2198_37560">
<rect width="31.0249" height="31.0249" fill="white" transform="translate(46.918 47.8789)"/>
</clipPath>
<clipPath id="clip12_2198_37560">
<rect width="31.0249" height="31.0249" fill="white" transform="translate(47.1953 117.926)"/>
</clipPath>
<clipPath id="clip13_2198_37560">
<rect width="31.0249" height="31.0249" fill="white" transform="translate(468.457 117.926)"/>
</clipPath>
</defs>
</svg>
