<svg width="446" height="243" viewBox="0 0 446 243" fill="none" xmlns="http://www.w3.org/2000/svg">
<g clip-path="url(#clip0_4292_23676)">
<g filter="url(#filter0_d_4292_23676)">
<rect x="0.000488281" width="445.764" height="242.824" rx="18.769" fill="white"/>
</g>
<path d="M27.0848 39.4688H24.8325V26.3304H31.4955C34.1795 26.3304 35.8124 28.1135 35.8124 30.4596C35.8124 33.1061 33.9731 34.7202 31.4955 34.7202H27.0848V39.4688ZM27.0848 28.3575V32.6931H31.3829C32.7906 32.6931 33.5226 31.6421 33.5226 30.4596C33.5226 29.2209 32.678 28.3575 31.3829 28.3575H27.0848ZM41.4311 39.7503C38.2028 39.7503 36.3259 37.4792 36.3259 34.4011C36.3259 31.1541 38.5219 29.2209 41.4311 29.2209C44.6406 29.2209 46.5175 31.4731 46.5175 34.4011C46.5175 37.7608 44.3966 39.7503 41.4311 39.7503ZM41.4311 37.8546C43.2142 37.8546 44.2652 36.3906 44.2652 34.4011C44.2652 32.4304 43.1579 31.1165 41.4311 31.1165C39.7044 31.1165 38.5782 32.4304 38.5782 34.4011C38.5782 36.5783 39.7982 37.8546 41.4311 37.8546ZM49.7162 39.4688H47.5014V29.5212H49.2845L49.5472 31.4731C50.1854 30.1218 51.3491 29.4086 53.0007 29.4086H53.3761V31.567H53.0007C50.9361 31.567 49.7162 32.6744 49.7162 34.5513V39.4688ZM59.7881 39.4688H58.5118C56.3534 39.4688 55.1897 38.3989 55.1897 36.4282V31.3981H53.4442V29.5212H55.1897V26.124H57.4044V29.5212H60.7641V28.2824C60.7641 26.4055 61.8714 25.392 63.936 25.392H66.1132V27.2689H64.0862C63.373 27.2689 62.9976 27.6818 62.9976 28.4326V29.5212H65.888V31.3981H62.9976V39.4688H60.7641V31.3981H57.4044V36.278C57.4044 37.1226 57.8361 37.5918 58.6619 37.5918H59.7881V39.4688ZM70.9432 39.7503C67.7149 39.7503 65.838 37.4792 65.838 34.4011C65.838 31.1541 68.034 29.2209 70.9432 29.2209C74.1527 29.2209 76.0296 31.4731 76.0296 34.4011C76.0296 37.7608 73.9087 39.7503 70.9432 39.7503ZM70.9432 37.8546C72.7262 37.8546 73.7773 36.3906 73.7773 34.4011C73.7773 32.4304 72.6699 31.1165 70.9432 31.1165C69.2164 31.1165 68.0903 32.4304 68.0903 34.4011C68.0903 36.5783 69.3103 37.8546 70.9432 37.8546ZM79.2658 39.4688H77.051V25.392H79.2658V39.4688ZM81.9157 28.1886C81.1087 28.1886 80.4893 27.5504 80.4893 26.7434C80.4893 25.9363 81.1087 25.3169 81.9157 25.3169C82.7416 25.3169 83.3422 25.9363 83.3422 26.7434C83.3422 27.5504 82.7416 28.1886 81.9157 28.1886ZM83.0231 39.4688H80.8084V29.5212H83.0231V39.4688ZM89.1095 39.7503C85.8813 39.7503 84.0044 37.4792 84.0044 34.4011C84.0044 31.1541 86.2004 29.2209 89.1095 29.2209C92.3191 29.2209 94.196 31.4731 94.196 34.4011C94.196 37.7608 92.0751 39.7503 89.1095 39.7503ZM89.1095 37.8546C90.8926 37.8546 91.9437 36.3906 91.9437 34.4011C91.9437 32.4304 90.8363 31.1165 89.1095 31.1165C87.3828 31.1165 86.2567 32.4304 86.2567 34.4011C86.2567 36.5783 87.4766 37.8546 89.1095 37.8546Z" fill="#6438D6"/>
<path d="M40.9176 76.2547C40.9176 79.7176 38.243 81.9417 33.9918 82.0825V85.4609H31.7114V81.9698C27.5728 81.4068 24.8982 79.0137 24.673 75.579H28.1359C28.3893 77.2682 29.6562 78.4507 31.7114 78.9011V72.8763L31.1483 72.7073C28.8397 72.0035 25.2361 70.99 25.2361 67.1329C25.2361 64.036 27.6854 61.7275 31.7114 61.5304V58.3772H33.9918V61.643C37.7644 62.2061 40.1011 64.6273 40.3264 68.2591H36.8916C36.779 66.5417 35.7937 65.2748 33.9918 64.768V70.2861L35.2024 70.6521C37.9896 71.5249 40.9176 72.5384 40.9176 76.2547ZM28.5863 66.964C28.5863 68.5406 30.0222 69.0192 31.7114 69.5541V64.5428C29.7969 64.6836 28.5863 65.5563 28.5863 66.964ZM33.9918 73.5519V79.07C36.2723 78.9574 37.4829 78.0002 37.4829 76.4236C37.4829 74.8752 36.2723 74.2558 34.3578 73.6646L33.9918 73.5519ZM49.5972 82.1106C45.4868 82.1106 42.4462 79.6331 41.9395 75.6353H45.515C45.8247 77.6905 47.4857 79.0137 49.6254 79.0137C52.0184 79.0137 53.4543 77.3245 53.4543 75.1848C53.4543 73.1015 52.0466 71.3841 49.6817 71.3841C48.3866 71.3841 47.2887 71.8909 46.2751 72.9607H42.5025L44.2481 61.9527H55.9599V65.0214H47.0353L46.1625 70.624C47.2323 69.4415 48.7808 68.6251 50.7234 68.6251C54.327 68.6251 56.8609 71.3278 56.8609 75.1567C56.8609 79.2671 53.9047 82.1106 49.5972 82.1106ZM70.666 81.6602H67.2876V77.2682H57.7154V74.2839L67.2594 61.9527H70.666V74.2276H74.0726V77.2682H70.666V81.6602ZM67.2876 66.5699L61.3753 74.2276H67.2876V66.5699ZM79.0315 77.4934L75.822 87.2627L73.2601 86.4744L76.3569 76.677L79.0315 77.4934ZM87.8174 82.0825C82.8624 82.0825 79.9344 79.4642 79.9344 76.2547C79.9344 73.9742 81.511 72.2287 84.073 71.3841C81.9896 70.4832 80.8353 68.7658 80.8353 66.8514C80.8353 63.9797 83.4255 61.5304 87.8174 61.5304C92.1812 61.5304 94.7432 63.9516 94.7432 66.8514C94.7432 68.7377 93.5889 70.455 91.5337 71.3841C94.0957 72.2006 95.6441 73.9742 95.6441 76.2547C95.6441 79.4079 92.8287 82.0825 87.8174 82.0825ZM87.8174 70.2861C89.9571 70.2861 91.4211 69.0755 91.4211 67.33C91.4211 65.6408 89.9571 64.4583 87.8174 64.4583C85.6777 64.4583 84.2138 65.6408 84.2138 67.33C84.2138 69.0755 85.6777 70.2861 87.8174 70.2861ZM87.8174 79.0137C90.5202 79.0137 92.1531 77.606 92.1531 75.8605C92.1531 74.1432 90.5202 72.7073 87.8174 72.7073C85.1147 72.7073 83.4536 74.1432 83.4536 75.8605C83.4536 77.606 85.1147 79.0137 87.8174 79.0137ZM104.482 82.0825C99.7807 82.0825 96.6556 78.0284 96.6556 71.7501C96.6556 65.6126 99.6962 61.5304 104.482 61.5304C109.156 61.5304 112.281 65.5282 112.281 71.7501C112.281 77.9157 109.24 82.0825 104.482 82.0825ZM104.482 78.9574C107.157 78.9574 108.874 76.1421 108.874 71.7501C108.874 67.4145 107.157 64.6273 104.482 64.6273C101.78 64.6273 100.062 67.4145 100.062 71.7501C100.062 76.1421 101.78 78.9574 104.482 78.9574ZM121.198 82.1106C116.552 82.1106 113.371 79.5486 113.146 75.3819H116.609C116.806 77.6624 118.579 79.0419 121.198 79.0419C123.619 79.0419 125.139 77.8313 125.139 75.9731C125.139 74.1432 123.647 73.017 121.169 73.017H118.101V70.2298H121.169C123.168 70.2298 124.379 68.9629 124.379 67.4145C124.379 65.7816 123.056 64.571 121.085 64.571C119.086 64.571 117.566 65.8379 117.312 67.7805H113.821C114.216 64.0079 117.144 61.5304 121.198 61.5304C125.026 61.5304 127.757 63.7264 127.757 66.7951C127.757 69.1318 126.153 70.9337 123.788 71.4404C126.688 71.9753 128.433 73.8335 128.433 76.4518C128.433 79.802 125.561 82.1106 121.198 82.1106Z" fill="black"/>
<rect x="24.0489" y="109.68" width="395.518" height="36.6343" rx="18.3172" stroke="black" stroke-opacity="0.05" stroke-width="1.17306"/>
<circle cx="41.6448" cy="127.996" r="4.10572" fill="#A887FF"/>
<path d="M58.5746 131.496H53.8167V121.642H58.4902C60.2779 121.642 61.5307 122.656 61.5307 124.134C61.5307 125.26 60.7143 126.133 59.5037 126.428C60.8691 126.64 61.7419 127.569 61.7419 128.822C61.7419 130.398 60.4468 131.496 58.5746 131.496ZM55.4918 123.149V125.753H58.4338C59.2785 125.753 59.8556 125.19 59.8556 124.401C59.8556 123.669 59.3207 123.149 58.5605 123.149H55.4918ZM55.4918 127.217V129.976H58.6591C59.5037 129.976 60.0245 129.371 60.0245 128.582C60.0245 127.78 59.4051 127.217 58.5042 127.217H55.4918ZM63.4139 123.036C62.8086 123.036 62.3441 122.557 62.3441 121.952C62.3441 121.347 62.8086 120.882 63.4139 120.882C64.0333 120.882 64.4838 121.347 64.4838 121.952C64.4838 122.557 64.0333 123.036 63.4139 123.036ZM64.2445 131.496H62.5834V124.035H64.2445V131.496ZM69.6539 131.496H68.6967C67.0779 131.496 66.2051 130.694 66.2051 129.216V125.443H64.896V124.035H66.2051V121.488H67.8662V124.035H69.7947V125.443H67.8662V129.103C67.8662 129.736 68.1899 130.088 68.8093 130.088H69.6539V131.496ZM73.7594 131.707C71.3241 131.707 69.9023 129.962 69.9023 127.709C69.9023 125.26 71.5493 123.81 73.7171 123.81C75.7583 123.81 77.1378 125.063 77.2786 126.921H75.6457C75.4908 125.894 74.7588 125.232 73.7031 125.232C72.4362 125.232 71.5916 126.189 71.5916 127.709C71.5916 129.342 72.5206 130.285 73.7594 130.285C74.7729 130.285 75.4767 129.638 75.6457 128.568H77.2786C77.0815 130.497 75.7442 131.707 73.7594 131.707ZM81.4438 131.707C79.0225 131.707 77.6149 130.004 77.6149 127.695C77.6149 125.26 79.2619 123.81 81.4438 123.81C83.8509 123.81 85.2586 125.499 85.2586 127.695C85.2586 130.215 83.6679 131.707 81.4438 131.707ZM81.4438 130.285C82.781 130.285 83.5693 129.188 83.5693 127.695C83.5693 126.217 82.7388 125.232 81.4438 125.232C80.1487 125.232 79.3041 126.217 79.3041 127.695C79.3041 129.328 80.2191 130.285 81.4438 130.285ZM86.827 123.036C86.2217 123.036 85.7572 122.557 85.7572 121.952C85.7572 121.347 86.2217 120.882 86.827 120.882C87.4464 120.882 87.8968 121.347 87.8968 121.952C87.8968 122.557 87.4464 123.036 86.827 123.036ZM87.6575 131.496H85.9965V124.035H87.6575V131.496ZM90.4487 131.496H88.7876V124.035H90.1249L90.2657 125.133C90.7302 124.359 91.6734 123.81 92.7854 123.81C94.3761 123.81 95.4178 124.88 95.4178 126.555V131.496H93.7567V126.64C93.7567 125.809 93.2077 125.26 92.2787 125.26C91.1948 125.26 90.4628 126.006 90.4487 126.977V131.496Z" fill="black"/>
<path d="M163.789 128.824H163.96C164.301 128.824 164.472 128.824 164.626 128.885C164.781 128.947 164.904 129.065 165.151 129.3L166.846 130.916C167.083 131.143 167.202 131.256 167.349 131.317C167.357 131.32 167.365 131.324 167.373 131.327C167.522 131.384 167.686 131.384 168.013 131.384V131.384C168.495 131.384 168.736 131.384 168.934 131.496C168.944 131.502 168.955 131.509 168.965 131.515C169.158 131.636 169.273 131.847 169.502 132.271L170.596 134.294C171.243 135.491 171.566 136.089 172.071 136.097C172.576 136.106 172.919 135.518 173.604 134.343L174.367 133.033C174.611 132.616 174.733 132.407 174.932 132.292C175.132 132.177 175.374 132.177 175.858 132.177H177.152C177.413 132.177 177.543 132.177 177.661 132.143C177.786 132.106 177.902 132.042 177.998 131.955C178.09 131.872 178.158 131.761 178.295 131.539L178.33 131.483C178.432 131.316 178.484 131.233 178.548 131.167C178.667 131.043 178.82 130.957 178.987 130.921C179.078 130.902 179.175 130.902 179.371 130.902V130.902C179.592 130.902 179.703 130.902 179.803 130.878C179.989 130.833 180.155 130.727 180.274 130.578C180.338 130.497 180.385 130.397 180.479 130.197L181.298 128.445C181.926 127.102 182.241 126.43 182.769 126.413C183.298 126.395 183.656 127.044 184.372 128.342L185.23 129.898C185.735 130.813 185.988 131.271 186.412 131.333C186.837 131.394 187.209 131.027 187.953 130.292L188.663 129.591C189.052 129.207 189.247 129.014 189.499 128.963C189.751 128.912 190.006 129.014 190.514 129.217L191.218 129.497C192.034 129.823 192.442 129.985 192.784 129.821C193.125 129.657 193.253 129.236 193.508 128.395L194.188 126.152C194.236 125.994 194.26 125.915 194.293 125.848C194.416 125.605 194.647 125.434 194.916 125.387C194.989 125.374 195.072 125.374 195.237 125.374V125.374C195.413 125.374 195.501 125.374 195.578 125.36C195.862 125.308 196.101 125.118 196.215 124.853C196.246 124.781 196.266 124.695 196.305 124.523L196.534 123.522C196.969 121.624 197.187 120.675 197.781 120.596C198.376 120.518 198.831 121.379 199.741 123.101L200.999 125.481C201.489 126.407 201.734 126.87 202.158 126.939C202.582 127.007 202.961 126.645 203.718 125.921L204.243 125.418C204.76 124.924 205.018 124.677 205.34 124.662C205.662 124.646 205.943 124.868 206.504 125.31L206.95 125.661C207.429 126.039 207.669 126.228 207.943 126.242C207.991 126.244 208.04 126.243 208.087 126.237C208.36 126.205 208.587 126.001 209.04 125.593V125.593C209.626 125.065 209.918 124.802 210.253 124.804C210.31 124.804 210.368 124.81 210.424 124.822C210.752 124.891 210.982 125.21 211.443 125.849L212.537 127.368C212.585 127.434 212.609 127.467 212.635 127.498C212.662 127.528 212.692 127.556 212.751 127.612L213.507 128.328C213.713 128.523 213.815 128.62 213.941 128.679C214.067 128.738 214.207 128.755 214.488 128.788L214.784 128.824H215.789" stroke="url(#paint0_linear_4292_23676)" stroke-width="0.670398"/>
<mask id="path-10-inside-1_4292_23676" fill="white">
<path d="M264.789 118.477H329.308V137.515H264.789V118.477Z"/>
</mask>
<path d="M328.135 118.477V137.515H330.481V118.477H328.135Z" fill="black" fill-opacity="0.08" mask="url(#path-10-inside-1_4292_23676)"/>
<rect x="264.789" y="118.477" width="45.7495" height="19.0384" rx="9.51919" fill="#00A903" fill-opacity="0.12"/>
<path d="M279.354 129.339H278.341V127.575H276.511V126.665H278.341V124.882H279.354V126.665H281.175V127.575H279.354V129.339ZM284.049 129.996H282.923V125.107C282.613 125.538 282.116 125.764 281.44 125.764H281.365V124.684H281.44C282.416 124.684 282.933 124.281 282.933 123.521V123.427H284.049V129.996ZM287.351 130.137C285.784 130.137 284.742 128.785 284.742 126.693C284.742 124.647 285.756 123.286 287.351 123.286C288.909 123.286 289.951 124.619 289.951 126.693C289.951 128.748 288.937 130.137 287.351 130.137ZM287.351 129.095C288.243 129.095 288.815 128.157 288.815 126.693C288.815 125.248 288.243 124.318 287.351 124.318C286.45 124.318 285.878 125.248 285.878 126.693C285.878 128.157 286.45 129.095 287.351 129.095ZM297.043 123.418L292.303 130.268L291.487 129.874L296.217 123.033L297.043 123.418ZM291.806 126.777C290.886 126.777 290.239 126.073 290.239 125.06C290.239 124.009 290.886 123.286 291.806 123.286C292.735 123.286 293.383 123.99 293.383 125.004C293.383 126.045 292.735 126.777 291.806 126.777ZM291.806 126.017C292.247 126.017 292.557 125.614 292.557 125.022C292.557 124.44 292.257 124.037 291.815 124.037C291.374 124.037 291.065 124.44 291.065 125.032C291.065 125.614 291.374 126.017 291.806 126.017ZM296.639 130.137C295.71 130.137 295.063 129.424 295.063 128.41C295.063 127.359 295.71 126.636 296.639 126.646C297.559 126.655 298.206 127.359 298.206 128.363C298.206 129.405 297.559 130.137 296.639 130.137ZM296.639 129.377C297.08 129.377 297.39 128.973 297.39 128.382C297.39 127.8 297.08 127.397 296.648 127.397C296.198 127.397 295.888 127.8 295.888 128.391C295.888 128.973 296.198 129.377 296.639 129.377Z" fill="#00A903"/>
<path d="M358.278 129.343C358.278 131.363 356.718 132.66 354.238 132.742V134.713H352.907V132.677C350.493 132.348 348.933 130.952 348.802 128.949H350.822C350.97 129.934 351.709 130.624 352.907 130.887V127.372L352.579 127.274C351.232 126.863 349.13 126.272 349.13 124.022C349.13 122.215 350.559 120.869 352.907 120.754V118.914H354.238V120.819C356.438 121.148 357.801 122.56 357.933 124.679H355.929C355.864 123.677 355.289 122.938 354.238 122.642V125.861L354.944 126.075C356.57 126.584 358.278 127.175 358.278 129.343ZM351.084 123.923C351.084 124.843 351.922 125.122 352.907 125.434V122.511C351.791 122.593 351.084 123.102 351.084 123.923ZM354.238 127.766V130.985C355.568 130.919 356.274 130.361 356.274 129.441C356.274 128.538 355.568 128.177 354.451 127.832L354.238 127.766ZM366.264 132.496H364.293V129.934H358.71V128.193L364.277 121H366.264V128.16H368.251V129.934H366.264V132.496ZM364.293 123.693L360.845 128.16H364.293V123.693ZM372.401 132.496H370.43V123.94C369.888 124.695 369.018 125.089 367.835 125.089H367.704V123.201H367.835C369.543 123.201 370.447 122.495 370.447 121.164V121H372.401V132.496ZM376.389 130.066L374.517 135.764L373.022 135.304L374.829 129.589L376.389 130.066ZM381.514 132.742C378.624 132.742 376.916 131.215 376.916 129.343C376.916 128.013 377.835 126.994 379.33 126.502C378.115 125.976 377.441 124.974 377.441 123.858C377.441 122.183 378.952 120.754 381.514 120.754C384.06 120.754 385.554 122.166 385.554 123.858C385.554 124.958 384.881 125.96 383.682 126.502C385.176 126.978 386.08 128.013 386.08 129.343C386.08 131.182 384.437 132.742 381.514 132.742ZM381.514 125.861C382.762 125.861 383.616 125.155 383.616 124.137C383.616 123.151 382.762 122.462 381.514 122.462C380.266 122.462 379.412 123.151 379.412 124.137C379.412 125.155 380.266 125.861 381.514 125.861ZM381.514 130.952C383.091 130.952 384.043 130.131 384.043 129.113C384.043 128.111 383.091 127.274 381.514 127.274C379.938 127.274 378.969 128.111 378.969 129.113C378.969 130.131 379.938 130.952 381.514 130.952ZM391.17 132.742C388.279 132.742 386.571 131.215 386.571 129.343C386.571 128.013 387.491 126.994 388.985 126.502C387.77 125.976 387.097 124.974 387.097 123.858C387.097 122.183 388.608 120.754 391.17 120.754C393.715 120.754 395.21 122.166 395.21 123.858C395.21 124.958 394.536 125.96 393.337 126.502C394.832 126.978 395.735 128.013 395.735 129.343C395.735 131.182 394.093 132.742 391.17 132.742ZM391.17 125.861C392.418 125.861 393.272 125.155 393.272 124.137C393.272 123.151 392.418 122.462 391.17 122.462C389.922 122.462 389.068 123.151 389.068 124.137C389.068 125.155 389.922 125.861 391.17 125.861ZM391.17 130.952C392.746 130.952 393.699 130.131 393.699 129.113C393.699 128.111 392.746 127.274 391.17 127.274C389.593 127.274 388.624 128.111 388.624 129.113C388.624 130.131 389.593 130.952 391.17 130.952ZM403.78 132.496H401.809V129.934H396.226V128.193L401.793 121H403.78V128.16H405.767V129.934H403.78V132.496ZM401.809 123.693L398.361 128.16H401.809V123.693Z" fill="black"/>
<rect x="24.0489" y="146.047" width="396.498" height="36.6343" rx="18.3172" stroke="black" stroke-opacity="0.05" stroke-width="1.17306"/>
<circle cx="41.6448" cy="164.364" r="4.10572" fill="#C958E2"/>
<path d="M60.841 167.863H53.8167V158.01H60.7143V159.53H55.4918V162.064H60.2216V163.542H55.4918V166.343H60.841V167.863ZM65.8851 168.074C63.3513 168.074 61.7747 166.582 61.7747 164.583V158.01H63.4639V164.541C63.4639 165.808 64.4915 166.526 65.871 166.526C67.2646 166.526 68.2922 165.808 68.2922 164.541V158.01H69.9814V164.583C69.9814 166.554 68.447 168.074 65.8851 168.074ZM73.0754 167.863H71.3862V158.01H76.2005C78.0727 158.01 79.3678 159.15 79.3678 160.797C79.3678 162.007 78.5091 163.007 77.1999 163.345C77.8475 163.471 78.312 163.865 78.5513 164.471L79.8182 167.863H78.0164L76.8762 164.752C76.7354 164.358 76.4116 164.147 75.9612 164.147H73.0754V167.863ZM73.0754 159.53V162.655H76.116C77.1577 162.655 77.6926 161.909 77.6926 161.05C77.6926 160.149 77.0732 159.53 76.116 159.53H73.0754ZM84.6369 168.074C82.103 168.074 80.5265 166.582 80.5265 164.583V158.01H82.2157V164.541C82.2157 165.808 83.2433 166.526 84.6228 166.526C86.0164 166.526 87.044 165.808 87.044 164.541V158.01H88.7332V164.583C88.7332 166.554 87.1988 168.074 84.6369 168.074ZM94.164 168.074C91.5739 168.074 89.8424 166.779 89.7157 164.823H91.4472C91.602 165.893 92.5874 166.568 94.164 166.568C95.445 166.568 96.1207 166.076 96.1207 165.245C96.1207 164.471 95.5153 164.161 94.5581 163.865L92.9534 163.387C91.7991 163.035 89.9973 162.528 89.9973 160.6C89.9973 158.981 91.3345 157.798 93.5164 157.798C95.8954 157.798 97.4157 159.079 97.5424 161.163H95.825C95.7547 160.051 94.9382 159.305 93.4601 159.305C92.3762 159.305 91.6724 159.755 91.6724 160.515C91.6724 161.374 92.5311 161.585 93.4883 161.895L94.9804 162.359C96.374 162.796 97.838 163.302 97.838 165.161C97.838 166.948 96.4163 168.074 94.164 168.074ZM102.333 167.863H98.7853V158.01H102.333C105.261 158.01 107.302 160.008 107.302 162.88C107.302 165.822 105.261 167.863 102.333 167.863ZM100.475 159.53V166.343H102.445C104.275 166.343 105.556 164.921 105.556 162.88C105.556 160.952 104.275 159.53 102.445 159.53H100.475Z" fill="black"/>
<path d="M215.789 163.219V163.219C215.464 163.219 215.301 163.219 215.159 163.167C215.051 163.127 214.952 163.067 214.868 162.989C214.756 162.886 214.682 162.741 214.533 162.452L213.425 160.299L212.265 158.474C211.479 157.238 211.086 156.62 210.562 156.668C210.039 156.715 209.763 157.393 209.211 158.749L208.25 161.11C207.673 162.527 207.385 163.235 206.849 163.272C206.313 163.31 205.928 162.649 205.16 161.327L204.562 160.299L204.467 160.128C203.903 159.112 203.621 158.604 203.277 158.506C203.059 158.444 202.824 158.47 202.625 158.58C202.312 158.752 202.15 159.31 201.826 160.426L201.42 161.828C201.254 162.398 200.508 162.532 200.155 162.055V162.055C199.829 161.615 199.151 161.687 198.925 162.185L198.374 163.403C197.827 164.608 197.554 165.211 197.163 165.317C196.992 165.364 196.81 165.357 196.643 165.296C196.261 165.158 196.038 164.536 195.591 163.291L194.365 159.879C193.72 158.081 193.397 157.183 192.842 157.138C192.79 157.134 192.738 157.135 192.686 157.14C192.131 157.197 191.829 158.103 191.224 159.915L191.09 160.316C190.748 161.342 190.576 161.855 190.258 162.015C190.079 162.104 189.874 162.129 189.679 162.084C189.331 162.005 189.043 161.548 188.466 160.633V160.633C187.719 159.447 187.345 158.854 186.956 158.794C186.739 158.761 186.518 158.812 186.337 158.936C186.012 159.159 185.934 159.856 185.777 161.249L185.254 165.897C185.241 166.006 185.235 166.061 185.224 166.108C185.143 166.466 184.844 166.734 184.479 166.774C184.431 166.78 184.376 166.78 184.266 166.78V166.78C184.166 166.78 184.116 166.78 184.072 166.784C183.735 166.819 183.449 167.048 183.342 167.37C183.328 167.412 183.317 167.461 183.295 167.558L183.044 168.689C182.611 170.641 182.394 171.618 181.793 171.695C181.192 171.772 180.736 170.882 179.824 169.101L178.584 166.68C178.094 165.722 177.848 165.243 177.416 165.174C176.985 165.105 176.602 165.483 175.836 166.239L175.352 166.717C174.829 167.234 174.567 167.492 174.237 167.508C173.907 167.524 173.622 167.292 173.051 166.827L172.631 166.485C172.161 166.103 171.926 165.912 171.656 165.892C171.594 165.887 171.532 165.889 171.471 165.898C171.203 165.936 170.981 166.142 170.537 166.554V166.554C169.966 167.086 169.68 167.351 169.352 167.359C169.278 167.36 169.204 167.353 169.132 167.335C168.813 167.259 168.59 166.939 168.143 166.299L167.038 164.718C166.992 164.652 166.969 164.618 166.943 164.587C166.917 164.557 166.888 164.528 166.83 164.472L166.073 163.732C165.866 163.531 165.763 163.43 165.636 163.368C165.508 163.307 165.365 163.289 165.079 163.254L164.795 163.219H163.789" stroke="url(#paint1_linear_4292_23676)" stroke-width="0.670398"/>
<mask id="path-20-inside-2_4292_23676" fill="white">
<path d="M264.789 154.844H329.635V173.882H264.789V154.844Z"/>
</mask>
<path d="M328.462 154.844V173.882H330.808V154.844H328.462Z" fill="black" fill-opacity="0.08" mask="url(#path-20-inside-2_4292_23676)"/>
<rect x="264.789" y="154.844" width="46.0768" height="19.0384" rx="9.51919" fill="#00A903" fill-opacity="0.12"/>
<path d="M275.018 165.706H274.005V163.942H272.175V163.032H274.005V161.249H275.018V163.032H276.839V163.942H275.018V165.706ZM279.779 166.513C278.231 166.513 277.17 165.659 277.095 164.271H278.249C278.315 165.031 278.906 165.491 279.779 165.491C280.586 165.491 281.093 165.087 281.093 164.468C281.093 163.858 280.595 163.482 279.77 163.482H278.747V162.553H279.77C280.436 162.553 280.839 162.131 280.839 161.615C280.839 161.07 280.398 160.667 279.741 160.667C279.075 160.667 278.568 161.089 278.484 161.737H277.32C277.452 160.479 278.428 159.653 279.779 159.653C281.055 159.653 281.966 160.385 281.966 161.408C281.966 162.187 281.431 162.788 280.642 162.957C281.609 163.135 282.191 163.754 282.191 164.627C282.191 165.744 281.234 166.513 279.779 166.513ZM283.908 164.974L282.838 168.231L281.984 167.968L283.016 164.702L283.908 164.974ZM286.874 166.504C285.307 166.504 284.265 165.153 284.265 163.06C284.265 161.014 285.278 159.653 286.874 159.653C288.432 159.653 289.473 160.986 289.473 163.06C289.473 165.115 288.46 166.504 286.874 166.504ZM286.874 165.462C287.765 165.462 288.338 164.524 288.338 163.06C288.338 161.615 287.765 160.686 286.874 160.686C285.973 160.686 285.4 161.615 285.4 163.06C285.4 164.524 285.973 165.462 286.874 165.462ZM292.314 166.504C290.935 166.504 289.968 165.697 289.827 164.458H290.972C291.075 165.106 291.582 165.491 292.324 165.491C293.262 165.491 293.806 164.702 293.853 163.323C293.863 163.21 293.863 163.097 293.853 162.985C293.694 163.661 293.065 164.158 292.145 164.158C290.784 164.158 289.827 163.229 289.827 161.915C289.827 160.582 290.822 159.653 292.211 159.653C293.919 159.653 294.895 161.023 294.895 163.116C294.895 165.2 293.938 166.504 292.314 166.504ZM292.258 163.21C292.952 163.21 293.553 162.75 293.553 161.934C293.553 161.108 292.962 160.648 292.267 160.648C291.563 160.648 290.953 161.117 290.944 161.924C290.944 162.741 291.554 163.21 292.258 163.21ZM301.982 159.785L297.243 166.635L296.426 166.241L301.156 159.4L301.982 159.785ZM296.745 163.144C295.826 163.144 295.178 162.441 295.178 161.427C295.178 160.376 295.826 159.653 296.745 159.653C297.674 159.653 298.322 160.357 298.322 161.371C298.322 162.412 297.674 163.144 296.745 163.144ZM296.745 162.384C297.186 162.384 297.496 161.981 297.496 161.389C297.496 160.808 297.196 160.404 296.755 160.404C296.314 160.404 296.004 160.808 296.004 161.399C296.004 161.981 296.314 162.384 296.745 162.384ZM301.578 166.504C300.649 166.504 300.002 165.791 300.002 164.777C300.002 163.726 300.649 163.004 301.578 163.013C302.498 163.022 303.146 163.726 303.146 164.73C303.146 165.772 302.498 166.504 301.578 166.504ZM301.578 165.744C302.02 165.744 302.329 165.34 302.329 164.749C302.329 164.167 302.02 163.764 301.588 163.764C301.137 163.764 300.828 164.167 300.828 164.759C300.828 165.34 301.137 165.744 301.578 165.744Z" fill="#00A903"/>
<path d="M368.657 165.71C368.657 167.73 367.097 169.028 364.617 169.11V171.08H363.287V169.044C360.872 168.715 359.312 167.32 359.181 165.316H361.201C361.349 166.301 362.088 166.991 363.287 167.254V163.739L362.958 163.641C361.612 163.23 359.509 162.639 359.509 160.389C359.509 158.583 360.938 157.236 363.287 157.121V155.282H364.617V157.187C366.818 157.515 368.181 158.927 368.312 161.046H366.308C366.243 160.044 365.668 159.305 364.617 159.01V162.228L365.323 162.442C366.949 162.951 368.657 163.542 368.657 165.71ZM361.464 160.291C361.464 161.21 362.301 161.489 363.287 161.801V158.878C362.17 158.96 361.464 159.469 361.464 160.291ZM364.617 164.133V167.352C365.947 167.287 366.653 166.728 366.653 165.809C366.653 164.905 365.947 164.544 364.83 164.199L364.617 164.133ZM373.736 169.11C370.846 169.11 369.138 167.582 369.138 165.71C369.138 164.38 370.058 163.362 371.552 162.869C370.337 162.343 369.664 161.342 369.664 160.225C369.664 158.55 371.175 157.121 373.736 157.121C376.282 157.121 377.777 158.533 377.777 160.225C377.777 161.325 377.103 162.327 375.904 162.869C377.399 163.345 378.302 164.38 378.302 165.71C378.302 167.549 376.66 169.11 373.736 169.11ZM373.736 162.228C374.985 162.228 375.839 161.522 375.839 160.504C375.839 159.519 374.985 158.829 373.736 158.829C372.488 158.829 371.634 159.519 371.634 160.504C371.634 161.522 372.488 162.228 373.736 162.228ZM373.736 167.32C375.313 167.32 376.266 166.498 376.266 165.48C376.266 164.478 375.313 163.641 373.736 163.641C372.16 163.641 371.191 164.478 371.191 165.48C371.191 166.498 372.16 167.32 373.736 167.32ZM381.315 166.433L379.443 172.131L377.948 171.672L379.755 165.956L381.315 166.433ZM386.506 169.11C383.763 169.11 381.94 166.745 381.94 163.082C381.94 159.502 383.714 157.121 386.506 157.121C389.232 157.121 391.055 159.453 391.055 163.082C391.055 166.679 389.281 169.11 386.506 169.11ZM386.506 167.287C388.066 167.287 389.068 165.644 389.068 163.082C389.068 160.553 388.066 158.927 386.506 158.927C384.929 158.927 383.927 160.553 383.927 163.082C383.927 165.644 384.929 167.287 386.506 167.287ZM396.141 168.863H394.17V160.307C393.628 161.062 392.758 161.457 391.576 161.457H391.444V159.568H391.576C393.284 159.568 394.187 158.862 394.187 157.531V157.367H396.141V168.863ZM404.76 168.863H402.79V166.301H397.206V164.56L402.773 157.367H404.76V164.528H406.748V166.301H404.76V168.863ZM402.79 160.061L399.341 164.528H402.79V160.061Z" fill="black"/>
<rect x="24.0489" y="182.411" width="396.171" height="36.6343" rx="18.3172" stroke="black" stroke-opacity="0.05" stroke-width="1.17306"/>
<circle cx="41.6448" cy="200.727" r="4.10572" fill="#6438D6"/>
<path d="M55.154 204.227H53.1128L56.815 199.286L53.2114 194.373H55.2525L57.8426 197.934L60.4187 194.373H62.4457L58.8561 199.272L62.5443 204.227H60.5031L57.8426 200.609L55.154 204.227ZM64.2876 204.227H62.5421L66.568 194.373H68.2572L72.2973 204.227H70.5517L69.5523 201.791H65.287L64.2876 204.227ZM67.4267 196.555L65.8923 200.299H68.947L67.4267 196.555ZM76.6494 204.438C74.1156 204.438 72.539 202.946 72.539 200.947V194.373H74.2282V200.904C74.2282 202.171 75.2558 202.889 76.6353 202.889C78.0289 202.889 79.0565 202.171 79.0565 200.904V194.373H80.7457V200.947C80.7457 202.917 79.2114 204.438 76.6494 204.438ZM86.1765 204.438C83.6427 204.438 82.0661 202.946 82.0661 200.947V194.373H83.7553V200.904C83.7553 202.171 84.7829 202.889 86.1624 202.889C87.556 202.889 88.5836 202.171 88.5836 200.904V194.373H90.2729V200.947C90.2729 202.917 88.7385 204.438 86.1765 204.438ZM95.7036 204.438C93.1135 204.438 91.3821 203.143 91.2554 201.186H92.9868C93.1417 202.256 94.127 202.931 95.7036 202.931C96.9846 202.931 97.6603 202.439 97.6603 201.608C97.6603 200.834 97.055 200.524 96.0978 200.229L94.493 199.75C93.3387 199.398 91.5369 198.891 91.5369 196.963C91.5369 195.344 92.8742 194.162 95.0561 194.162C97.4351 194.162 98.9554 195.443 99.082 197.526H97.3647C97.2943 196.414 96.4778 195.668 94.9998 195.668C93.9159 195.668 93.212 196.118 93.212 196.878C93.212 197.737 94.0707 197.948 95.0279 198.258L96.5201 198.723C97.9137 199.159 99.3777 199.666 99.3777 201.524C99.3777 203.312 97.9559 204.438 95.7036 204.438ZM103.872 204.227H100.325V194.373H103.872C106.8 194.373 108.841 196.372 108.841 199.243C108.841 202.185 106.8 204.227 103.872 204.227ZM102.014 195.893V202.706H103.985C105.815 202.706 107.096 201.285 107.096 199.243C107.096 197.315 105.815 195.893 103.985 195.893H102.014Z" fill="black"/>
<path d="M163.789 199.416V199.416C164.03 199.416 164.151 199.416 164.259 199.387C164.432 199.341 164.586 199.243 164.701 199.106C164.773 199.02 164.824 198.911 164.926 198.693L165.979 196.448L166.879 194.895C167.674 193.523 168.071 192.837 168.617 192.884C169.162 192.93 169.438 193.674 169.989 195.16L170.66 196.969C171.236 198.522 171.524 199.298 172.082 199.335C172.639 199.372 173.027 198.64 173.803 197.177L174.189 196.448V196.448C174.556 195.723 174.739 195.361 174.911 195.238C175.291 194.964 175.821 195.045 176.103 195.42C176.23 195.588 176.297 195.989 176.43 196.79L176.811 199.071C176.962 199.972 178.237 200.025 178.461 199.14V199.14C178.643 198.421 179.597 198.27 179.992 198.897L181.852 201.845L182.845 203.58C183.604 204.907 183.984 205.571 184.52 205.537C185.056 205.503 185.35 204.797 185.936 203.385L187.574 199.442L187.749 198.878C188.466 196.574 188.825 195.421 189.473 195.434C190.12 195.446 190.435 196.611 191.063 198.941L191.97 202.306C191.993 202.392 192.005 202.436 192.019 202.473C192.135 202.784 192.418 203 192.747 203.031C192.787 203.035 192.832 203.035 192.922 203.035V203.035C193.017 203.035 193.065 203.035 193.107 203.039C193.453 203.073 193.746 203.312 193.848 203.645C193.86 203.685 193.869 203.732 193.888 203.825L194.043 204.591C194.472 206.711 194.686 207.771 195.306 207.845C195.926 207.918 196.383 206.939 197.298 204.979L197.855 203.786C198.466 202.477 198.771 201.823 199.293 201.798C199.814 201.774 200.178 202.398 200.908 203.645L201.148 204.055C201.713 205.021 201.995 205.504 202.373 205.581C202.519 205.611 202.67 205.602 202.811 205.556C203.178 205.437 203.404 204.925 203.857 203.902V203.902C204.21 203.101 204.387 202.7 204.697 202.566C204.818 202.514 204.95 202.49 205.081 202.496C205.419 202.513 205.726 202.825 206.338 203.451L206.467 203.582C206.694 203.814 206.808 203.93 206.951 203.996C206.97 204.005 206.989 204.013 207.008 204.02C207.156 204.076 207.318 204.076 207.643 204.076H209.197C209.678 204.076 209.919 204.076 210.116 203.965C210.137 203.953 210.157 203.94 210.177 203.926C210.365 203.799 210.471 203.583 210.685 203.152L210.957 202.602C211.253 202.003 211.401 201.703 211.601 201.574C211.852 201.412 212.17 201.391 212.44 201.52C212.655 201.622 212.84 201.9 213.212 202.455V202.455C213.34 202.647 213.404 202.742 213.485 202.815C213.588 202.907 213.712 202.973 213.846 203.008C213.951 203.035 214.067 203.035 214.297 203.035H215.789" stroke="url(#paint2_linear_4292_23676)" stroke-width="0.670398"/>
<mask id="path-30-inside-3_4292_23676" fill="white">
<path d="M264.789 191.207H329.308V210.245H264.789V191.207Z"/>
</mask>
<path d="M328.135 191.207V210.245H330.481V191.207H328.135Z" fill="black" fill-opacity="0.08" mask="url(#path-30-inside-3_4292_23676)"/>
<rect x="264.789" y="191.207" width="45.7495" height="19.0384" rx="9.51919" fill="#D40505" fill-opacity="0.12"/>
<path d="M279.206 200.305H275.011V199.395H279.206V200.305ZM282.176 202.867C280.609 202.867 279.567 201.516 279.567 199.423C279.567 197.377 280.58 196.017 282.176 196.017C283.734 196.017 284.775 197.349 284.775 199.423C284.775 201.478 283.762 202.867 282.176 202.867ZM282.176 201.826C283.067 201.826 283.64 200.887 283.64 199.423C283.64 197.978 283.067 197.049 282.176 197.049C281.275 197.049 280.702 197.978 280.702 199.423C280.702 200.887 281.275 201.826 282.176 201.826ZM286.322 201.338L285.252 204.594L284.398 204.331L285.43 201.066L286.322 201.338ZM289.241 202.877C287.871 202.877 286.858 202.051 286.689 200.718H287.88C287.984 201.403 288.537 201.844 289.251 201.844C290.048 201.844 290.527 201.281 290.527 200.568C290.527 199.874 290.058 199.301 289.269 199.301C288.838 199.301 288.472 199.47 288.134 199.827H286.876L287.458 196.157H291.362V197.18H288.387L288.096 199.048C288.453 198.654 288.969 198.382 289.617 198.382C290.818 198.382 291.662 199.282 291.662 200.559C291.662 201.929 290.677 202.877 289.241 202.877ZM298.732 196.148L293.993 202.999L293.177 202.605L297.906 195.763L298.732 196.148ZM293.496 199.508C292.576 199.508 291.929 198.804 291.929 197.79C291.929 196.739 292.576 196.017 293.496 196.017C294.425 196.017 295.072 196.72 295.072 197.734C295.072 198.776 294.425 199.508 293.496 199.508ZM293.496 198.748C293.937 198.748 294.246 198.344 294.246 197.753C294.246 197.171 293.946 196.767 293.505 196.767C293.064 196.767 292.754 197.171 292.754 197.762C292.754 198.344 293.064 198.748 293.496 198.748ZM298.329 202.867C297.4 202.867 296.752 202.154 296.752 201.141C296.752 200.09 297.4 199.367 298.329 199.376C299.248 199.386 299.896 200.09 299.896 201.094C299.896 202.135 299.248 202.867 298.329 202.867ZM298.329 202.107C298.77 202.107 299.08 201.704 299.08 201.112C299.08 200.531 298.77 200.127 298.338 200.127C297.888 200.127 297.578 200.531 297.578 201.122C297.578 201.704 297.888 202.107 298.329 202.107Z" fill="#D40505"/>
<path d="M364.288 202.073C364.288 204.093 362.728 205.391 360.248 205.473V207.444H358.918V205.407C356.504 205.079 354.944 203.683 354.812 201.679H356.832C356.98 202.665 357.719 203.354 358.918 203.617V200.103L358.589 200.004C357.243 199.594 355.141 199.002 355.141 196.752C355.141 194.946 356.569 193.599 358.918 193.484V191.645H360.248V193.55C362.449 193.878 363.812 195.291 363.943 197.409H361.94C361.874 196.407 361.299 195.668 360.248 195.373V198.592L360.954 198.805C362.58 199.314 364.288 199.906 364.288 202.073ZM357.095 196.654C357.095 197.573 357.933 197.853 358.918 198.165V195.241C357.801 195.324 357.095 195.833 357.095 196.654ZM360.248 200.497V203.716C361.578 203.65 362.285 203.092 362.285 202.172C362.285 201.269 361.578 200.907 360.462 200.562L360.248 200.497ZM372.275 205.227H370.304V202.665H364.72V200.924L370.287 193.731H372.275V200.891H374.262V202.665H372.275V205.227ZM370.304 196.424L366.855 200.891H370.304V196.424ZM377.155 202.796L375.282 208.495L373.788 208.035L375.594 202.32L377.155 202.796ZM382.345 205.473C379.603 205.473 377.78 203.108 377.78 199.446C377.78 195.866 379.553 193.484 382.345 193.484C385.072 193.484 386.894 195.816 386.894 199.446C386.894 203.042 385.121 205.473 382.345 205.473ZM382.345 203.65C383.905 203.65 384.907 202.008 384.907 199.446C384.907 196.917 383.905 195.291 382.345 195.291C380.769 195.291 379.767 196.917 379.767 199.446C379.767 202.008 380.769 203.65 382.345 203.65ZM392.145 205.473C389.403 205.473 387.58 203.108 387.58 199.446C387.58 195.866 389.353 193.484 392.145 193.484C394.871 193.484 396.694 195.816 396.694 199.446C396.694 203.042 394.921 205.473 392.145 205.473ZM392.145 203.65C393.705 203.65 394.707 202.008 394.707 199.446C394.707 196.917 393.705 195.291 392.145 195.291C390.569 195.291 389.567 196.917 389.567 199.446C389.567 202.008 390.569 203.65 392.145 203.65ZM401.863 205.489C399.465 205.489 397.691 204.044 397.396 201.712H399.482C399.662 202.911 400.631 203.683 401.879 203.683C403.275 203.683 404.113 202.697 404.113 201.449C404.113 200.234 403.292 199.232 401.912 199.232C401.157 199.232 400.516 199.528 399.925 200.152H397.724L398.743 193.731H405.574V195.521H400.368L399.859 198.789C400.483 198.099 401.387 197.623 402.52 197.623C404.622 197.623 406.1 199.199 406.1 201.433C406.1 203.831 404.376 205.489 401.863 205.489Z" fill="black"/>
<rect x="278.015" y="23.4688" width="96.538" height="37.769" rx="18.8845" fill="black" fill-opacity="0.05"/>
<path d="M299.953 46.8516H297.983V35.3555H303.813C306.161 35.3555 307.59 36.9157 307.59 38.9686C307.59 41.2842 305.981 42.6966 303.813 42.6966H299.953V46.8516ZM299.953 37.1292V40.9229H303.714C304.946 40.9229 305.586 40.0032 305.586 38.9686C305.586 37.8847 304.847 37.1292 303.714 37.1292H299.953ZM310.437 46.8516H308.499V38.1474H310.059L310.289 39.8554C310.848 38.673 311.866 38.0489 313.311 38.0489H313.639V39.9375H313.311C311.505 39.9375 310.437 40.9065 310.437 42.5488V46.8516ZM318.04 47.0979C315.38 47.0979 313.557 45.1929 313.557 42.5323C313.557 39.6583 315.446 37.8847 317.876 37.8847C320.34 37.8847 321.982 39.6091 322.031 42.4338V42.8936H315.495C315.626 44.421 316.579 45.4556 318.057 45.4556C319.059 45.4556 319.814 44.9629 320.11 44.0925H321.998C321.555 45.9647 320.093 47.0979 318.04 47.0979ZM315.577 41.5305H320.028C319.781 40.2824 319.009 39.527 317.876 39.527C316.727 39.527 315.873 40.2824 315.577 41.5305ZM327.379 46.8516H325.359L321.73 38.1474H323.832L326.377 44.5688L328.906 38.1474H331.009L327.379 46.8516ZM332.517 36.9814C331.81 36.9814 331.268 36.423 331.268 35.7168C331.268 35.0107 331.81 34.4687 332.517 34.4687C333.239 34.4687 333.765 35.0107 333.765 35.7168C333.765 36.423 333.239 36.9814 332.517 36.9814ZM333.486 46.8516H331.548V38.1474H333.486V46.8516ZM338.828 47.0979C336.167 47.0979 334.344 45.1929 334.344 42.5323C334.344 39.6583 336.233 37.8847 338.663 37.8847C341.127 37.8847 342.769 39.6091 342.818 42.4338V42.8936H336.282C336.413 44.421 337.366 45.4556 338.844 45.4556C339.846 45.4556 340.601 44.9629 340.897 44.0925H342.785C342.342 45.9647 340.88 47.0979 338.828 47.0979ZM336.364 41.5305H340.815C340.568 40.2824 339.797 39.527 338.663 39.527C337.514 39.527 336.66 40.2824 336.364 41.5305ZM347.372 46.8516H345.336L342.757 38.1474H344.745L346.502 44.4538L348.226 38.1474H349.836L351.576 44.3881L353.301 38.1474H355.288L352.71 46.8516H350.706L349.031 40.9065L347.372 46.8516Z" fill="black"/>
<rect x="384.765" y="23.4688" width="37.538" height="37.538" rx="18.769" fill="black" fill-opacity="0.05"/>
<path d="M405.293 35.1971C405.293 34.2293 404.501 33.4375 403.533 33.4375C402.566 33.4375 401.774 34.2293 401.774 35.1971C401.774 36.1649 402.566 36.9567 403.533 36.9567C404.501 36.9567 405.293 36.1649 405.293 35.1971Z" fill="black" stroke="black" stroke-width="0.879798"/>
<path d="M405.293 49.2752C405.293 48.3074 404.501 47.5156 403.533 47.5156C402.566 47.5156 401.774 48.3074 401.774 49.2752C401.774 50.243 402.566 51.0348 403.533 51.0348C404.501 51.0348 405.293 50.243 405.293 49.2752Z" fill="black" stroke="black" stroke-width="0.879798"/>
<path d="M405.293 42.2362C405.293 41.2684 404.501 40.4766 403.533 40.4766C402.566 40.4766 401.774 41.2684 401.774 42.2362C401.774 43.2039 402.566 43.9958 403.533 43.9958C404.501 43.9958 405.293 43.2039 405.293 42.2362Z" fill="black" stroke="black" stroke-width="0.879798"/>
</g>
<defs>
<filter id="filter0_d_4292_23676" x="-11.8899" y="-11.8903" width="469.545" height="266.605" filterUnits="userSpaceOnUse" color-interpolation-filters="sRGB">
<feFlood flood-opacity="0" result="BackgroundImageFix"/>
<feColorMatrix in="SourceAlpha" type="matrix" values="0 0 0 0 0 0 0 0 0 0 0 0 0 0 0 0 0 0 127 0" result="hardAlpha"/>
<feMorphology radius="9.92864" operator="erode" in="SourceAlpha" result="effect1_dropShadow_4292_23676"/>
<feOffset/>
<feGaussianBlur stdDeviation="10.9095"/>
<feComposite in2="hardAlpha" operator="out"/>
<feColorMatrix type="matrix" values="0 0 0 0 0.0509804 0 0 0 0 0.0352941 0 0 0 0 0.121569 0 0 0 0.21 0"/>
<feBlend mode="normal" in2="BackgroundImageFix" result="effect1_dropShadow_4292_23676"/>
<feBlend mode="normal" in="SourceGraphic" in2="effect1_dropShadow_4292_23676" result="shape"/>
</filter>
<linearGradient id="paint0_linear_4292_23676" x1="164.076" y1="129.151" x2="214.205" y2="127.842" gradientUnits="userSpaceOnUse">
<stop stop-color="#A887FF" stop-opacity="0"/>
<stop offset="0.617569" stop-color="#A887FF"/>
<stop offset="1" stop-color="#A887FF" stop-opacity="0"/>
</linearGradient>
<linearGradient id="paint1_linear_4292_23676" x1="215.502" y1="162.881" x2="165.371" y2="164.149" gradientUnits="userSpaceOnUse">
<stop stop-color="#C958E2" stop-opacity="0"/>
<stop offset="0.617569" stop-color="#C958E2"/>
<stop offset="1" stop-color="#C958E2" stop-opacity="0"/>
</linearGradient>
<linearGradient id="paint2_linear_4292_23676" x1="164.055" y1="199.072" x2="210.498" y2="200.143" gradientUnits="userSpaceOnUse">
<stop stop-color="#6438D6" stop-opacity="0"/>
<stop offset="0.617569" stop-color="#6438D6"/>
<stop offset="1" stop-color="#6438D6" stop-opacity="0"/>
</linearGradient>
<clipPath id="clip0_4292_23676">
<rect width="445.764" height="242.824" rx="18.769" fill="white"/>
</clipPath>
</defs>
</svg>
