<svg width="19" height="18" viewBox="0 0 19 18" fill="none" xmlns="http://www.w3.org/2000/svg">
<path d="M16.3164 5.23543C15.6789 4.53043 14.6139 4.17793 13.0689 4.17793L12.8889 4.17793L12.8889 4.14793C12.8889 2.88793 12.8889 1.32793 10.0689 1.32793L8.92887 1.32793C6.10887 1.32793 6.10887 2.89543 6.10887 4.14793L6.10887 4.18543L5.92887 4.18543C4.37637 4.18543 3.31887 4.53793 2.68137 5.24293C1.93887 6.06793 1.96137 7.17793 2.03637 7.93543L2.04387 7.98793L2.11887 8.77543C2.12637 8.78293 2.14137 8.79793 2.15637 8.80543C2.40387 8.97043 2.65887 9.13543 2.92887 9.28543C3.03387 9.35293 3.14637 9.41293 3.25887 9.47293C4.54137 10.1779 5.95137 10.6504 7.38387 10.8829C7.45137 11.5879 7.75887 12.4129 9.40137 12.4129C11.0439 12.4129 11.3664 11.5954 11.4189 10.8679C12.9489 10.6204 14.4264 10.0879 15.7614 9.30793C15.8064 9.28543 15.8364 9.26293 15.8739 9.24043C16.2189 9.04543 16.5414 8.83543 16.8564 8.60293C16.8714 8.59543 16.8864 8.58043 16.8939 8.56543L16.9239 8.29543L16.9614 7.94293C16.9689 7.89793 16.9689 7.86043 16.9764 7.80793C17.0364 7.05043 17.0214 6.01543 16.3164 5.23543ZM10.3164 10.3729C10.3164 11.1679 10.3164 11.2879 9.39387 11.2879C8.47137 11.2879 8.47137 11.1454 8.47137 10.3804L8.47137 9.43543L10.3164 9.43543L10.3164 10.3729ZM7.18137 4.17793L7.18137 4.14793C7.18137 2.87293 7.18137 2.40043 8.92887 2.40043L10.0689 2.40043C11.8164 2.40043 11.8164 2.88043 11.8164 4.14793L11.8164 4.18543L7.18137 4.18543L7.18137 4.17793Z" fill="#6438D6"/>
<path opacity="0.4" d="M15.8738 9.22682C15.8363 9.24932 15.7988 9.27182 15.7613 9.29432C14.4263 10.0743 12.9488 10.5993 11.4188 10.8543C11.3588 11.5743 11.0438 12.3993 9.40127 12.3993C7.75877 12.3993 7.44377 11.5818 7.38377 10.8693C5.95127 10.6443 4.54127 10.1718 3.25877 9.45932C3.14627 9.39932 3.03377 9.33932 2.92877 9.27182C2.65877 9.12182 2.40377 8.95682 2.15627 8.79182C2.14127 8.78432 2.12627 8.76932 2.11877 8.76182L2.57627 13.6443C2.73377 15.1368 3.34877 16.6743 6.64877 16.6743L12.3638 16.6743C15.6638 16.6743 16.2788 15.1368 16.4363 13.6368L16.9088 8.55182C16.9013 8.56682 16.8863 8.58182 16.8713 8.58932C16.5488 8.82182 16.2188 9.03932 15.8738 9.22682Z" fill="#6438D6"/>
</svg>
