<svg width="546" height="224" viewBox="0 0 546 224" fill="none" xmlns="http://www.w3.org/2000/svg">
<mask id="mask0_1183_23267" style="mask-type:alpha" maskUnits="userSpaceOnUse" x="-5" y="0" width="560" height="184">
<rect x="-5" y="0.863281" width="560" height="182.275" fill="url(#paint0_linear_1183_23267)"/>
</mask>
<g mask="url(#mask0_1183_23267)">
<circle cx="-12.9519" cy="64.2825" r="28.9114" fill="#FAFAFC"/>
<circle cx="-12.9519" cy="64.2825" r="28.335" stroke="black" stroke-opacity="0.05" stroke-width="1.15292"/>
<circle cx="57.263" cy="64.2825" r="28.9114" fill="#FAFAFC"/>
<circle cx="57.263" cy="64.2825" r="28.335" stroke="black" stroke-opacity="0.05" stroke-width="1.15292"/>
<circle cx="127.478" cy="64.2825" r="28.9114" fill="#FAFAFC"/>
<circle cx="127.478" cy="64.2825" r="28.335" stroke="black" stroke-opacity="0.05" stroke-width="1.15292"/>
<g clip-path="url(#clip0_1183_23267)">
<path d="M127.92 79.603C136.487 79.603 143.432 72.6578 143.432 64.0906C143.432 55.5233 136.487 48.5781 127.92 48.5781C119.352 48.5781 112.407 55.5233 112.407 64.0906C112.407 72.6578 119.352 79.603 127.92 79.603Z" fill="#D80027"/>
<path d="M127.274 61.2539L128.546 63.0078L130.608 62.3395L129.333 64.0919L130.606 65.8458L128.545 65.1749L127.27 66.9273L127.272 64.7603L125.211 64.0894L127.272 63.421L127.274 61.2539Z" fill="#F0F0F0"/>
<path d="M123.799 68.4749C121.377 68.4749 119.415 66.5121 119.415 64.091C119.415 61.6698 121.377 59.707 123.799 59.707C124.553 59.707 125.264 59.898 125.884 60.234C124.911 59.2825 123.581 58.6953 122.112 58.6953C119.132 58.6953 116.717 61.111 116.717 64.0909C116.717 67.0708 119.132 69.4865 122.112 69.4865C123.581 69.4865 124.911 68.8993 125.884 67.9479C125.264 68.284 124.553 68.4749 123.799 68.4749Z" fill="#F0F0F0"/>
</g>
<circle cx="197.689" cy="64.2825" r="28.9114" fill="#FAFAFC"/>
<circle cx="197.689" cy="64.2825" r="28.335" stroke="black" stroke-opacity="0.05" stroke-width="1.15292"/>
<g filter="url(#filter0_d_1183_23267)">
<circle cx="267.9" cy="64.2825" r="28.9114" fill="#FAFAFC"/>
<circle cx="267.9" cy="64.2825" r="28.335" stroke="black" stroke-opacity="0.05" stroke-width="1.15292"/>
</g>
<g clip-path="url(#clip1_1183_23267)">
<path d="M268.336 79.603C276.903 79.603 283.848 72.6578 283.848 64.0906C283.848 55.5233 276.903 48.5781 268.336 48.5781C259.768 48.5781 252.823 55.5233 252.823 64.0906C252.823 72.6578 259.768 79.603 268.336 79.603Z" fill="#0052B4"/>
<path d="M268.313 54.6445L268.815 56.1903H270.44L269.126 57.1455L269.628 58.6913L268.313 57.7359L266.998 58.6913L267.5 57.1455L266.186 56.1903H267.811L268.313 54.6445Z" fill="#FFDA44"/>
<path d="M261.653 57.4113L263.102 58.1491L264.251 57L263.997 58.6052L265.445 59.343L263.839 59.5973L263.585 61.2026L262.847 59.7544L261.242 60.0087L262.391 58.8596L261.653 57.4113Z" fill="#FFDA44"/>
<path d="M258.876 64.0845L260.422 63.5823V61.957L261.377 63.272L262.923 62.7697L261.967 64.0845L262.923 65.3994L261.377 64.8972L260.422 66.212V64.5868L258.876 64.0845Z" fill="#FFDA44"/>
<path d="M261.653 70.7639L262.391 69.3156L261.242 68.1664L262.847 68.4208L263.585 66.9727L263.839 68.5779L265.445 68.8321L263.997 69.57L264.251 71.1752L263.102 70.026L261.653 70.7639Z" fill="#FFDA44"/>
<path d="M268.313 73.531L267.811 71.9853H266.186L267.5 71.03L266.998 69.4844L268.313 70.4396L269.628 69.4844L269.126 71.03L270.44 71.9853H268.815L268.313 73.531Z" fill="#FFDA44"/>
<path d="M275.011 70.7639L273.563 70.0261L272.413 71.1753L272.668 69.57L271.22 68.8321L272.825 68.5779L273.079 66.9727L273.817 68.4208L275.422 68.1664L274.273 69.3158L275.011 70.7639Z" fill="#FFDA44"/>
<path d="M277.766 64.0845L276.221 64.5868V66.212L275.265 64.8971L273.72 65.3994L274.675 64.0845L273.72 62.7697L275.265 63.272L276.221 61.957V63.5823L277.766 64.0845Z" fill="#FFDA44"/>
<path d="M275.011 57.4113L274.273 58.8595L275.422 60.0087L273.817 59.7543L273.079 61.2025L272.825 59.5972L271.22 59.3429L272.668 58.6051L272.413 57L273.563 58.1491L275.011 57.4113Z" fill="#FFDA44"/>
</g>
<circle cx="338.115" cy="64.2825" r="28.9114" fill="#FAFAFC"/>
<circle cx="338.115" cy="64.2825" r="28.335" stroke="black" stroke-opacity="0.05" stroke-width="1.15292"/>
<circle cx="408.329" cy="64.2825" r="28.9114" fill="#FAFAFC"/>
<circle cx="408.329" cy="64.2825" r="28.335" stroke="black" stroke-opacity="0.05" stroke-width="1.15292"/>
<g clip-path="url(#clip2_1183_23267)">
<path d="M408.76 79.603C417.327 79.603 424.272 72.6578 424.272 64.0906C424.272 55.5233 417.327 48.5781 408.76 48.5781C400.192 48.5781 393.247 55.5233 393.247 64.0906C393.247 72.6578 400.192 79.603 408.76 79.603Z" fill="#F0F0F0"/>
<path d="M424.256 64.0905C424.256 57.4207 420.047 51.7348 414.14 49.543V78.6382C420.047 76.4463 424.256 70.7603 424.256 64.0905Z" fill="#D80027"/>
<path d="M393.247 64.0905C393.247 70.7603 397.457 76.4463 403.364 78.6381V49.543C397.457 51.7348 393.247 57.4207 393.247 64.0905Z" fill="#0052B4"/>
</g>
<circle cx="478.544" cy="64.2825" r="28.9114" fill="#FAFAFC"/>
<circle cx="478.544" cy="64.2825" r="28.335" stroke="black" stroke-opacity="0.05" stroke-width="1.15292"/>
<circle cx="548.755" cy="64.2825" r="28.9114" fill="#FAFAFC"/>
<circle cx="548.755" cy="64.2825" r="28.335" stroke="black" stroke-opacity="0.05" stroke-width="1.15292"/>
<circle cx="-12.9519" cy="134.497" r="28.9114" fill="#FAFAFC"/>
<circle cx="-12.9519" cy="134.497" r="28.335" stroke="black" stroke-opacity="0.05" stroke-width="1.15292"/>
<circle cx="57.263" cy="134.497" r="28.9114" fill="#FAFAFC"/>
<circle cx="57.263" cy="134.497" r="28.335" stroke="black" stroke-opacity="0.05" stroke-width="1.15292"/>
<circle cx="127.478" cy="134.497" r="28.9114" fill="#FAFAFC"/>
<circle cx="127.478" cy="134.497" r="28.335" stroke="black" stroke-opacity="0.05" stroke-width="1.15292"/>
<circle cx="197.689" cy="134.497" r="28.9114" fill="#FAFAFC"/>
<circle cx="197.689" cy="134.497" r="28.335" stroke="black" stroke-opacity="0.05" stroke-width="1.15292"/>
<g clip-path="url(#clip3_1183_23267)">
<path d="M198.131 149.814C206.698 149.814 213.643 142.869 213.643 134.302C213.643 125.734 206.698 118.789 198.131 118.789C189.563 118.789 182.618 125.734 182.618 134.302C182.618 142.869 189.563 149.814 198.131 149.814Z" fill="#F0F0F0"/>
<path d="M213.618 134.301C213.618 128.151 210.038 122.837 204.85 120.328V148.274C210.038 145.765 213.618 140.451 213.618 134.301Z" fill="#D80027"/>
<path d="M182.605 134.301C182.605 140.451 186.185 145.765 191.373 148.275V120.328C186.185 122.837 182.605 128.151 182.605 134.301Z" fill="#D80027"/>
<path d="M200.83 136.323L203.528 134.974L202.179 134.299V132.95L199.481 134.299L200.83 131.601H199.481L198.132 129.578L196.783 131.601H195.434L196.783 134.299L194.085 132.95V134.299L192.736 134.974L195.434 136.323L194.76 137.672H197.458V139.695H198.806V137.672H201.504L200.83 136.323Z" fill="#D80027"/>
</g>
<circle cx="267.9" cy="134.497" r="28.9114" fill="#FAFAFC"/>
<circle cx="267.9" cy="134.497" r="28.335" stroke="black" stroke-opacity="0.05" stroke-width="1.15292"/>
<g clip-path="url(#clip4_1183_23267)">
<path d="M283.85 134.302C283.85 142.869 276.905 149.814 268.338 149.814C259.77 149.814 252.825 142.869 252.825 134.302C252.825 134.305 268.338 118.791 268.338 118.789C276.905 118.789 283.85 125.734 283.85 134.302Z" fill="#0052B4"/>
<path d="M268.283 134.303H268.325C268.325 134.289 268.325 134.276 268.325 134.262C268.311 134.276 268.297 134.289 268.283 134.303Z" fill="#F0F0F0"/>
<path d="M268.325 126.882C268.325 124.153 268.325 122.364 268.325 118.789H268.322C259.756 118.79 252.812 125.735 252.812 134.301H260.906V129.744L265.463 134.301H268.283C268.297 134.288 268.311 134.274 268.325 134.26C268.325 133.215 268.325 132.282 268.325 131.44L263.767 126.882H268.325Z" fill="#F0F0F0"/>
<path d="M260.647 120.812C258.221 122.194 256.204 124.211 254.822 126.637V134.302H258.869V124.859V124.859H268.311C268.311 123.583 268.311 122.367 268.311 120.812H260.647Z" fill="#D80027"/>
<path d="M268.298 132.394L262.787 126.883H260.879C260.879 126.883 260.879 126.883 260.879 126.883L268.298 134.302H268.298C268.298 134.302 268.298 132.986 268.298 132.394Z" fill="#D80027"/>
<path d="M262.128 136.996L262.979 138.776L264.902 138.332L264.041 140.107L265.587 141.334L263.662 141.767L263.667 143.741L262.128 142.506L260.589 143.741L260.594 141.767L258.669 141.334L260.215 140.107L259.354 138.332L261.277 138.776L262.128 136.996Z" fill="#F0F0F0"/>
<path d="M275.999 140.371L276.425 141.261L277.386 141.039L276.955 141.927L277.729 142.54L276.766 142.757L276.769 143.743L275.999 143.126L275.229 143.743L275.232 142.757L274.27 142.54L275.043 141.927L274.612 141.039L275.573 141.261L275.999 140.371Z" fill="#F0F0F0"/>
<path d="M272.052 130.926L272.477 131.816L273.439 131.594L273.008 132.481L273.781 133.094L272.819 133.311L272.821 134.298L272.052 133.681L271.282 134.298L271.285 133.311L270.322 133.094L271.095 132.481L270.665 131.594L271.626 131.816L272.052 130.926Z" fill="#F0F0F0"/>
<path d="M275.999 125.531L276.425 126.421L277.386 126.199L276.955 127.087L277.728 127.7L276.766 127.917L276.769 128.904L275.999 128.286L275.229 128.904L275.232 127.917L274.27 127.7L275.042 127.087L274.612 126.199L275.573 126.421L275.999 125.531Z" fill="#F0F0F0"/>
<path d="M279.452 129.578L279.878 130.468L280.839 130.246L280.409 131.134L281.182 131.747L280.219 131.964L280.222 132.95L279.452 132.333L278.682 132.95L278.685 131.964L277.723 131.747L278.496 131.134L278.065 130.246L279.026 130.468L279.452 129.578Z" fill="#F0F0F0"/>
<path d="M276.968 134.301L277.303 135.331H278.387L277.51 135.968L277.845 136.999L276.968 136.362L276.092 136.999L276.426 135.968L275.55 135.331H276.633L276.968 134.301Z" fill="#F0F0F0"/>
</g>
<circle cx="338.115" cy="134.497" r="28.9114" fill="#FAFAFC"/>
<circle cx="338.115" cy="134.497" r="28.335" stroke="black" stroke-opacity="0.05" stroke-width="1.15292"/>
<circle cx="408.329" cy="134.497" r="28.9114" fill="#FAFAFC"/>
<circle cx="408.329" cy="134.497" r="28.335" stroke="black" stroke-opacity="0.05" stroke-width="1.15292"/>
<g clip-path="url(#clip5_1183_23267)">
<path d="M393.247 134.301C393.247 125.734 400.192 118.789 408.76 118.789C417.327 118.789 424.272 125.734 424.272 134.301L408.76 135.65L393.247 134.301Z" fill="#FFDA44"/>
<path d="M395.32 142.059C398.003 146.695 403.015 149.815 408.757 149.815C414.499 149.815 419.511 146.695 422.194 142.059L408.757 141.047L395.32 142.059Z" fill="#D80027"/>
<path d="M422.196 142.057C423.516 139.775 424.272 137.126 424.272 134.301H393.247C393.247 137.126 394.003 139.775 395.323 142.057H422.196Z" fill="#0052B4"/>
</g>
<circle cx="478.544" cy="134.497" r="28.9114" fill="#FAFAFC"/>
<circle cx="478.544" cy="134.497" r="28.335" stroke="black" stroke-opacity="0.05" stroke-width="1.15292"/>
<circle cx="548.755" cy="134.497" r="28.9114" fill="#FAFAFC"/>
<circle cx="548.755" cy="134.497" r="28.335" stroke="black" stroke-opacity="0.05" stroke-width="1.15292"/>
<g clip-path="url(#clip6_1183_23267)">
<path d="M338.548 79.603C347.115 79.603 354.06 72.6578 354.06 64.0906C354.06 55.5233 347.115 48.5781 338.548 48.5781C329.98 48.5781 323.035 55.5233 323.035 64.0906C323.035 72.6578 329.98 79.603 338.548 79.603Z" fill="#F0F0F0"/>
<path d="M337.905 64.0897H354.092C354.092 62.6896 353.906 61.3332 353.558 60.043H337.905V64.0897Z" fill="#D80027"/>
<path d="M337.905 55.996H351.815C350.866 54.4464 349.652 53.0768 348.236 51.9492H337.905V55.996Z" fill="#D80027"/>
<path d="M338.576 79.6027C342.227 79.6027 345.583 78.3409 348.232 76.2305H328.92C331.57 78.3409 334.925 79.6027 338.576 79.6027Z" fill="#D80027"/>
<path d="M325.335 72.1835H351.806C352.569 70.9395 353.16 69.5797 353.549 68.1367H323.593C323.982 69.5797 324.573 70.9395 325.335 72.1835Z" fill="#D80027"/>
<path d="M330.221 51.0006H331.634L330.32 51.9559L330.822 53.5016L329.507 52.5463L328.192 53.5016L328.626 52.1663C327.468 53.1307 326.453 54.2605 325.617 55.5195H326.07L325.233 56.1275C325.103 56.3451 324.978 56.5661 324.858 56.7903L325.258 58.0205L324.512 57.4787C324.327 57.8714 324.157 58.273 324.005 58.6829L324.445 60.0383H326.07L324.755 60.9936L325.258 62.5393L323.943 61.584L323.155 62.1563C323.076 62.79 323.035 63.4355 323.035 64.0906H338.548C338.548 55.5233 338.548 54.5133 338.548 48.5781C335.483 48.5781 332.627 49.4671 330.221 51.0006ZM330.822 62.5393L329.507 61.584L328.192 62.5393L328.694 60.9936L327.379 60.0383H329.005L329.507 58.4926L330.009 60.0383H331.634L330.32 60.9936L330.822 62.5393ZM330.32 56.4747L330.822 58.0205L329.507 57.0652L328.192 58.0205L328.694 56.4747L327.379 55.5195H329.005L329.507 53.9737L330.009 55.5195H331.634L330.32 56.4747ZM336.386 62.5393L335.071 61.584L333.756 62.5393L334.259 60.9936L332.944 60.0383H334.569L335.071 58.4926L335.573 60.0383H337.199L335.884 60.9936L336.386 62.5393ZM335.884 56.4747L336.386 58.0205L335.071 57.0652L333.756 58.0205L334.259 56.4747L332.944 55.5195H334.569L335.071 53.9737L335.573 55.5195H337.199L335.884 56.4747ZM335.884 51.9559L336.386 53.5016L335.071 52.5463L333.756 53.5016L334.259 51.9559L332.944 51.0006H334.569L335.071 49.4549L335.573 51.0006H337.199L335.884 51.9559Z" fill="#0052B4"/>
</g>
<g clip-path="url(#clip7_1183_23267)">
<path d="M143.431 135.226C143.431 133.329 143.09 131.511 142.466 129.831L127.919 129.156L113.371 129.831C112.748 131.511 112.406 133.329 112.406 135.226C112.406 137.124 112.748 138.942 113.371 140.622L127.919 141.296L142.466 140.622C143.09 138.942 143.431 137.124 143.431 135.226Z" fill="#0052B4"/>
<path d="M127.913 150.738C134.583 150.738 140.269 146.528 142.46 140.621H113.365C115.557 146.528 121.243 150.738 127.913 150.738Z" fill="#FF9811"/>
<path d="M113.365 129.832H142.46C140.269 123.925 134.583 119.715 127.913 119.715C121.243 119.715 115.557 123.925 113.365 129.832Z" fill="#D80027"/>
</g>
<g clip-path="url(#clip8_1183_23267)">
<path d="M198.13 79.603C206.697 79.603 213.642 72.6578 213.642 64.0906C213.642 55.5233 206.697 48.5781 198.13 48.5781C189.562 48.5781 182.617 55.5233 182.617 64.0906C182.617 72.6578 189.562 79.603 198.13 79.603Z" fill="#F0F0F0"/>
<path d="M185.826 54.6484C184.607 56.2338 183.688 58.0611 183.153 60.0461H191.223L185.826 54.6484Z" fill="#0052B4"/>
<path d="M213.111 60.046C212.576 58.0611 211.657 56.2338 210.439 54.6484L205.041 60.046H213.111Z" fill="#0052B4"/>
<path d="M183.153 68.1367C183.688 70.1217 184.607 71.949 185.826 73.5343L191.223 68.1367H183.153Z" fill="#0052B4"/>
<path d="M207.573 51.7857C205.988 50.5671 204.161 49.6483 202.176 49.1133V57.1832L207.573 51.7857Z" fill="#0052B4"/>
<path d="M188.679 76.3975C190.264 77.616 192.091 78.5348 194.076 79.0699V71L188.679 76.3975Z" fill="#0052B4"/>
<path d="M194.076 49.1133C192.091 49.6483 190.264 50.5671 188.679 51.7856L194.076 57.1831V49.1133Z" fill="#0052B4"/>
<path d="M202.176 79.0699C204.161 78.5348 205.988 77.616 207.573 76.3975L202.176 71V79.0699Z" fill="#0052B4"/>
<path d="M205.041 68.1367L210.439 73.5343C211.657 71.949 212.576 70.1217 213.111 68.1367H205.041Z" fill="#0052B4"/>
<path d="M213.515 62.0672H200.157H200.157V48.7094C199.495 48.6232 198.819 48.5781 198.134 48.5781C197.448 48.5781 196.772 48.6232 196.11 48.7094V62.0671V62.0672H182.752C182.666 62.7295 182.621 63.4048 182.621 64.0906C182.621 64.7764 182.666 65.4516 182.752 66.1139H196.11H196.11V79.4717C196.772 79.5579 197.448 79.603 198.134 79.603C198.819 79.603 199.495 79.558 200.157 79.4717V66.114V66.114H213.515C213.601 65.4516 213.646 64.7764 213.646 64.0906C213.646 63.4048 213.601 62.7295 213.515 62.0672Z" fill="#D80027"/>
<path d="M202.166 68.1368L209.088 75.059C209.407 74.7407 209.71 74.408 210 74.0631L204.074 68.1367H202.166V68.1368Z" fill="#D80027"/>
<path d="M194.085 68.1367H194.085L187.163 75.0588C187.481 75.3772 187.814 75.6809 188.159 75.9707L194.085 70.0442V68.1367Z" fill="#D80027"/>
<path d="M194.073 60.0435V60.0433L187.151 53.1211C186.833 53.4393 186.529 53.7721 186.239 54.117L192.166 60.0434H194.073V60.0435Z" fill="#D80027"/>
<path d="M202.166 60.045L209.088 53.1227C208.77 52.8043 208.437 52.5006 208.092 52.2109L202.166 58.1374V60.045Z" fill="#D80027"/>
</g>
<g clip-path="url(#clip9_1183_23267)">
<path d="M338.546 149.814C347.113 149.814 354.058 142.869 354.058 134.302C354.058 125.734 347.113 118.789 338.546 118.789C329.978 118.789 323.033 125.734 323.033 134.302C323.033 142.869 329.978 149.814 338.546 149.814Z" fill="#F0F0F0"/>
<path d="M338.517 118.785C332.367 118.785 327.053 122.364 324.544 127.553H352.49C349.981 122.364 344.667 118.785 338.517 118.785Z" fill="#338AF3"/>
<path d="M338.517 149.811C344.667 149.811 349.981 146.232 352.49 141.043H324.544C327.053 146.232 332.367 149.811 338.517 149.811Z" fill="#338AF3"/>
<path d="M343.163 134.301L341.268 135.192L342.277 137.027L340.22 136.634L339.959 138.712L338.526 137.183L337.093 138.712L336.833 136.634L334.775 137.027L335.784 135.192L333.89 134.301L335.784 133.41L334.775 131.575L336.832 131.969L337.093 129.891L338.526 131.419L339.959 129.891L340.22 131.969L342.277 131.575L341.268 133.41L343.163 134.301Z" fill="#FFDA44"/>
</g>
<g clip-path="url(#clip10_1183_23267)">
<path d="M478.97 79.603C487.538 79.603 494.483 72.6578 494.483 64.0906C494.483 55.5233 487.538 48.5781 478.97 48.5781C470.403 48.5781 463.458 55.5233 463.458 64.0906C463.458 72.6578 470.403 79.603 478.97 79.603Z" fill="#F0F0F0"/>
<path d="M494.352 62.0672H480.994H480.994V48.7094C480.331 48.6232 479.656 48.5781 478.97 48.5781C478.285 48.5781 477.609 48.6232 476.947 48.7094V62.0671V62.0672H463.589C463.503 62.7295 463.458 63.4047 463.458 64.0906C463.458 64.7764 463.503 65.4516 463.589 66.1139H476.947H476.947V79.4717C477.609 79.5579 478.285 79.603 478.97 79.603C479.656 79.603 480.331 79.558 480.994 79.4717V66.114V66.114H494.352C494.438 65.4516 494.483 64.7764 494.483 64.0906C494.483 63.4047 494.438 62.7295 494.352 62.0672Z" fill="#D80027"/>
</g>
<g clip-path="url(#clip11_1183_23267)">
<path d="M57.4324 79.7671C65.9996 79.7671 72.9448 72.8219 72.9448 64.2546C72.9448 55.6873 65.9996 48.7422 57.4324 48.7422C48.8651 48.7422 41.9199 55.6873 41.9199 64.2546C41.9199 72.8219 48.8651 79.7671 57.4324 79.7671Z" fill="#F0F0F0"/>
<path d="M72.9401 64.2546C72.9401 57.5848 68.7304 51.8988 62.8232 49.707V78.8022C68.7304 76.6104 72.9401 70.9244 72.9401 64.2546Z" fill="#D80027"/>
<path d="M41.9199 64.2546C41.9199 70.9244 46.1296 76.6104 52.0368 78.8022V49.707C46.1296 51.8988 41.9199 57.5848 41.9199 64.2546Z" fill="#6DA544"/>
</g>
<g clip-path="url(#clip12_1183_23267)">
<path d="M57.7068 149.814C66.2741 149.814 73.2192 142.869 73.2192 134.302C73.2192 125.734 66.2741 118.789 57.7068 118.789C49.1395 118.789 42.1943 125.734 42.1943 134.302C42.1943 142.869 49.1395 149.814 57.7068 149.814Z" fill="#F0F0F0"/>
<path d="M73.0879 132.281H54.3346H54.3345V119.16C52.9009 119.478 51.5419 119.993 50.2878 120.678V132.28V132.28H42.3256C42.2393 132.943 42.1943 133.618 42.1943 134.304C42.1943 134.99 42.2393 135.665 42.3256 136.327H50.2877H50.2878V147.93C51.5419 148.614 52.9009 149.13 54.3345 149.448V136.327V136.327H73.0879C73.1741 135.665 73.2192 134.99 73.2192 134.304C73.2192 133.618 73.1741 132.943 73.0879 132.281Z" fill="#0052B4"/>
</g>
<g clip-path="url(#clip13_1183_23267)">
<path d="M478.969 149.814C487.537 149.814 494.482 142.869 494.482 134.302C494.482 125.734 487.537 118.789 478.969 118.789C470.402 118.789 463.457 125.734 463.457 134.302C463.457 142.869 470.402 149.814 478.969 149.814Z" fill="#F0F0F0"/>
<path d="M463.457 134.302C463.457 125.734 470.402 118.789 478.969 118.789C487.537 118.789 494.482 125.734 494.482 134.302" fill="#D80027"/>
<path d="M472.925 126.881C472.925 124.621 474.513 122.733 476.634 122.27C476.308 122.199 475.97 122.16 475.623 122.16C473.015 122.16 470.901 124.274 470.901 126.881C470.901 129.489 473.015 131.603 475.623 131.603C475.97 131.603 476.308 131.564 476.634 131.493C474.513 131.029 472.925 129.141 472.925 126.881Z" fill="#F0F0F0"/>
<path d="M478.998 122.496L479.333 123.527H480.417L479.54 124.163L479.875 125.194L478.998 124.557L478.122 125.194L478.457 124.163L477.58 123.527H478.664L478.998 122.496Z" fill="#F0F0F0"/>
<path d="M476.371 124.523L476.705 125.554H477.789L476.912 126.191L477.247 127.221L476.371 126.584L475.494 127.221L475.829 126.191L474.952 125.554H476.036L476.371 124.523Z" fill="#F0F0F0"/>
<path d="M481.63 124.523L481.965 125.554H483.049L482.172 126.191L482.507 127.221L481.63 126.584L480.754 127.221L481.088 126.191L480.212 125.554H481.295L481.63 124.523Z" fill="#F0F0F0"/>
<path d="M480.612 127.555L480.947 128.585H482.03L481.153 129.222L481.488 130.252L480.612 129.616L479.735 130.252L480.07 129.222L479.193 128.585H480.277L480.612 127.555Z" fill="#F0F0F0"/>
<path d="M477.389 127.555L477.724 128.585H478.807L477.931 129.222L478.266 130.252L477.389 129.616L476.512 130.252L476.847 129.222L475.971 128.585H477.054L477.389 127.555Z" fill="#F0F0F0"/>
</g>
</g>
<g filter="url(#filter1_d_1183_23267)">
<circle cx="272.61" cy="98.7818" r="62.3951" fill="#EDEAFF"/>
<circle cx="272.61" cy="98.7818" r="61.2809" stroke="white" stroke-width="2.2284"/>
</g>
<path d="M320.521 99.8967C320.521 126.996 299.047 148.921 272.611 148.921C246.174 148.921 224.7 126.996 224.7 99.8967C224.7 72.7974 246.174 50.872 272.611 50.872C299.047 50.872 320.521 72.7974 320.521 99.8967Z" fill="url(#paint1_linear_1183_23267)" stroke="white" stroke-width="2.2284"/>
<path fill-rule="evenodd" clip-rule="evenodd" d="M270.372 77.4693C270.784 77.2734 271.257 77.2734 272.202 77.2734H272.814C273.759 77.2734 274.232 77.2734 274.644 77.4693C275.056 77.6651 275.355 78.0315 275.952 78.7643L290.887 97.0918C290.887 97.0918 277.342 96.9077 275.379 91.0849C274.444 88.5232 273.382 82.9482 272.918 79.824C272.898 79.6917 272.888 79.6256 272.854 79.5773C272.83 79.5432 272.799 79.5159 272.762 79.4973C272.709 79.4708 272.642 79.4708 272.508 79.4708C272.374 79.4708 272.308 79.4708 272.255 79.4973C272.217 79.5159 272.186 79.5432 272.162 79.5773C272.128 79.6256 272.118 79.6917 272.099 79.824C271.635 82.9482 270.573 88.5232 269.637 91.0849C267.674 96.9077 254.129 97.0918 254.129 97.0918L269.064 78.7643C269.661 78.0315 269.96 77.6651 270.372 77.4693ZM270.372 120.059C270.784 120.255 271.257 120.255 272.202 120.255H272.814C273.759 120.255 274.232 120.255 274.644 120.059C275.056 119.864 275.355 119.497 275.952 118.764L290.887 100.437C290.887 100.437 277.342 100.621 275.379 106.444C274.443 109.006 273.381 114.581 272.917 117.705C272.898 117.837 272.888 117.903 272.854 117.952C272.83 117.986 272.799 118.013 272.761 118.032C272.709 118.058 272.642 118.058 272.508 118.058C272.374 118.058 272.307 118.058 272.254 118.032C272.217 118.013 272.186 117.986 272.162 117.952C272.128 117.903 272.118 117.837 272.098 117.705C271.635 114.581 270.572 109.006 269.637 106.444C267.674 100.621 254.129 100.437 254.129 100.437L269.064 118.764C269.661 119.497 269.96 119.864 270.372 120.059Z" fill="url(#paint2_linear_1183_23267)"/>
<path d="M276.807 149.402C249.138 150.489 225.845 129.439 224.781 102.384" stroke="url(#paint3_linear_1183_23267)" stroke-width="2.2284" stroke-linecap="round"/>
<path d="M268.63 50.6102C296.3 49.5224 319.593 70.5728 320.656 97.6275" stroke="url(#paint4_linear_1183_23267)" stroke-width="2.2284" stroke-linecap="round"/>
<circle cx="213.558" cy="39.7295" r="3.34278" fill="white"/>
<circle cx="331.663" cy="39.7295" r="3.34278" fill="white"/>
<circle cx="331.663" cy="157.831" r="3.34278" fill="white"/>
<circle cx="213.558" cy="157.831" r="3.34278" fill="white"/>
<defs>
<filter id="filter0_d_1183_23267" x="221.343" y="21.4215" width="93.1129" height="93.1138" filterUnits="userSpaceOnUse" color-interpolation-filters="sRGB">
<feFlood flood-opacity="0" result="BackgroundImageFix"/>
<feColorMatrix in="SourceAlpha" type="matrix" values="0 0 0 0 0 0 0 0 0 0 0 0 0 0 0 0 0 0 127 0" result="hardAlpha"/>
<feOffset dy="3.69525"/>
<feGaussianBlur stdDeviation="8.8224"/>
<feComposite in2="hardAlpha" operator="out"/>
<feColorMatrix type="matrix" values="0 0 0 0 0 0 0 0 0 0 0 0 0 0 0 0 0 0 0.1 0"/>
<feBlend mode="normal" in2="BackgroundImageFix" result="effect1_dropShadow_1183_23267"/>
<feBlend mode="normal" in="SourceGraphic" in2="effect1_dropShadow_1183_23267" result="shape"/>
</filter>
<filter id="filter1_d_1183_23267" x="165.87" y="0.955204" width="222.394" height="222.393" filterUnits="userSpaceOnUse" color-interpolation-filters="sRGB">
<feFlood flood-opacity="0" result="BackgroundImageFix"/>
<feColorMatrix in="SourceAlpha" type="matrix" values="0 0 0 0 0 0 0 0 0 0 0 0 0 0 0 0 0 0 127 0" result="hardAlpha"/>
<feOffset dx="4.45679" dy="13.3704"/>
<feGaussianBlur stdDeviation="24.4009"/>
<feComposite in2="hardAlpha" operator="out"/>
<feColorMatrix type="matrix" values="0 0 0 0 0.394786 0 0 0 0 0.341409 0 0 0 0 0.999723 0 0 0 0.22 0"/>
<feBlend mode="normal" in2="BackgroundImageFix" result="effect1_dropShadow_1183_23267"/>
<feBlend mode="normal" in="SourceGraphic" in2="effect1_dropShadow_1183_23267" result="shape"/>
</filter>
<linearGradient id="paint0_linear_1183_23267" x1="17.7306" y1="92.0005" x2="523.487" y2="92.0005" gradientUnits="userSpaceOnUse">
<stop stop-color="white" stop-opacity="0"/>
<stop offset="0.523159" stop-color="white"/>
<stop offset="1" stop-color="white" stop-opacity="0"/>
</linearGradient>
<linearGradient id="paint1_linear_1183_23267" x1="337.234" y1="41.9584" x2="235.842" y2="132.208" gradientUnits="userSpaceOnUse">
<stop stop-color="#C4B5FF"/>
<stop offset="1" stop-color="white"/>
</linearGradient>
<linearGradient id="paint2_linear_1183_23267" x1="254.129" y1="98.7645" x2="290.887" y2="98.7645" gradientUnits="userSpaceOnUse">
<stop stop-color="#663AD7"/>
<stop offset="1" stop-color="#8763E5"/>
</linearGradient>
<linearGradient id="paint3_linear_1183_23267" x1="224.781" y1="102.384" x2="324.982" y2="98.4451" gradientUnits="userSpaceOnUse">
<stop stop-color="#6438D6"/>
<stop offset="0.29" stop-color="#7B74FD" stop-opacity="0"/>
</linearGradient>
<linearGradient id="paint4_linear_1183_23267" x1="320.656" y1="97.6275" x2="220.456" y2="101.567" gradientUnits="userSpaceOnUse">
<stop stop-color="#6438D6"/>
<stop offset="0.29" stop-color="#7B74FD" stop-opacity="0"/>
</linearGradient>
<clipPath id="clip0_1183_23267">
<rect width="31.0249" height="31.0249" fill="white" transform="translate(112.406 48.5781)"/>
</clipPath>
<clipPath id="clip1_1183_23267">
<rect width="31.0249" height="31.0249" fill="white" transform="translate(252.824 48.5781)"/>
</clipPath>
<clipPath id="clip2_1183_23267">
<rect width="31.0249" height="31.0249" fill="white" transform="translate(393.246 48.5781)"/>
</clipPath>
<clipPath id="clip3_1183_23267">
<rect width="31.0249" height="31.0249" fill="white" transform="translate(182.617 118.789)"/>
</clipPath>
<clipPath id="clip4_1183_23267">
<rect width="31.0249" height="31.0249" fill="white" transform="translate(252.824 118.789)"/>
</clipPath>
<clipPath id="clip5_1183_23267">
<rect width="31.0249" height="31.0249" fill="white" transform="translate(393.246 118.789)"/>
</clipPath>
<clipPath id="clip6_1183_23267">
<rect width="31.0249" height="31.0249" fill="white" transform="translate(323.035 48.5781)"/>
</clipPath>
<clipPath id="clip7_1183_23267">
<rect width="31.0249" height="31.0249" fill="white" transform="translate(112.406 119.715)"/>
</clipPath>
<clipPath id="clip8_1183_23267">
<rect width="31.0249" height="31.0249" fill="white" transform="translate(182.617 48.5781)"/>
</clipPath>
<clipPath id="clip9_1183_23267">
<rect width="31.0249" height="31.0249" fill="white" transform="translate(323.035 118.789)"/>
</clipPath>
<clipPath id="clip10_1183_23267">
<rect width="31.0249" height="31.0249" fill="white" transform="translate(463.457 48.5781)"/>
</clipPath>
<clipPath id="clip11_1183_23267">
<rect width="31.0249" height="31.0249" fill="white" transform="translate(41.918 48.7422)"/>
</clipPath>
<clipPath id="clip12_1183_23267">
<rect width="31.0249" height="31.0249" fill="white" transform="translate(42.1953 118.789)"/>
</clipPath>
<clipPath id="clip13_1183_23267">
<rect width="31.0249" height="31.0249" fill="white" transform="translate(463.457 118.789)"/>
</clipPath>
</defs>
</svg>
