<svg width="358" height="323" viewBox="0 0 358 323" fill="none" xmlns="http://www.w3.org/2000/svg">
<g clip-path="url(#clip0_26_37)">
<line y1="-0.283557" x2="266" y2="-0.283557" transform="matrix(1 -5.0173e-08 6.51234e-08 -1 125.999 172.438)" stroke="#E9E9E9" stroke-width="0.567114"/>
<line y1="-0.283557" x2="266" y2="-0.283557" transform="matrix(1 -5.0173e-08 6.51234e-08 -1 125.999 133.871)" stroke="#E9E9E9" stroke-width="0.567114"/>
<line y1="-0.283557" x2="266" y2="-0.283557" transform="matrix(1 -5.0173e-08 6.51234e-08 -1 125.999 95.3086)" stroke="#E9E9E9" stroke-width="0.567114"/>
<line y1="-0.283557" x2="266" y2="-0.283557" transform="matrix(1 -5.0173e-08 6.51234e-08 -1 125.999 56.7461)" stroke="#E9E9E9" stroke-width="0.567114"/>
<line y1="-0.283557" x2="266" y2="-0.283557" transform="matrix(1 -5.0173e-08 6.51234e-08 -1 125.999 18.1797)" stroke="#E9E9E9" stroke-width="0.567114"/>
</g>
<g clip-path="url(#clip1_26_37)">
<line y1="-0.283557" x2="222" y2="-0.283557" transform="matrix(-4.28198e-08 1 1 4.28198e-08 164.562 0)" stroke="#E9E9E9" stroke-width="0.567114"/>
<line y1="-0.283557" x2="222" y2="-0.283557" transform="matrix(-4.28197e-08 1 1 4.28197e-08 203.127 0)" stroke="#E9E9E9" stroke-width="0.567114"/>
<line y1="-0.283557" x2="222" y2="-0.283557" transform="matrix(-4.28197e-08 1 1 4.28197e-08 241.69 0)" stroke="#E9E9E9" stroke-width="0.567114"/>
<line y1="-0.283557" x2="222" y2="-0.283557" transform="matrix(-4.28197e-08 1 1 4.28197e-08 280.254 0)" stroke="#E9E9E9" stroke-width="0.567114"/>
<line y1="-0.283557" x2="222" y2="-0.283557" transform="matrix(-4.28197e-08 1 1 4.28197e-08 318.818 0)" stroke="#E9E9E9" stroke-width="0.567114"/>
<line y1="-0.283557" x2="222" y2="-0.283557" transform="matrix(-4.28197e-08 1 1 4.28197e-08 357.382 0)" stroke="#E9E9E9" stroke-width="0.567114"/>
</g>
<g opacity="0.6" filter="url(#filter0_f_26_37)">
<ellipse cx="207.499" cy="93.9805" rx="52.5" ry="32.5" fill="#D9D9D9"/>
</g>
<g opacity="0.27" filter="url(#filter1_b_26_37)">
<g clip-path="url(#clip2_26_37)">
<rect width="136.485" height="180.722" rx="22.7309" transform="matrix(-0.817435 -0.57602 -0.57602 0.817435 345.999 160.355)" fill="#6262C4"/>
<rect width="61.2747" height="4.94151" rx="1.48245" transform="matrix(-0.817435 -0.57602 -0.57602 0.817435 288.413 133.98)" fill="#EEEEEE"/>
<rect width="61.2747" height="4.94151" rx="1.48245" transform="matrix(-0.817435 -0.57602 -0.57602 0.817435 283.288 141.254)" fill="#EEEEEE"/>
<rect width="61.2747" height="4.94151" rx="1.48245" transform="matrix(-0.817435 -0.57602 -0.57602 0.817435 273.616 154.988)" fill="#EEEEEE"/>
<rect width="57.3215" height="4.94151" rx="1.48245" transform="matrix(-0.817435 -0.57602 -0.57602 0.817435 221.179 152.191)" fill="#EEEEEE"/>
<rect width="31.6256" height="4.94151" rx="1.48245" transform="matrix(-0.817435 -0.57602 -0.57602 0.817435 245.39 143.566)" fill="#EEEEEE"/>
<rect width="150.222" height="4.94151" rx="1.48245" transform="matrix(-0.817435 -0.57602 -0.57602 0.817435 286.632 218.871)" fill="#EEEEEE"/>
<rect width="150.222" height="4.94151" rx="1.48245" transform="matrix(-0.817435 -0.57602 -0.57602 0.817435 281.507 226.141)" fill="#EEEEEE"/>
<rect width="150.222" height="4.94151" rx="1.48245" transform="matrix(-0.817435 -0.57602 -0.57602 0.817435 268.983 243.914)" fill="#EEEEEE"/>
<rect width="150.222" height="4.94151" rx="1.48245" transform="matrix(-0.817435 -0.57602 -0.57602 0.817435 261.581 254.414)" fill="#EEEEEE"/>
<rect width="150.222" height="22.7309" rx="1.48245" transform="matrix(-0.817435 -0.57602 -0.57602 0.817435 256.456 261.688)" fill="#EEEEEE"/>
<g filter="url(#filter2_f_26_37)">
<rect width="76.7475" height="243.292" rx="5.92981" transform="matrix(-0.636031 -0.771663 -0.771663 0.636031 331.534 136.996)" fill="white"/>
</g>
<g filter="url(#filter3_f_26_37)">
<rect width="72.3634" height="234.293" rx="5.92981" transform="matrix(-0.636031 -0.771663 -0.771663 0.636031 343.034 155.98)" fill="white"/>
</g>
</g>
<rect x="-0.688577" y="0.119295" width="135.497" height="179.734" rx="22.2368" transform="matrix(-0.817435 -0.57602 -0.57602 0.817435 344.816 159.981)" stroke="white" stroke-opacity="0.45" stroke-width="0.988301"/>
</g>
<g opacity="0.27" filter="url(#filter4_b_26_37)">
<g clip-path="url(#clip3_26_37)">
<rect width="155.506" height="180.722" rx="22.7309" transform="matrix(-0.916684 -0.399614 -0.399614 0.916684 305.593 96.1406)" fill="#6262C4"/>
<rect width="61.2747" height="4.94151" rx="1.48245" transform="matrix(-0.916684 -0.399614 -0.399614 0.916684 243.874 81.9023)" fill="#EEEEEE"/>
<rect width="61.2747" height="4.94151" rx="1.48245" transform="matrix(-0.916684 -0.399614 -0.399614 0.916684 240.323 90.0586)" fill="#EEEEEE"/>
<rect width="61.2747" height="4.94151" rx="1.48245" transform="matrix(-0.916684 -0.399614 -0.399614 0.916684 233.608 105.457)" fill="#EEEEEE"/>
<rect width="57.3215" height="4.94151" rx="1.48245" transform="matrix(-0.916684 -0.399614 -0.399614 0.916684 181.683 113.277)" fill="#EEEEEE"/>
<rect width="31.6256" height="4.94151" rx="1.48245" transform="matrix(-0.916684 -0.399614 -0.399614 0.916684 203.663 99.9531)" fill="#EEEEEE"/>
<rect width="150.222" height="4.94151" rx="1.48245" transform="matrix(-0.916684 -0.399614 -0.399614 0.916684 259.222 165.41)" fill="#EEEEEE"/>
<rect width="150.222" height="4.94151" rx="1.48245" transform="matrix(-0.916684 -0.399614 -0.399614 0.916684 255.667 173.566)" fill="#EEEEEE"/>
<rect width="150.222" height="4.94151" rx="1.48245" transform="matrix(-0.916684 -0.399614 -0.399614 0.916684 246.979 193.496)" fill="#EEEEEE"/>
<rect width="150.222" height="4.94151" rx="1.48245" transform="matrix(-0.916684 -0.399614 -0.399614 0.916684 241.847 205.273)" fill="#EEEEEE"/>
<rect width="150.222" height="22.7309" rx="1.48245" transform="matrix(-0.916684 -0.399614 -0.399614 0.916684 238.292 213.426)" fill="#EEEEEE"/>
<g filter="url(#filter5_f_26_37)">
<rect width="76.7475" height="243.292" rx="5.92981" transform="matrix(-0.778392 -0.627778 -0.627778 0.778392 286.718 76.1719)" fill="white"/>
</g>
<g filter="url(#filter6_f_26_37)">
<rect width="72.3634" height="234.293" rx="5.92981" transform="matrix(-0.778392 -0.627778 -0.627778 0.778392 301.808 92.4531)" fill="white"/>
</g>
</g>
<rect x="-0.650449" y="0.255511" width="154.518" height="179.734" rx="22.2368" transform="matrix(-0.916684 -0.399614 -0.399614 0.916684 304.448 95.902)" stroke="white" stroke-opacity="0.45" stroke-width="0.988301"/>
</g>
<g filter="url(#filter7_bd_26_37)">
<g clip-path="url(#clip4_26_37)">
<rect width="176.906" height="219.362" rx="15.6381" transform="matrix(-1 1.01406e-07 7.53676e-08 1 239.745 57.4414)" fill="#FAFAFA"/>
<rect width="35.3389" height="34.4872" rx="6.45787" transform="matrix(-1 8.74228e-08 8.74228e-08 1 110.038 68.7617)" fill="url(#paint0_linear_26_37)"/>
<rect width="61.2747" height="4.94151" rx="1.48245" transform="matrix(-1 8.74228e-08 8.74228e-08 1 177.655 71.6836)" fill="#EEEEEE"/>
<rect width="61.2747" height="4.94151" rx="1.48245" transform="matrix(-1 8.74228e-08 8.74228e-08 1 177.62 80)" fill="#EEEEEE"/>
<rect width="61.2747" height="4.94151" rx="1.48245" transform="matrix(-1 8.74228e-08 8.74228e-08 1 177.483 94.3555)" fill="#EEEEEE"/>
<rect width="57.3215" height="4.94151" rx="1.48245" transform="matrix(-1 8.74228e-08 8.74228e-08 1 133.007 122.273)" fill="#EEEEEE"/>
<rect width="31.6256" height="4.94151" rx="1.48245" transform="matrix(-1 8.74228e-08 8.74228e-08 1 147.835 101.273)" fill="#EEEEEE"/>
<rect width="150.222" height="4.94151" rx="1.48245" transform="matrix(-1 8.74228e-08 8.74228e-08 1 224.921 139.074)" fill="#EEEEEE"/>
<rect width="150.222" height="4.94151" rx="1.48245" transform="matrix(-1 8.74228e-08 8.74228e-08 1 224.917 147.969)" fill="#EEEEEE"/>
<rect width="150.222" height="4.94151" rx="1.48245" transform="matrix(-1 8.74228e-08 8.74228e-08 1 224.917 169.715)" fill="#EEEEEE"/>
<rect width="150.222" height="4.94151" rx="1.48245" transform="matrix(-1 8.74228e-08 8.74228e-08 1 224.917 182.562)" fill="#EEEEEE"/>
<rect width="150.222" height="22.7309" rx="1.48245" transform="matrix(-1 8.74228e-08 8.74228e-08 1 224.921 191.457)" fill="#EEEEEE"/>
<g filter="url(#filter8_f_26_37)">
<rect width="34.8966" height="301.908" rx="3.35917" transform="matrix(-0.851541 -0.524288 -0.524288 0.851541 253.171 38.4102)" fill="white"/>
</g>
<g style="mix-blend-mode:plus-lighter" filter="url(#filter9_f_26_37)">
<rect x="247.159" y="34.7109" width="2.8557" height="301.908" rx="1.42785" transform="rotate(31.6203 247.159 34.7109)" fill="white"/>
</g>
<path d="M81.1985 78.8406C81.2135 78.8083 82.7433 75.6098 86.2362 76.6655C88.0799 77.2238 89.4459 78.3166 90.3248 79.2257C89.8188 78.517 89.0792 77.5608 88.1793 76.6272C88.1375 76.5849 88.1223 76.5238 88.1363 76.4677C88.0813 76.4814 88.0211 76.4663 87.9784 76.4231C87.4813 75.9233 86.9801 75.4778 86.4874 75.1003C86.4305 75.0572 86.407 74.9833 86.4277 74.9145L86.4873 74.7198L86.3907 74.8356C86.335 74.902 86.2382 74.915 86.1679 74.8651C85.4002 74.3176 84.6462 73.9323 83.927 73.7167C83.8534 73.6948 83.804 73.6245 83.808 73.5455C83.8111 73.4673 83.8677 73.4018 83.9436 73.3871C84.0796 73.3613 87.2943 72.7751 89.5739 74.6326C90.878 75.695 91.5944 77.3418 91.7096 79.5261C91.7413 79.5209 91.7722 79.5165 91.8031 79.5131C92.1583 78.4249 93.3563 75.3529 95.7753 74.4096C97.152 73.8734 98.6977 74.1054 100.37 75.1006C100.433 75.1379 100.464 75.2108 100.449 75.2831C100.433 75.3553 100.374 75.409 100.302 75.4159C100.289 75.4177 98.9654 75.5622 97.258 76.3703C97.1896 76.4027 97.1078 76.3843 97.0592 76.3249C96.9453 76.1842 96.8474 76.0656 96.7653 75.9647C96.789 76.1014 96.8136 76.2398 96.8339 76.3536L96.8484 76.4393C96.8619 76.5123 96.8262 76.5855 96.762 76.6196C95.9635 77.043 95.2111 77.553 94.524 78.1358C94.4715 78.1801 94.3997 78.1879 94.3396 78.1566C94.3606 78.2203 94.3416 78.2917 94.2908 78.3368C93.797 78.7764 93.3308 79.2644 92.9015 79.7862C92.9425 79.8141 92.9818 79.8429 93.0194 79.8742C94.5795 78.9383 96.0898 78.7058 97.5118 79.1861C100.539 80.21 102.096 84.0781 102.161 84.2419C102.187 84.3098 102.169 84.3863 102.115 84.434C102.084 84.4612 102.045 84.4749 102.007 84.475C101.978 84.4751 101.948 84.4676 101.922 84.4515C100.813 83.7885 99.7145 83.2156 98.6573 82.7479C98.6197 82.7318 98.5896 82.7022 98.572 82.664C98.5048 82.5164 98.425 82.3408 98.3511 82.1762L98.3283 82.3716C98.3226 82.4243 98.2927 82.4711 98.2477 82.4975C98.2027 82.5248 98.1484 82.5292 98.0999 82.509C97.2643 82.1638 96.4463 81.8832 95.6703 81.6746C95.6185 81.6611 95.5759 81.6222 95.5565 81.5704C95.5557 81.5679 95.5548 81.5653 95.554 81.5628C95.5473 81.5696 95.5407 81.5756 95.5332 81.5807C95.494 81.6079 95.4456 81.6166 95.3997 81.6048C94.6329 81.4141 94.0308 81.3273 93.6209 81.2894C93.6176 81.3301 93.6127 81.3709 93.607 81.4117C94.6772 81.746 96.1347 82.403 97.2842 83.6671C98.7426 85.2737 99.3176 87.4253 98.9924 90.0626C98.985 90.1212 98.9484 90.1723 98.8951 90.1962C98.8734 90.2056 98.8501 90.2108 98.8275 90.2108C98.7941 90.2109 98.7607 90.2008 98.7323 90.1814C98.7197 90.1729 97.4895 89.3081 96.3439 88.2087C96.297 88.1638 96.2801 88.0959 96.2991 88.0339C96.2991 88.033 96.3 88.0322 96.3 88.0313C96.2866 88.0364 96.2733 88.0399 96.2591 88.0407C96.2099 88.0468 96.1606 88.0291 96.1246 87.9935C95.4149 87.2879 94.9039 86.6387 94.6061 86.0636C94.5767 86.0076 94.5807 85.9388 94.6173 85.886L94.747 85.6988L94.6461 85.7568C94.6061 85.779 94.5602 85.7843 94.5168 85.7708C94.4734 85.7573 94.4374 85.7268 94.4164 85.6861C94.1177 85.1 93.8141 84.5708 93.5132 84.1121C93.4814 84.0629 93.477 84.0009 93.5003 83.9482C93.4443 83.9517 93.3892 83.9256 93.3548 83.8764C93.0364 83.4143 92.7291 83.0431 92.4395 82.7687C92.3177 82.8039 92.1926 82.8246 92.0649 82.8309C91.7637 85.0774 91.3162 91.9177 96.2289 95.4924C96.9063 95.6511 97.5387 95.8448 98.1119 96.07C99.9753 96.804 101.003 97.8035 101.006 98.8848C101.006 98.979 100.931 99.0548 100.839 99.0551L81.8553 99.1057C81.7626 99.106 81.6882 99.0306 81.6879 98.9363C81.685 97.8551 82.7074 96.8501 84.5668 96.1062C86.3763 95.3819 88.7809 94.9797 91.336 94.9729C91.3527 94.9728 91.3685 94.9737 91.3853 94.9736C90.7236 92.5929 89.8867 88.0178 91.0684 82.5974C90.1082 83.4417 87.464 86.007 85.8299 89.8837C85.8034 89.9458 85.7433 89.9867 85.6766 89.9869L85.6732 89.9869C85.6048 89.9854 85.5446 89.9422 85.5202 89.8777C85.479 89.7691 84.5322 87.1853 85.7747 84.8437C86.592 83.3041 88.1618 82.251 90.4383 81.7064C90.435 81.6962 90.4324 81.686 90.4291 81.675C89.8325 81.7955 88.5745 82.0919 87.1395 82.675C87.0903 82.6946 87.0344 82.6897 86.9893 82.6618C86.9441 82.633 86.9156 82.5847 86.9113 82.5303L86.8983 82.3724L86.7583 82.7754C86.7426 82.8196 86.7093 82.8554 86.6668 82.8742C85.8064 83.2519 85.0045 83.6872 84.2829 84.1665C84.2362 84.1972 84.1778 84.2024 84.1268 84.1805C84.0959 84.1678 84.0708 84.1458 84.0532 84.1186L84.0377 84.2605C84.0328 84.309 84.0071 84.354 83.9671 84.3813C83.1981 84.9236 82.5177 85.5259 81.9443 86.1713C81.9119 86.2079 81.8669 86.2275 81.8209 86.2277C81.8009 86.2277 81.7817 86.2244 81.7625 86.2168C81.6981 86.1923 81.6554 86.1313 81.6535 86.0616C81.6507 85.9334 81.605 82.8978 83.7699 81.1797C85.2526 80.0028 87.393 79.7525 90.1352 80.4331C89.7332 80.2321 89.139 79.9771 88.3371 79.7389C88.2585 79.7162 88.2099 79.639 88.2172 79.5592L88.1772 79.6017C88.1348 79.646 88.0722 79.664 88.0138 79.648C87.3831 79.4765 86.7041 79.3381 85.9943 79.2381C85.9459 79.2306 85.904 79.2027 85.8789 79.1637C85.8439 79.1943 85.7964 79.2106 85.7471 79.2048C85.029 79.1115 84.2743 79.0558 83.5046 79.0392C83.4545 79.0385 83.4102 79.0156 83.3809 78.9792C83.3493 79.0141 83.3043 79.0363 83.255 79.0347C82.6406 79.0271 82.0029 79.0432 81.3595 79.0831C81.3002 79.0867 81.2442 79.0579 81.2107 79.0088C81.178 78.9588 81.1728 78.8951 81.1985 78.8406ZM91.3369 95.3126C88.8219 95.3193 86.4607 95.7138 84.6887 96.4227C83.0961 97.0597 82.1418 97.9057 82.0322 98.7655L100.66 98.7158C100.546 97.8566 99.5869 97.0157 97.9909 96.3872C97.4219 96.1627 96.792 95.9716 96.1171 95.8154C96.1146 95.8146 96.1112 95.8146 96.1087 95.8138C94.6788 95.4829 93.0431 95.3081 91.3369 95.3126Z" fill="white" fill-opacity="0.63"/>
<path d="M91.3369 95.3126C88.8219 95.3193 86.4607 95.7138 84.6887 96.4227C83.0961 97.0597 82.1418 97.9057 82.0322 98.7655L100.66 98.7158C100.546 97.8566 99.5869 97.0157 97.9909 96.3872C97.4219 96.1627 96.792 95.9716 96.1171 95.8154C96.1146 95.8146 96.1112 95.8146 96.1087 95.8138C94.6788 95.4829 93.0431 95.3081 91.3369 95.3126Z" fill="white" fill-opacity="0.63"/>
</g>
<rect x="-0.411529" y="0.411529" width="176.083" height="218.539" rx="15.2266" transform="matrix(-1 1.01406e-07 7.53676e-08 1 238.922 57.4414)" stroke="#A48AE8" stroke-opacity="0.26" stroke-width="0.823059"/>
</g>
<g filter="url(#filter10_d_26_37)">
<g clip-path="url(#clip5_26_37)">
<rect width="42.2568" height="42.2568" rx="10.3295" transform="matrix(0.966377 -0.257131 -0.257131 -0.966377 203.722 107.383)" fill="url(#paint1_linear_26_37)"/>
<rect width="42.2568" height="42.2568" rx="10.3295" transform="matrix(0.966377 -0.257131 -0.257131 -0.966377 203.722 107.383)" fill="url(#paint2_radial_26_37)" fill-opacity="0.2"/>
<g style="mix-blend-mode:plus-lighter" filter="url(#filter11_f_26_37)">
<rect x="208.065" y="102.172" width="0.658438" height="54.4744" rx="0.329219" transform="rotate(-154.787 208.065 102.172)" fill="white"/>
</g>
<path d="M230.589 83.0859C229.22 82.8822 227.872 82.6454 226.59 82.1118C226.475 82.0637 225.813 81.9137 225.841 81.937C226.312 82.3283 226.643 82.8892 226.953 83.4096C227.067 83.6011 227.393 84.0223 227.387 84.2699C227.385 84.3167 227.297 84.3048 227.25 84.3045C227.137 84.3038 226.693 84.2812 226.637 84.2777C224.949 84.1736 223.282 83.9635 221.612 83.7056C220.474 83.5299 219.381 83.371 218.232 83.4508C218.056 83.463 218.562 83.5723 218.726 83.6338C219.303 83.8489 219.853 84.1167 220.389 84.4172C220.498 84.4783 221.978 85.3015 221.732 85.5368C221.576 85.6867 221.197 85.7156 221.016 85.7282C220.015 85.7976 219.034 85.5886 218.07 85.3446C216.902 85.0487 215.753 84.736 214.556 84.572C214.13 84.5137 213.575 84.4622 213.134 84.4418C212.968 84.4342 212.781 84.3719 212.637 84.4532C212.44 84.5642 212.923 84.8065 213.092 84.9571C213.646 85.4513 214.245 85.895 214.79 86.3995C214.93 86.5296 215.216 86.7294 214.938 86.8722C214.237 87.2333 213.282 87.2421 212.521 87.188C211.657 87.1266 210.842 86.9042 210.04 86.5842C209.479 86.3602 208.935 85.9978 208.328 85.9071C208.173 85.884 207.771 85.8178 207.619 85.8912C207.581 85.9096 208.144 86.5168 208.155 86.5302C208.193 86.5769 208.723 87.2016 208.633 87.3076C208.477 87.4911 207.109 87.1581 206.994 87.1378C205.993 86.9618 205.011 86.7089 204.063 86.3394C203.883 86.2689 203.731 86.2039 203.582 86.0935" stroke="#DDA636" stroke-width="0.751233" stroke-linecap="round"/>
<path d="M229.504 88.8411C228.51 88.6563 227.532 88.4478 226.61 88.0244C226.527 87.9863 226.048 87.8593 226.068 87.8771C226.402 88.1751 226.628 88.5934 226.841 88.9814C226.919 89.1243 227.146 89.4404 227.135 89.6209C227.133 89.6551 227.068 89.6441 227.034 89.6426C226.951 89.6391 226.628 89.6109 226.588 89.6069C225.358 89.4863 224.146 89.2889 222.934 89.0566C222.107 88.8983 221.314 88.7534 220.473 88.7813C220.345 88.7856 220.711 88.8788 220.829 88.928C221.244 89.1002 221.639 89.3103 222.023 89.5438C222.1 89.5912 223.159 90.2313 222.973 90.3965C222.855 90.5018 222.578 90.513 222.445 90.5174C221.713 90.5416 221.002 90.3631 220.305 90.1596C219.46 89.9127 218.63 89.6541 217.76 89.5028C217.451 89.449 217.046 89.3967 216.725 89.3702C216.605 89.3603 216.47 89.3099 216.362 89.3654C216.215 89.4413 216.562 89.6309 216.681 89.7453C217.073 90.1207 217.498 90.4604 217.882 90.8431C217.982 90.9418 218.185 91.0952 217.978 91.1921C217.457 91.4372 216.76 91.4184 216.205 91.3588C215.576 91.2912 214.987 91.1074 214.41 90.8525C214.007 90.6742 213.619 90.3953 213.178 90.3131C213.066 90.2921 212.774 90.2332 212.661 90.2827C212.633 90.2952 213.028 90.7533 213.035 90.7634C213.062 90.7985 213.432 91.2685 213.364 91.3435C213.245 91.4733 212.255 91.1942 212.172 91.1763C211.445 91.0214 210.736 90.8109 210.054 90.5161C209.923 90.4598 209.814 90.4084 209.709 90.3239" stroke="#DDA636" stroke-width="0.751233" stroke-linecap="round"/>
</g>
<rect x="0.37326" y="-0.643905" width="41.2043" height="41.2043" rx="9.80317" transform="matrix(0.966377 -0.257131 -0.257131 -0.966377 203.569 106.213)" stroke="white" stroke-opacity="0.3" stroke-width="1.05256"/>
</g>
<g filter="url(#filter12_d_26_37)">
<path d="M201.936 57.7399V57.7399C201.947 55.9907 203.368 54.5781 205.117 54.5781L206.049 54.5781C208.323 54.5781 210.167 56.4219 210.167 58.6962L210.167 73.3853C210.167 75.6529 208.329 77.4911 206.061 77.4911V77.4911C203.794 77.4911 201.955 75.6529 201.955 73.3853L201.955 65.4891" stroke="url(#paint3_linear_26_37)" stroke-width="1.23459"/>
</g>
<defs>
<filter id="filter0_f_26_37" x="-45.001" y="-138.52" width="505" height="465" filterUnits="userSpaceOnUse" color-interpolation-filters="sRGB">
<feFlood flood-opacity="0" result="BackgroundImageFix"/>
<feBlend mode="normal" in="SourceGraphic" in2="BackgroundImageFix" result="shape"/>
<feGaussianBlur stdDeviation="100" result="effect1_foregroundBlur_26_37"/>
</filter>
<filter id="filter1_b_26_37" x="-124.651" y="-173.244" width="725.632" height="736.311" filterUnits="userSpaceOnUse" color-interpolation-filters="sRGB">
<feFlood flood-opacity="0" result="BackgroundImageFix"/>
<feGaussianBlur in="BackgroundImageFix" stdDeviation="127.491"/>
<feComposite in2="SourceAlpha" operator="in" result="effect1_backgroundBlur_26_37"/>
<feBlend mode="normal" in="SourceGraphic" in2="effect1_backgroundBlur_26_37" result="shape"/>
</filter>
<filter id="filter2_f_26_37" x="11.3174" y="-5.88964" width="403.881" height="381.291" filterUnits="userSpaceOnUse" color-interpolation-filters="sRGB">
<feFlood flood-opacity="0" result="BackgroundImageFix"/>
<feBlend mode="normal" in="SourceGraphic" in2="BackgroundImageFix" result="shape"/>
<feGaussianBlur stdDeviation="43.0405" result="effect1_foregroundBlur_26_37"/>
</filter>
<filter id="filter3_f_26_37" x="32.5498" y="16.4775" width="394.148" height="372.186" filterUnits="userSpaceOnUse" color-interpolation-filters="sRGB">
<feFlood flood-opacity="0" result="BackgroundImageFix"/>
<feBlend mode="normal" in="SourceGraphic" in2="BackgroundImageFix" result="shape"/>
<feGaussianBlur stdDeviation="43.0405" result="effect1_foregroundBlur_26_37"/>
</filter>
<filter id="filter4_b_26_37" x="-183.338" y="-240.161" width="763.091" height="776.126" filterUnits="userSpaceOnUse" color-interpolation-filters="sRGB">
<feFlood flood-opacity="0" result="BackgroundImageFix"/>
<feGaussianBlur in="BackgroundImageFix" stdDeviation="137.08"/>
<feComposite in2="SourceAlpha" operator="in" result="effect1_backgroundBlur_26_37"/>
<feBlend mode="normal" in="SourceGraphic" in2="effect1_backgroundBlur_26_37" result="shape"/>
</filter>
<filter id="filter5_f_26_37" x="-9.42773" y="-55.6826" width="379.818" height="404.904" filterUnits="userSpaceOnUse" color-interpolation-filters="sRGB">
<feFlood flood-opacity="0" result="BackgroundImageFix"/>
<feBlend mode="normal" in="SourceGraphic" in2="BackgroundImageFix" result="shape"/>
<feGaussianBlur stdDeviation="43.0405" result="effect1_foregroundBlur_26_37"/>
</filter>
<filter id="filter6_f_26_37" x="14.7236" y="-36.6475" width="370.757" height="395.146" filterUnits="userSpaceOnUse" color-interpolation-filters="sRGB">
<feFlood flood-opacity="0" result="BackgroundImageFix"/>
<feBlend mode="normal" in="SourceGraphic" in2="BackgroundImageFix" result="shape"/>
<feGaussianBlur stdDeviation="43.0405" result="effect1_foregroundBlur_26_37"/>
</filter>
<filter id="filter7_bd_26_37" x="-192.143" y="-197.54" width="686.87" height="729.327" filterUnits="userSpaceOnUse" color-interpolation-filters="sRGB">
<feFlood flood-opacity="0" result="BackgroundImageFix"/>
<feGaussianBlur in="BackgroundImageFix" stdDeviation="127.491"/>
<feComposite in2="SourceAlpha" operator="in" result="effect1_backgroundBlur_26_37"/>
<feColorMatrix in="SourceAlpha" type="matrix" values="0 0 0 0 0 0 0 0 0 0 0 0 0 0 0 0 0 0 127 0" result="hardAlpha"/>
<feMorphology radius="0.874472" operator="dilate" in="SourceAlpha" result="effect2_dropShadow_26_37"/>
<feOffset/>
<feGaussianBlur stdDeviation="4.80959"/>
<feComposite in2="hardAlpha" operator="out"/>
<feColorMatrix type="matrix" values="0 0 0 0 0.607896 0 0 0 0 0.607896 0 0 0 0 0.607896 0 0 0 0.25 0"/>
<feBlend mode="normal" in2="effect1_backgroundBlur_26_37" result="effect2_dropShadow_26_37"/>
<feBlend mode="normal" in="SourceGraphic" in2="effect2_dropShadow_26_37" result="shape"/>
</filter>
<filter id="filter8_f_26_37" x="17.6668" y="-27.3889" width="283.006" height="370.387" filterUnits="userSpaceOnUse" color-interpolation-filters="sRGB">
<feFlood flood-opacity="0" result="BackgroundImageFix"/>
<feBlend mode="normal" in="SourceGraphic" in2="BackgroundImageFix" result="shape"/>
<feGaussianBlur stdDeviation="24.382" result="effect1_foregroundBlur_26_37"/>
</filter>
<filter id="filter9_f_26_37" x="40.6453" y="-13.5178" width="257.173" height="355.04" filterUnits="userSpaceOnUse" color-interpolation-filters="sRGB">
<feFlood flood-opacity="0" result="BackgroundImageFix"/>
<feBlend mode="normal" in="SourceGraphic" in2="BackgroundImageFix" result="shape"/>
<feGaussianBlur stdDeviation="24.382" result="effect1_foregroundBlur_26_37"/>
</filter>
<filter id="filter10_d_26_37" x="187.488" y="51.3642" width="68.7526" height="68.7545" filterUnits="userSpaceOnUse" color-interpolation-filters="sRGB">
<feFlood flood-opacity="0" result="BackgroundImageFix"/>
<feColorMatrix in="SourceAlpha" type="matrix" values="0 0 0 0 0 0 0 0 0 0 0 0 0 0 0 0 0 0 127 0" result="hardAlpha"/>
<feOffset dx="3.15767" dy="4.21022"/>
<feGaussianBlur stdDeviation="4.26285"/>
<feComposite in2="hardAlpha" operator="out"/>
<feColorMatrix type="matrix" values="0 0 0 0 0 0 0 0 0 0 0 0 0 0 0 0 0 0 0.25 0"/>
<feBlend mode="normal" in2="BackgroundImageFix" result="effect1_dropShadow_26_37"/>
<feBlend mode="normal" in="SourceGraphic" in2="effect1_dropShadow_26_37" result="shape"/>
</filter>
<filter id="filter11_f_26_37" x="194.995" y="40.1317" width="48.7503" height="74.514" filterUnits="userSpaceOnUse" color-interpolation-filters="sRGB">
<feFlood flood-opacity="0" result="BackgroundImageFix"/>
<feBlend mode="normal" in="SourceGraphic" in2="BackgroundImageFix" result="shape"/>
<feGaussianBlur stdDeviation="6.29157" result="effect1_foregroundBlur_26_37"/>
</filter>
<filter id="filter12_d_26_37" x="198.027" y="53.9609" width="16.0493" height="30.7329" filterUnits="userSpaceOnUse" color-interpolation-filters="sRGB">
<feFlood flood-opacity="0" result="BackgroundImageFix"/>
<feColorMatrix in="SourceAlpha" type="matrix" values="0 0 0 0 0 0 0 0 0 0 0 0 0 0 0 0 0 0 127 0" result="hardAlpha"/>
<feOffset dy="3.29223"/>
<feGaussianBlur stdDeviation="1.64612"/>
<feComposite in2="hardAlpha" operator="out"/>
<feColorMatrix type="matrix" values="0 0 0 0 0.359841 0 0 0 0 0.209268 0 0 0 0 0.0325097 0 0 0 0.23 0"/>
<feBlend mode="normal" in2="BackgroundImageFix" result="effect1_dropShadow_26_37"/>
<feBlend mode="normal" in="SourceGraphic" in2="effect1_dropShadow_26_37" result="shape"/>
</filter>
<linearGradient id="paint0_linear_26_37" x1="13.4551" y1="31.4953" x2="35.6777" y2="3.09973" gradientUnits="userSpaceOnUse">
<stop stop-color="white"/>
<stop offset="1" stop-color="#D4D4D4"/>
</linearGradient>
<linearGradient id="paint1_linear_26_37" x1="21.1284" y1="0" x2="21.1284" y2="42.2568" gradientUnits="userSpaceOnUse">
<stop stop-color="#F8D77E"/>
<stop offset="1" stop-color="#C7942C"/>
</linearGradient>
<radialGradient id="paint2_radial_26_37" cx="0" cy="0" r="1" gradientUnits="userSpaceOnUse" gradientTransform="translate(21.1284 21.1284) rotate(90) scale(21.1284)">
<stop stop-color="white" stop-opacity="0"/>
<stop offset="1" stop-color="#F6C665"/>
</radialGradient>
<linearGradient id="paint3_linear_26_37" x1="218.834" y1="40.9011" x2="192.793" y2="83.1265" gradientUnits="userSpaceOnUse">
<stop offset="0.0584904" stop-color="white"/>
<stop offset="0.510905"/>
<stop offset="0.583682" stop-color="#E2D7D7"/>
<stop offset="0.741146"/>
</linearGradient>
<clipPath id="clip0_26_37">
<rect width="231" height="211" fill="white" transform="matrix(1 -8.9206e-08 -8.9206e-08 -1 125.999 211)"/>
</clipPath>
<clipPath id="clip1_26_37">
<rect width="222" height="232" rx="28" transform="matrix(4.4603e-08 1 1 -4.4603e-08 125.999 0)" fill="white"/>
</clipPath>
<clipPath id="clip2_26_37">
<rect width="136.485" height="180.722" rx="22.7309" transform="matrix(-0.817435 -0.57602 -0.57602 0.817435 345.999 160.355)" fill="white"/>
</clipPath>
<clipPath id="clip3_26_37">
<rect width="155.506" height="180.722" rx="22.7309" transform="matrix(-0.916684 -0.399614 -0.399614 0.916684 305.593 96.1406)" fill="white"/>
</clipPath>
<clipPath id="clip4_26_37">
<rect width="176.906" height="219.362" rx="15.6381" transform="matrix(-1 1.01406e-07 7.53676e-08 1 239.745 57.4414)" fill="white"/>
</clipPath>
<clipPath id="clip5_26_37">
<rect width="42.2568" height="42.2568" rx="10.3295" transform="matrix(0.966377 -0.257131 -0.257131 -0.966377 203.722 107.383)" fill="white"/>
</clipPath>
</defs>
</svg>
