<svg width="258" height="207" viewBox="0 0 258 207" fill="none" xmlns="http://www.w3.org/2000/svg">
<g opacity="0.05" filter="url(#filter0_b_1183_23328)">
<path d="M13.0593 97.3236C5.89496 80.1222 69.1163 46.7438 113.621 26.7179C121.997 22.9487 126.185 21.0641 131.064 21.0641C135.942 21.0641 140.131 22.9487 148.507 26.7179C193.011 46.7438 256.233 80.1222 249.068 97.3236C241.988 114.324 185.581 140.989 147.265 156.786L147.265 156.786C139.466 160.002 135.566 161.61 131.064 161.61C126.562 161.61 122.662 160.002 114.862 156.786L114.862 156.786C76.5465 140.989 20.1399 114.324 13.0593 97.3236Z" fill="#6262C4"/>
<path d="M115.049 156.329C95.8999 148.434 72.2379 137.826 52.4839 127.072C42.6056 121.694 33.7164 116.287 26.8605 111.169C19.9817 106.035 15.2295 101.249 13.5154 97.1336C12.6868 95.144 12.8566 92.886 13.9511 90.3695C15.0484 87.8467 17.0605 85.1022 19.848 82.1926C25.4213 76.3748 34.0032 69.9894 44.2291 63.4971C64.6729 50.5175 91.5798 37.1776 113.823 27.1685C122.234 23.384 126.314 21.5583 131.064 21.5583C135.813 21.5583 139.894 23.384 148.304 27.1685C170.548 37.1776 197.455 50.5175 217.898 63.4971C228.124 69.9894 236.706 76.3748 242.28 82.1926C245.067 85.1022 247.079 87.8467 248.176 90.3695C249.271 92.886 249.441 95.144 248.612 97.1336C246.898 101.249 242.146 106.035 235.267 111.169C228.411 116.287 219.522 121.694 209.644 127.072C189.894 137.823 166.239 148.428 147.093 156.323L147.092 156.323L115.049 156.329ZM115.049 156.329C115.05 156.329 115.05 156.329 115.051 156.329L115.051 156.329C122.882 159.558 126.681 161.116 131.064 161.116C135.447 161.116 139.246 159.558 147.077 156.329L147.077 156.329L115.049 156.329Z" stroke="white" stroke-opacity="0.45" stroke-width="0.988301"/>
</g>
<g filter="url(#filter1_d_1183_23328)">
<circle opacity="0.1" cx="55.7316" cy="138.815" r="1.3628" transform="rotate(-15 55.7316 138.815)" fill="#6438D6"/>
<circle opacity="0.2" cx="49.1691" cy="143.788" r="1.3628" transform="rotate(-15 49.1691 143.788)" fill="#6438D6"/>
<circle opacity="0.2" cx="46.4699" cy="137.081" r="1.3628" transform="rotate(-15 46.4699 137.081)" fill="#6438D6"/>
<circle opacity="0.2" cx="40.1987" cy="132.982" r="0.908535" transform="rotate(-15 40.1987 132.982)" fill="#6438D6"/>
<circle opacity="0.1" cx="43.019" cy="141.971" r="0.908535" transform="rotate(-15 43.019 141.971)" fill="#6438D6"/>
<g filter="url(#filter2_d_1183_23328)">
<rect x="29.7695" y="97.5859" width="43.1149" height="43.1149" rx="8.62299" transform="rotate(-17.525 29.7695 97.5859)" fill="white"/>
</g>
<path d="M70.7373 118.151C70.8458 118.555 70.6 118.981 70.1952 119.089L50.4498 124.38C50.045 124.489 49.6194 124.243 49.5109 123.838C49.3998 123.423 49.6482 123.008 50.053 122.899L69.7984 117.608C70.2032 117.5 70.6262 117.736 70.7373 118.151Z" fill="#512AB7"/>
<path opacity="0.4" d="M65.8295 106.746L68.8109 117.872L50.9906 122.647L48.0559 111.498C47.8946 110.895 48.0176 110.249 48.4008 109.744L53.8726 102.521C54.4327 101.768 55.4397 101.498 56.3013 101.871L64.6513 105.39C65.2356 105.635 65.6655 106.134 65.8295 106.746Z" fill="#512AB7"/>
<path d="M57.9672 107.024L55.0054 107.818C54.6006 107.926 54.175 107.68 54.0666 107.276C53.9581 106.871 54.2038 106.445 54.6086 106.337L57.5704 105.543C57.9752 105.435 58.4008 105.68 58.5093 106.085C58.6178 106.49 58.372 106.916 57.9672 107.024Z" fill="#512AB7"/>
<path d="M60.6692 109.208L53.7583 111.06C52.9388 111.28 52.4546 112.119 52.6742 112.938L55.1873 122.317L65.06 119.672L62.5469 110.293C62.3273 109.473 61.4886 108.989 60.6692 109.208ZM57.7653 117.129C57.8737 117.534 57.628 117.96 57.2232 118.068C56.8184 118.176 56.3928 117.931 56.2843 117.526L55.8875 116.045C55.7791 115.64 56.0248 115.215 56.4296 115.106C56.8344 114.998 57.26 115.243 57.3685 115.648L57.7653 117.129Z" fill="#512AB7"/>
<g opacity="0.88" filter="url(#filter3_f_1183_23328)">
<ellipse cx="59.3412" cy="121.971" rx="16.7003" ry="6.52005" transform="rotate(-13.013 59.3412 121.971)" fill="white"/>
</g>
</g>
<g filter="url(#filter4_d_1183_23328)">
<circle opacity="0.1" cx="80.7895" cy="72.0592" r="1.01156" transform="rotate(15 80.7895 72.0592)" fill="#06BC00"/>
<circle opacity="0.2" cx="74.7192" cy="72.817" r="1.01156" transform="rotate(15 74.7192 72.817)" fill="#06BC00"/>
<circle opacity="0.2" cx="75.477" cy="67.5084" r="1.01156" transform="rotate(15 75.477 67.5084)" fill="#06BC00"/>
<circle opacity="0.2" cx="72.9612" cy="62.5447" r="0.674376" transform="rotate(15 72.9612 62.5447)" fill="#06BC00"/>
<circle opacity="0.1" cx="71.4456" cy="69.3728" r="0.674376" transform="rotate(15 71.4456 69.3728)" fill="#06BC00"/>
<g filter="url(#filter5_d_1183_23328)">
<rect x="79.3984" y="35.9219" width="32.0029" height="32.0029" rx="6.40057" transform="rotate(12.475 79.3984 35.9219)" fill="white"/>
</g>
<path opacity="0.4" d="M93.1961 47.5822C93.8241 47.2823 94.6608 47.5065 95.062 48.0822L95.9621 49.4027C96.1327 49.6547 96.5057 49.9213 96.8018 50.0007L98.0606 50.338C98.8455 50.5483 99.3171 51.3651 99.1068 52.15L98.7695 53.4088C98.6921 53.6975 98.7345 54.1613 98.8675 54.435L99.5611 55.8747C99.861 56.5027 99.6368 57.3394 99.0611 57.7407L97.7406 58.6408C97.4885 58.8113 97.2219 59.1843 97.1426 59.4805L96.8053 60.7393C96.595 61.5242 95.7782 61.9957 94.9933 61.7854L93.7345 61.4482C93.4457 61.3708 92.982 61.4132 92.7083 61.5462L91.2685 62.2397C90.6406 62.5397 89.8038 62.3155 89.4026 61.7397L88.5025 60.4192C88.3319 60.1672 87.959 59.9006 87.6628 59.8212L86.3818 59.478C85.5969 59.2677 85.1253 58.4509 85.3356 57.666L85.6749 56.3998C85.7523 56.111 85.7079 55.6547 85.5823 55.383L84.8981 53.9378C84.6056 53.3118 84.8278 52.4825 85.3942 52.0867L86.7092 51.1772C86.9539 51.0047 87.2205 50.6317 87.2978 50.3429L87.6391 49.0693C87.8494 48.2844 88.6662 47.8128 89.4511 48.0231L90.7321 48.3664C91.0209 48.4438 91.4846 48.4014 91.7583 48.2684L93.1961 47.5822Z" fill="#06BC00"/>
<path d="M90.7023 57.009C90.5542 56.9693 90.4294 56.8724 90.3535 56.7409L89.0417 54.4689C88.8845 54.1966 88.9798 53.8412 89.252 53.684C89.5243 53.5268 89.8797 53.6221 90.0369 53.8943L91.0614 55.6688L95.0985 53.3379C95.3708 53.1808 95.7262 53.276 95.8834 53.5483C96.0406 53.8205 95.9453 54.1759 95.6731 54.3331L91.1384 56.9512C91.0069 57.0271 90.8504 57.0487 90.7023 57.009Z" fill="#06BC00"/>
<g opacity="0.88" filter="url(#filter6_f_1183_23328)">
<ellipse cx="89.3555" cy="62.5743" rx="12.3961" ry="4.83963" transform="rotate(16.987 89.3555 62.5743)" fill="white"/>
</g>
</g>
<g filter="url(#filter7_d_1183_23328)">
<path d="M12.6312 91.7031V94.4161C17.4565 119.683 153.871 146.693 175.566 198.002H28.9758C19.9489 198.002 12.6312 190.818 12.6312 181.957V94.4161C12.4582 93.5099 12.4544 92.6059 12.6312 91.7031Z" fill="white"/>
<path d="M249.497 91.7031V94.4161C244.691 119.683 108.814 146.693 87.2033 198.002H233.152C242.179 198.002 249.497 190.818 249.497 181.957V94.4161C249.669 93.5099 249.673 92.6059 249.497 91.7031Z" fill="white"/>
</g>
<g filter="url(#filter8_i_1183_23328)">
<path d="M226.54 198.001H36.0825C28.872 198.001 25.2667 198.001 22.4015 196.884C18.1388 195.222 14.7673 191.85 13.1053 187.587C11.9883 184.722 11.9883 181.117 11.9883 173.907C11.9883 170.437 11.9883 168.702 12.4069 167.141C13.0289 164.822 14.3178 162.737 16.1139 161.143C17.3228 160.071 18.8744 159.295 21.9775 157.744L109.586 113.939C120.375 108.545 125.77 105.848 131.572 105.853C137.374 105.857 142.763 108.564 153.543 113.977L240.681 157.733C243.782 159.29 245.332 160.069 246.54 161.144C248.327 162.735 249.61 164.815 250.23 167.126C250.649 168.687 250.649 170.422 250.649 173.892C250.649 181.116 250.649 184.728 249.528 187.598C247.866 191.852 244.5 195.217 240.246 196.879C237.376 198.001 233.764 198.001 226.54 198.001Z" fill="white"/>
</g>
<circle opacity="0.1" cx="162.925" cy="63.7316" r="1.3628" transform="rotate(15 162.925 63.7316)" fill="#D40505"/>
<circle opacity="0.2" cx="154.749" cy="64.755" r="1.3628" transform="rotate(15 154.749 64.755)" fill="#D40505"/>
<circle opacity="0.2" cx="155.772" cy="57.5988" r="1.3628" transform="rotate(15 155.772 57.5988)" fill="#D40505"/>
<circle opacity="0.2" cx="152.381" cy="50.9096" r="0.908535" transform="rotate(15 152.381 50.9096)" fill="#D40505"/>
<circle opacity="0.1" cx="150.338" cy="60.1049" r="0.908535" transform="rotate(15 150.338 60.1049)" fill="#D40505"/>
<g filter="url(#filter9_d_1183_23328)">
<rect x="161.051" y="15.043" width="43.1149" height="43.1149" rx="8.62299" transform="rotate(12.475 161.051 15.043)" fill="white"/>
</g>
<path opacity="0.4" d="M189.068 39.105L187.43 45.2162L183.402 44.1369C182.741 43.9596 182.088 43.2768 181.938 42.6123L181.432 40.3922C181.296 39.7949 180.893 39.7187 180.53 40.2035L176.723 45.3311C176.304 45.9067 175.889 45.7956 175.805 45.0851L175.441 41.9402C175.36 41.1776 174.681 40.3927 173.941 40.1943L168.029 38.642L169.322 33.8142C170.285 30.2205 173.002 28.6522 176.595 29.6151L184.869 31.8319C188.462 32.7949 190.031 35.5113 189.068 39.105Z" fill="#D40505"/>
<path d="M186.851 47.3768L187.43 45.2147L183.402 44.1354C182.741 43.9581 182.088 43.2752 181.938 42.6107L181.432 40.3907C181.296 39.7934 180.893 39.7172 180.531 40.202L176.723 45.3296C176.304 45.9052 175.889 45.7941 175.805 45.0836L175.441 41.9387C175.36 41.1761 174.681 40.3912 173.941 40.1928L168.029 38.6404L167.106 42.086C166.159 45.6205 167.66 48.3085 171.13 49.3016C171.236 49.3405 171.354 49.3723 171.463 49.4014L179.361 51.5177C179.509 51.5574 179.657 51.5971 179.798 51.6242C183.284 52.4738 185.907 50.9014 186.851 47.3768Z" fill="#D40505"/>
<path d="M168.03 38.6407L167.154 41.9086C167.219 41.5874 167.299 41.2491 167.392 40.9035L168 38.6328L168.03 38.6407Z" fill="#D40505"/>
<g opacity="0.88" filter="url(#filter10_f_1183_23328)">
<ellipse cx="174.465" cy="50.9467" rx="16.7003" ry="6.52005" transform="rotate(16.987 174.465 50.9467)" fill="white"/>
</g>
<circle opacity="0.1" cx="217.719" cy="114.172" r="1.01156" transform="rotate(-15 217.719 114.172)" fill="#E2A258"/>
<circle opacity="0.2" cx="212.837" cy="117.864" r="1.01156" transform="rotate(-15 212.837 117.864)" fill="#E2A258"/>
<circle opacity="0.2" cx="210.844" cy="112.887" r="1.01156" transform="rotate(-15 210.844 112.887)" fill="#E2A258"/>
<circle opacity="0.2" cx="206.178" cy="109.844" r="0.674376" transform="rotate(-15 206.178 109.844)" fill="#E2A258"/>
<circle opacity="0.1" cx="208.283" cy="116.516" r="0.674376" transform="rotate(-15 208.283 116.516)" fill="#E2A258"/>
<g filter="url(#filter11_d_1183_23328)">
<rect x="198.445" y="83.5742" width="32.0029" height="32.0029" rx="6.40057" transform="rotate(-17.525 198.445 83.5742)" fill="white"/>
</g>
<path opacity="0.4" d="M220.95 101.153C225.039 100.057 227.466 95.854 226.37 91.7646C225.275 87.6752 221.071 85.2483 216.982 86.3441C212.892 87.4398 210.465 91.6433 211.561 95.7327C212.657 99.8221 216.86 102.249 220.95 101.153Z" fill="#E2A258"/>
<path d="M217.039 97.455C216.898 97.4927 216.744 97.4786 216.603 97.3973C216.33 97.2401 216.235 96.8847 216.392 96.6124L219.943 90.4629C220.1 90.1906 220.455 90.0954 220.728 90.2526C221 90.4098 221.095 90.7652 220.938 91.0375L217.388 97.187C217.306 97.3278 217.18 97.4173 217.039 97.455Z" fill="#E2A258"/>
<path d="M215.683 91.1829C215.083 91.3436 214.718 91.9653 214.881 92.5724C215.041 93.1722 215.663 93.5374 216.27 93.3747C216.87 93.214 217.235 92.5923 217.072 91.9852C216.902 91.38 216.283 91.0222 215.683 91.1829Z" fill="#E2A258"/>
<path d="M221.662 94.1282C221.062 94.2889 220.697 94.9106 220.86 95.5177C221.021 96.1175 221.642 96.4827 222.25 96.32C222.849 96.1593 223.214 95.5376 223.052 94.9305C222.889 94.3233 222.269 93.9655 221.662 94.1282Z" fill="#E2A258"/>
<g opacity="0.88" filter="url(#filter12_f_1183_23328)">
<ellipse cx="220.394" cy="101.67" rx="12.3961" ry="4.83963" transform="rotate(-13.013 220.394 101.67)" fill="white"/>
</g>
<circle opacity="0.1" cx="16.8605" cy="47.8432" r="0.606939" transform="rotate(-15 16.8605 47.8432)" fill="#6587FF"/>
<circle opacity="0.2" cx="13.9387" cy="50.0581" r="0.606939" transform="rotate(-15 13.9387 50.0581)" fill="#6587FF"/>
<circle opacity="0.2" cx="12.7394" cy="47.0698" r="0.606939" transform="rotate(-15 12.7394 47.0698)" fill="#6587FF"/>
<circle opacity="0.2" cx="9.94088" cy="45.2471" r="0.404626" transform="rotate(-15 9.94088 45.2471)" fill="#6587FF"/>
<circle opacity="0.1" cx="11.1987" cy="49.251" r="0.404626" transform="rotate(-15 11.1987 49.251)" fill="#6587FF"/>
<g filter="url(#filter13_d_1183_23328)">
<rect x="5.29688" y="29.4844" width="19.2017" height="19.2017" rx="3.84034" transform="rotate(-17.525 5.29688 29.4844)" fill="white"/>
</g>
<path d="M20.9065 34.9446L21.3959 36.771C21.8086 38.3112 20.7068 39.945 18.9346 40.4198C17.1625 40.8947 15.3913 40.0307 14.9787 38.4905L14.4893 36.6641C14.9019 38.2042 16.6334 38.9201 18.4055 38.4453C20.1777 37.9704 21.3192 36.4847 20.9065 34.9446Z" fill="#6587FF"/>
<path opacity="0.4" d="M20.2464 32.4797L20.9077 34.9479C21.3204 36.488 20.1789 37.9738 18.4067 38.4486C16.6346 38.9235 14.9031 38.2076 14.4904 36.6674L13.8291 34.1992C13.9495 34.6484 14.184 35.03 14.4964 35.3272C15.2574 36.0545 16.4915 36.3164 17.7454 35.9804C18.9992 35.6445 19.9371 34.8006 20.2325 33.7903C20.3544 33.3766 20.3667 32.9289 20.2464 32.4797Z" fill="#6587FF"/>
<path d="M20.2457 32.4797C20.366 32.9289 20.3537 33.3766 20.2318 33.7902C19.9364 34.8006 18.9985 35.6444 17.7447 35.9804C16.4908 36.3164 15.2567 36.0545 14.4957 35.3272C14.1833 35.03 13.9487 34.6484 13.8284 34.1992C13.4157 32.6591 14.5175 31.0253 16.2897 30.5504C17.1782 30.3123 18.0613 30.409 18.7787 30.7565C19.4925 31.1102 20.0393 31.7096 20.2457 32.4797Z" fill="#6587FF"/>
<g opacity="0.88" filter="url(#filter14_f_1183_23328)">
<ellipse cx="18.4708" cy="40.3419" rx="7.43768" ry="2.90378" transform="rotate(-13.013 18.4708 40.3419)" fill="white"/>
</g>
<defs>
<filter id="filter0_b_1183_23328" x="-261.661" y="-253.098" width="785.45" height="688.869" filterUnits="userSpaceOnUse" color-interpolation-filters="sRGB">
<feFlood flood-opacity="0" result="BackgroundImageFix"/>
<feGaussianBlur in="BackgroundImageFix" stdDeviation="137.08"/>
<feComposite in2="SourceAlpha" operator="in" result="effect1_backgroundBlur_1183_23328"/>
<feBlend mode="normal" in="SourceGraphic" in2="effect1_backgroundBlur_1183_23328" result="shape"/>
</filter>
<filter id="filter1_d_1183_23328" x="20.132" y="73.7765" width="74.5739" height="81.1227" filterUnits="userSpaceOnUse" color-interpolation-filters="sRGB">
<feFlood flood-opacity="0" result="BackgroundImageFix"/>
<feColorMatrix in="SourceAlpha" type="matrix" values="0 0 0 0 0 0 0 0 0 0 0 0 0 0 0 0 0 0 127 0" result="hardAlpha"/>
<feMorphology radius="8.65091" operator="erode" in="SourceAlpha" result="effect1_dropShadow_1183_23328"/>
<feOffset/>
<feGaussianBlur stdDeviation="9.19891"/>
<feComposite in2="hardAlpha" operator="out"/>
<feColorMatrix type="matrix" values="0 0 0 0 0.0509804 0 0 0 0 0.0352941 0 0 0 0 0.121569 0 0 0 0.12 0"/>
<feBlend mode="normal" in2="BackgroundImageFix" result="effect1_dropShadow_1183_23328"/>
<feBlend mode="normal" in="SourceGraphic" in2="effect1_dropShadow_1183_23328" result="shape"/>
</filter>
<filter id="filter2_d_1183_23328" x="18.5602" y="70.8083" width="76.5152" height="76.5143" filterUnits="userSpaceOnUse" color-interpolation-filters="sRGB">
<feFlood flood-opacity="0" result="BackgroundImageFix"/>
<feColorMatrix in="SourceAlpha" type="matrix" values="0 0 0 0 0 0 0 0 0 0 0 0 0 0 0 0 0 0 127 0" result="hardAlpha"/>
<feOffset dy="-2.5869"/>
<feGaussianBlur stdDeviation="6.81216"/>
<feComposite in2="hardAlpha" operator="out"/>
<feColorMatrix type="matrix" values="0 0 0 0 0.678906 0 0 0 0 0.678906 0 0 0 0 0.678906 0 0 0 0.15 0"/>
<feBlend mode="normal" in2="BackgroundImageFix" result="effect1_dropShadow_1183_23328"/>
<feBlend mode="normal" in="SourceGraphic" in2="effect1_dropShadow_1183_23328" result="shape"/>
</filter>
<filter id="filter3_f_1183_23328" x="38.9145" y="110.498" width="40.8536" height="22.9463" filterUnits="userSpaceOnUse" color-interpolation-filters="sRGB">
<feFlood flood-opacity="0" result="BackgroundImageFix"/>
<feBlend mode="normal" in="SourceGraphic" in2="BackgroundImageFix" result="shape"/>
<feGaussianBlur stdDeviation="2.0442" result="effect1_foregroundBlur_1183_23328"/>
</filter>
<filter id="filter4_d_1183_23328" x="63.5367" y="27.1714" width="56.3134" height="55.3525" filterUnits="userSpaceOnUse" color-interpolation-filters="sRGB">
<feFlood flood-opacity="0" result="BackgroundImageFix"/>
<feColorMatrix in="SourceAlpha" type="matrix" values="0 0 0 0 0 0 0 0 0 0 0 0 0 0 0 0 0 0 127 0" result="hardAlpha"/>
<feMorphology radius="6.4213" operator="erode" in="SourceAlpha" result="effect1_dropShadow_1183_23328"/>
<feOffset/>
<feGaussianBlur stdDeviation="6.82806"/>
<feComposite in2="hardAlpha" operator="out"/>
<feColorMatrix type="matrix" values="0 0 0 0 0.0509804 0 0 0 0 0.0352941 0 0 0 0 0.121569 0 0 0 0.12 0"/>
<feBlend mode="normal" in2="BackgroundImageFix" result="effect1_dropShadow_1183_23328"/>
<feBlend mode="normal" in="SourceGraphic" in2="effect1_dropShadow_1183_23328" result="shape"/>
</filter>
<filter id="filter5_d_1183_23328" x="63.8031" y="25.3185" width="55.5246" height="55.5266" filterUnits="userSpaceOnUse" color-interpolation-filters="sRGB">
<feFlood flood-opacity="0" result="BackgroundImageFix"/>
<feColorMatrix in="SourceAlpha" type="matrix" values="0 0 0 0 0 0 0 0 0 0 0 0 0 0 0 0 0 0 127 0" result="hardAlpha"/>
<feOffset dy="-1.92017"/>
<feGaussianBlur stdDeviation="5.05645"/>
<feComposite in2="hardAlpha" operator="out"/>
<feColorMatrix type="matrix" values="0 0 0 0 0.678906 0 0 0 0 0.678906 0 0 0 0 0.678906 0 0 0 0.15 0"/>
<feBlend mode="normal" in2="BackgroundImageFix" result="effect1_dropShadow_1183_23328"/>
<feBlend mode="normal" in="SourceGraphic" in2="effect1_dropShadow_1183_23328" result="shape"/>
</filter>
<filter id="filter6_f_1183_23328" x="74.3803" y="53.6606" width="29.9502" height="17.8272" filterUnits="userSpaceOnUse" color-interpolation-filters="sRGB">
<feFlood flood-opacity="0" result="BackgroundImageFix"/>
<feBlend mode="normal" in="SourceGraphic" in2="BackgroundImageFix" result="shape"/>
<feGaussianBlur stdDeviation="1.51735" result="effect1_foregroundBlur_1183_23328"/>
</filter>
<filter id="filter7_d_1183_23328" x="4.32319" y="83.5263" width="253.482" height="122.65" filterUnits="userSpaceOnUse" color-interpolation-filters="sRGB">
<feFlood flood-opacity="0" result="BackgroundImageFix"/>
<feColorMatrix in="SourceAlpha" type="matrix" values="0 0 0 0 0 0 0 0 0 0 0 0 0 0 0 0 0 0 127 0" result="hardAlpha"/>
<feOffset/>
<feGaussianBlur stdDeviation="4.08841"/>
<feComposite in2="hardAlpha" operator="out"/>
<feColorMatrix type="matrix" values="0 0 0 0 0 0 0 0 0 0 0 0 0 0 0 0 0 0 0.12 0"/>
<feBlend mode="normal" in2="BackgroundImageFix" result="effect1_dropShadow_1183_23328"/>
<feBlend mode="normal" in="SourceGraphic" in2="effect1_dropShadow_1183_23328" result="shape"/>
</filter>
<filter id="filter8_i_1183_23328" x="11.9883" y="105.852" width="238.66" height="96.2368" filterUnits="userSpaceOnUse" color-interpolation-filters="sRGB">
<feFlood flood-opacity="0" result="BackgroundImageFix"/>
<feBlend mode="normal" in="SourceGraphic" in2="BackgroundImageFix" result="shape"/>
<feColorMatrix in="SourceAlpha" type="matrix" values="0 0 0 0 0 0 0 0 0 0 0 0 0 0 0 0 0 0 127 0" result="hardAlpha"/>
<feOffset dy="4.08841"/>
<feGaussianBlur stdDeviation="8.17681"/>
<feComposite in2="hardAlpha" operator="arithmetic" k2="-1" k3="1"/>
<feColorMatrix type="matrix" values="0 0 0 0 0.658824 0 0 0 0 0.529412 0 0 0 0 1 0 0 0 0.16 0"/>
<feBlend mode="normal" in2="shape" result="effect1_innerShadow_1183_23328"/>
</filter>
<filter id="filter9_d_1183_23328" x="140.041" y="0.757532" width="74.8043" height="74.8072" filterUnits="userSpaceOnUse" color-interpolation-filters="sRGB">
<feFlood flood-opacity="0" result="BackgroundImageFix"/>
<feColorMatrix in="SourceAlpha" type="matrix" values="0 0 0 0 0 0 0 0 0 0 0 0 0 0 0 0 0 0 127 0" result="hardAlpha"/>
<feOffset dy="-2.5869"/>
<feGaussianBlur stdDeviation="6.81216"/>
<feComposite in2="hardAlpha" operator="out"/>
<feColorMatrix type="matrix" values="0 0 0 0 0.678906 0 0 0 0 0.678906 0 0 0 0 0.678906 0 0 0 0.15 0"/>
<feBlend mode="normal" in2="BackgroundImageFix" result="effect1_dropShadow_1183_23328"/>
<feBlend mode="normal" in="SourceGraphic" in2="effect1_dropShadow_1183_23328" result="shape"/>
</filter>
<filter id="filter10_f_1183_23328" x="154.291" y="38.9389" width="40.3497" height="24.0127" filterUnits="userSpaceOnUse" color-interpolation-filters="sRGB">
<feFlood flood-opacity="0" result="BackgroundImageFix"/>
<feBlend mode="normal" in="SourceGraphic" in2="BackgroundImageFix" result="shape"/>
<feGaussianBlur stdDeviation="2.0442" result="effect1_foregroundBlur_1183_23328"/>
</filter>
<filter id="filter11_d_1183_23328" x="190.125" y="63.6974" width="56.7942" height="56.7961" filterUnits="userSpaceOnUse" color-interpolation-filters="sRGB">
<feFlood flood-opacity="0" result="BackgroundImageFix"/>
<feColorMatrix in="SourceAlpha" type="matrix" values="0 0 0 0 0 0 0 0 0 0 0 0 0 0 0 0 0 0 127 0" result="hardAlpha"/>
<feOffset dy="-1.92017"/>
<feGaussianBlur stdDeviation="5.05645"/>
<feComposite in2="hardAlpha" operator="out"/>
<feColorMatrix type="matrix" values="0 0 0 0 0.678906 0 0 0 0 0.678906 0 0 0 0 0.678906 0 0 0 0.15 0"/>
<feBlend mode="normal" in2="BackgroundImageFix" result="effect1_dropShadow_1183_23328"/>
<feBlend mode="normal" in="SourceGraphic" in2="effect1_dropShadow_1183_23328" result="shape"/>
</filter>
<filter id="filter12_f_1183_23328" x="205.232" y="93.1567" width="30.3243" height="17.0303" filterUnits="userSpaceOnUse" color-interpolation-filters="sRGB">
<feFlood flood-opacity="0" result="BackgroundImageFix"/>
<feBlend mode="normal" in="SourceGraphic" in2="BackgroundImageFix" result="shape"/>
<feGaussianBlur stdDeviation="1.51735" result="effect1_foregroundBlur_1183_23328"/>
</filter>
<filter id="filter13_d_1183_23328" x="0.304328" y="17.5575" width="34.0769" height="34.0769" filterUnits="userSpaceOnUse" color-interpolation-filters="sRGB">
<feFlood flood-opacity="0" result="BackgroundImageFix"/>
<feColorMatrix in="SourceAlpha" type="matrix" values="0 0 0 0 0 0 0 0 0 0 0 0 0 0 0 0 0 0 127 0" result="hardAlpha"/>
<feOffset dy="-1.1521"/>
<feGaussianBlur stdDeviation="3.03387"/>
<feComposite in2="hardAlpha" operator="out"/>
<feColorMatrix type="matrix" values="0 0 0 0 0.678906 0 0 0 0 0.678906 0 0 0 0 0.678906 0 0 0 0.15 0"/>
<feBlend mode="normal" in2="BackgroundImageFix" result="effect1_dropShadow_1183_23328"/>
<feBlend mode="normal" in="SourceGraphic" in2="effect1_dropShadow_1183_23328" result="shape"/>
</filter>
<filter id="filter14_f_1183_23328" x="9.37352" y="35.2339" width="18.1944" height="10.2159" filterUnits="userSpaceOnUse" color-interpolation-filters="sRGB">
<feFlood flood-opacity="0" result="BackgroundImageFix"/>
<feBlend mode="normal" in="SourceGraphic" in2="BackgroundImageFix" result="shape"/>
<feGaussianBlur stdDeviation="0.910408" result="effect1_foregroundBlur_1183_23328"/>
</filter>
</defs>
</svg>
