<svg width="19" height="19" viewBox="0 0 19 19" fill="none" xmlns="http://www.w3.org/2000/svg">
<path opacity="0.4" d="M9.95605 16.7671C14.0982 16.7671 17.4561 13.4092 17.4561 9.26709C17.4561 5.12495 14.0982 1.76709 9.95605 1.76709C5.81392 1.76709 2.45605 5.12495 2.45605 9.26709C2.45605 13.4092 5.81392 16.7671 9.95605 16.7671Z" fill="#6438D6"/>
<path d="M12.4166 8.74222L11.1416 8.74222L11.1416 5.77222C11.1416 5.08222 10.7666 4.93972 10.3091 5.45722L9.9791 5.83222L7.1891 9.00472C6.8066 9.43972 6.9641 9.79222 7.5416 9.79222L8.8166 9.79222L8.8166 12.7622C8.8166 13.4522 9.1916 13.5947 9.6491 13.0772L9.9791 12.7022L12.7691 9.52972C13.1516 9.09472 12.9941 8.74222 12.4166 8.74222Z" fill="#6438D6"/>
</svg>
