<svg width="21" height="21" viewBox="0 0 21 21" fill="none" xmlns="http://www.w3.org/2000/svg">
<g clip-path="url(#clip0_1008_10793)">
<path d="M10.708 2.2832C13.3799 2.2832 13.6963 2.29492 14.7471 2.3418C15.7236 2.38477 16.251 2.54883 16.6025 2.68555C17.0674 2.86523 17.4033 3.08398 17.751 3.43164C18.1025 3.7832 18.3174 4.11524 18.4971 4.58008C18.6338 4.93164 18.7979 5.46289 18.8408 6.43555C18.8877 7.49023 18.8994 7.80664 18.8994 10.4746C18.8994 13.1465 18.8877 13.4629 18.8408 14.5137C18.7979 15.4902 18.6338 16.0176 18.4971 16.3691C18.3174 16.834 18.0986 17.1699 17.751 17.5176C17.3994 17.8691 17.0674 18.084 16.6025 18.2637C16.251 18.4004 15.7197 18.5645 14.7471 18.6074C13.6924 18.6543 13.376 18.666 10.708 18.666C8.03613 18.666 7.71973 18.6543 6.66895 18.6074C5.69238 18.5645 5.16504 18.4004 4.81348 18.2637C4.34863 18.084 4.0127 17.8652 3.66504 17.5176C3.31348 17.166 3.09863 16.834 2.91895 16.3691C2.78223 16.0176 2.61816 15.4863 2.5752 14.5137C2.52832 13.459 2.5166 13.1426 2.5166 10.4746C2.5166 7.80274 2.52832 7.48633 2.5752 6.43555C2.61816 5.45898 2.78223 4.93164 2.91895 4.58008C3.09863 4.11524 3.31738 3.7793 3.66504 3.43164C4.0166 3.08008 4.34863 2.86523 4.81348 2.68555C5.16504 2.54883 5.69629 2.38477 6.66895 2.3418C7.71973 2.29492 8.03613 2.2832 10.708 2.2832ZM10.708 0.482422C7.99317 0.482422 7.65332 0.494141 6.58692 0.541016C5.52442 0.587891 4.79395 0.759766 4.16113 1.00586C3.50098 1.26367 2.94238 1.60352 2.3877 2.16211C1.8291 2.7168 1.48926 3.27539 1.23145 3.93164C0.985352 4.56836 0.813477 5.29492 0.766602 6.35742C0.719727 7.42773 0.708008 7.76758 0.708008 10.4824C0.708008 13.1973 0.719727 13.5371 0.766602 14.6035C0.813477 15.666 0.985352 16.3965 1.23145 17.0293C1.48926 17.6895 1.8291 18.248 2.3877 18.8027C2.94238 19.3574 3.50098 19.7012 4.15723 19.9551C4.79395 20.2012 5.52051 20.373 6.58301 20.4199C7.64942 20.4668 7.98926 20.4785 10.7041 20.4785C13.4189 20.4785 13.7588 20.4668 14.8252 20.4199C15.8877 20.373 16.6182 20.2012 17.251 19.9551C17.9072 19.7012 18.4658 19.3574 19.0205 18.8027C19.5752 18.248 19.9189 17.6895 20.1729 17.0332C20.4189 16.3965 20.5908 15.6699 20.6377 14.6074C20.6846 13.541 20.6963 13.2012 20.6963 10.4863C20.6963 7.77149 20.6846 7.43164 20.6377 6.36524C20.5908 5.30274 20.4189 4.57227 20.1729 3.93945C19.9268 3.27539 19.5869 2.7168 19.0283 2.16211C18.4736 1.60742 17.915 1.26367 17.2588 1.00977C16.6221 0.763672 15.8955 0.591797 14.833 0.544922C13.7627 0.494141 13.4229 0.482422 10.708 0.482422Z" fill="#6438D6"/>
<path d="M10.708 5.34521C7.87207 5.34521 5.57129 7.646 5.57129 10.4819C5.57129 13.3179 7.87207 15.6187 10.708 15.6187C13.5439 15.6187 15.8447 13.3179 15.8447 10.4819C15.8447 7.646 13.5439 5.34521 10.708 5.34521ZM10.708 13.814C8.86816 13.814 7.37598 12.3218 7.37598 10.4819C7.37598 8.64209 8.86816 7.1499 10.708 7.1499C12.5479 7.1499 14.04 8.64209 14.04 10.4819C14.04 12.3218 12.5479 13.814 10.708 13.814Z" fill="#6438D6"/>
<path d="M17.2471 5.14258C17.2471 5.80664 16.708 6.3418 16.0479 6.3418C15.3838 6.3418 14.8486 5.80274 14.8486 5.14258C14.8486 4.47852 15.3877 3.94336 16.0479 3.94336C16.708 3.94336 17.2471 4.48242 17.2471 5.14258Z" fill="#6438D6"/>
</g>
<defs>
<clipPath id="clip0_1008_10793">
<rect width="20" height="20" fill="white" transform="translate(0.708008 0.482422)"/>
</clipPath>
</defs>
</svg>
