<svg width="32" height="32" viewBox="0 0 32 32" fill="none" xmlns="http://www.w3.org/2000/svg">
<rect width="32" height="32" rx="5.12" fill="#FAFAFC"/>
<path d="M19.9632 15.9195C19.9632 18.1497 18.1491 19.9641 15.9194 19.9641C13.6896 19.9641 11.8747 18.1497 11.8747 15.9195C11.8747 13.6892 13.6891 11.8748 15.9194 11.8748C18.1496 11.8748 19.9632 13.6892 19.9632 15.9195ZM14.9953 14.7533C14.9953 14.3287 15.4099 13.9833 15.9196 13.9833C16.4293 13.9833 16.8426 14.3287 16.8426 14.7533C16.8426 14.972 17.0199 15.1493 17.2386 15.1493C17.4574 15.1493 17.6347 14.972 17.6347 14.7533C17.6347 14.0162 17.0709 13.397 16.3157 13.2338V12.8703C16.3157 12.6515 16.1384 12.4742 15.9196 12.4742C15.7009 12.4742 15.5236 12.6515 15.5236 12.8703V13.2337C14.7676 13.3969 14.2033 14.016 14.2033 14.7533C14.2033 15.9638 15.1869 16.1706 15.8379 16.3075C16.5822 16.464 16.8426 16.5652 16.8426 17.0854C16.8426 17.51 16.4286 17.8554 15.9197 17.8554C15.4108 17.8554 14.9953 17.51 14.9953 17.0854C14.9953 16.8667 14.818 16.6894 14.5993 16.6894C14.3806 16.6894 14.2033 16.8667 14.2033 17.0854C14.2033 17.8227 14.7676 18.4418 15.5236 18.605V18.9698C15.5236 19.1886 15.7009 19.3659 15.9196 19.3659C16.1384 19.3659 16.3157 19.1886 16.3157 18.9698V18.6049C17.071 18.4416 17.6347 17.8226 17.6347 17.0854C17.6347 15.8759 16.6514 15.6692 16.0008 15.5324C15.2559 15.3758 14.9953 15.2745 14.9953 14.7533ZM22.1504 15.9195C22.1504 19.3558 19.3552 22.1515 15.9195 22.1515C12.4838 22.1515 9.6875 19.3558 9.6875 15.9195C9.6875 12.4831 12.4832 9.68744 15.9195 9.68744C19.3558 9.68744 22.1504 12.4831 22.1504 15.9195ZM20.6217 15.9195C20.6217 13.3261 18.5122 11.2163 15.9194 11.2163C13.3265 11.2163 11.2162 13.3261 11.2162 15.9195C11.2162 18.5128 13.326 20.6226 15.9194 20.6226C18.5127 20.6226 20.6217 18.5128 20.6217 15.9195Z" fill="#6438D6"/>
<g opacity="0.4">
<path d="M9.13935 22.5514C9.17359 22.5629 9.20915 22.5686 9.24454 22.5686C9.30174 22.5686 9.35866 22.5537 9.40924 22.5245C9.49118 22.4772 9.54879 22.397 9.56744 22.3043L10.0994 19.6597C10.1249 19.5329 10.0738 19.4029 9.96873 19.3274C9.86366 19.252 9.72411 19.245 9.61209 19.3096L8.96272 19.6842C6.99756 15.9344 8.33034 11.253 12.0293 9.11728C15.0522 7.37234 18.8092 7.78463 21.3782 10.1432L21.7404 7.80874C20.2026 6.73334 18.397 6.1127 16.519 6.0138C14.5907 5.9124 12.6835 6.37119 11.0036 7.34086C8.69089 8.67636 7.03645 10.8325 6.34514 13.412C5.68223 15.8855 5.98093 18.4645 7.1837 20.7116L6.52412 21.0922C6.41206 21.1568 6.34827 21.2811 6.36103 21.4099C6.37378 21.5386 6.46083 21.6479 6.58342 21.6893L9.13935 22.5514Z" fill="#6438D6"/>
<path d="M25.4822 10.9067L24.8222 11.2882C26.0251 13.5351 26.3242 16.114 25.6615 18.5876C24.9702 21.1676 23.3157 23.3239 21.0025 24.6592C19.4756 25.5406 17.7608 26 16.0133 26C15.838 26 15.6628 25.9954 15.4871 25.9861C13.609 25.8871 11.8034 25.266 10.2656 24.1901L10.6292 21.8558C13.1972 24.2145 16.9537 24.6268 19.9768 22.8817C21.815 21.8204 23.13 20.1067 23.6795 18.0563C24.2004 16.1123 23.9741 14.0864 23.0447 12.3148L22.3942 12.6905C22.2822 12.7551 22.1426 12.7482 22.0375 12.6728C21.9324 12.5973 21.8813 12.4672 21.9068 12.3404L22.4388 9.69583C22.4574 9.60315 22.515 9.52294 22.5969 9.47565C22.6787 9.42837 22.777 9.41857 22.8666 9.44874L25.4225 10.3096C25.5451 10.351 25.6322 10.4602 25.645 10.5889C25.6579 10.7176 25.5942 10.842 25.4822 10.9067Z" fill="#6438D6"/>
</g>
</svg>
