<svg width="21" height="20" viewBox="0 0 21 20" fill="none" xmlns="http://www.w3.org/2000/svg">
<path opacity="0.4" d="M5.28509 13.3337C5.37675 12.9253 5.21009 12.342 4.91842 12.0503L2.89342 10.0253C2.26009 9.39199 2.01009 8.71699 2.19342 8.13366C2.38509 7.55033 2.97675 7.15033 3.86009 7.00033L6.46009 6.56699C6.83509 6.50033 7.29342 6.16699 7.46842 5.82533L8.90175 2.95033C9.31842 2.12533 9.88509 1.66699 10.5018 1.66699C11.1184 1.66699 11.6851 2.12533 12.1018 2.95033L13.5351 5.82533C13.6434 6.04199 13.8684 6.25033 14.1101 6.39199L5.13509 15.367C5.01842 15.4837 4.81842 15.3753 4.85175 15.2087L5.28509 13.3337Z" fill="#6438D6"/>
<path d="M16.084 12.0496C15.784 12.3496 15.6173 12.9246 15.7173 13.3329L16.2923 15.8413C16.534 16.8829 16.384 17.6663 15.8673 18.0413C15.659 18.1913 15.409 18.2663 15.1173 18.2663C14.6923 18.2663 14.1923 18.1079 13.6423 17.7829L11.2007 16.3329C10.8173 16.1079 10.184 16.1079 9.80065 16.3329L7.35898 17.7829C6.43398 18.3246 5.64232 18.4163 5.13398 18.0413C4.94232 17.8996 4.80065 17.7079 4.70898 17.4579L14.8423 7.32459C15.2257 6.94126 15.7673 6.76626 16.2923 6.85792L17.134 6.99959C18.0173 7.14959 18.609 7.54959 18.8007 8.13292C18.984 8.71626 18.734 9.39126 18.1007 10.0246L16.084 12.0496Z" fill="#6438D6"/>
</svg>
