<svg width="19" height="18" viewBox="0 0 19 18" fill="none" xmlns="http://www.w3.org/2000/svg">
<path d="M16.3183 5.23542C15.6808 4.53042 14.6158 4.17792 13.0708 4.17792L12.8908 4.17792L12.8908 4.14792C12.8908 2.88792 12.8908 1.32792 10.0708 1.32792L8.93082 1.32792C6.11082 1.32792 6.11082 2.89542 6.11082 4.14792L6.11082 4.18542L5.93082 4.18542C4.37832 4.18542 3.32082 4.53792 2.68332 5.24292C1.94082 6.06792 1.96332 7.17792 2.03832 7.93542L2.04582 7.98792L2.12082 8.77542C2.12832 8.78292 2.14332 8.79792 2.15832 8.80542C2.40582 8.97042 2.66082 9.13542 2.93082 9.28542C3.03582 9.35292 3.14832 9.41292 3.26082 9.47292C4.54332 10.1779 5.95332 10.6504 7.38582 10.8829C7.45332 11.5879 7.76082 12.4129 9.40332 12.4129C11.0458 12.4129 11.3683 11.5954 11.4208 10.8679C12.9508 10.6204 14.4283 10.0879 15.7633 9.30792C15.8083 9.28542 15.8383 9.26292 15.8758 9.24042C16.2208 9.04542 16.5433 8.83542 16.8583 8.60292C16.8733 8.59542 16.8883 8.58042 16.8958 8.56542L16.9258 8.29542L16.9633 7.94292C16.9708 7.89792 16.9708 7.86042 16.9783 7.80792C17.0383 7.05042 17.0233 6.01542 16.3183 5.23542ZM10.3183 10.3729C10.3183 11.1679 10.3183 11.2879 9.39582 11.2879C8.47332 11.2879 8.47332 11.1454 8.47332 10.3804L8.47332 9.43542L10.3183 9.43542L10.3183 10.3729ZM7.18332 4.17792L7.18332 4.14792C7.18332 2.87292 7.18332 2.40042 8.93082 2.40042L10.0708 2.40042C11.8183 2.40042 11.8183 2.88042 11.8183 4.14792L11.8183 4.18542L7.18332 4.18542L7.18332 4.17792Z" fill="#6438D6"/>
<path opacity="0.4" d="M15.8757 9.22681C15.8382 9.24931 15.8007 9.27181 15.7632 9.29431C14.4282 10.0743 12.9507 10.5993 11.4207 10.8543C11.3607 11.5743 11.0457 12.3993 9.40323 12.3993C7.76073 12.3993 7.44573 11.5818 7.38573 10.8693C5.95323 10.6443 4.54323 10.1718 3.26073 9.45931C3.14823 9.39931 3.03573 9.33931 2.93073 9.27181C2.66073 9.12181 2.40573 8.95681 2.15823 8.79181C2.14323 8.78431 2.12823 8.76931 2.12073 8.76181L2.57823 13.6443C2.73573 15.1368 3.35073 16.6743 6.65073 16.6743L12.3657 16.6743C15.6657 16.6743 16.2807 15.1368 16.4382 13.6368L16.9107 8.55181C16.9032 8.56681 16.8882 8.58181 16.8732 8.58931C16.5507 8.82181 16.2207 9.03931 15.8757 9.22681Z" fill="#6438D6"/>
</svg>
