<svg width="32" height="32" viewBox="0 0 32 32" fill="none" xmlns="http://www.w3.org/2000/svg">
<rect width="32" height="32" rx="5.12" fill="#FAFAFC"/>
<path opacity="0.4" d="M23.4242 15.2666C23.4242 19.3416 20.4659 23.1582 16.4242 24.2749C16.1492 24.3499 15.8492 24.3499 15.5742 24.2749C11.5325 23.1582 8.57422 19.3416 8.57422 15.2666V11.6083C8.57422 10.9249 9.0909 10.1499 9.73256 9.8916L14.3742 7.9916C15.4159 7.5666 16.5909 7.5666 17.6325 7.9916L22.2742 9.8916C22.9076 10.1499 23.4326 10.9249 23.4326 11.6083L23.4242 15.2666Z" fill="#6438D6"/>
<path d="M14.8835 18.6916C14.7252 18.6916 14.5669 18.6333 14.4419 18.5083L13.1002 17.1666C12.8585 16.9249 12.8585 16.5249 13.1002 16.2833C13.3419 16.0416 13.7419 16.0416 13.9835 16.2833L14.8835 17.1833L18.0252 14.0416C18.2669 13.7999 18.6669 13.7999 18.9085 14.0416C19.1502 14.2833 19.1502 14.6833 18.9085 14.9249L15.3252 18.5083C15.2002 18.6333 15.0419 18.6916 14.8835 18.6916Z" fill="#6438D6"/>
</svg>
