<svg width="32" height="32" viewBox="0 0 32 32" fill="none" xmlns="http://www.w3.org/2000/svg">
<rect width="32" height="32" rx="5.12" fill="#FAFAFC"/>
<path opacity="0.4" d="M21.3169 16.6997V20.808C21.3169 21.8664 20.4919 22.9997 19.5003 23.333L16.8419 24.2164C16.3753 24.3747 15.6169 24.3747 15.1586 24.2164L12.5003 23.333C11.5003 22.9997 10.6836 21.8664 10.6836 20.808L10.6919 16.6997L14.3753 19.0997C15.2753 19.6914 16.7586 19.6914 17.6586 19.0997L21.3169 16.6997Z" fill="#6438D6"/>
<path d="M22.6493 11.3833L17.6576 8.1083C16.7576 7.51663 15.2743 7.51663 14.3743 8.1083L9.35762 11.3833C7.74928 12.425 7.74928 14.7833 9.35762 15.8333L10.691 16.7L14.3743 19.1C15.2743 19.6916 16.7576 19.6916 17.6576 19.1L21.3159 16.7L22.4576 15.95V18.5C22.4576 18.8416 22.7409 19.125 23.0826 19.125C23.4243 19.125 23.7076 18.8416 23.7076 18.5V14.4C24.0409 13.325 23.6993 12.075 22.6493 11.3833Z" fill="#6438D6"/>
</svg>
