<svg width="22" height="21" viewBox="0 0 22 21" fill="none" xmlns="http://www.w3.org/2000/svg">
<g clip-path="url(#clip0_1008_10791)">
<path d="M21.2632 10.4819C21.2632 4.95908 16.5032 0.481934 10.6316 0.481934C4.75992 0.481934 0 4.95908 0 10.4819C0 15.4731 3.88779 19.6103 8.9704 20.3605V13.3726H6.27097V10.4819H8.9704V8.27881C8.9704 5.77256 10.5577 4.38818 12.9861 4.38818C14.1489 4.38818 15.366 4.5835 15.366 4.5835V7.04443H14.0254C12.7047 7.04443 12.2928 7.81533 12.2928 8.60693V10.4819H15.2414L14.77 13.3726H12.2928V20.3605C17.3754 19.6103 21.2632 15.4731 21.2632 10.4819Z" fill="#6438D6"/>
</g>
<defs>
<clipPath id="clip0_1008_10791">
<rect width="21.2632" height="20" fill="white" transform="translate(0 0.482422)"/>
</clipPath>
</defs>
</svg>
