<svg width="180" height="22" viewBox="0 0 180 22" fill="none" xmlns="http://www.w3.org/2000/svg">
<path d="M175.415 14.8138C175.415 15.7286 175.064 16.4763 174.362 17.0571C173.66 17.6234 172.753 17.9065 171.642 17.9065C170.486 17.9065 169.492 17.5944 168.658 16.97C167.839 16.3457 167.312 15.4454 167.078 14.2693L169.206 13.9427C169.543 15.3656 170.311 16.0771 171.51 16.0771C171.993 16.0771 172.388 15.9536 172.695 15.7068C173.002 15.46 173.155 15.1405 173.155 14.7485C173.155 14.5743 173.112 14.4218 173.024 14.2911C172.951 14.1459 172.863 14.0298 172.761 13.9427C172.658 13.8555 172.497 13.7684 172.278 13.6813C172.058 13.5797 171.876 13.5071 171.729 13.4635C171.583 13.4199 171.371 13.3546 171.093 13.2675C170.961 13.2384 170.866 13.2167 170.808 13.2021C170.384 13.0715 170.033 12.9626 169.755 12.8755C169.477 12.7738 169.162 12.6286 168.811 12.4399C168.46 12.2511 168.175 12.0551 167.956 11.8518C167.751 11.6485 167.575 11.3799 167.429 11.046C167.283 10.712 167.21 10.3418 167.21 9.93522C167.21 9.02047 167.539 8.29449 168.197 7.75726C168.87 7.22003 169.769 6.95142 170.896 6.95142C173.251 6.95142 174.721 8.04765 175.306 10.2401L173.155 10.6757C172.848 9.41251 172.154 8.7809 171.071 8.7809C170.574 8.7809 170.179 8.8898 169.886 9.10759C169.594 9.32539 169.448 9.61578 169.448 9.97878C169.448 10.1821 169.499 10.3635 169.601 10.5233C169.704 10.683 169.864 10.8209 170.084 10.9371C170.303 11.0387 170.508 11.1258 170.698 11.1984C170.903 11.271 171.174 11.3581 171.51 11.4598C171.568 11.4743 171.649 11.4961 171.751 11.5251C172.073 11.6122 172.322 11.6848 172.497 11.7429C172.673 11.801 172.907 11.8881 173.199 12.0043C173.506 12.1204 173.741 12.2293 173.901 12.331C174.077 12.4326 174.274 12.5705 174.494 12.7448C174.713 12.919 174.881 13.1005 174.998 13.2893C175.115 13.478 175.21 13.7031 175.284 13.9644C175.371 14.2258 175.415 14.5089 175.415 14.8138Z" fill="#352E5B"/>
<path d="M163.659 9.28235V13.9432C163.659 14.6546 163.747 15.0975 163.923 15.2717C164.098 15.446 164.493 15.5331 165.107 15.5331H166.841V17.4279H164.471C163.477 17.4279 162.716 17.1956 162.189 16.731C161.677 16.2518 161.422 15.4024 161.422 14.1827V9.28235H159.557V7.40931H161.422V4.46907L163.659 4.22949V7.40931H166.841V9.28235H163.659Z" fill="#352E5B"/>
<path d="M151.694 13.0061C151.767 13.9354 152.052 14.6469 152.55 15.1405C153.047 15.6342 153.72 15.881 154.568 15.881C155.241 15.881 155.797 15.7141 156.235 15.3801C156.689 15.0462 156.974 14.5815 157.091 13.9862L159.263 14.3347C159.014 15.4237 158.466 16.2803 157.618 16.9047C156.784 17.529 155.767 17.8412 154.568 17.8412C152.959 17.8412 151.694 17.3548 150.772 16.382C149.866 15.4091 149.412 14.0733 149.412 12.3745C149.412 10.6902 149.851 9.36895 150.729 8.41065C151.606 7.43783 152.805 6.95142 154.327 6.95142C155.862 6.95142 157.069 7.43783 157.947 8.41065C158.824 9.38347 159.263 10.6612 159.263 12.2438V13.0061H151.694ZM151.738 11.438H156.981C156.981 10.6975 156.725 10.0877 156.213 9.60852C155.716 9.12937 155.087 8.8898 154.327 8.8898C153.595 8.8898 153.003 9.11485 152.55 9.56496C152.111 10.0006 151.84 10.6249 151.738 11.438Z" fill="#352E5B"/>
<path d="M139.87 2.46484H142.108V12.0914L146.606 7.4088H149.348L145.18 12.0261L149.348 17.4274H146.628L143.556 13.3764L142.108 14.8356V17.4274H139.87V2.46484Z" fill="#352E5B"/>
<path d="M132.676 7.4087H134.914L134.255 10.0005L134.914 10.24V17.4273H132.676V7.4087ZM137.766 9.39064C136.991 9.39064 136.318 9.6157 135.747 10.0658C135.192 10.5014 134.914 11.0677 134.914 11.7646L134.585 11.2201C134.585 10.0295 134.892 9.07847 135.506 8.367C136.135 7.65554 136.961 7.2998 137.985 7.2998H138.797V9.39064H137.766Z" fill="#352E5B"/>
<path d="M124.391 14.6395C124.391 15.046 124.552 15.351 124.873 15.5542C125.21 15.7575 125.649 15.8592 126.19 15.8592C126.936 15.8592 127.543 15.6486 128.011 15.2275C128.479 14.8065 128.713 14.2692 128.713 13.6159H129.108C129.108 14.8936 128.771 15.9172 128.098 16.6868C127.426 17.4563 126.541 17.8411 125.444 17.8411C124.493 17.8411 123.703 17.5725 123.074 17.0352C122.445 16.498 122.131 15.8083 122.131 14.9662C122.131 14.2112 122.358 13.6159 122.811 13.1803C123.279 12.7302 123.996 12.3672 124.961 12.0913L128.713 11.1112V12.6358L125.729 13.3981C124.837 13.6304 124.391 14.0442 124.391 14.6395ZM130.973 17.4273H128.713L129.371 14.8791L128.713 14.5959V10.8063C128.713 10.2545 128.523 9.8117 128.142 9.47774C127.762 9.14379 127.257 8.97681 126.629 8.97681C125.985 8.97681 125.458 9.17283 125.049 9.56486C124.654 9.94237 124.42 10.436 124.347 11.0459L122.131 10.7192C122.292 9.6302 122.774 8.73724 123.579 8.04029C124.383 7.34335 125.415 6.99487 126.672 6.99487C127.945 6.99487 128.976 7.34335 129.766 8.04029C130.57 8.72272 130.973 9.56486 130.973 10.5667V17.4273Z" fill="#352E5B"/>
<path d="M113.125 14.3129L117.82 3.18359H120.782V17.4274H118.632V6.5812L114.2 17.4274H111.479L107.135 6.5812V17.4274H104.897V3.18359H107.969L112.554 14.3129L112.818 15.2712L113.125 14.3129Z" fill="#352E5B"/>
<path d="M94.6926 14.1608L96.9085 7.40918H99.3438L95.0436 19.3008C94.795 19.9978 94.422 20.535 93.9247 20.9125C93.4274 21.3045 92.8789 21.5006 92.2792 21.5006H89.8219L89.8 19.4533H91.4016C91.7673 19.4533 92.0452 19.3734 92.2353 19.2137C92.4401 19.0685 92.601 18.7926 92.718 18.3861L92.9813 17.4278L89.2734 7.40918H91.6868L93.9247 14.1608L94.166 15.3805H94.4512L94.6926 14.1608Z" fill="#352E5B"/>
<path d="M85.9333 11.2854C85.9333 10.5449 85.7505 9.96415 85.3848 9.54308C85.0191 9.12201 84.4926 8.91147 83.8051 8.91147C83.1469 8.91147 82.635 9.13653 82.2693 9.58664C81.9183 10.0222 81.7428 10.603 81.7428 11.329H81.3479C81.3479 10.0077 81.655 8.95503 82.2693 8.17097C82.8983 7.3869 83.7613 6.99487 84.8583 6.99487C85.8529 6.99487 86.6573 7.37964 87.2716 8.14919C87.8859 8.91873 88.1931 9.88429 88.1931 11.0459V17.4273H85.9333V11.2854ZM79.4611 11.2854C79.4611 10.5595 79.2855 9.98593 78.9345 9.56486C78.5981 9.12927 78.1081 8.91147 77.4645 8.91147C76.7771 8.91147 76.2359 9.13653 75.841 9.58664C75.4461 10.0222 75.2486 10.603 75.2486 11.329H74.8976C74.8976 10.0222 75.1974 8.97681 75.7971 8.19275C76.4114 7.39416 77.2232 6.99487 78.2324 6.99487C78.9784 6.99487 79.6366 7.30705 80.207 7.93139C80.7921 8.54122 81.0846 9.25995 81.0846 10.0876V10.1965L81.7428 10.3707V17.4273H79.4611V11.2854ZM73.0107 7.40868H75.2486L74.6343 10.0222L75.2486 10.24V17.4273H73.0107V7.40868Z" fill="#352E5B"/>
<path d="M64.0835 13.0061C64.1566 13.9354 64.4419 14.6469 64.9392 15.1405C65.4365 15.6342 66.1093 15.881 66.9576 15.881C67.6304 15.881 68.1862 15.7141 68.625 15.3801C69.0785 15.0462 69.3637 14.5815 69.4807 13.9862L71.6527 14.3347C71.4041 15.4237 70.8556 16.2803 70.0073 16.9047C69.1735 17.529 68.157 17.8412 66.9576 17.8412C65.3487 17.8412 64.0835 17.3548 63.162 16.382C62.2552 15.4091 61.8018 14.0733 61.8018 12.3745C61.8018 10.6902 62.2406 9.36895 63.1181 8.41065C63.9957 7.43783 65.1951 6.95142 66.7163 6.95142C68.2521 6.95142 69.4588 7.43783 70.3364 8.41065C71.2139 9.38347 71.6527 10.6612 71.6527 12.2438V13.0061H64.0835ZM64.1274 11.438H69.371C69.371 10.6975 69.115 10.0877 68.6031 9.60852C68.1058 9.12937 67.4769 8.8898 66.7163 8.8898C65.985 8.8898 65.3926 9.11485 64.9392 9.56496C64.5004 10.0006 64.2298 10.6249 64.1274 11.438Z" fill="#352E5B"/>
<path d="M58.1818 11.1767C58.1818 10.4942 57.977 9.94975 57.5674 9.5432C57.1579 9.12213 56.624 8.91159 55.9658 8.91159C55.293 8.91159 54.7372 9.12939 54.2984 9.56498C53.8596 9.98605 53.6402 10.5378 53.6402 11.2202H53.2892C53.2892 10.0296 53.6256 9.02775 54.2984 8.21465C54.9858 7.40154 55.8634 6.99499 56.9312 6.99499C57.9258 6.99499 58.7595 7.37976 59.4323 8.14931C60.1051 8.90433 60.4416 9.83359 60.4416 10.9371V17.4274H58.1818V11.1767ZM53.6402 7.4088L53.0259 10.0223L53.6402 10.2401V17.4274H51.4023V2.46484H53.6402V7.4088Z" fill="#352E5B"/>
<path d="M50.021 10.8064L47.8929 11.1331C47.4833 9.63756 46.6057 8.8898 45.2601 8.8898C44.3971 8.8898 43.7243 9.19471 43.2416 9.80454C42.759 10.3998 42.5176 11.2565 42.5176 12.3745C42.5176 13.4925 42.759 14.3565 43.2416 14.9663C43.7243 15.5761 44.3971 15.881 45.2601 15.881C45.9622 15.881 46.5472 15.6705 47.0153 15.2494C47.498 14.8138 47.8051 14.2113 47.9368 13.4417L50.1088 13.7684C49.8601 15.0607 49.297 16.0625 48.4194 16.774C47.5418 17.4855 46.4887 17.8412 45.2601 17.8412C43.7389 17.8412 42.5249 17.362 41.6181 16.4037C40.7112 15.4454 40.2578 14.1024 40.2578 12.3745C40.2578 10.6612 40.7112 9.33265 41.6181 8.38887C42.5249 7.43057 43.7389 6.95142 45.2601 6.95142C46.3717 6.95142 47.3517 7.28537 48.2 7.95328C49.0484 8.62118 49.6554 9.57222 50.021 10.8064Z" fill="#352E5B"/>
<path d="M36.6494 2.46484H38.8873V17.4274H36.6494V2.46484Z" fill="#352E5B"/>
<path d="M25.5542 11.5469H32.3775V13.6378H25.5542V11.5469ZM28.538 6.21095L24.7205 17.4274H22.2852L27.1777 3.18359H30.6442L35.5807 17.4274H33.1893L29.3059 6.21095L29.0646 5.01308H28.7793L28.538 6.21095Z" fill="#352E5B"/>
<path d="M177.76 2.91561H177.371V0.5H177.76L178.685 2.11156L179.606 0.5H179.999V2.91561H179.606V1.23504L178.814 2.62919H178.557L177.76 1.23504V2.91561Z" fill="#352E5B"/>
<path d="M176.004 0.858891H175.146V0.5H177.252V0.858891H176.393V2.91561H176.004V0.858891Z" fill="#352E5B"/>
<path fill-rule="evenodd" clip-rule="evenodd" d="M7.27265 1.5389C7.45661 1.4519 7.66731 1.4519 8.08869 1.4519H8.37057C8.79196 1.4519 9.00265 1.4519 9.18661 1.5389C9.37057 1.62589 9.50425 1.78874 9.77162 2.11444L16.4593 10.2612C16.4593 10.2612 10.3942 10.1794 9.51517 7.59111C9.0964 6.45277 8.62095 3.97569 8.41317 2.58676C8.4043 2.52744 8.39986 2.49778 8.38462 2.47612C8.37395 2.46096 8.35987 2.44884 8.3433 2.44053C8.31963 2.42865 8.28963 2.42865 8.22963 2.42865C8.16963 2.42865 8.13964 2.42865 8.11596 2.44053C8.09939 2.44884 8.08532 2.46096 8.07465 2.47612C8.0594 2.49778 8.05496 2.52744 8.04609 2.58676C7.83831 3.97569 7.36286 6.45277 6.94409 7.59111C6.0651 10.1794 0 10.2612 0 10.2612L6.68764 2.11444C6.95501 1.78874 7.08869 1.62589 7.27265 1.5389ZM7.27265 20.4673C7.45661 20.5543 7.66731 20.5543 8.08869 20.5543H8.37057C8.79196 20.5543 9.00265 20.5543 9.18661 20.4673C9.37057 20.3803 9.50425 20.2175 9.77162 19.8918L16.4593 11.745C16.4593 11.745 10.3942 11.8269 9.51517 14.4151C9.0964 15.5535 8.62095 18.0305 8.41317 19.4195C8.4043 19.4788 8.39986 19.5085 8.38462 19.5301C8.37395 19.5453 8.35987 19.5574 8.3433 19.5657C8.31963 19.5776 8.28963 19.5776 8.22963 19.5776C8.16963 19.5776 8.13964 19.5776 8.11596 19.5657C8.09939 19.5574 8.08532 19.5453 8.07465 19.5301C8.0594 19.5085 8.05496 19.4788 8.04609 19.4195C7.83831 18.0305 7.36286 15.5535 6.94409 14.4151C6.0651 11.8269 0 11.745 0 11.745L6.68764 19.8918C6.95501 20.2175 7.08869 20.3803 7.27265 20.4673Z" fill="#352E5B"/>
<path fill-rule="evenodd" clip-rule="evenodd" d="M7.27265 1.5389C7.45661 1.4519 7.66731 1.4519 8.08869 1.4519H8.37057C8.79196 1.4519 9.00265 1.4519 9.18661 1.5389C9.37057 1.62589 9.50425 1.78874 9.77162 2.11444L16.4593 10.2612C16.4593 10.2612 10.3942 10.1794 9.51517 7.59111C9.0964 6.45277 8.62095 3.97569 8.41317 2.58676C8.4043 2.52744 8.39986 2.49778 8.38462 2.47612C8.37395 2.46096 8.35987 2.44884 8.3433 2.44053C8.31963 2.42865 8.28963 2.42865 8.22963 2.42865C8.16963 2.42865 8.13964 2.42865 8.11596 2.44053C8.09939 2.44884 8.08532 2.46096 8.07465 2.47612C8.0594 2.49778 8.05496 2.52744 8.04609 2.58676C7.83831 3.97569 7.36286 6.45277 6.94409 7.59111C6.0651 10.1794 0 10.2612 0 10.2612L6.68764 2.11444C6.95501 1.78874 7.08869 1.62589 7.27265 1.5389ZM7.27265 20.4673C7.45661 20.5543 7.66731 20.5543 8.08869 20.5543H8.37057C8.79196 20.5543 9.00265 20.5543 9.18661 20.4673C9.37057 20.3803 9.50425 20.2175 9.77162 19.8918L16.4593 11.745C16.4593 11.745 10.3942 11.8269 9.51517 14.4151C9.0964 15.5535 8.62095 18.0305 8.41317 19.4195C8.4043 19.4788 8.39986 19.5085 8.38462 19.5301C8.37395 19.5453 8.35987 19.5574 8.3433 19.5657C8.31963 19.5776 8.28963 19.5776 8.22963 19.5776C8.16963 19.5776 8.13964 19.5776 8.11596 19.5657C8.09939 19.5574 8.08532 19.5453 8.07465 19.5301C8.0594 19.5085 8.05496 19.4788 8.04609 19.4195C7.83831 18.0305 7.36286 15.5535 6.94409 14.4151C6.0651 11.8269 0 11.745 0 11.745L6.68764 19.8918C6.95501 20.2175 7.08869 20.3803 7.27265 20.4673Z" fill="url(#paint0_linear_1501_10837)"/>
<defs>
<linearGradient id="paint0_linear_1501_10837" x1="4.90355" y1="3.22267" x2="10.4363" y2="17.3319" gradientUnits="userSpaceOnUse">
<stop stop-color="#5C548B"/>
<stop offset="1" stop-color="#352E5B"/>
</linearGradient>
</defs>
</svg>
