<svg width="32" height="32" viewBox="0 0 32 32" fill="none" xmlns="http://www.w3.org/2000/svg">
<rect width="32" height="32" rx="5.12" fill="#FAFAFC"/>
<path opacity="0.4" d="M12.3748 23.425C12.3498 23.425 12.3165 23.4417 12.2915 23.4417C10.6748 22.6417 9.35814 21.3167 8.5498 19.7C8.5498 19.675 8.56647 19.6417 8.56647 19.6167C9.58314 19.9167 10.6331 20.1417 11.6748 20.3167C11.8581 21.3667 12.0748 22.4084 12.3748 23.425Z" fill="#6438D6"/>
<path opacity="0.4" d="M23.4502 19.7084C22.6252 21.3667 21.2502 22.7084 19.5752 23.5167C19.8919 22.4584 20.1585 21.3917 20.3335 20.3167C21.3835 20.1417 22.4169 19.9167 23.4335 19.6167C23.4252 19.65 23.4502 19.6834 23.4502 19.7084Z" fill="#6438D6"/>
<path opacity="0.4" d="M23.5169 12.4256C22.4669 12.1089 21.4085 11.8506 20.3335 11.6672C20.1585 10.5922 19.9002 9.52555 19.5752 8.48389C21.3002 9.30889 22.6919 10.7006 23.5169 12.4256Z" fill="#6438D6"/>
<path opacity="0.4" d="M12.3751 8.5748C12.0751 9.59147 11.8584 10.6248 11.6834 11.6748C10.6084 11.8415 9.54173 12.1081 8.4834 12.4248C9.29173 10.7498 10.6334 9.3748 12.2917 8.5498C12.3167 8.5498 12.3501 8.5748 12.3751 8.5748Z" fill="#6438D6"/>
<path d="M18.9085 11.4915C16.9751 11.2748 15.0251 11.2748 13.0918 11.4915C13.3001 10.3498 13.5668 9.20817 13.9418 8.10817C13.9585 8.0415 13.9501 7.9915 13.9585 7.92484C14.6168 7.7665 15.2918 7.6665 16.0001 7.6665C16.7001 7.6665 17.3835 7.7665 18.0335 7.92484C18.0418 7.9915 18.0418 8.0415 18.0585 8.10817C18.4335 9.2165 18.7001 10.3498 18.9085 11.4915Z" fill="#6438D6"/>
<path d="M11.492 18.9085C10.342 18.7001 9.20866 18.4335 8.10866 18.0585C8.04199 18.0418 7.99199 18.0501 7.92533 18.0418C7.76699 17.3835 7.66699 16.7085 7.66699 16.0001C7.66699 15.3001 7.76699 14.6168 7.92533 13.9668C7.99199 13.9585 8.04199 13.9585 8.10866 13.9418C9.21699 13.5751 10.342 13.3001 11.492 13.0918C11.2837 15.0251 11.2837 16.9751 11.492 18.9085Z" fill="#6438D6"/>
<path d="M24.3338 16.0001C24.3338 16.7085 24.2338 17.3835 24.0755 18.0418C24.0088 18.0501 23.9588 18.0418 23.8921 18.0585C22.7838 18.4251 21.6505 18.7001 20.5088 18.9085C20.7255 16.9751 20.7255 15.0251 20.5088 13.0918C21.6505 13.3001 22.7921 13.5668 23.8921 13.9418C23.9588 13.9585 24.0088 13.9668 24.0755 13.9668C24.2338 14.6251 24.3338 15.3001 24.3338 16.0001Z" fill="#6438D6"/>
<path d="M18.9085 20.5083C18.7001 21.6583 18.4335 22.7916 18.0585 23.8916C18.0418 23.9583 18.0418 24.0083 18.0335 24.075C17.3835 24.2333 16.7001 24.3333 16.0001 24.3333C15.2918 24.3333 14.6168 24.2333 13.9585 24.075C13.9501 24.0083 13.9585 23.9583 13.9418 23.8916C13.5751 22.7833 13.3001 21.6583 13.0918 20.5083C14.0585 20.6166 15.0251 20.6916 16.0001 20.6916C16.9751 20.6916 17.9501 20.6166 18.9085 20.5083Z" fill="#6438D6"/>
<path d="M19.1364 19.1359C17.0522 19.3989 14.9485 19.3989 12.8642 19.1359C12.6013 17.0517 12.6013 14.948 12.8642 12.8637C14.9485 12.6008 17.0522 12.6008 19.1364 12.8637C19.3994 14.948 19.3994 17.0517 19.1364 19.1359Z" fill="#6438D6"/>
</svg>
