<svg width="32" height="32" viewBox="0 0 32 32" fill="none" xmlns="http://www.w3.org/2000/svg">
<rect width="32" height="32" rx="5.12" fill="#FAFAFC"/>
<path d="M18.9325 8.4165C18.4325 7.9165 17.7075 7.6665 16.7742 7.6665H12.1242C10.2492 7.6665 9.21582 8.69984 9.21582 10.5748C9.21582 11.5082 9.46582 12.2332 9.96582 12.7332C10.4658 13.2332 11.1908 13.4832 12.1242 13.4832H16.7742C18.6492 13.4832 19.6825 12.4498 19.6825 10.5748C19.6825 9.6415 19.4325 8.9165 18.9325 8.4165Z" fill="#6438D6"/>
<path opacity="0.4" d="M14.8331 18.5161H14.0581C13.2664 18.5161 12.3164 18.8161 12.3164 20.2578V22.5828C12.3164 24.0244 13.2664 24.3244 14.0581 24.3244H14.8331C15.6247 24.3244 16.5747 24.0244 16.5747 22.5828V20.2578C16.5831 18.8244 15.6331 18.5161 14.8331 18.5161Z" fill="#6438D6"/>
<path opacity="0.4" d="M19.875 9.99072H19.6417C19.6667 10.1741 19.6833 10.3657 19.6833 10.5741C19.6833 10.7824 19.6667 10.9741 19.6417 11.1574H19.875C21.6167 11.1574 21.6167 11.3907 21.6167 12.8991V14.4491C21.6167 15.9574 21.6167 16.1907 19.875 16.1907H16.775C14.2833 16.1907 13.925 17.3741 13.875 18.5241C13.9333 18.5241 14 18.5157 14.0583 18.5157H14.8333C14.9 18.5157 14.9667 18.5241 15.0417 18.5241C15.0833 17.6824 15.325 17.3491 16.775 17.3491H19.875C22.5833 17.3491 22.7833 16.2491 22.7833 14.4407V12.8991C22.7833 11.0907 22.5833 9.99072 19.875 9.99072Z" fill="#6438D6"/>
</svg>
