<svg width="32" height="32" viewBox="0 0 32 32" fill="none" xmlns="http://www.w3.org/2000/svg">
<rect width="32" height="32" rx="5.12" fill="#FAFAFC"/>
<path opacity="0.4" d="M21 23.0841H20.1667V22.8758C20.1667 21.9591 19.4167 21.2091 18.5 21.2091H16.625V19.3008C16.4167 19.3258 16.2083 19.3341 16 19.3341C15.7917 19.3341 15.5833 19.3258 15.375 19.3008V21.2091H13.5C12.5833 21.2091 11.8333 21.9591 11.8333 22.8758V23.0841H11C10.6583 23.0841 10.375 23.3674 10.375 23.7091C10.375 24.0508 10.6583 24.3341 11 24.3341H21C21.3417 24.3341 21.625 24.0508 21.625 23.7091C21.625 23.3674 21.3417 23.0841 21 23.0841Z" fill="#6438D6"/>
<path opacity="0.4" d="M10.5994 15.6998C10.0494 15.4915 9.56608 15.1498 9.18275 14.7665C8.40775 13.9082 7.89941 12.8832 7.89941 11.6832C7.89941 10.4832 8.84108 9.5415 10.0411 9.5415H10.5077C10.2911 9.98317 10.1661 10.4748 10.1661 10.9998V13.4998C10.1661 14.2832 10.3161 15.0248 10.5994 15.6998Z" fill="#6438D6"/>
<path opacity="0.4" d="M24.1004 11.6837C24.1004 12.8837 23.5921 13.9087 22.8171 14.767C22.4337 15.1503 21.9504 15.492 21.4004 15.7003C21.6837 15.0253 21.8337 14.2837 21.8337 13.5003V11.0003C21.8337 10.4753 21.7087 9.98366 21.4921 9.54199H21.9587C23.1587 9.54199 24.1004 10.4837 24.1004 11.6837Z" fill="#6438D6"/>
<path d="M18.5003 7.66699H13.5003C11.6587 7.66699 10.167 9.15866 10.167 11.0003V13.5003C10.167 16.7253 12.7753 19.3337 16.0003 19.3337C19.2253 19.3337 21.8337 16.7253 21.8337 13.5003V11.0003C21.8337 9.15866 20.342 7.66699 18.5003 7.66699ZM18.367 13.042L17.8503 13.6753C17.767 13.767 17.7087 13.9503 17.717 14.0753L17.767 14.892C17.8003 15.392 17.442 15.6503 16.9753 15.467L16.217 15.167C16.1003 15.1253 15.9003 15.1253 15.7837 15.167L15.0253 15.467C14.5587 15.6503 14.2003 15.392 14.2337 14.892L14.2837 14.0753C14.292 13.9503 14.2337 13.767 14.1503 13.6753L13.6337 13.042C13.3087 12.6587 13.4503 12.2337 13.9337 12.1087L14.7253 11.9087C14.8503 11.8753 15.0003 11.7587 15.067 11.6503L15.5087 10.967C15.7837 10.542 16.217 10.542 16.492 10.967L16.9337 11.6503C17.0003 11.7587 17.1503 11.8753 17.2753 11.9087L18.067 12.1087C18.5503 12.2337 18.692 12.6587 18.367 13.042Z" fill="#6438D6"/>
<path opacity="0.4" d="M18.3668 13.0422L17.8501 13.6755C17.7668 13.7672 17.7084 13.9505 17.7168 14.0755L17.7668 14.8922C17.8001 15.3922 17.4418 15.6505 16.9751 15.4672L16.2168 15.1672C16.1001 15.1255 15.9001 15.1255 15.7834 15.1672L15.0251 15.4672C14.5584 15.6505 14.2001 15.3922 14.2334 14.8922L14.2834 14.0755C14.2918 13.9505 14.2334 13.7672 14.1501 13.6755L13.6334 13.0422C13.3084 12.6589 13.4501 12.2339 13.9334 12.1089L14.7251 11.9089C14.8501 11.8755 15.0001 11.7589 15.0668 11.6505L15.5084 10.9672C15.7834 10.5422 16.2168 10.5422 16.4918 10.9672L16.9334 11.6505C17.0001 11.7589 17.1501 11.8755 17.2751 11.9089L18.0668 12.1089C18.5501 12.2339 18.6918 12.6589 18.3668 13.0422Z" fill="#6438D6"/>
</svg>
