<svg width="21" height="21" viewBox="0 0 21 21" fill="none" xmlns="http://www.w3.org/2000/svg">
<g clip-path="url(#clip0_1008_10792)">
<path d="M6.77715 18.6075C14.3225 18.6075 18.4506 12.3548 18.4506 6.9341C18.4506 6.75831 18.4467 6.57863 18.4389 6.40284C19.2419 5.8221 19.9349 5.10276 20.4854 4.27863C19.7375 4.61138 18.9434 4.8287 18.1303 4.92316C18.9864 4.40997 19.6275 3.60377 19.9346 2.65402C19.1291 3.13134 18.2483 3.46805 17.3299 3.64972C16.7111 2.99218 15.8928 2.55681 15.0018 2.41092C14.1107 2.26503 13.1963 2.41675 12.4001 2.84262C11.6039 3.2685 10.9702 3.9448 10.5969 4.76697C10.2236 5.58914 10.1315 6.51139 10.335 7.39113C8.7041 7.30929 7.10863 6.88563 5.652 6.14763C4.19537 5.40962 2.9101 4.37374 1.87949 3.10714C1.35568 4.01025 1.1954 5.07892 1.43121 6.09595C1.66702 7.11299 2.28124 8.00208 3.14902 8.58253C2.49754 8.56185 1.86033 8.38645 1.29004 8.07081V8.12159C1.28946 9.06934 1.6171 9.98803 2.21728 10.7215C2.81745 11.455 3.65312 11.958 4.58223 12.145C3.97873 12.3102 3.34534 12.3342 2.73106 12.2153C2.99323 13.0304 3.50333 13.7433 4.19016 14.2545C4.87699 14.7657 5.70629 15.0497 6.56231 15.0669C5.10904 16.2085 3.31383 16.8277 1.46582 16.8247C1.13809 16.8242 0.810684 16.8041 0.485352 16.7646C2.36273 17.969 4.54663 18.6087 6.77715 18.6075Z" fill="#6438D6"/>
</g>
<defs>
<clipPath id="clip0_1008_10792">
<rect width="20" height="20" fill="white" transform="translate(0.485352 0.482422)"/>
</clipPath>
</defs>
</svg>
